<svg xmlns="http://www.w3.org/2000/svg" viewBox="0 0 544.91 104.18"><defs><style>.cls-1{fill:#fff;}</style></defs><g id="Layer_2" data-name="Layer 2"><g id="Layer_1-2" data-name="Layer 1"><path class="cls-1" d="M544.91,104.18H0V0H544.91ZM111.49,67.09c.56,1.1,1.17,2.18,1.69,3.3,2.2,4.72,5.21,8.76,10.15,10.87a11.53,11.53,0,0,0,12.94-2.09c3.53-3.14,3.92-7.19,2.48-11.45a11.47,11.47,0,0,0-1.9-2.69c-.67.78-1.38,1.54-2,2.35-.33.42-.53,1-.84,1.39-2,2.89-4.37,3.3-6.31.42a35.08,35.08,0,0,1-5-10.35c-2.21-8.44-1.19-17.07-.39-25.63a105.53,105.53,0,0,0,.91-11.61A10.49,10.49,0,0,0,121,16.06c-.56-.75-2.61-1-3.68-.6-.82.29-1.33,1.85-1.68,2.94-.48,1.53-.56,3.18-1,4.72-3.28,11-5.49,22.13-4.63,33.66.25,3.49,1,6.93,1.59,10.41a6.72,6.72,0,0,0-2,1.43c-1.24,1.88-2.16,4-3.47,5.8S103,78,101.48,79.79l-1.12-.25c-.93-3.72-2.16-7.39-2.75-11.17-1.85-12-.81-24,.1-36a46.17,46.17,0,0,0,.18-6.75c-.15-2.12-.76-4.24-3.39-4.59s-3.62,1.59-4.25,3.67C85.6,40,83.68,55.46,85.62,71.3c.61,5,2,9.77,5.26,13.76,4.35,5.3,10.76,5.43,15.2.22S111.48,73.69,111.49,67.09ZM236.63,42.92l.8.28c.21,4.41.34,8.83.65,13.24.42,6.15,1.19,12.27,4,17.88,1.72,3.48,4.74,5.21,7.27,4.55s3.69-2.79,3.55-7.15c-.29-9.58-.51-19.16-1.22-28.71a41.76,41.76,0,0,0-2.75-12.35c-2.7-6.78-9.69-8-15-3.07A23.16,23.16,0,0,0,230,32.12c-2.82,4.53-5.44,9.17-8.13,13.77-.43.73-.79,1.51-1.55,3-.1-1.7-.17-2.56-.2-3.42-.23-7.68-.36-15.37-.73-23a43.62,43.62,0,0,0-1.33-8.81c-.71-2.69-2.83-3.92-5.09-3.45-2.65.55-3.16,2.47-3.26,4.88-.27,6.68-.69,13.36-1.16,20,0,.67-.78,1.78-1.32,1.87-5.91.88-11.83,1.59-18.17,2.41,0-1.34,0-2.31,0-3.27.07-5.61.27-11.22.14-16.82a23.18,23.18,0,0,0-1.33-6.82,3.44,3.44,0,0,0-2.7-1.78c-.89,0-2,1.11-2.54,2a10.21,10.21,0,0,0-1.14,3.59c-1.31,7.47-2.54,15-3.88,22.43-.17.91-.71,2.29-1.37,2.49A48.06,48.06,0,0,1,168,42.83c-3.12.34-5,1.53-5.4,3.94s1.16,4.6,3.94,5.44a26.55,26.55,0,0,0,5.35.77c1.42.12,2.86,0,4.6,0,0,2.32,0,4.38,0,6.43.18,7.9.89,15.73,4.24,23,2.48,5.4,6,10,11.84,12.07,4.5,1.6,9.18.52,11.57-3.46,2-3.41,3.1-7.42,4.5-11.2.16-.45-.23-1.11-.49-2.16-1.06.9-1.81,1.49-2.51,2.13-1.46,1.35-2.88,2.76-4.36,4.08-1.9,1.71-3.67,1.41-5-.64a23.18,23.18,0,0,1-2.45-4.51c-3.21-8.3-3.94-17-4.33-25.81,0-.65,1.06-1.73,1.83-2,5-1.49,10.13-2.81,15.21-4.16a7.2,7.2,0,0,1,1.39-.09c0,1.14,0,2.12,0,3.11-.11,4.15-.42,8.32-.28,12.46a50,50,0,0,0,1.29,9.91c.83,3.44,3,6,6.83,6.51s6.61-1.56,8.38-4.81a41.35,41.35,0,0,0,2.57-6c1.71-4.77,3.15-9.63,5-14.35C233.11,50,235,46.49,236.63,42.92ZM61.72,80.05c.1,1.36.15,2.6.31,3.82.37,2.78.63,5.58,1.26,8.29a4.11,4.11,0,0,0,4.13,3.34c2.19.06,3.55-1.25,4.29-3.16a17.12,17.12,0,0,0,.9-3.67,165,165,0,0,0,.72-42.47,57.92,57.92,0,0,0-3.81-15.68c-3.64-8.7-11.7-10.86-19.74-5.85C43.09,28.84,38.61,34.91,35.46,42a8.85,8.85,0,0,0-.65,3.42,4.85,4.85,0,0,0,3.43,5,5,5,0,0,0,5.83-1.83c.83-1.06,1.31-2.4,2.17-3.43C49.11,41.72,52,38.29,55.06,35a3.9,3.9,0,0,1,2.59-.76,19.78,19.78,0,0,1,2.19,5.39c.15.71-.93,2-1.75,2.52A61,61,0,0,0,36.66,67.92a20.74,20.74,0,0,0-1.85,11.9c.93,5.71,5.46,9.81,10.87,9.27a17.06,17.06,0,0,0,6.83-2.35C55.66,84.85,58.5,82.43,61.72,80.05ZM512.79,48.31c-.36,2.13-.09,4.23-1,5.39a47.16,47.16,0,0,1-16,13.24c-4.91,2.4-9.49,1.67-13.62-2-3.19-2.79-4.91-6.41-6.34-10.27-.91-2.46-.7-3.89,1.93-5.36,6.91-3.86,11.82-9.55,13.54-17.47,1.91-8.82-4.51-14.81-13.24-12.5A20.65,20.65,0,0,0,466,28.46a34.19,34.19,0,0,0-5.27,15.23c-.54,4.52-.61,4.55-5.17,4.06-.62-.07-1.24-.3-1.86-.32a22.37,22.37,0,0,0-2.31.14,7.16,7.16,0,0,0,.37,2.51c1.52,2.64,4.09,3.79,7,4.2a2.54,2.54,0,0,1,2.54,2.49,35.36,35.36,0,0,0,6.27,15.44c4.94,6.66,11.2,11.31,19.77,12.11,14.25,1.32,30.74-12,32.22-26.24a14,14,0,0,0-1-6.3A5.27,5.27,0,0,0,512.79,48.31ZM369.63,67.16A39.21,39.21,0,0,1,366,72a31.31,31.31,0,0,1-6,4.88c-2.05,1.2-4.16.5-5.26-1.75-1.23-2.5-2.79-5-3.26-7.69-1.33-7.64-3-15.35-3-23,0-11,1.29-22,2-33,.15-2.19,0-4.32-2.34-5.26s-4.39.31-5.52,2.29a48.65,48.65,0,0,0-4.31,9,108.69,108.69,0,0,0-5.11,41.2,93.61,93.61,0,0,0,3.57,18.53,19.79,19.79,0,0,0,8.75,11.42,16.62,16.62,0,0,0,19.54-1.36C370.29,82.79,372.58,73.67,369.63,67.16Zm63.71-11.39-.68,0c-1.44-4.35-2.74-8.76-4.35-13-2-5.33-4.1-10.63-6.52-15.77a12.79,12.79,0,0,0-4.33-4.69,4.69,4.69,0,0,0-6.25.63c-1.7,1.69-1.63,3.62-.51,5.71a23.62,23.62,0,0,1,1.77,4.54c2.56,8.58,4.89,17.23,7.67,25.73a47.75,47.75,0,0,0,5.33,11.5c3.9,5.9,10.91,6.11,15.41.65a29.25,29.25,0,0,0,4.53-8,110.48,110.48,0,0,0,7.13-38.19,20.47,20.47,0,0,0-.79-5.6,4.65,4.65,0,0,0-4.25-3.66,4.51,4.51,0,0,0-4.86,2.77,42.72,42.72,0,0,0-2.88,7.87c-1.62,7.32-2.9,14.72-4.42,22.07C434.82,50.81,434,53.28,433.34,55.77Zm-28.78-7.32c.13-13.22-5.14-21.25-16.56-25.95a4.26,4.26,0,0,0-3.7.44c-5.92,5.42-11,11.53-13.68,19.24a31.23,31.23,0,0,0-1.69,16.24c1.42,7.78,7,13.7,14,14.78s13.8-2.57,17.6-9.66A34.09,34.09,0,0,0,404.56,48.45Zm-133.85,8.9c3.2-3.18,6.52-5.9,9.08-9.2,3.5-4.51,5.07-9.78,3.53-15.55C281.9,27.28,277.39,24.67,272,26c-3.81.93-6.57,3.38-8.81,6.43a31.65,31.65,0,0,0-5.82,17.22c-.13,2-.74,4.07-1,6.12a2.71,2.71,0,0,0,.41,1.47c.61,1.25,1.28,2.47,1.93,3.7,1.93,3.65,3.33,7.72,5.88,10.85,6,7.32,15.35,8.91,23.9,4.63,9.15-4.59,12.3-13.85,11.7-22.38,0-.46-.51-1.25-.75-1.24a2.11,2.11,0,0,0-1.48.76c-1.08,1.56-2,3.21-3,4.81a16.64,16.64,0,0,1-8.83,6.87C278.68,67.81,272.61,64.53,270.71,57.35Z"/><path d="M236.63,42.92c-1.67,3.57-3.52,7.06-4.95,10.72-1.83,4.72-3.27,9.58-5,14.35a41.35,41.35,0,0,1-2.57,6c-1.77,3.25-4.43,5.31-8.38,4.81s-6-3.07-6.83-6.51a50,50,0,0,1-1.29-9.91c-.14-4.14.17-8.31.28-12.46,0-1,0-2,0-3.11a7.2,7.2,0,0,0-1.39.09c-5.08,1.35-10.17,2.67-15.21,4.16-.77.23-1.86,1.31-1.83,2,.39,8.77,1.12,17.51,4.33,25.81a23.18,23.18,0,0,0,2.45,4.51c1.36,2,3.13,2.35,5,.64,1.48-1.32,2.9-2.73,4.36-4.08.7-.64,1.45-1.23,2.51-2.13.26,1,.65,1.71.49,2.16-1.4,3.78-2.46,7.79-4.5,11.2-2.39,4-7.07,5.06-11.57,3.46-5.88-2.11-9.36-6.67-11.84-12.07-3.35-7.31-4.06-15.14-4.24-23,0-2,0-4.11,0-6.43-1.74,0-3.18.09-4.6,0a26.55,26.55,0,0,1-5.35-.77c-2.78-.84-4.29-3.12-3.94-5.44s2.28-3.6,5.4-3.94a48.06,48.06,0,0,0,8.23-1.68c.66-.2,1.2-1.58,1.37-2.49,1.34-7.47,2.57-15,3.88-22.43a10.21,10.21,0,0,1,1.14-3.59c.55-.89,1.65-2,2.54-2a3.44,3.44,0,0,1,2.7,1.78,23.18,23.18,0,0,1,1.33,6.82c.13,5.6-.07,11.21-.14,16.82,0,1,0,1.93,0,3.27,6.34-.82,12.26-1.53,18.17-2.41.54-.09,1.28-1.2,1.32-1.87.47-6.67.89-13.35,1.16-20,.1-2.41.61-4.33,3.26-4.88,2.26-.47,4.38.76,5.09,3.45a43.62,43.62,0,0,1,1.33,8.81c.37,7.67.5,15.36.73,23,0,.86.1,1.72.2,3.42.76-1.46,1.12-2.24,1.55-3,2.69-4.6,5.31-9.24,8.13-13.77a23.16,23.16,0,0,1,3.87-4.53c5.34-5,12.33-3.71,15,3.07A41.76,41.76,0,0,1,251.65,43c.71,9.55.93,19.13,1.22,28.71.14,4.36-1.07,6.51-3.55,7.15s-5.55-1.07-7.27-4.55c-2.78-5.61-3.55-11.73-4-17.88-.31-4.41-.44-8.83-.65-13.24Z"/><path d="M61.72,80.05c-3.22,2.38-6.06,4.8-9.21,6.69a17.06,17.06,0,0,1-6.83,2.35c-5.41.54-9.94-3.56-10.87-9.27a20.74,20.74,0,0,1,1.85-11.9A61,61,0,0,1,58.09,42.14c.82-.57,1.9-1.81,1.75-2.52a19.78,19.78,0,0,0-2.19-5.39,3.9,3.9,0,0,0-2.59.76c-3,3.3-6,6.73-8.82,10.18-.86,1-1.34,2.37-2.17,3.43a5,5,0,0,1-5.83,1.83,4.85,4.85,0,0,1-3.43-5A8.85,8.85,0,0,1,35.46,42c3.15-7.09,7.63-13.16,14.32-17.33,8-5,16.1-2.85,19.74,5.85A57.92,57.92,0,0,1,73.33,46.2a165,165,0,0,1-.72,42.47,17.12,17.12,0,0,1-.9,3.67c-.74,1.91-2.1,3.22-4.29,3.16a4.11,4.11,0,0,1-4.13-3.34c-.63-2.71-.89-5.51-1.26-8.29C61.87,82.65,61.82,81.41,61.72,80.05Zm-.34-26.32-.78-.15c-5.66,6.64-10.84,13.54-12.23,22.75A125.85,125.85,0,0,0,60.69,69.1a2,2,0,0,0,.66-1.4C61.4,63.05,61.38,58.39,61.38,53.73Z"/><path d="M512.79,48.31a5.27,5.27,0,0,1,5.72,3.47,14,14,0,0,1,1,6.3c-1.48,14.2-18,27.56-32.22,26.24-8.57-.8-14.83-5.45-19.77-12.11a35.36,35.36,0,0,1-6.27-15.44,2.54,2.54,0,0,0-2.54-2.49c-2.87-.41-5.44-1.56-7-4.2a7.16,7.16,0,0,1-.37-2.51,22.37,22.37,0,0,1,2.31-.14c.62,0,1.24.25,1.86.32,4.56.49,4.63.46,5.17-4.06A34.19,34.19,0,0,1,466,28.46a20.65,20.65,0,0,1,12.12-9.07c8.73-2.31,15.15,3.68,13.24,12.5-1.72,7.92-6.63,13.61-13.54,17.47-2.63,1.47-2.84,2.9-1.93,5.36,1.43,3.86,3.15,7.48,6.34,10.27,4.13,3.62,8.71,4.35,13.62,2a47.16,47.16,0,0,0,16-13.24C512.7,52.54,512.43,50.44,512.79,48.31Zm-29.9-20c-4.56.13-9,7.25-7.92,12.79C480.08,38.39,483.81,32.37,482.89,28.32Z"/><path d="M369.63,67.16c2.95,6.51.66,15.63-4.46,20.1a16.62,16.62,0,0,1-19.54,1.36,19.79,19.79,0,0,1-8.75-11.42,93.61,93.61,0,0,1-3.57-18.53,108.69,108.69,0,0,1,5.11-41.2,48.65,48.65,0,0,1,4.31-9c1.13-2,3.06-3.26,5.52-2.29s2.49,3.07,2.34,5.26c-.76,11-2.07,22-2,33,0,7.69,1.68,15.4,3,23,.47,2.67,2,5.19,3.26,7.69,1.1,2.25,3.21,3,5.26,1.75A31.31,31.31,0,0,0,366,72,39.21,39.21,0,0,0,369.63,67.16Z"/><path d="M433.34,55.77c.68-2.49,1.48-5,2-7.48,1.52-7.35,2.8-14.75,4.42-22.07a42.72,42.72,0,0,1,2.88-7.87,4.51,4.51,0,0,1,4.86-2.77,4.65,4.65,0,0,1,4.25,3.66,20.47,20.47,0,0,1,.79,5.6A110.48,110.48,0,0,1,445.41,63a29.25,29.25,0,0,1-4.53,8c-4.5,5.46-11.51,5.25-15.41-.65a47.75,47.75,0,0,1-5.33-11.5c-2.78-8.5-5.11-17.15-7.67-25.73a23.62,23.62,0,0,0-1.77-4.54c-1.12-2.09-1.19-4,.51-5.71a4.69,4.69,0,0,1,6.25-.63,12.79,12.79,0,0,1,4.33,4.69c2.42,5.14,4.51,10.44,6.52,15.77,1.61,4.29,2.91,8.7,4.35,13Z"/><path d="M404.56,48.45a34.09,34.09,0,0,1-4,15.09c-3.8,7.09-10.53,10.75-17.6,9.66s-12.58-7-14-14.78a31.23,31.23,0,0,1,1.69-16.24c2.71-7.71,7.76-13.82,13.68-19.24a4.26,4.26,0,0,1,3.7-.44C399.42,27.2,404.69,35.23,404.56,48.45ZM389.19,32.86H388c-1.35,4.72-3,9.38-3.94,14.18a24.24,24.24,0,0,0,.25,8c.15,1,1.38,1.9,2.12,2.85.88-.69,2.07-1.21,2.6-2.11a23,23,0,0,0,2.47-18.46A24.21,24.21,0,0,0,389.19,32.86Z"/><path d="M270.71,57.35c1.9,7.18,8,10.46,15.39,7.88a16.64,16.64,0,0,0,8.83-6.87c1-1.6,1.95-3.25,3-4.81a2.11,2.11,0,0,1,1.48-.76c.24,0,.72.78.75,1.24.6,8.53-2.55,17.79-11.7,22.38-8.55,4.28-17.92,2.69-23.9-4.63-2.55-3.13-3.95-7.2-5.88-10.85-.65-1.23-1.32-2.45-1.93-3.7a2.71,2.71,0,0,1-.41-1.47c.29-2,.9-4.07,1-6.12a31.65,31.65,0,0,1,5.82-17.22c2.24-3.05,5-5.5,8.81-6.43,5.36-1.32,9.87,1.29,11.29,6.61,1.54,5.77,0,11-3.53,15.55C277.23,51.45,273.91,54.17,270.71,57.35Zm-1.79-7.59c4.4-3.89,7.32-7.78,7.37-13.21a7.48,7.48,0,0,0-.88-2.42c-.85.38-2,.54-2.52,1.19C269.57,39.32,268.72,44,268.92,49.76Z"/><path d="M111.57,67.18c-.54-3.47-1.33-6.91-1.58-10.4-.86-11.53,1.35-22.67,4.63-33.66.46-1.54.54-3.19,1-4.72.35-1.09.86-2.65,1.68-2.94,1.07-.38,3.12-.15,3.68.6a10.49,10.49,0,0,1,2.22,5.54,105.53,105.53,0,0,1-.91,11.61c-.8,8.56-1.82,17.19.39,25.63a35.08,35.08,0,0,0,5,10.35c1.94,2.88,4.3,2.47,6.31-.42.31-.44.51-1,.84-1.39.64-.81,1.35-1.57,2-2.35a11.47,11.47,0,0,1,1.9,2.69c1.44,4.26,1.05,8.31-2.48,11.45a11.53,11.53,0,0,1-12.94,2.09c-4.94-2.11-8-6.15-10.15-10.87-.52-1.12-1.13-2.2-1.69-3.3Z"/><path d="M111.49,67.09c0,6.6-.95,13-5.41,18.19s-10.85,5.08-15.2-.22c-3.28-4-4.65-8.79-5.26-13.76-1.94-15.84,0-31.34,4.63-46.56.63-2.08,1.55-4,4.25-3.67s3.24,2.47,3.39,4.59a46.17,46.17,0,0,1-.18,6.75c-.91,12-1.95,24-.1,36,.59,3.78,1.82,7.45,2.75,11.17l1.12.25c1.56-1.78,3.26-3.46,4.65-5.37s2.23-3.92,3.47-5.8c.42-.64,1.3-1,2-1.44Z"/><path class="cls-1" d="M61.38,53.73c0,4.66,0,9.32,0,14a2,2,0,0,1-.66,1.4,125.85,125.85,0,0,1-12.32,7.23c1.39-9.21,6.57-16.11,12.23-22.75Z"/><path class="cls-1" d="M482.89,28.32c.92,4-2.81,10.07-7.92,12.79C473.92,35.57,478.33,28.45,482.89,28.32Z"/><path class="cls-1" d="M389.19,32.86a24.21,24.21,0,0,1,2.29,4.47A23,23,0,0,1,389,55.79c-.53.9-1.72,1.42-2.6,2.11-.74-.95-2-1.82-2.12-2.85a24.24,24.24,0,0,1-.25-8c1-4.8,2.59-9.46,3.94-14.18Z"/><path class="cls-1" d="M268.92,49.76c-.2-5.72.65-10.44,4-14.44.54-.65,1.67-.81,2.52-1.19a7.48,7.48,0,0,1,.88,2.42C276.24,42,273.32,45.87,268.92,49.76Z"/></g></g></svg>