<svg xmlns="http://www.w3.org/2000/svg" viewBox="0 0 287.81 105.64"><defs><style>.cls-1{fill:#fff;}</style></defs><g id="Layer_2" data-name="Layer 2"><g id="Layer_1-2" data-name="Layer 1"><path class="cls-1" d="M236.61,55.19C234.22,56.6,232.2,58,230.05,59c-5.51,2.76-11,5.58-16.65,8-3.14,1.34-4.16.36-3.78-3.13A16.28,16.28,0,0,1,211,58.39c2.65-5.26,5.54-10.4,8.37-15.56,1-1.75,2.18-3.36,3-5.17s.95-3.81-.88-5.19-3.7-.78-5.18.66c-3.38,3.28-6.72,6.61-10,10a68.05,68.05,0,0,0-4.2,5.57c-.11-1.13-.18-1.72-.23-2.32-.53-5.88-.88-11.78-1.65-17.62a14.21,14.21,0,0,0-2.5-6.49,7,7,0,0,0-4.87-2.1c-2,0-3.27,1.75-3.66,3.81a20.89,20.89,0,0,0-.48,3.5c-.19,14.17-.53,28.34-.4,42.51,0,4.66,1.11,9.36,2.13,13.95.82,3.64,3.12,5.38,5.73,5.19s4.37-2.15,5.07-5.9c.36-1.92.62-3.87,1-6.1,5.45,3.07,10.26,1.4,15-1.09a46.67,46.67,0,0,0,15.68-13.27c.37-.5.83-.93,1.46-1.63.63,9.63,5.6,16.22,14,19,9.09,3,17-3.78,15.34-13.19-.78-4.58-3.37-8.19-6.39-11.51-2.38-2.62-5-5-7.31-7.7-3.15-3.63-2.81-5.4,1.6-7.44,2.35-1.09,5.11-1.31,7.47-2.39,1.38-.62,3.1-2.08,3.27-3.34s-1.16-3-2.23-4.18a6,6,0,0,0-3.23-1.25c-5-.93-9.55.56-13.68,3.3-7.14,4.74-8.37,12.34-2.93,19,2.23,2.72,5.09,4.91,7.53,7.48a64.7,64.7,0,0,1,5.78,6.82c1.11,1.55,1.88,3.89.13,5.2a6.54,6.54,0,0,1-5,.54C241.42,69.39,237.05,63.5,236.61,55.19Z"/><path class="cls-1" d="M64.85,67.54l-.62-.22c0-1,0-1.95,0-2.93,0-9.9,0-19.8-.21-29.7a23.19,23.19,0,0,0-1.08-6.39,4.69,4.69,0,0,0-8.88.2,15.23,15.23,0,0,0-.86,4.24c-.4,16.61-.77,33.22-1,49.83a20,20,0,0,0,1.35,6.61A5.52,5.52,0,0,0,58.73,93a5.6,5.6,0,0,0,5.49-3.34c.75-1.45,1.28-3,2-4.48Q73.32,70,80.47,54.93a21.33,21.33,0,0,1,1.67-2.5l.74.26c0,2.26-.11,4.52,0,6.77.35,5.8.67,11.6,1.31,17.37a14.24,14.24,0,0,0,2.18,6,4.48,4.48,0,0,0,3.83,1.54c.89-.18,2-2.08,2-3.28.45-6.34.88-12.7.81-19A134.33,134.33,0,0,0,91.8,45.59c-.43-3.14-2.13-5.87-5.65-6.61s-6.19,1.19-8,4c-2.55,4-4.92,8-7.15,12.19S66.89,63.41,64.85,67.54Z"/><path class="cls-1" d="M29.34,36.37c-.19,1.85-.31,3.28-.49,4.71C27.22,54.52,25.64,68,26.37,81.55a31.55,31.55,0,0,0,1.21,6.94c.26.93,1.43,1.61,2.18,2.4.74-.78,1.8-1.45,2.13-2.38A22.76,22.76,0,0,0,33,83.2c1.66-16.36,3.23-32.72,5-49.07a5.94,5.94,0,0,1,2.12-3.66c6.81-5.14,13.8-10,20.62-15.16a39.61,39.61,0,0,0,5.66-5.48c1.76-2,2.33-4.35.78-6.77C65.78,1,63.14.34,60.27,1.59a63.14,63.14,0,0,0-8.22,4.23A316.4,316.4,0,0,1,11.76,27.45a55.77,55.77,0,0,0-8.85,5.31C.68,34.29-.6,36.49.28,39.35c.71,2.28,3.25,3.83,6.47,3.43a74.59,74.59,0,0,0,11.18-2.27C21.66,39.45,25.25,37.88,29.34,36.37Z"/><path class="cls-1" d="M124,81.82a20.24,20.24,0,0,0,1.23,4.3c.54,1,1.63,2.24,2.59,2.35a4.27,4.27,0,0,0,3.08-1.67,9.48,9.48,0,0,0,1.79-3.92c2.1-10.15,3.82-20.34,3.08-30.79-.08-1.15.69-2.34.72-3.51a9.4,9.4,0,0,0-.58-4.15c-.79-1.62-2.35-2.86-3.2-4.47-4-7.63-11.78-9.78-18.72-4.69a37.62,37.62,0,0,0-7.29,7.61,5.22,5.22,0,0,0-.6,4.62c1,1.91,3.07.75,4.62.08,2.49-1.08,4.89-2.38,7.4-3.43,1.32-.55,2.61-.53,3.47,1.08s-.13,2.27-1.18,3.09a40.7,40.7,0,0,0-13.6,19,18.68,18.68,0,0,0-.88,11c1.76,6.91,7.93,9.62,14.11,6.1C121.31,83.65,122.54,82.75,124,81.82Z"/><path class="cls-1" d="M157.27,51.33c-.1-1.22-.14-2.08-.23-2.93-.35-3.51-.58-7-1.13-10.54-.31-2-1.43-3.72-3.77-3.59-2.52.13-2.9,2.18-3,4.15Q148.32,57.2,147.59,76a16,16,0,0,0,.31,3.78,4.34,4.34,0,0,0,4.1,3.76,4.41,4.41,0,0,0,4.77-3.26,20.77,20.77,0,0,0,.52-2.1,87.55,87.55,0,0,1,10.34-25.92c.76-1.23,1.75-2.31,3-3.93.37,1.93.65,3.08.79,4.24.9,7.3,1.62,14.62,2.73,21.89a30.82,30.82,0,0,0,2.73,8.17,3.75,3.75,0,0,0,3.11,1.5c.85-.07,1.76-1.32,2.34-2.24a6.32,6.32,0,0,0,.63-2.62c1-11,.78-22-1.77-32.75-1-4.35-2.84-8.52-7.87-9.47s-8.13,2.38-10.77,6C160.7,45.54,159.17,48.3,157.27,51.33Z"/><path class="cls-1" d="M273.91,74.52l1.45-1.22a9.91,9.91,0,0,0,.21-1c.89-10.58,1.69-21.17,2.66-31.74.92-10,2.1-19.86,3-29.81a23.56,23.56,0,0,0-.59-7A4.91,4.91,0,0,0,271.34,3a27.68,27.68,0,0,0-1.89,5.66A158.24,158.24,0,0,0,268,58a28.94,28.94,0,0,0,5,14A10.32,10.32,0,0,1,273.91,74.52Z"/><path class="cls-1" d="M281.69,94.59c-3.13-.06-5.14,1.73-5.22,4.62a6.43,6.43,0,0,0,6.06,6.43,5.22,5.22,0,0,0,5.27-5.1A6,6,0,0,0,281.69,94.59Z"/><path d="M236.61,55.19c.44,8.31,4.81,14.2,12.07,16.27a6.54,6.54,0,0,0,5-.54c1.75-1.31,1-3.65-.13-5.2a64.7,64.7,0,0,0-5.78-6.82c-2.44-2.57-5.3-4.76-7.53-7.48-5.44-6.63-4.21-14.23,2.93-19,4.13-2.74,8.65-4.23,13.68-3.3a6,6,0,0,1,3.23,1.25c1.07,1.16,2.4,2.88,2.23,4.18s-1.89,2.72-3.27,3.34c-2.36,1.08-5.12,1.3-7.47,2.39-4.41,2-4.75,3.81-1.6,7.44,2.31,2.67,4.93,5.08,7.31,7.7,3,3.32,5.61,6.93,6.39,11.51,1.61,9.41-6.25,16.17-15.34,13.19-8.37-2.74-13.34-9.33-14-19-.63.7-1.09,1.13-1.46,1.63a46.67,46.67,0,0,1-15.68,13.27c-4.73,2.49-9.54,4.16-15,1.09-.34,2.23-.6,4.18-1,6.1-.7,3.75-2.42,5.72-5.07,5.9s-4.91-1.55-5.73-5.19c-1-4.59-2.08-9.29-2.13-13.95-.13-14.17.21-28.34.4-42.51a20.89,20.89,0,0,1,.48-3.5c.39-2.06,1.62-3.85,3.66-3.81a7,7,0,0,1,4.87,2.1,14.21,14.21,0,0,1,2.5,6.49c.77,5.84,1.12,11.74,1.65,17.62.05.6.12,1.19.23,2.32a68.05,68.05,0,0,1,4.2-5.57c3.23-3.44,6.57-6.77,10-10,1.48-1.44,3.34-2,5.18-.66s1.72,3.37.88,5.19-2.05,3.42-3,5.17c-2.83,5.16-5.72,10.3-8.37,15.56a16.28,16.28,0,0,0-1.36,5.51c-.38,3.49.64,4.47,3.78,3.13,5.66-2.42,11.14-5.24,16.65-8C232.2,58,234.22,56.6,236.61,55.19Z"/><path d="M64.85,67.54c2-4.13,4-8.33,6.15-12.38S75.6,46.92,78.15,43c1.81-2.8,4.35-4.76,8-4s5.22,3.47,5.65,6.61A134.33,134.33,0,0,1,93.07,62.1c.07,6.34-.36,12.7-.81,19-.09,1.2-1.15,3.1-2,3.28a4.48,4.48,0,0,1-3.83-1.54,14.24,14.24,0,0,1-2.18-6c-.64-5.77-1-11.57-1.31-17.37-.13-2.25,0-4.51,0-6.77l-.74-.26a21.33,21.33,0,0,0-1.67,2.5Q73.3,70,66.19,85.18c-.69,1.47-1.22,3-2,4.48A5.6,5.6,0,0,1,58.73,93a5.52,5.52,0,0,1-5.17-3.82,20,20,0,0,1-1.35-6.61c.22-16.61.59-33.22,1-49.83a15.23,15.23,0,0,1,.86-4.24,4.69,4.69,0,0,1,8.88-.2A23.19,23.19,0,0,1,64,34.69c.16,9.9.16,19.8.21,29.7,0,1,0,2,0,2.93Z"/><path d="M29.34,36.37c-4.09,1.51-7.68,3.08-11.41,4.14A74.59,74.59,0,0,1,6.75,42.78C3.53,43.18,1,41.63.28,39.35c-.88-2.86.4-5.06,2.63-6.59a55.77,55.77,0,0,1,8.85-5.31A316.4,316.4,0,0,0,52.05,5.82a63.14,63.14,0,0,1,8.22-4.23C63.14.34,65.78,1,67.11,3.06c1.55,2.42,1,4.79-.78,6.77a39.61,39.61,0,0,1-5.66,5.48c-6.82,5.13-13.81,10-20.62,15.16a5.94,5.94,0,0,0-2.12,3.66c-1.73,16.35-3.3,32.71-5,49.07a22.76,22.76,0,0,1-1.08,5.31c-.33.93-1.39,1.6-2.13,2.38-.75-.79-1.92-1.47-2.18-2.4a31.55,31.55,0,0,1-1.21-6.94c-.73-13.58.85-27,2.48-40.47C29,39.65,29.15,38.22,29.34,36.37Z"/><path d="M124,81.82c-1.42.93-2.65,1.83-4,2.57-6.18,3.52-12.35.81-14.11-6.1a18.68,18.68,0,0,1,.88-11,40.7,40.7,0,0,1,13.6-19c1-.82,2-1.48,1.18-3.09s-2.15-1.63-3.47-1.08c-2.51,1.05-4.91,2.35-7.4,3.43-1.55.67-3.59,1.83-4.62-.08a5.22,5.22,0,0,1,.6-4.62A37.62,37.62,0,0,1,114,35.27c6.94-5.09,14.69-2.94,18.72,4.69.85,1.61,2.41,2.85,3.2,4.47a9.4,9.4,0,0,1,.58,4.15c0,1.17-.8,2.36-.72,3.51.74,10.45-1,20.64-3.08,30.79a9.48,9.48,0,0,1-1.79,3.92,4.27,4.27,0,0,1-3.08,1.67c-1-.11-2-1.34-2.59-2.35A20.24,20.24,0,0,1,124,81.82Zm-6.54-8,.82.46c5.73-2.35,7.29-6.29,4.62-13.34Z"/><path d="M157.27,51.33c1.9-3,3.43-5.79,5.27-8.31,2.64-3.61,5.71-7,10.77-6s6.84,5.12,7.87,9.47C183.73,57.29,184,68.24,183,79.25a6.32,6.32,0,0,1-.63,2.62c-.58.92-1.49,2.17-2.34,2.24a3.75,3.75,0,0,1-3.11-1.5,30.82,30.82,0,0,1-2.73-8.17c-1.11-7.27-1.83-14.59-2.73-21.89-.14-1.16-.42-2.31-.79-4.24-1.24,1.62-2.23,2.7-3,3.93a87.55,87.55,0,0,0-10.34,25.92,20.77,20.77,0,0,1-.52,2.1A4.41,4.41,0,0,1,152,83.52a4.34,4.34,0,0,1-4.1-3.76,16,16,0,0,1-.31-3.78q.74-18.78,1.57-37.56c.08-2,.46-4,3-4.15,2.34-.13,3.46,1.62,3.77,3.59.55,3.49.78,7,1.13,10.54C157.13,49.25,157.17,50.11,157.27,51.33Z"/><path d="M273.91,74.52A10.32,10.32,0,0,0,273,72a28.94,28.94,0,0,1-5-14,158.24,158.24,0,0,1,1.45-49.33A27.68,27.68,0,0,1,271.34,3a4.91,4.91,0,0,1,9.28.73,23.56,23.56,0,0,1,.59,7c-.88,10-2.06,19.86-3,29.81-1,10.57-1.77,21.16-2.66,31.74a9.91,9.91,0,0,1-.21,1Z"/><path d="M281.69,94.59a6,6,0,0,1,6.11,6,5.22,5.22,0,0,1-5.27,5.1,6.43,6.43,0,0,1-6.06-6.43C276.55,96.32,278.56,94.53,281.69,94.59Z"/><path class="cls-1" d="M117.42,73.82l5.44-12.88c2.67,7,1.11,11-4.62,13.34Z"/></g></g></svg>