<svg xmlns="http://www.w3.org/2000/svg" viewBox="0 0 363.82 99.82"><g id="Layer_2" data-name="Layer 2"><g id="Layer_1-2" data-name="Layer 1"><path class="cls-1" d="M0,99.82V0H363.82V99.82ZM53.73,44.2l.92-2c4.32-9.41.06-18.09-10.22-19.64-4.06-.61-8.39.59-12.6.94a7,7,0,0,1-2.84,0c-5.55-2-9.62.17-9.7,6.22Q19,49,19.85,68.22c.16,3.86,1.62,7.78,3,11.47,1.47,3.9,4.57,4.53,8.08,2.34a4.81,4.81,0,0,1,2.69-.22c2.87.27,5.76,1.1,8.58.88,9.24-.73,19.07-10.17,21-20.18A19.83,19.83,0,0,0,63,54.25C61.83,49.49,58.28,46.46,53.73,44.2Zm136.19,7.72c-1.92,4.93-7.21,11-11.11,13-5.09,2.61-9.55,1.47-12.5-3.18C158.82,49.86,165,31.79,178.26,27a12.51,12.51,0,0,1,3.18-.71,3,3,0,0,1,1.93.57c1.78,1.49,3.64,1.79,5.41.29,1.95-1.65,1.9-3.85.84-5.95-1.46-2.9-4.14-4.22-7.15-4.92-5.64-1.32-10.84.06-15.65,2.95A40.48,40.48,0,0,0,150.17,38.4c-4.61,10.82-3.5,21.3,2.76,31.11,7,11,20.39,14,31.4,6.88,9-5.86,14.44-14.64,17.92-24.58a7.74,7.74,0,0,0-5-10.12c-2.49-.89-5.45-1.62-7.95-1.15A182.85,182.85,0,0,0,171,45.25a9,9,0,0,0-3.82,2.91c-1.81,2.13-1.12,4.35,1.58,4.93a22.17,22.17,0,0,0,6.2.29C179.82,53,184.68,52.44,189.92,51.92ZM85.41,53.6c.26-3.27.6-6.21.7-9.16A3.46,3.46,0,0,1,88.54,41q9.39-4.29,18.65-8.91c3.13-1.56,4.28-3.75,3.7-6.23s-3-4.45-6.28-4c-11.22,1.41-21.54,5.62-31.37,11-3.25,1.77-4.23,6.29-2,8.77s1.58,5,1.44,7.7c-.42,8.57-.84,17.15-.8,25.72,0,4.88,1.58,6,6.5,6.83.42.07.8.4,1.23.5,2.18.47,4.4,1.42,6.54,1.27a45.27,45.27,0,0,0,22.23-7.31,11,11,0,0,0,3.68-3.51,5.09,5.09,0,0,0,.14-4.23,4.57,4.57,0,0,0-3.56-1.77,19.32,19.32,0,0,0-5.52,1.28C97,70,90.91,72,84.91,73.86c-2.35-2.82-2-4.18,1.26-5.11A72.21,72.21,0,0,0,108.32,58.6a20.83,20.83,0,0,0,4.9-5,4.89,4.89,0,0,0-.29-6.09,5,5,0,0,0-5.64-1.63c-1.74.5-3.46,1.07-5.17,1.67C96.67,49.52,91.23,51.5,85.41,53.6Zm217,7.58.86.13c0,2.17-.18,4.35,0,6.5.68,6.92,2.46,8.8,9.19,10,11.9,2.13,22.41-1.4,31.43-8.85,10.12-8.36,11.8-23.46,4.48-34.23-7.11-10.46-20.34-13.33-32.68-7.2a4.18,4.18,0,0,1-2.88-.14c-2.65-.91-4.5.14-4.82,2.88-.11,1-.34,1.95-.52,2.93Q304.9,47.18,302.36,61.18ZM247.79,50.07c-.59-2.72-.83-5.58-1.85-8.13-3.24-8-8.68-13.45-17.95-13.82a2.2,2.2,0,0,1-1.23-.33c-4.25-3.17-6.15-3.25-10.42-.05a31.31,31.31,0,0,0-12,17.93c-2.32,9.44-.39,18,6.73,24.93a17.65,17.65,0,0,0,16,5C238.32,73.71,247.44,62.35,247.79,50.07Zm47.64-2.19c-.08-1.46-.08-2.19-.16-2.9a18.28,18.28,0,0,0-7.34-13.4c-4.2-3.09-9.3-5.28-14.29-4.67C261.17,28.43,251,42.12,252.16,54.58c1.37,14.32,16.54,22.92,28.84,16C290,65.57,294.5,57.36,295.43,47.88Z"/><path d="M53.73,44.2c4.55,2.26,8.1,5.29,9.26,10a19.83,19.83,0,0,1,.24,8.26c-1.94,10-11.77,19.45-21,20.18-2.82.22-5.71-.61-8.58-.88A4.81,4.81,0,0,0,31,82c-3.51,2.19-6.61,1.56-8.08-2.34-1.4-3.69-2.86-7.61-3-11.47Q19,49,19.29,29.74c.08-6,4.15-8.25,9.7-6.22a7,7,0,0,0,2.84,0c4.21-.35,8.54-1.55,12.6-.94C54.71,24.12,59,32.8,54.65,42.21ZM33.23,64.7h0a11.22,11.22,0,0,1,0,2.17c-.56,2.79.81,3.61,3.37,3.77a16.27,16.27,0,0,0,15.36-9.28c1-2.08,1.45-4.15-.52-6a6.57,6.57,0,0,0-7.52-.86,48.85,48.85,0,0,1-7.67,4c-2.39.87-3.42,2-3,4.51A9.85,9.85,0,0,1,33.23,64.7ZM32.9,43.79c5.83-.56,9-2.6,11.29-7,1.12-2.16.72-3.52-1.62-3.64a45.54,45.54,0,0,0-8.53.75c-.44.06-1.06,1-1.09,1.55C32.84,38.21,32.9,41,32.9,43.79Z"/><path d="M189.92,51.92c-5.24.52-10.1,1.1-15,1.46a22.17,22.17,0,0,1-6.2-.29c-2.7-.58-3.39-2.8-1.58-4.93A9,9,0,0,1,171,45.25a182.85,182.85,0,0,1,18.35-4.71c2.5-.47,5.46.26,7.95,1.15a7.74,7.74,0,0,1,5,10.12c-3.48,9.94-8.9,18.72-17.92,24.58-11,7.15-24.36,4.17-31.4-6.88-6.26-9.81-7.37-20.29-2.76-31.11a40.48,40.48,0,0,1,16.65-19.19c4.81-2.89,10-4.27,15.65-2.95,3,.7,5.69,2,7.15,4.92,1.06,2.1,1.11,4.3-.84,5.95-1.77,1.5-3.63,1.2-5.41-.29a3,3,0,0,0-1.93-.57,12.51,12.51,0,0,0-3.18.71C165,31.79,158.82,49.86,166.31,61.7c2.95,4.65,7.41,5.79,12.5,3.18C182.71,62.88,188,56.85,189.92,51.92Z"/><path d="M85.41,53.6c5.82-2.1,11.26-4.08,16.71-6,1.71-.6,3.43-1.17,5.17-1.67a5,5,0,0,1,5.64,1.63,4.89,4.89,0,0,1,.29,6.09,20.83,20.83,0,0,1-4.9,5A72.21,72.21,0,0,1,86.17,68.75c-3.21.93-3.61,2.29-1.26,5.11,6-1.91,12.1-3.89,18.23-5.8a19.32,19.32,0,0,1,5.52-1.28,4.57,4.57,0,0,1,3.56,1.77,5.09,5.09,0,0,1-.14,4.23,11,11,0,0,1-3.68,3.51A45.27,45.27,0,0,1,86.17,83.6c-2.14.15-4.36-.8-6.54-1.27-.43-.1-.81-.43-1.23-.5-4.92-.78-6.47-2-6.5-6.83,0-8.57.38-17.15.8-25.72.14-2.74.87-5.16-1.44-7.7s-1.27-7,2-8.77c9.83-5.34,20.15-9.55,31.37-11,3.33-.42,5.67,1.43,6.28,4s-.57,4.67-3.7,6.23Q97.94,36.72,88.54,41a3.46,3.46,0,0,0-2.43,3.42C86,47.39,85.67,50.33,85.41,53.6Z"/><path d="M302.36,61.18q2.55-14,5.09-28c.18-1,.41-2,.52-2.93.32-2.74,2.17-3.79,4.82-2.88a4.18,4.18,0,0,0,2.88.14c12.34-6.13,25.57-3.26,32.68,7.2C355.67,45.5,354,60.6,343.87,69c-9,7.45-19.53,11-31.43,8.85-6.73-1.2-8.51-3.08-9.19-10-.21-2.15,0-4.33,0-6.5ZM314.74,69c6.63-3.82,12.68-7.05,18.44-10.74A13.35,13.35,0,0,0,338.92,49c1.24-7-3.2-13-10.26-13-3.3,0-6.64,1.34-9.89,2.3-1.72.5-2.27,1.91-2.33,3.81-.21,6.78-.65,13.55-1.05,20.32C315.28,64.28,315,66.12,314.74,69Z"/><path d="M247.79,50.07c-.35,12.28-9.47,23.64-20.74,25.54a17.65,17.65,0,0,1-16-5C204,63.66,202,55.11,204.36,45.67a31.31,31.31,0,0,1,12-17.93c4.27-3.2,6.17-3.12,10.42.05a2.2,2.2,0,0,0,1.23.33c9.27.37,14.71,5.79,17.95,13.82C247,44.49,247.2,47.35,247.79,50.07Zm-30.5.49c.86,2.31,1.5,5.07,2.87,7.41,2.37,4.05,5.71,4.49,9.27,1.43,8-6.85,5.84-17.5-.6-23-1.5-1.3-3.13-1.17-4.69.06-2.13,1.69-2.51,4.52-4.59,6.47C218,44.37,218.08,47.57,217.29,50.56Z"/><path d="M295.43,47.88C294.5,57.36,290,65.57,281,70.62c-12.3,6.88-27.47-1.72-28.84-16-1.19-12.46,9-26.15,21.48-27.67,5-.61,10.09,1.58,14.29,4.67A18.28,18.28,0,0,1,295.27,45C295.35,45.69,295.35,46.42,295.43,47.88Zm-30.92,2.74c.06.45.12,1.36.3,2.24.72,3.44,2.56,6,6,7A7.34,7.34,0,0,0,279,57.44a28.59,28.59,0,0,0,5-7.62c2.08-5.08.05-10.73-4.39-14-2.79-2-5.68-2-7.8.46-1,1.2-2.08,2.35-3.19,3.49C265.81,42.6,264.51,46.2,264.51,50.62Z"/><path class="cls-1" d="M33.23,64.7a9.85,9.85,0,0,0,0-1.63c-.43-2.46.6-3.64,3-4.51a48.85,48.85,0,0,0,7.67-4,6.57,6.57,0,0,1,7.52.86c2,1.82,1.5,3.89.52,6a16.27,16.27,0,0,1-15.36,9.28c-2.56-.16-3.93-1-3.37-3.77a11.22,11.22,0,0,0,0-2.17Z"/><path class="cls-1" d="M32.9,43.79c0-2.81-.06-5.58.05-8.35,0-.55.65-1.49,1.09-1.55a45.54,45.54,0,0,1,8.53-.75c2.34.12,2.74,1.48,1.62,3.64C41.88,41.19,38.73,43.23,32.9,43.79Z"/><path class="cls-1" d="M314.74,69c.29-2.83.54-4.67.65-6.53.4-6.77.84-13.54,1.05-20.32.06-1.9.61-3.31,2.33-3.81,3.25-1,6.59-2.31,9.89-2.3,7.06,0,11.5,6,10.26,13a13.35,13.35,0,0,1-5.74,9.22C327.42,61.9,321.37,65.13,314.74,69Z"/><path class="cls-1" d="M217.29,50.56c.79-3,.7-6.19,2.26-7.65,2.08-1.95,2.46-4.78,4.59-6.47,1.56-1.23,3.19-1.36,4.69-.06,6.44,5.52,8.56,16.17.6,23-3.56,3.06-6.9,2.62-9.27-1.43C218.79,55.63,218.15,52.87,217.29,50.56Z"/><path class="cls-1" d="M264.51,50.62c0-4.42,1.3-8,4-10.8,1.11-1.14,2.15-2.29,3.19-3.49,2.12-2.42,5-2.48,7.8-.46,4.44,3.22,6.47,8.87,4.39,14a28.59,28.59,0,0,1-5,7.62,7.34,7.34,0,0,1-8.11,2.47c-3.47-1.09-5.31-3.61-6-7C264.63,52,264.57,51.07,264.51,50.62Z"/></g></g></svg>