<svg xmlns="http://www.w3.org/2000/svg" viewBox="0 0 349.64 67.09"><defs><style>.cls-1{fill:#fff;}</style></defs><g id="Layer_2" data-name="Layer 2"><g id="Layer_1-2" data-name="Layer 1"><path class="cls-1" d="M349.64,67.09H0V0H349.64ZM285.57,47.67l.48.12a104.08,104.08,0,0,0,1,10.48c.92,4.85,5.24,6.08,8.92,2.85a3.81,3.81,0,0,1,2.35-.86c11.57.2,21.16-4.32,29.36-12.1a28.27,28.27,0,0,0,8.14-13.84C338.7,22.66,333.1,12,322.37,8.84c-9.71-2.86-18.4.53-26.85,4.67-1.94,1-3.16,3.3-5,4.66-2.07,1.56-1.07,3.67-1.37,5.49C287.87,31.65,286.76,39.66,285.57,47.67ZM45.4,26.36c.36-.8.66-1.46.94-2.12,3.42-8-.35-14.81-9.09-15.49-4.06-.31-8.25.63-12.33,1.31-1.6.27-2.65.49-4-.84A5.89,5.89,0,0,0,11.34,11a9.61,9.61,0,0,0-1,4.14c.15,11.08.12,22.17.83,33.22.27,4.27,2.13,8.49,3.63,12.61A5,5,0,0,0,20,64.17a4.66,4.66,0,0,0,4.35-3.52,2.8,2.8,0,0,1,.5-.64c8.32,4.11,15.72,2.36,22.23-3.69a31.92,31.92,0,0,0,5.46-6.69Q62,34.13,45.4,26.36ZM80.93,34.7c-.3-2.4-.47-4.37-.82-6.31a2.28,2.28,0,0,1,1.63-2.92c3.48-1.32,7-2.62,10.35-4.14a52.45,52.45,0,0,0,8.1-4.34c2.62-1.8,3.31-4.55,2.24-6.88C101.19,7.39,98.8,6.58,96.1,7c-8.8,1.35-17.48,3.28-25.6,7.06-5.35,2.5-7.67,6.8-7.34,12.69.42,7.47.62,15,1,22.42a22,22,0,0,0,.77,6.41c2.46,6.82,3.38,8.36,10.42,8.38a83.34,83.34,0,0,0,11.93-.7c6.13-.87,12.16-2.31,17.16-6.27,2.36-1.87,3.19-4.43,2.17-6.41-1.27-2.46-3.56-2.53-5.9-2.17-5.92.9-11.82,1.85-17.74,2.78-.93.14-1.87.22-2.79.33-.33-2.42.66-3.24,2.61-4a172,172,0,0,0,17.16-7.31,13.3,13.3,0,0,0,5.17-5.65c.68-1.31.15-3.71-.65-5.19-1-1.81-3.08-2-5.08-1.34-1,.35-2.05.72-3.07,1.09Zm89.51-1.62,3.07-1.58c4.15-2.2,8.42-4.24,12.41-6.7a18.6,18.6,0,0,0,5-4.9,5,5,0,0,0-.08-6.09,5.13,5.13,0,0,0-5.76-2A23.89,23.89,0,0,0,181.16,13c-7.14,2.91-14.25,5.86-21.37,8.78-.86.35-1.75.64-2.79,1-.24-2.94-.33-5.46-.68-8A19.12,19.12,0,0,0,155,9.68a5.88,5.88,0,0,0-6-3.77c-2.78.16-4.46,1.83-5.39,4.3a12.64,12.64,0,0,0-.84,3.4c-.7,10.87-1.51,21.74-1.91,32.63a42.63,42.63,0,0,0,1.39,10.67,6.33,6.33,0,0,0,6.09,5.31,6.54,6.54,0,0,0,6.8-4.44A32.08,32.08,0,0,0,156.91,50c.4-3.16.39-6.38.58-10.15C159,41,160,41.84,161,42.6c6,4.32,12,8.73,18.13,12.83a16,16,0,0,0,6.39,2.06c2.49.37,4.73-.53,5.69-3.14s-.8-3.7-2.45-5.12C182.73,44,176.76,38.66,170.44,33.08Zm71.81,10.57c1,1.29,1.81,2.43,2.68,3.56,3.42,4.38,7.2,8.36,12.37,10.76,3,1.41,6.07,2.32,9.46,1.26a4.29,4.29,0,0,1,2.28.38c2.53.84,4.78,0,5.87-2.4a15.73,15.73,0,0,0,1.2-4.14c1.8-12.93,1.51-25.89.34-38.84A16.76,16.76,0,0,0,275,9.07a6,6,0,0,0-2.4-2.79A4.52,4.52,0,0,0,269,6.09C268.34,6.41,268,8,268,9c-.21,3.42-.1,6.85-.36,10.26-.76,10.15-1.64,20.29-2.49,30.43,0,.13-.21.25-.72.79-2.32-2.64-4.6-5.26-6.91-7.86-4.25-4.78-8.55-9.52-12.74-14.35a6.22,6.22,0,0,1-.94-2.63c-.53-2.35-.69-4.83-1.55-7a4.52,4.52,0,0,0-5.8-2.75c-1.61.6-3.2,1.34-2.83,3.66a13.37,13.37,0,0,1,.15,4.67c-1.71,8.39-3.74,16.72-5.32,25.13a28.72,28.72,0,0,0-.19,9.61c.55,3.38,4.53,4.4,7,2a14.42,14.42,0,0,0,3.14-5C239.82,52,240.9,48,242.25,43.65ZM216.47,28.07c-.39-4.22-.45-7.29-1-10.27a5.34,5.34,0,0,0-5-4.59c-2.79-.23-4.66,1.27-5.72,3.72a22.21,22.21,0,0,0-1.51,4.61c-1.5,8-3.13,15.9-4.25,23.92a64.18,64.18,0,0,0-.15,12.63,5.37,5.37,0,0,0,4.85,5.1,5.7,5.7,0,0,0,6.18-3,16.9,16.9,0,0,0,2.08-5.24C213.58,45.65,215.08,36.33,216.47,28.07Z"/><path d="M285.57,47.67c1.19-8,2.3-16,3.62-24,.3-1.82-.7-3.93,1.37-5.49,1.8-1.36,3-3.7,5-4.66C304,9.37,312.66,6,322.37,8.84,333.1,12,338.7,22.66,335.78,34.32a28.27,28.27,0,0,1-8.14,13.84c-8.2,7.78-17.79,12.3-29.36,12.1a3.81,3.81,0,0,0-2.35.86c-3.68,3.23-8,2-8.92-2.85a104.08,104.08,0,0,1-1-10.48Zm14-2.23c5.7-1.32,16.67-8.26,19.8-12.52a14.1,14.1,0,0,0,1.93-3.53c1.55-4.41-.31-7.25-5-7.74-5.24-.55-9.73,1.54-14.13,4a2,2,0,0,0-.8,1.3C300.73,33.05,300.14,39.21,299.53,45.44Z"/><path d="M45.4,26.36Q62,34.16,52.53,49.63a31.92,31.92,0,0,1-5.46,6.69c-6.51,6-13.91,7.8-22.23,3.69a2.8,2.8,0,0,0-.5.64A4.66,4.66,0,0,1,20,64.17,5,5,0,0,1,14.76,61c-1.5-4.12-3.36-8.34-3.63-12.61-.71-11.05-.68-22.14-.83-33.22a9.61,9.61,0,0,1,1-4.14,5.89,5.89,0,0,1,9.57-1.77c1.36,1.33,2.41,1.11,4,.84C29,9.38,33.19,8.44,37.25,8.75c8.74.68,12.51,7.5,9.09,15.49C46.06,24.9,45.76,25.56,45.4,26.36ZM24.92,46.47a12.21,12.21,0,0,1,0,1.77c-.4,2.38.61,3.3,3,3.57A16.49,16.49,0,0,0,45.38,40.7c.87-2.69.14-4.33-2.61-4.29a27.29,27.29,0,0,0-8.54,1.69c-2.17.76-3.9,2.78-6.07,3.47C25.21,42.5,24.29,44.09,24.92,46.47ZM37.61,18.39A17.11,17.11,0,0,0,25,21a2.11,2.11,0,0,0-.69,1.62c0,2.12.2,4.24.34,6.66C30.67,27.65,34.38,23.79,37.61,18.39Z"/><path d="M80.93,34.7,96.3,29.13c1-.37,2-.74,3.07-1.09,2-.67,4.11-.47,5.08,1.34.8,1.48,1.33,3.88.65,5.19a13.3,13.3,0,0,1-5.17,5.65,172,172,0,0,1-17.16,7.31c-2,.74-2.94,1.56-2.61,4,.92-.11,1.86-.19,2.79-.33,5.92-.93,11.82-1.88,17.74-2.78,2.34-.36,4.63-.29,5.9,2.17,1,2,.19,4.54-2.17,6.41-5,4-11,5.4-17.16,6.27a83.34,83.34,0,0,1-11.93.7c-7,0-8-1.56-10.42-8.38a22,22,0,0,1-.77-6.41c-.36-7.47-.56-14.95-1-22.42-.33-5.89,2-10.19,7.34-12.69C78.62,10.27,87.3,8.34,96.1,7c2.7-.41,5.09.4,6.33,3.12,1.07,2.33.38,5.08-2.24,6.88a52.45,52.45,0,0,1-8.1,4.34c-3.38,1.52-6.87,2.82-10.35,4.14a2.28,2.28,0,0,0-1.63,2.92C80.46,30.33,80.63,32.3,80.93,34.7Z"/><path d="M170.44,33.08c6.32,5.58,12.29,10.92,18.36,16.15,1.65,1.42,3.36,2.65,2.45,5.12s-3.2,3.51-5.69,3.14a16,16,0,0,1-6.39-2.06C173,51.33,167.05,46.92,161,42.6,160,41.84,159,41,157.49,39.81c-.19,3.77-.18,7-.58,10.15a32.08,32.08,0,0,1-1.86,7.82,6.54,6.54,0,0,1-6.8,4.44,6.33,6.33,0,0,1-6.09-5.31,42.63,42.63,0,0,1-1.39-10.67c.4-10.89,1.21-21.76,1.91-32.63a12.64,12.64,0,0,1,.84-3.4c.93-2.47,2.61-4.14,5.39-4.3a5.88,5.88,0,0,1,6,3.77,19.12,19.12,0,0,1,1.37,5.19c.35,2.49.44,5,.68,8,1-.38,1.93-.67,2.79-1,7.12-2.92,14.23-5.87,21.37-8.78A23.89,23.89,0,0,1,185,11.78a5.13,5.13,0,0,1,5.76,2,5,5,0,0,1,.08,6.09,18.6,18.6,0,0,1-5,4.9c-4,2.46-8.26,4.5-12.41,6.7Z"/><path d="M242.25,43.65C240.9,48,239.82,52,238.39,55.91a14.42,14.42,0,0,1-3.14,5c-2.45,2.45-6.43,1.43-7-2a28.72,28.72,0,0,1,.19-9.61c1.58-8.41,3.61-16.74,5.32-25.13a13.37,13.37,0,0,0-.15-4.67c-.37-2.32,1.22-3.06,2.83-3.66a4.52,4.52,0,0,1,5.8,2.75c.86,2.22,1,4.7,1.55,7.05a6.22,6.22,0,0,0,.94,2.63c4.19,4.83,8.49,9.57,12.74,14.35,2.31,2.6,4.59,5.22,6.91,7.86.51-.54.71-.66.72-.79.85-10.14,1.73-20.28,2.49-30.43.26-3.41.15-6.84.36-10.26.07-1,.37-2.62,1.06-2.94a4.52,4.52,0,0,1,3.54.19A6,6,0,0,1,275,9.07a16.76,16.76,0,0,1,1.48,5.16c1.17,13,1.46,25.91-.34,38.84a15.73,15.73,0,0,1-1.2,4.14c-1.09,2.43-3.34,3.24-5.87,2.4a4.29,4.29,0,0,0-2.28-.38c-3.39,1.06-6.45.15-9.46-1.26-5.17-2.4-9-6.38-12.37-10.76C244.06,46.08,243.22,44.94,242.25,43.65Z"/><path d="M216.47,28.07c-1.39,8.26-2.89,17.58-4.57,26.86a16.9,16.9,0,0,1-2.08,5.24,5.7,5.7,0,0,1-6.18,3,5.37,5.37,0,0,1-4.85-5.1,64.18,64.18,0,0,1,.15-12.63c1.12-8,2.75-16,4.25-23.92a22.21,22.21,0,0,1,1.51-4.61c1.06-2.45,2.93-3.95,5.72-3.72a5.34,5.34,0,0,1,5,4.59C216,20.78,216.08,23.85,216.47,28.07Z"/><path class="cls-1" d="M299.53,45.44c.61-6.23,1.2-12.39,1.84-18.54a2,2,0,0,1,.8-1.3c4.4-2.41,8.89-4.5,14.13-4,4.65.49,6.51,3.33,5,7.74a14.1,14.1,0,0,1-1.93,3.53C316.2,37.18,305.23,44.12,299.53,45.44Z"/><path class="cls-1" d="M24.92,46.47c-.63-2.38.29-4,3.24-4.9,2.17-.69,3.9-2.71,6.07-3.47a27.29,27.29,0,0,1,8.54-1.69c2.75,0,3.48,1.6,2.61,4.29A16.49,16.49,0,0,1,27.91,51.81c-2.39-.27-3.4-1.19-3-3.57A12.21,12.21,0,0,0,24.92,46.47Z"/><path class="cls-1" d="M37.61,18.39c-3.23,5.4-6.94,9.26-13,10.91-.14-2.42-.31-4.54-.34-6.66A2.11,2.11,0,0,1,25,21,17.11,17.11,0,0,1,37.61,18.39Z"/></g></g></svg>