<svg xmlns="http://www.w3.org/2000/svg" viewBox="0 0 727.09 105.82"><defs><style>.cls-1{fill:#fff;}</style></defs><g id="Layer_2" data-name="Layer 2"><g id="Layer_1-2" data-name="Layer 1"><path class="cls-1" d="M0,0H727.09V105.82H0ZM37,84.43a9.65,9.65,0,0,1,1.25.2c17.3,5.06,32.72-8.48,36.6-21.7,2.72-9.27-.59-16.6-9.35-20.76-.22-.11-.38-.35-.32-.29,1.3-3.65,2.91-7,3.66-10.59,1.25-5.9-2-10.37-8-11.39a11.79,11.79,0,0,0-5.38,0c-4.85,1.56-9.57,3.52-14.72,5.46a12.57,12.57,0,0,0-.9-1,6.47,6.47,0,0,0-10.25,1.37,11.68,11.68,0,0,0-1.39,4.35c-1,8.8-2,17.6-2.62,26.43C25,65,24.66,73.44,24.47,81.92a18.42,18.42,0,0,0,1.39,6.57A4.93,4.93,0,0,0,31,91.81a5.1,5.1,0,0,0,4.71-3.53C36.17,87.12,36.48,85.9,37,84.43ZM468.55,64.22l-.6.31c-1.68-1.83-3.4-3.61-5-5.48-4.74-5.48-9.22-11.2-14.26-16.38-2.23-2.29-5.43-4.48-8.46-4.92-3.37-.48-5.06-1.46-6.42-4.5a6,6,0,0,0-6.87-3.71c-1.47.36-2.38,1.2-1.85,2.71,1.71,4.82.8,9.66.18,14.48-1,7.71-2.29,15.38-3.15,23.11a30.55,30.55,0,0,0,.45,9.1c.5,2.58,2.61,4.09,5.38,4.19a5.67,5.67,0,0,0,5.58-3.61,13.88,13.88,0,0,0,.95-2.81c.77-3.63,1.46-7.27,2.19-10.9l2-9.71c1.19,1.38,1.9,2.18,2.59,3a77.14,77.14,0,0,0,18.34,15.6c5.14,3.18,10.76,2.42,16.17,3.36a5.94,5.94,0,0,0,6.41-3.59A14.27,14.27,0,0,0,483.3,70,217.41,217.41,0,0,0,482.77,23a20.23,20.23,0,0,0-2.29-6.58,5.15,5.15,0,0,0-9.43,1.45,19.89,19.89,0,0,0-.74,4.27c-.62,9-1.29,18-1.71,27.06C468.36,54.16,468.55,59.19,468.55,64.22Zm92.34-36.89c-1.93-3.61-3.54-7.16-5.63-10.4a94.63,94.63,0,0,0-8.88-12.27,8.1,8.1,0,0,0-10.91-1.13c-3.16,2.32-4.22,6.4-2,10.5,4.43,8.29,9,16.52,13.94,24.53a20.41,20.41,0,0,0,6.87,6.34c1.93,1.17,2.38,2.17,2.18,4.17-.55,5.67-1.26,11.35-1.29,17a66.31,66.31,0,0,0,1.48,13.38c.57,2.82,2.85,4.58,5.94,4.76a6.54,6.54,0,0,0,6.54-4,18,18,0,0,0,1.69-4.84,135.39,135.39,0,0,0,1.69-35.1c-.17-1.95.4-2.67,2-3.44,4-1.92,8-3.85,11.81-6.15A29.41,29.41,0,0,0,598,18.19a14.75,14.75,0,0,0,1.52-6.73,5.67,5.67,0,0,0-9.14-4.09c-.63.45-1.41,1.68-1.2,2.11.81,1.64-.22,2.43-1.21,3.13-3.83,2.7-7.55,5.66-11.67,7.86C571.48,23.07,566.25,25,560.89,27.33ZM695,26.69c-.22,3.2-.21,6.26-.68,9.24-1.39,8.87-4,17.35-10.37,24-1.79,1.87-4.37,3-6.59,4.44-1.25-2.32-3.3-4.56-3.59-7a167,167,0,0,1-.8-18.32c0-2.88.64-5.75.87-8.63a4.66,4.66,0,0,0-2.79-5.1,4.59,4.59,0,0,0-5.65,1.46A26,26,0,0,0,661.59,33a54.43,54.43,0,0,0-4.13,23.58,35,35,0,0,0,4.07,15.89c5.44,9.73,15.31,12.94,25,7.4A43.75,43.75,0,0,0,698,70.09c7.54-9,10.66-19.8,11.32-31.35.29-5.06.45-10.16-1.87-14.9-1.68-3.44-4.2-5.95-8.29-6.14s-6.75,2.25-8.6,5.59a13.8,13.8,0,0,0-.9,3.25c1.09.1,2.17.22,3.27.28C693.44,26.85,694,26.76,695,26.69ZM327.22,50.6c-.14-2.26-.24-4-.35-5.68s-.24-3.61-.38-5.41c-.38-4.95-.25-4.7,4.1-7,5.18-2.75,10.17-5.88,15.09-9.07A4,4,0,0,0,347,18.07c-1-1.95-2.92-2.4-4.91-2.11a29.09,29.09,0,0,0-4.73,1.22c-6,2-12,4.11-18.1,5.93-5.82,1.74-8.43,4.58-8.6,10.62-.28,10-.39,20.08-.48,30.12a25.75,25.75,0,0,0,.63,6.74,29.76,29.76,0,0,0,3,7.72c1.57,2.62,4,3,6.93,1.87a5.84,5.84,0,0,1,2.81-.3c9.87,1.55,19.44.48,28.32-4.11,2.85-1.48,5.25-4.09,7.36-6.6,1-1.18,1.25-3.41,1-5a4.76,4.76,0,0,0-2.67-3c-.77-.32-2.18.64-3.19,1.23-1.71,1-3.2,2.49-5,3.18-5.33,2-10.75,3.84-16.18,5.61-2.37.77-4.84,1.24-7.45,1.9.37-3,.85-5.53,1-8.12.09-1.89,1-2.44,2.65-3.11C336.31,59,343.21,56,350,52.73a23.76,23.76,0,0,0,6-4.64c2.27-2.22,2.65-4.77,1.28-6.6-1.69-2.24-4-1.92-6.19-1.05-6.89,2.79-13.72,5.75-20.57,8.65C329.52,49.5,328.57,50,327.22,50.6ZM225.28,48.9c0-4,.14-7.59-.05-11.18-.1-2,.59-3,2.43-3.87A88.54,88.54,0,0,0,238.06,28a4.71,4.71,0,0,0,1.81-6,4.88,4.88,0,0,0-5.19-3.19,26.74,26.74,0,0,0-5.58,1.09c-3.92,1.13-7.76,2.55-11.7,3.57-4.8,1.25-7.21,3.38-7.39,8.41-.45,12.83-.64,25.67-.72,38.51A15.22,15.22,0,0,0,211,76.83c1.84,3.71,5.42,4.69,9.21,3a5,5,0,0,1,2-.55c12.84.18,22.09-6.56,30.17-15.52A9.25,9.25,0,0,0,254,61.16c1-2.32.73-4.53-1.31-6.13s-4-.94-6,.44c-6.48,4.49-13,8.89-19.57,13.31-.71.48-1.49.83-2.6,1.45a71,71,0,0,0,.44-7.55c-.12-2.47.91-3.38,3.23-4,9.25-2.32,17.13-7.33,24.53-13.13,2.89-2.27,3.55-4.85,2.22-7.07s-3.83-2.82-7.3-1.5a63.17,63.17,0,0,0-7.7,3.44C235.17,43.06,230.52,45.87,225.28,48.9Zm-128,0A43,43,0,0,0,97,43.51c-.43-2.34.58-3.5,2.65-4.24,5.64-2,11.26-4,16.86-6.14,2.94-1.1,4.28-3.12,4.06-5.72a5.72,5.72,0,0,0-5.18-5.13,16.39,16.39,0,0,0-6.21.1c-7.52,2-15,4.16-22.39,6.62A9.67,9.67,0,0,0,80,38.3c-.44,11.47-.84,23-.86,34.42a16.26,16.26,0,0,0,2.54,7.84c2,3.4,5.64,3.41,8.49.64a4.8,4.8,0,0,1,2.47-1.26c2.42-.37,4.89-.41,7.31-.75,7.8-1.11,15.33-3,21.63-8.09a14.12,14.12,0,0,0,3.91-4.4,5,5,0,0,0-.43-4.18c-1-1.46-2.68-1.07-4.12-.1-7.77,5.25-16.72,7.76-25.45,10.77a1.87,1.87,0,0,1-.84-.1c.66-3.8,1.44-7.43,1.85-11.09.24-2.15,1-3.28,3.13-4,6-2.1,11.87-4.46,17.74-6.87a16.31,16.31,0,0,0,4.53-2.91,3.2,3.2,0,0,0,.94-2.8,3.6,3.6,0,0,0-2.63-1.83,18.93,18.93,0,0,0-5.63.68C108.89,45.69,103.25,47.3,97.32,48.93Zm548.81.12.76-.24c-1.23-3.91-1.93-8.1-3.8-11.68-4.43-8.43-13.65-11.22-22.58-7.42a2.34,2.34,0,0,1-1.71.13,4.69,4.69,0,0,0-5.35.7c-8,6.09-14.13,13.63-16.33,23.62a20.45,20.45,0,0,0,23.71,24.89C634.94,76.44,646,63.33,646.13,49.05Zm-366.46-.91-.7.08c-1.6-4-3.18-8-4.81-12-1.74-4.27-3.36-8.6-5.38-12.73-1.44-2.93-4.19-4-6.5-3.1-2.94,1.16-2.91,3.58-2.55,6.13C261.68,40.19,266,53.22,271.12,66a18,18,0,0,0,1.54,2.87c4.44,7,12.64,6.77,16.61-.43a26.31,26.31,0,0,0,2.38-5.76C293.54,55.8,295.47,48.92,297,42a137.42,137.42,0,0,0,2.7-16.83c.38-4.05-2-7-5-7.76-3.31-.78-6.63.8-8.35,4.58a49.19,49.19,0,0,0-2.89,9C282.05,36.64,280.91,42.4,279.67,48.14ZM150.58,63.46l-.89-.3c0-5.3,0-10.61,0-15.91,0-5.78,0-11.58-.26-17.35-.2-4-2.25-6.17-5.14-6.26s-4.57,1.78-5.33,5.78c0,.26-.1.53-.13.8-1.23,11.51-2.57,23-3.64,34.53a31.59,31.59,0,0,0,.52,8.89c1.42,7.14,7.5,10.75,14.53,8.78A20.79,20.79,0,0,0,155.69,80C163.4,75.15,169.8,69,174.06,60.8A22.29,22.29,0,0,0,175.59,57c.72-2.41.64-5.12-1.61-6.32a7,7,0,0,0-5.79.11,111.78,111.78,0,0,0-11.26,7.56C154.73,60,152.69,61.76,150.58,63.46Zm246,4.18a96.16,96.16,0,0,0,1.91,9.46,5.42,5.42,0,0,0,5.59,4A5.73,5.73,0,0,0,409.6,77a19.6,19.6,0,0,0,1.34-5q2.25-22.5,4.32-45a10,10,0,0,0-.44-3.47,5.08,5.08,0,0,0-4.24-4.07,5,5,0,0,0-5.39,2.37,23.7,23.7,0,0,0-2.45,5.4C398.83,39.74,397.39,52.65,396.56,67.64ZM192.78,53.06c-.61-7.87-.88-13.84-1.59-19.75a54.53,54.53,0,0,0-2.4-9.94,3.31,3.31,0,0,0-4.18-2.18c-1.83.45-2.2,1.91-2.24,3.57-.31,13.36-.66,26.72-1,40.09-.06,2.52,0,5.06.16,7.58.12,1.91.89,3.54,2.94,4.11a4.27,4.27,0,0,0,5.16-2,10.76,10.76,0,0,0,1.65-4.24C192,63.94,192.41,57.55,192.78,53.06Z"/><path d="M37,84.43c-.48,1.47-.79,2.69-1.27,3.85A5.1,5.1,0,0,1,31,91.81a4.93,4.93,0,0,1-5.12-3.32,18.42,18.42,0,0,1-1.39-6.57c.19-8.48.5-17,1.11-25.42.65-8.83,1.66-17.63,2.62-26.43a11.68,11.68,0,0,1,1.39-4.35,6.47,6.47,0,0,1,10.25-1.37,12.57,12.57,0,0,1,.9,1c5.15-1.94,9.87-3.9,14.72-5.46a11.79,11.79,0,0,1,5.38,0c5.93,1,9.21,5.49,8,11.39-.75,3.56-2.36,6.94-3.66,10.59-.06-.06.1.18.32.29,8.76,4.16,12.07,11.49,9.35,20.76-3.88,13.22-19.3,26.76-36.6,21.7A9.65,9.65,0,0,0,37,84.43Zm2.79-10.77c1.41.08,2.57.24,3.72.2,7.86-.26,16.29-6.28,19.09-13.64a9.87,9.87,0,0,0,.64-2.61c.27-2.68-.86-4.37-3.56-4.34a24.3,24.3,0,0,0-7.58,1.4,88,88,0,0,0-9.12,4,2.41,2.41,0,0,0-1.27,1.44C41,64.48,40.41,68.86,39.75,73.66ZM58,30c-3.79-.49-7.27.52-11.23,3-4.16,2.63-5.37,6.6-3.48,11.41C51.17,42.77,54.59,36.68,58,30Z"/><path d="M468.55,64.22c0-5-.19-10.06.05-15.07.42-9,1.09-18,1.71-27.06a19.89,19.89,0,0,1,.74-4.27,5.15,5.15,0,0,1,9.43-1.45A20.23,20.23,0,0,1,482.77,23,217.41,217.41,0,0,1,483.3,70a14.27,14.27,0,0,1-1.19,4.43,5.94,5.94,0,0,1-6.41,3.59c-5.41-.94-11-.18-16.17-3.36a77.14,77.14,0,0,1-18.34-15.6c-.69-.82-1.4-1.62-2.59-3l-2,9.71c-.73,3.63-1.42,7.27-2.19,10.9a13.88,13.88,0,0,1-.95,2.81,5.67,5.67,0,0,1-5.58,3.61c-2.77-.1-4.88-1.61-5.38-4.19a30.55,30.55,0,0,1-.45-9.1c.86-7.73,2.15-15.4,3.15-23.11.62-4.82,1.53-9.66-.18-14.48-.53-1.51.38-2.35,1.85-2.71a6,6,0,0,1,6.87,3.71c1.36,3,3,4,6.42,4.5,3,.44,6.23,2.63,8.46,4.92,5,5.18,9.52,10.9,14.26,16.38,1.62,1.87,3.34,3.65,5,5.48Z"/><path d="M560.89,27.33c5.36-2.34,10.59-4.26,15.44-6.86,4.12-2.2,7.84-5.16,11.67-7.86,1-.7,2-1.49,1.21-3.13-.21-.43.57-1.66,1.2-2.11a5.67,5.67,0,0,1,9.14,4.09A14.75,14.75,0,0,1,598,18.19,29.41,29.41,0,0,1,586.3,30.71c-3.79,2.3-7.81,4.23-11.81,6.15-1.61.77-2.18,1.49-2,3.44a135.39,135.39,0,0,1-1.69,35.1,18,18,0,0,1-1.69,4.84,6.54,6.54,0,0,1-6.54,4c-3.09-.18-5.37-1.94-5.94-4.76a66.31,66.31,0,0,1-1.48-13.38c0-5.68.74-11.36,1.29-17,.2-2-.25-3-2.18-4.17a20.41,20.41,0,0,1-6.87-6.34c-4.94-8-9.51-16.24-13.94-24.53-2.19-4.1-1.13-8.18,2-10.5a8.1,8.1,0,0,1,10.91,1.13,94.63,94.63,0,0,1,8.88,12.27C557.35,20.17,559,23.72,560.89,27.33Z"/><path d="M695,26.69c-1.07.07-1.6.16-2.12.13-1.1-.06-2.18-.18-3.27-.28a13.8,13.8,0,0,1,.9-3.25c1.85-3.34,4.45-5.78,8.6-5.59s6.61,2.7,8.29,6.14c2.32,4.74,2.16,9.84,1.87,14.9-.66,11.55-3.78,22.38-11.32,31.35a43.75,43.75,0,0,1-11.48,9.74c-9.67,5.54-19.54,2.33-25-7.4a35,35,0,0,1-4.07-15.89A54.43,54.43,0,0,1,661.59,33a26,26,0,0,1,3.85-6.16,4.59,4.59,0,0,1,5.65-1.46,4.66,4.66,0,0,1,2.79,5.1c-.23,2.88-.9,5.75-.87,8.63a167,167,0,0,0,.8,18.32c.29,2.44,2.34,4.68,3.59,7,2.22-1.46,4.8-2.57,6.59-4.44,6.42-6.67,9-15.15,10.37-24C694.83,33,694.82,29.89,695,26.69Z"/><path d="M327.22,50.6c1.35-.63,2.3-1.1,3.27-1.51,6.85-2.9,13.68-5.86,20.57-8.65,2.15-.87,4.5-1.19,6.19,1.05,1.37,1.83,1,4.38-1.28,6.6a23.76,23.76,0,0,1-6,4.64C343.21,56,336.31,59,329.37,61.82c-1.62.67-2.56,1.22-2.65,3.11-.12,2.59-.6,5.16-1,8.12,2.61-.66,5.08-1.13,7.45-1.9,5.43-1.77,10.85-3.58,16.18-5.61,1.81-.69,3.3-2.18,5-3.18,1-.59,2.42-1.55,3.19-1.23a4.76,4.76,0,0,1,2.67,3c.22,1.64,0,3.87-1,5-2.11,2.51-4.51,5.12-7.36,6.6-8.88,4.59-18.45,5.66-28.32,4.11a5.84,5.84,0,0,0-2.81.3c-2.89,1.09-5.36.75-6.93-1.87a29.76,29.76,0,0,1-3-7.72,25.75,25.75,0,0,1-.63-6.74c.09-10,.2-20.08.48-30.12.17-6,2.78-8.88,8.6-10.62,6.08-1.82,12.06-4,18.1-5.93A29.09,29.09,0,0,1,342.05,16c2-.29,3.93.16,4.91,2.11a4,4,0,0,1-1.28,5.35c-4.92,3.19-9.91,6.32-15.09,9.07-4.35,2.32-4.48,2.07-4.1,7,.14,1.8.26,3.61.38,5.41S327.08,48.34,327.22,50.6Z"/><path d="M225.28,48.9c5.24-3,9.89-5.84,14.65-8.45a63.17,63.17,0,0,1,7.7-3.44c3.47-1.32,6-.71,7.3,1.5s.67,4.8-2.22,7.07c-7.4,5.8-15.28,10.81-24.53,13.13-2.32.59-3.35,1.5-3.23,4a71,71,0,0,1-.44,7.55c1.11-.62,1.89-1,2.6-1.45,6.53-4.42,13.09-8.82,19.57-13.31,2-1.38,4-2,6-.44S255,58.84,254,61.16a9.25,9.25,0,0,1-1.51,2.56c-8.08,9-17.33,15.7-30.17,15.52a5,5,0,0,0-2,.55c-3.79,1.73-7.37.75-9.21-3a15.22,15.22,0,0,1-1.75-6.46c.08-12.84.27-25.68.72-38.51.18-5,2.59-7.16,7.39-8.41,3.94-1,7.78-2.44,11.7-3.57a26.74,26.74,0,0,1,5.58-1.09A4.88,4.88,0,0,1,239.87,22a4.71,4.71,0,0,1-1.81,6,88.54,88.54,0,0,1-10.4,5.86c-1.84.89-2.53,1.84-2.43,3.87C225.42,41.31,225.28,44.91,225.28,48.9Z"/><path d="M97.32,48.93c5.93-1.63,11.57-3.24,17.24-4.7a18.93,18.93,0,0,1,5.63-.68,3.6,3.6,0,0,1,2.63,1.83,3.2,3.2,0,0,1-.94,2.8,16.31,16.31,0,0,1-4.53,2.91c-5.87,2.41-11.76,4.77-17.74,6.87-2.17.76-2.89,1.89-3.13,4-.41,3.66-1.19,7.29-1.85,11.09a1.87,1.87,0,0,0,.84.1c8.73-3,17.68-5.52,25.45-10.77,1.44-1,3.16-1.36,4.12.1a5,5,0,0,1,.43,4.18,14.12,14.12,0,0,1-3.91,4.4c-6.3,5.05-13.83,7-21.63,8.09-2.42.34-4.89.38-7.31.75a4.8,4.8,0,0,0-2.47,1.26C87.3,84,83.67,84,81.66,80.56a16.26,16.26,0,0,1-2.54-7.84c0-11.47.42-22.95.86-34.42A9.67,9.67,0,0,1,86.79,29c7.38-2.46,14.87-4.6,22.39-6.62a16.39,16.39,0,0,1,6.21-.1,5.72,5.72,0,0,1,5.18,5.13c.22,2.6-1.12,4.62-4.06,5.72-5.6,2.1-11.22,4.13-16.86,6.14-2.07.74-3.08,1.9-2.65,4.24A43,43,0,0,1,97.32,48.93Z"/><path d="M646.13,49.05c-.13,14.28-11.19,27.39-25.3,30a20.45,20.45,0,0,1-23.71-24.89c2.2-10,8.31-17.53,16.33-23.62a4.69,4.69,0,0,1,5.35-.7,2.34,2.34,0,0,0,1.71-.13c8.93-3.8,18.15-1,22.58,7.42,1.87,3.58,2.57,7.77,3.8,11.68Zm-13.58-2.72a33.84,33.84,0,0,0-1.65-5.63c-2-4.25-7.31-5.51-10.73-2.29-5.15,4.84-8.42,10.84-8.56,18.06-.11,5.51,4.3,8.28,9.47,6.24C627.47,60.18,632.19,53.29,632.55,46.33Z"/><path d="M279.67,48.14c1.24-5.74,2.38-11.5,3.75-17.2a49.19,49.19,0,0,1,2.89-9c1.72-3.78,5-5.36,8.35-4.58,3.06.71,5.43,3.71,5,7.76A137.42,137.42,0,0,1,297,42c-1.54,7-3.47,13.85-5.36,20.73a26.31,26.31,0,0,1-2.38,5.76c-4,7.2-12.17,7.39-16.61.43A18,18,0,0,1,271.12,66c-5.15-12.78-9.44-25.81-11.39-39.51-.36-2.55-.39-5,2.55-6.13,2.31-.91,5.06.17,6.5,3.1,2,4.13,3.64,8.46,5.38,12.73,1.63,4,3.21,8,4.81,12Z"/><path d="M150.58,63.46c2.11-1.7,4.15-3.49,6.35-5.07a111.78,111.78,0,0,1,11.26-7.56,7,7,0,0,1,5.79-.11c2.25,1.2,2.33,3.91,1.61,6.32a22.29,22.29,0,0,1-1.53,3.76C169.8,69,163.4,75.15,155.69,80a20.79,20.79,0,0,1-5.46,2.39c-7,2-13.11-1.64-14.53-8.78a31.59,31.59,0,0,1-.52-8.89c1.07-11.53,2.41-23,3.64-34.53,0-.27.08-.54.13-.8.76-4,2.48-5.86,5.33-5.78s4.94,2.25,5.14,6.26c.3,5.77.22,11.57.26,17.35,0,5.3,0,10.61,0,15.91Z"/><path d="M396.56,67.64c.83-15,2.27-27.9,6.18-40.41a23.7,23.7,0,0,1,2.45-5.4,5,5,0,0,1,5.39-2.37,5.08,5.08,0,0,1,4.24,4.07,10,10,0,0,1,.44,3.47q-2.08,22.52-4.32,45a19.6,19.6,0,0,1-1.34,5,5.73,5.73,0,0,1-5.54,4.07,5.42,5.42,0,0,1-5.59-4A96.16,96.16,0,0,1,396.56,67.64Z"/><path d="M192.78,53.06c-.37,4.49-.8,10.88-1.45,17.24a10.76,10.76,0,0,1-1.65,4.24,4.27,4.27,0,0,1-5.16,2c-2.05-.57-2.82-2.2-2.94-4.11-.15-2.52-.22-5.06-.16-7.58.29-13.37.64-26.73,1-40.09,0-1.66.41-3.12,2.24-3.57a3.31,3.31,0,0,1,4.18,2.18,54.53,54.53,0,0,1,2.4,9.94C191.9,39.22,192.17,45.19,192.78,53.06Z"/><path class="cls-1" d="M39.75,73.66c.66-4.8,1.23-9.18,1.92-13.53a2.41,2.41,0,0,1,1.27-1.44,88,88,0,0,1,9.12-4,24.3,24.3,0,0,1,7.58-1.4c2.7,0,3.83,1.66,3.56,4.34a9.87,9.87,0,0,1-.64,2.61c-2.8,7.36-11.23,13.38-19.09,13.64C42.32,73.9,41.16,73.74,39.75,73.66Z"/><path class="cls-1" d="M58,30c-3.43,6.67-6.85,12.76-14.71,14.43-1.89-4.81-.68-8.78,3.48-11.41C50.75,30.53,54.23,29.52,58,30Z"/><path class="cls-1" d="M632.55,46.33c-.36,7-5.08,13.85-11.47,16.38-5.17,2-9.58-.73-9.47-6.24.14-7.22,3.41-13.22,8.56-18.06,3.42-3.22,8.68-2,10.73,2.29A33.84,33.84,0,0,1,632.55,46.33Z"/></g></g></svg>