<svg xmlns="http://www.w3.org/2000/svg" viewBox="0 0 734 369"><defs><style>.cls-1{fill:#fff;}</style></defs><g id="Layer_2" data-name="Layer 2"><g id="Layer_1-2" data-name="Layer 1"><path class="cls-1" d="M0,0H734V369H0ZM45,136.1c-1.2-4.25-3.43-8.75-.41-12.81,2.44-3.3,5.86-5.87,9.7-9.6C43.76,115,37.62,124.63,40.38,133.15c.79,2.42,2.12,3.55,4.69,2.85.51,1.67.48,4.05,1.6,4.89a21,21,0,0,0,17.45,4c5.8-1.23,9.15-5.32,10.46-10.88,1.22-5.19.76-10.17-4.69-14.88,0,2.2-.44,3.64.08,4.51,3,5,2.91,9.82-1,14.28-3.47,4-9.07,4.91-15.19,2.44C50.79,139.11,47.92,137.52,45,136.1ZM471.06,128c-1.77-.24-3.55-.44-5.32-.75-3.32-.57-6.71-2-9.94-1.65-6.67.64-13.24,2.32-19.9,3.29-5.67.82-11.75.26-17,2.1-8.09,2.82-15.64,7.18-23.42,10.88l.52,1.4c2-.49,4.1-.64,5.88-1.51,10.7-5.29,21.55-10.06,33.53-11.69,4.41-.6,8.82-1.91,13.21-1.85,6.67.09,13.32,1.16,20,1.6.75,0,1.59-1.25,2.4-1.92,2.75.82,5.49,1.72,8.27,2.43,5,1.26,9.93,2.5,14.94,3.5.87.18,2-.85,3-1.33-1-.48-2-1.43-3-1.37-6.4.37-12.53.15-18.09-3.84C475.09,126.59,472.77,127.73,471.06,128ZM363.73,77.59c-5.42,1.49-9.92,4.5-12.5,9.42-1.64,3.12-4.28,5-6.55,3.26-3.7-2.75-6.66-6.66-9.43-10.45s-4.78-8.26-7.6-12.07c-.93-1.25-3.38-1.38-5.13-2-1.75,5.49-4.54,1.26-5.73,1.19-.59-2.18-1.45-3.69-1.23-5,.26-1.61,1.42-3.08,2.25-4.71a168.13,168.13,0,0,0-77.18-44.81l2.88-1.09C239.07,10.48,235,8.43,232,9.5c-3.87,1.38-5.57.52-7.57-2.24a3.44,3.44,0,0,0-2.21-.91c-6.79-.85-13.58-1.77-20.4-2.41-19.17-1.77-38,.58-56.59,5.19C127,13.64,105.19,23.23,91,33.16,43.54,66.34,16.2,111.34,11.62,169.42c-.84,10.69-.12,21.5-.12,32.07l8.32,1.64C16,206.3,11.58,208,13,213.23c0,.17-.93.47-1.07.84-.74,2-1.72,4.1-1.81,6.19,0,.67,2.44,1.39,3.69,2.2a5,5,0,0,1,1.93,1.79c1.93,4.41-.09,7.13-5.62,7.85a19.94,19.94,0,0,0-3.36,1.09l.42,1.65A77.1,77.1,0,0,1,16,235a4.6,4.6,0,0,1,3.06,2.41c1.7,4.07,3.05,8.28,4.48,12.31l-4.35,1.91.31,1.24,4.78-.42c4.58,8.43,9,16.64,13.54,24.74.73,1.3,2.2,2.86,3.49,3a75.51,75.51,0,0,0,9.83.14l-15.88-28,4.47-.93c-2.3-1.64-5-2.65-6.11-4.59-1.92-3.42-2.77-7.44-4.24-11.14a6.76,6.76,0,0,0-2.28-2.94c-2.54-1.75-5.25-3.24-7.9-4.84l.56-1.61,6.08-1.18a7.58,7.58,0,0,0,0-2.17,151.33,151.33,0,0,1-3.73-59.63,207.45,207.45,0,0,1,6.61-31.21c8.6-28.93,24.72-53.28,46.71-73.85,1.68-1.57,5.32-2.89,1.43-6.64l5-1.21.68-5.86,2.74,5c15-10.74,30.33-19.89,47.59-26a172.63,172.63,0,0,1,60.69-10c4.12.05,7.62.27,9.61-4.45.48,2.25.86,4,1.23,5.77,2.4-.2,4.47-.84,6.31-.45,7.36,1.6,14.65,3.55,22,5.29,9.71,2.31,19.67,3.75,28.18,9.72,2.29,1.6,5.44,1.91,8,3.25,8.3,4.41,15.6,10.45,23.52,15.31s13.39,12,19.95,18.15c1.21,1.13,2.71,1.95,3.82,3.16s2.79,2.9,2.51,3.91a9.26,9.26,0,0,1-3.59,4.72c-3.05,2.1-6.55,3.54-9.68,5.53-5.37,3.41-8.56,9.44-14.53,12.23-1.05.49-1.7,1.85-2.54,2.81l.66,1.11c1.95-.88,4.2-1.4,5.8-2.71,6.29-5.17,12.36-10.59,18.54-15.88a2.46,2.46,0,0,1,1.62-.68c3.68.44,5.53-1.22,5.32-6.39l11.83,14.4c.64.21,4.23-3.47,4.33,2,.07,4.18.87,8.35,1.46,13.48l-2.65,5,5.64-1.77c6.51,5.35,8.66,14.38,9.69,23.36.47,4.13-3.75,8.79-6,13.62,5.71,2,4.62-5.54,9.29-6.42,1.5,9.78,3.1,19.59,4.5,29.43.85,6,2.3,12.2-1,16.26.76,3.53,1.76,5.77,1.6,7.92-.49,7-1.49,13.91-2.09,20.88a4.61,4.61,0,0,0,.84,2.51c-1.25,2.82-2.33,5.08-3.26,7.4-1.77,4.38-.67,10.11-4.9,12.05-.74,4-.9,7.22-2,10.14-6.31,17.23-16,32.6-27.66,46.56C313,299,304.91,306,297.21,313.34c-1.32,1.25-3.52,1.57-5.77,2.52-.08.33,0,2-.69,2.5-7.59,5.14-15.32,10.07-23,15.11a27,27,0,0,0-2.77,2.38l.87,1.06-4.35.54c-.79,8.3-2.72,9.58-8.73,5.92l2.89-3.79c-5.32,1.9-10.45,3.7-15.55,5.57a4,4,0,0,0-2.07,1.35c-2.25,3.72-5.86,3.67-9.52,3.73-4.48.08-9,.09-13.42.46-7.82.65-15.6,1.67-23.42,2.3-4.52.37-9.07.29-13.61.43-.82,0-1.94.47-2.41.09-4.74-3.78-10.53-2.49-15.83-3.53-6.91-1.35-14-2.39-20.63-4.55-6.34-2.06-12.25-5.43-18.38-8.15-3.27-1.45-7.41-1.94-9.74-4.28-5.4-5.4-10.64-5.36-15.7-2.21l-.77,3.71,4.57,1.82-.2.53-11.28-1,10.75,3.78c6.76,2.37,13.59,4.57,20.26,7.16,6.41,2.49,12,8.15,18.9,4.62.91,1.48,1.4,3.32,2.31,3.57,6.73,1.78,13.54,3.27,20.34,4.8a18.27,18.27,0,0,0,3.9.42c7.57,0,15.2-.75,22.59,1.79a7.36,7.36,0,0,0,2.52-.18L186.67,359c6.08-1.48,6-1.35,9,1.33,1,.86,2.69,1.09,4.09,1.18a12.32,12.32,0,0,0,4.34-.56c4-1.21,7.75-1.69,11.37,1.07.4.3,1.6-.23,2.32-.61,2.64-1.36,5.23-2.82,7.6-4.11l-8-1.11c4.6-1.1,8.82-.9,11.1-2.91,4.89-4.29,5.21,4.17,8.79,2.43,1.15-.56,2.66-.34,3.89-.79,7.77-2.81,15.62-5.43,23.2-8.67,4.94-2.11,9.55-5,14.2-7.78,41.94-24.71,70.2-60.17,83.69-107.1a132.49,132.49,0,0,0,3.57-17.08c1.59-10.77,2.81-21.59,4.24-32.84l-8.63.49-.14-1,8.11-1.32c-2.08-6.35,1.2-10.6,5.23-14.62q7.78-7.74,15.37-15.67c.88-.92,1.15-2.41,1.7-3.63l-1.85-1.18-20.76,20.14c-2.71-12-5.48-23.79-7.92-35.65a6.58,6.58,0,0,1,1.62-5.32c9.05-8.27,17.45-17.76,27.77-24a88.22,88.22,0,0,1,55.22-12.19c20.3,2.06,40.49,5.67,60.56,9.5,12.35,2.36,24.34,6.59,36.58,9.62,25.58,6.34,51.56,9.56,77.72,5.13,32.35-5.48,55-25.48,72.62-51.93.52-.78-.22-2.4-.38-3.64a16.84,16.84,0,0,0-4.62,4.68c-1.07,1.49-2.12,3-3.2,4.47-21.34,28.86-49.63,44.32-85.8,45.08-20.74.44-40.65-4.2-60.63-8.74C510.55,95.22,482.87,86.94,454,84.52c-25.5-2.14-49.83,1.46-71.31,16.27-8.42,5.81-15.8,13.14-23.66,19.78-3.3-6.35-7.37-13-10.15-20.16-1-2.6.11-7.1,1.91-9.48,3.7-4.89,8.51-8.94,12.85-13.35A38.57,38.57,0,0,1,366.94,74C382,61.28,399.5,53.86,419.07,53c13.2-.62,26.55.5,39.74,1.82,6.09.6,13.43-.67,17.87,6.87.18-1.73.27-2.6.41-4,5.85,3,13.94.21,17.54,9.17,1.41-5,4.34-3.68,7.32-3,14.55,3.5,29.12,6.88,43.69,10.33.22,0,.38.4.57.62l-3,3.73c4.74-.74,8.08-1.31,11.43-1.77,1.24-.16,3.23-.59,3.64,0,2.85,4,6.75,2.54,10.45,2.47,4-.09,8.08,0,12.12,0l0,.39-5,.9c5.49,5.91,15.94,5.09,16.88,15.2,3.4-3.59,3.59-6.79.24-7.77-5.13-1.51-5.67-4.53-4.93-7.7,12.24-2.39,24-4.6,35.61-7.07,1.12-.24,1.91-2.06,2.86-3.14-1.33,0-2.78-.47-4-.09-19,6-38.32,6.39-57.81,3.71-8.73-1.2-17.41-2.8-26-4.58-8.46-1.75-17-3.54-25.21-6s-17-2.44-24.9-6c-5.64-2.52-11.92-2.37-17.78-3.44a265.08,265.08,0,0,0-44.08-4.37c-22.62-.3-43.08,7-60.91,21.25C363.24,72.43,362,74.5,363.73,77.59Zm-261.61,118c-.51,2.6-.92,4.71-1.33,6.82l8,.24c.14,0,.29-.16.42-.26,3.59-2.78,7.16-3.48,10.33.42,16.41-13.55,18.29-14.63,25.13-14.49.11.29.39.63.32.88-2.74,10-5.48,19.93-8.32,29.86-.18.61-1.14,1.1-1.84,1.44-5.11,2.48-10.25,4.91-15.56,7.45v4.75c12.62,1.61,23.94-.42,32.14-11.59-2.37.42-4.48,1.52-6.71,2.28a5.24,5.24,0,0,1-3.7,0c-.65-.34-1-2.17-.71-3.13a3.38,3.38,0,0,1,2.34-1.94c1.78-.26,3.9-.52,5.42.2,5.5,2.62,9.32,0,12.57-3.82,4-4.74,7.67-9.81,11.62-14.92l17,14c-4.84,2.3-10.4,2.56-9.78,10.38,6.57-1.39,14.27-.84,18.61-4.39,9.1-7.46,5-16.9-1.36-25.89h17.69c.84,5.55,1.56,11.15,2.57,16.69.63,3.52-.39,4.92-4.08,5.68s-7.37,2.88-11,4.4c1.08,1.76,1.77,2.39,2.47,2.42,5.59.19,11.19.26,16.78.37s9.05-2.83,12.4-7.48c4.87-6.77,11.21-12.48,17.63-19.4,5,11.23,16.1,8,23.84,13.59l-8.25,7c.69.64,1.84,2.62,3,2.65,5.84.16,11.33-.69,16.44-4.39,4.4-3.2,1.37-6.25,1-9.29-.7-5.24-3.55-6.92-8.45-5.65-2.42.63-4.89,1.08-7.33,1.61,1.73-1.9,3.79-3.5,5.66-3.3,5,.54,4.92-1.9,3.9-5.36-.56-1.92-1.15-3.82-1.68-5.75-.7-2.5-2-3.05-4.48-2-1.4.6-3.16.38-4.76.54,0-.53-.05-1-.08-1.57l8.67-1.05c-.62-2.54-1.06-4.79-1.72-7-1.38-4.59-3.8-9.1-4.09-13.75-.36-5.74-2.84-9.72-6.71-13.33-3.16-3-6.19-6.07-9.58-8.73a47.18,47.18,0,0,0-32.64-10.23c-9.51.62-18.82,3.83-28.32,5.17-4.57.64-10,1-14-.87-13.22-6-25.14-4.47-36.77,3.57-7.39,5.12-14.91,10.05-22.44,15-1.18.77-3.07,1.89-3.94,1.45-3.7-1.87-4.92.3-6.62,2.9-.66,1-2.91,1.21-4.47,1.28-1.16.06-2.37-.66-3.67-1.07-2.91,8.64-5.35,16.95-8.55,25-1.52,3.83-4.48,7.09-6.92,10.82C92.84,196.56,97,199.57,102.12,195.54ZM41.85,283.28C54.81,302.63,70.61,318,90,329.67l-3.38-3.87c5.5-3.74,0-8.3-1.2-9.54-6.19-6.52-13.5-12-21.11-18.39.26-4.41-5.22-6.89-7.59-11.2C53.26,280.31,47.76,282.73,41.85,283.28ZM653.71,144.54l-1.19-1.35c-25.11,10.39-51,10.29-77,5-24.27-4.92-48.31-10.95-72.45-16.47-1.61-.37-3.28-.51-4.92-.76l-.59,1.62a20.17,20.17,0,0,0,4.08,2.29c3.5,1,7.1,1.76,10.66,2.59,27.67,6.43,55,14.69,83.46,17.06,18.45,1.54,36.58.22,54-6.5C651.31,147.46,652.41,145.74,653.71,144.54ZM382.51,259.91l1.45,2.4c1.17-.56,2.77-.81,3.45-1.73,3.07-4.14,5.77-8.55,8.8-12.73,14.55-20.07,33.14-34.39,57.62-40.3,4-1,7.82-2.69,11.82-3.11s8.21.45,12.33.53c6.15.11,12.31,0,18.47,0-1.32-1.72-2.87-2.79-4.48-2.88-5.79-.31-11.6-.53-17.39-.35a102.77,102.77,0,0,0-53.14,16.38c-4.9,3.13-9.07,8.11-15.93,5.45-.13,0-.46.42-.69.65,3.92,3,3.7,3.57.51,7.4C397.58,241,390.1,250.47,382.51,259.91ZM215.34,306.23c3.39,11.06,6.68,21.81,10,32.74,5.78-1.84,11.38-3.05,16.39-5.48,2.39-1.16,4.52-4.39,5.28-7.11,1.89-6.71-3.23-8.88-7.5-10.16-.18-2.08-.3-3.48-.42-4.88-.67.22-1.73.26-2,.71-2.82,5.74-8.77,5.17-13.84,7.58l-3.55-11.72c4-1,7.53-2.78,11-2.57,3.2.18,6.28,2.46,9.75,4-1.27-6.34-3.35-7.92-9-7.22-2.3.29-4.83,1.55-6.79.92-1.58-.51-2.46-3.2-4.55-6.21C221.34,302.26,220.12,305.23,215.34,306.23ZM662.4,228.68c.15-.67.29-1.34.44-2-1.49-.29-3-.94-4.46-.81-6.43.62-13,2.65-19.22,2-19.14-2-38.16-5-57.24-7.43-2.07-.27-4.26.36-6.4.57,0,.51.05,1,.08,1.52C604.2,229.29,632.9,234.64,662.4,228.68ZM293.84,108.85l-.52,2c2.05.23,4.1.49,6.15.67,2.22.21,5.46-.52,6.46.67a27.85,27.85,0,0,1,5.93,10.71c.46,1.88-2.61,4.53-3.84,6.94a29.65,29.65,0,0,0-1.52,4.7l1.72.67c7.23-8.61,14.48-17.2,21.63-25.87.59-.71.93-2.48.5-3-.85-1-2.42-2.13-3.54-2C315.8,105.73,304.82,107.32,293.84,108.85ZM142.73,322c5.14.83,9.35,1.83,13.61,2.14,5.51.39,7.9-1.89,9.27-8.22,1-4.61-.49-8.46-4.87-10.31-5-2.09-10.17-3.54-15.59-5.37l-10,34.47,4.06.21C140.49,330.32,141.61,326.16,142.73,322ZM75.39,279.16a4.93,4.93,0,0,0,1.27.25c7.12-.4,9.7,2.74,8,9.74-.72,2.89-1.6,5.76-2.08,8.7-.22,1.38.34,2.88.55,4.33h1.72l3.9-15.3c2.08.46,3.49.9,4.94,1.07,6.84.85,10.14-2.08,10.1-9-.06-8.47-5.88-12.71-13.28-17.49C85.49,267.31,80.48,273.18,75.39,279.16ZM306,252c-8.41-1.69-13.95,1.21-17.29,7.89-2.15,4.32-1.46,14.43,1.16,16.82,10.58,9.65,18.11,9.83,31,1.48.43-3.24,1-5.64,1-8a62.22,62.22,0,0,0-1.25-7.95l-2.25.18a27.38,27.38,0,0,0,0,4.62c1.58,9-6.39,16.23-14.92,13-3.15-1.18-6-3.44-8.67-5.62-3.86-3.15-5-7.49-3.5-12.18s5.06-7.19,9.89-8.07C302.38,253.93,303.55,253.09,306,252ZM48.11,201.34c0,9.15-5.86,10.07-12.46,10.2,4.84,3.56,10.84,5.84,6.34,14.37,5.76-5.44,11.15-3.78,16.93-.92-5.66-7.36-.9-11.38,4.23-15.76C55.46,211.58,50.8,209.06,48.11,201.34ZM663.79,184l1.15,1.11c.75-.29,1.53-.54,2.26-.88,20.57-9.3,35.59-24.82,48.07-43.14.76-1.11.7-2.79,1-4.2-1.31.76-3.09,1.2-3.86,2.34-11.54,16.92-25.54,31.09-44.1,40.36C666.53,180.5,665.29,182.52,663.79,184Zm-7.61-42.07.91,2c4-1.91,8.3-3.42,12-5.81,12.61-8.09,22.82-18.75,31.55-30.85,1.91-2.65,3.38-5.62,5.05-8.44L705,97.63c-1.21.85-2.77,1.46-3.56,2.61C689.78,117,676,131.37,657.53,140.75A6.82,6.82,0,0,0,656.18,141.94ZM337.54,189.79,333,182.88l-1.68.07c.36,7.41-4.13,9.07-10.29,9.25,7.52,2.28,8.94,6.74,5.47,13.56,3.16-1.36,5.43-3.92,7.76-4,2.71-.07,5.47,2.06,8.21,3.23-2.1-5.45-3.26-10.31,1.3-15.22ZM636.8,66.28c13.5-3.52,28.48-17.87,46.63-44.46a6.6,6.6,0,0,0-4.11,2.27c-10.45,15.12-22.88,28.15-38.71,37.76C639,62.81,638.06,64.78,636.8,66.28ZM78,101.42l1.89.94A18.08,18.08,0,0,0,82,99.74c3.18-5.58,7.28-8.25,13.59-4.67.42.24,1.05.53,1.41.39,1.07-.44,2.06-1.08,4.31-2.32C89.21,89.43,78.63,86.15,68,83a3.93,3.93,0,0,0-3.4.82,3.69,3.69,0,0,0-.46,3.44c3.28,5.87,6.81,11.6,10.27,17.37l1.47-.66c.33-6.61-6-10.82-7.79-17.57L84,91.49ZM143.2,33.13l16.64-5-.45-2c-7,.12-13.45,3-20.66,4.81,3.09,11.24,6,22,9,32.76l1.9-.22c3-4.71-2.35-9.21-1.26-15.12l15.1-4.2c-5.74-3.59-11.06,2-17,1.05C145.41,41.37,144.35,37.43,143.2,33.13Zm78.68,28,1.57-.3c1.58-4.29,3.15-8.58,4.68-12.73,5.66.27,8.62,2.69,9.11,8.16a46,46,0,0,0,2,8.73c.24.81,1.22,1.4,1.86,2.1l1-.51q-1-7.59-2-15.14c8.76-1.67,11.65-4.79,10-11.71-7.23,12-15,10.76-23.15.88-2.29,5.67-4.54,10.74-6.31,16C220.26,57.81,221.44,59.58,221.88,61.11ZM106.31,318.61c-.5-2.11-1.3-3.45-.93-4.29a47.19,47.19,0,0,1,5.36-10.08c.6-.78,4.2,0,5.92,1,2.83,1.59,5.25,3.91,8.12,6.13l1-2-13-9.19c1.14-2.17,1.94-3.45,2.51-4.83,2.1-5.1,3.34-5.6,8.36-2.83,3,1.64,5.81,3.63,8.83,5.23.79.42,2-.05,3.09-.11a9.49,9.49,0,0,0-1.92-2.37c-3.39-2.15-7.07-3.88-10.31-6.23-5.33-3.87-7.53-3.19-9.08,3.2a62.1,62.1,0,0,1-2.27,6.13l-.6-4.93-11.28,22.07c.91.35,1.81.62,2.65,1S104.52,317.52,106.31,318.61Zm626.9-143.08-1-1.75c-1.31.94-3,1.61-3.85,2.86-8.74,12.73-19,24-31.45,33.19-1,.72-1.88,1.55-2.82,2.33l.56,1.13c2.52-1,5.4-1.51,7.51-3.06C714.87,200.81,724.5,188.56,733.21,175.53ZM207.37,39.87c.75-1.72,1.2-2.29,1.22-2.88a14.31,14.31,0,0,0-8.35-13.1c-6.48-2.92-14.23-2-18.68,2.35s-5.2,10.19-4.65,16.16a2.13,2.13,0,0,0,1.56,1.39A2.18,2.18,0,0,0,180,42.36c.41-2,.5-4,.8-5.93,1.05-6.9,4.59-10.5,10.8-11S202,27.84,204.4,34.22A58.16,58.16,0,0,0,207.37,39.87Zm228,129.7c.11.57.23,1.15.35,1.72,23.82-6.11,47.54-4.15,71.29.65-2.93.76-3.76-8.17-7.08-2.53-2.92-.92-5.33-2.07-7.85-2.41-5.93-.79-11.91-1.4-17.88-1.69-6.54-.32-13.18-.81-19.64-.09S441.73,168.06,435.34,169.57Zm-22.51,11.35c-.41-.66-.83-1.31-1.24-2-2.49,1.64-5,3.2-7.43,5-.89.65-1.36,2.43-2.18,2.55-8.07,1.14-11.49,7.87-16.09,13.15-2.15,2.48-4,5.24-6,7.84-1.06,1.37-2.26,2.63-3.27,4-2.14,2.9-4.24,5.83-6.25,8.82-.93,1.38-1.6,2.92-2.39,4.38l1.17.91a41.68,41.68,0,0,0,3.86-4.13c2.36-3.28,4.32-6.85,6.79-10,5.4-7,11-13.75,16.57-20.55a9.12,9.12,0,0,1,2.44-1.5ZM273.66,45.8c-6.42,8.6-12.72,16.93-18.85,25.38-.56.78-.07,2.32-.07,3.5l1.48.11,17-22.49c.84,7.21.84,7.21,4,7.29C275.66,55.18,279.6,49.63,273.66,45.8ZM186.29,341.66c8,3.75,17.26-1,17.87-9.67.48-7,.23-14,.11-20.95,0-.93-1.21-1.84-1.86-2.76-.52,1-1.48,2-1.5,3-.1,5.82,0,11.64.06,17.46.05,4.33-1.42,8-5.36,10C192.68,340.16,189.33,340.74,186.29,341.66Zm87-66.73c-.32,2.49-1.05,4.13-.54,4.72,7,8.13,14.08,16.13,21.17,24.16l2-.7c-.38-1.41-.35-3.19-1.21-4.18C288.06,291.3,281.27,283.82,273.3,274.93Zm-87.92,64.75c-8.1-9.58-2.81-20.82-5.19-31.74-1.17.92-2.94,1.67-2.93,2.39.15,8.29.27,16.6,1.05,24.85C178.62,338.5,181.06,340.86,185.38,339.68ZM694.9,216.05l-.69-2c-1.48.11-3.08-.11-4.4.4q-12.06,4.67-24,9.7c-.86.37-1.22,1.92-1.81,2.93l1.32,1.72ZM178.31,46.63v6.08a38.57,38.57,0,0,1,4.69,2c8.16,5.18,19.24,2.91,21.57-4-4.36,1.08-9.21,3.63-13.62,3S182.84,49.35,178.31,46.63Zm95.31,273c-2.6-1.35-5.61-2-7.13-3.89-4.07-5-7.5-10.58-11.57-16.5-.74,10.68,9,16,11.67,24.9ZM108.53,82.74c-5.68-5.79-5.68-5.79-8.7-4.53,2.45,3.2,4.81,6.3,7.36,9.65,5-3.81,9.76-7.32,14.35-11,.68-.55.52-2.13.75-3.23l-1.26-.2Zm400,89.71,15.33,3.49c3.21.73,6.44,1.35,9.61,2.2,3.9,1.05,7.72,2.41,11.65,3.33.87.21,2-.85,3.25-1.4-4.91-4.71-10.9-.59-16-4.18-3.87-2.71-9.84-2.44-14.78-3.47a6.12,6.12,0,0,1,.14,1.31c0,.11-.52.18-.79.26C512.65,169.16,511.87,169,508.52,172.45ZM277,62.34l-1.89-.45c-.46,1.26-1.26,2.51-1.31,3.78-.25,6.48-.33,13-.38,19.44a5.31,5.31,0,0,0,.68,2.85,11.65,11.65,0,0,0,2.48,2.18c.47-.9,1.37-1.82,1.34-2.7-.08-2.26-.82-4.5-.87-6.75C276.88,74.58,277,68.46,277,62.34ZM578.7,186.41a37.24,37.24,0,0,0-3.68-1.32c-6.26-1.24-12.51-2.55-18.8-3.6a43,43,0,0,0-6.91-.06l0,1.48C558.52,184.78,567.53,188.43,578.7,186.41ZM279.3,81.48,281,83.14c6.68-5.3,10.88-12.81,16.36-19.55a23.23,23.23,0,0,0-2.23-1.48C289.8,68.52,284.55,75,279.3,81.48Zm320.84,117.2.7.21c.51-1.89,1-3.77,1.51-5.62l4.08-1.25L581,186.65c5.13,6.83,12.56,5,19.17,6.17ZM611,191.31l-.09,2h24.18c0-.51,0-1,.05-1.55C627.1,190.49,619,190.86,611,191.31ZM124.82,50.86l-2.64,1.07C124.33,56.31,126,61,128.78,65c1.86,2.7,4.44,4.52-.65,8.13,8-2.76,7.91-2.84,3.91-8.18a78.33,78.33,0,0,1-5.74-9.52A26.32,26.32,0,0,1,124.82,50.86ZM98.38,72C91,59.19,90.15,58.43,86.63,61,90.64,64.71,92,71.1,98.38,72Zm496.34,50.63-1.4-2c-2.59.76-5.32,1.25-7.68,2.46-.62.31-.6,3.88,0,4.22,1.38.72,3.74,1,5,.21C592.36,126.47,593.4,124.34,594.72,122.67Zm-28.43,96.41.36-2c-4.32-1.19-8.61-2.5-13-3.44-.56-.12-1.51,1.59-2.85,3.1Zm-328.18-186,.51-2.22-7.5-3.32-3.74,11.06,1.4,1.15C231.58,37.09,231.27,29.71,238.11,33.11ZM536.58,212.28l-.15,1.18c3.44.47,6.88,1,10.33,1.39a27.13,27.13,0,0,0,3,.06c-.69-.88-1.34-2.45-2.09-2.51C544,212.14,540.28,212.28,536.58,212.28ZM91,319.9l-1.4.49c1,2.89,1.94,5.78,3.31,9.88l4.15-6.17C94.75,322.51,92.88,321.2,91,319.9ZM510.34,207.22l.44-1.54-11.56-3.45c-.18.64-.37,1.28-.55,1.92C501.89,207.55,506.31,206.67,510.34,207.22Zm-93.81-32.41c.05.71.11,1.43.16,2.14l9.61-2.08-.38-2.38C422.51,171.1,419.59,173.48,416.53,174.81ZM79.08,106.06l-1.21.39a27.47,27.47,0,0,0,.57,3.65A18.54,18.54,0,0,0,80,113.89a18.47,18.47,0,0,0,2,2.46c.44-1.09,1.54-2.47,1.21-3.21A66.43,66.43,0,0,0,79.08,106.06Zm124-57.47c4,1,5-1.18,5.1-3.92a18.33,18.33,0,0,0-.78-4.25l-1.1.36Zm-127.88,234-.69-1.3a50.33,50.33,0,0,0-6,3.43c-.32.23.55,2.1,1.08,3.95Zm456.06-74.09H520.45c0,.47,0,.94,0,1.41C523.76,208.59,527,214.15,531.29,208.48ZM119.45,48c3.52-2.49,2.06-5,.38-7.23-.44-.56-2.24-.08-3.91-.08ZM284,313.54l-1-2.05-8.29,4.37.82,1.71Z"/><path d="M102.12,195.54c-5.11,4-9.28,1-14-1.73,2.44-3.73,5.4-7,6.92-10.82,3.2-8,5.64-16.32,8.55-25,1.3.41,2.51,1.13,3.67,1.07,1.56-.07,3.81-.28,4.47-1.28,1.7-2.6,2.92-4.77,6.62-2.9.87.44,2.76-.68,3.94-1.45,7.53-4.92,15.05-9.85,22.44-15,11.63-8,23.55-9.61,36.77-3.57,4,1.83,9.41,1.51,14,.87,9.5-1.34,18.81-4.55,28.32-5.17a47.18,47.18,0,0,1,32.64,10.23c3.39,2.66,6.42,5.78,9.58,8.73,3.87,3.61,6.35,7.59,6.71,13.33.29,4.65,2.71,9.16,4.09,13.75.66,2.18,1.1,4.43,1.72,7l-8.67,1.05c0,.52.06,1,.08,1.57,1.6-.16,3.36.06,4.76-.54,2.46-1.05,3.78-.5,4.48,2,.53,1.93,1.12,3.83,1.68,5.75,1,3.46,1.11,5.9-3.9,5.36-1.87-.2-3.93,1.4-5.66,3.3,2.44-.53,4.91-1,7.33-1.61,4.9-1.27,7.75.41,8.45,5.65.41,3,3.44,6.09-1,9.29-5.11,3.7-10.6,4.55-16.44,4.39-1.2,0-2.35-2-3-2.65l8.25-7c-7.74-5.58-18.84-2.36-23.84-13.59-6.42,6.92-12.76,12.63-17.63,19.4-3.35,4.65-6.67,7.6-12.4,7.48s-11.19-.18-16.78-.37c-.7,0-1.39-.66-2.47-2.42,3.66-1.52,7.21-3.62,11-4.4s4.71-2.16,4.08-5.68c-1-5.54-1.73-11.14-2.57-16.69H196.66c6.33,9,10.46,18.43,1.36,25.89-4.34,3.55-12,3-18.61,4.39-.62-7.82,4.94-8.08,9.78-10.38l-17-14c-3.95,5.11-7.6,10.18-11.62,14.92-3.25,3.82-7.07,6.44-12.57,3.82-1.52-.72-3.64-.46-5.42-.2a3.38,3.38,0,0,0-2.34,1.94c-.27,1,.06,2.79.71,3.13a5.24,5.24,0,0,0,3.7,0c2.23-.76,4.34-1.86,6.71-2.28-8.2,11.17-19.52,13.2-32.14,11.59V227.9c5.31-2.54,10.45-5,15.56-7.45.7-.34,1.66-.83,1.84-1.44,2.84-9.93,5.58-19.89,8.32-29.86.07-.25-.21-.59-.32-.88-6.84-.14-8.72.94-25.13,14.49-3.17-3.9-6.74-3.2-10.33-.42-.13.1-.28.26-.42.26l-8-.24C101.2,200.25,101.61,198.14,102.12,195.54Z"/><path d="M363.68,77.59c-4.36,4.4-9.17,8.45-12.87,13.34-1.8,2.38-2.92,6.88-1.91,9.48,2.78,7.15,6.85,13.81,10.15,20.16,7.86-6.64,15.24-14,23.66-19.78C404.19,86,428.52,82.38,454,84.52c28.85,2.42,56.53,10.7,84.58,17.08,20,4.54,39.89,9.18,60.63,8.74,36.17-.76,64.46-16.22,85.8-45.08,1.08-1.47,2.13-3,3.2-4.47a16.84,16.84,0,0,1,4.62-4.68c.16,1.24.9,2.86.38,3.64C675.57,86.2,653,106.2,620.61,111.68c-26.16,4.43-52.14,1.21-77.72-5.13-12.24-3-24.23-7.26-36.58-9.62-20.07-3.83-40.26-7.44-60.56-9.5a88.22,88.22,0,0,0-55.22,12.19c-10.32,6.28-18.72,15.77-27.77,24a6.58,6.58,0,0,0-1.62,5.32c2.44,11.86,5.21,23.66,7.92,35.65l20.76-20.14,1.85,1.18c-.55,1.22-.82,2.71-1.7,3.63q-7.56,7.95-15.37,15.67c-4,4-7.31,8.27-5.23,14.62l-8.11,1.32.14,1,8.63-.49c-1.43,11.25-2.65,22.07-4.24,32.84a132.49,132.49,0,0,1-3.57,17.08c-13.49,46.93-41.75,82.39-83.69,107.1-4.65,2.74-9.26,5.67-14.2,7.78-7.58,3.24-15.43,5.86-23.2,8.67-1.23.45-2.74.23-3.89.79-3.58,1.74-3.9-6.72-8.79-2.43-2.28,2-6.5,1.81-11.1,2.91l8,1.11c-2.37,1.29-5,2.75-7.6,4.11-.72.38-1.92.91-2.32.61-3.62-2.76-7.41-2.28-11.37-1.07a12.32,12.32,0,0,1-4.34.56c-1.4-.09-3.12-.32-4.09-1.18-3-2.68-2.9-2.81-9-1.33l2.62,2.84a7.36,7.36,0,0,1-2.52.18c-7.39-2.54-15-1.76-22.59-1.79a18.27,18.27,0,0,1-3.9-.42c-6.8-1.53-13.61-3-20.34-4.8-.91-.25-1.4-2.09-2.31-3.57-6.88,3.53-12.49-2.13-18.9-4.62-6.67-2.59-13.5-4.79-20.26-7.16l-10.75-3.78,11.28,1,.2-.53-4.57-1.82.77-3.71c5.06-3.15,10.3-3.19,15.7,2.21,2.33,2.34,6.47,2.83,9.74,4.28,6.13,2.72,12,6.09,18.38,8.15,6.67,2.16,13.72,3.2,20.63,4.55,5.3,1,11.09-.25,15.83,3.53.47.38,1.59-.07,2.41-.09,4.54-.14,9.09-.06,13.61-.43,7.82-.63,15.6-1.65,23.42-2.3,4.45-.37,8.94-.38,13.42-.46,3.66-.06,7.27,0,9.52-3.73a4,4,0,0,1,2.07-1.35c5.1-1.87,10.23-3.67,15.55-5.57l-2.89,3.79c6,3.66,7.94,2.38,8.73-5.92l4.35-.54-.87-1.06a27,27,0,0,1,2.77-2.38c7.66-5,15.39-10,23-15.11.71-.48.61-2.17.69-2.5,2.25-.95,4.45-1.27,5.77-2.52C304.91,306,313,299,319.84,290.82c11.68-14,21.35-29.33,27.66-46.56,1.07-2.92,1.23-6.18,2-10.14,4.23-1.94,3.13-7.67,4.9-12.05.93-2.32,2-4.58,3.26-7.4a4.61,4.61,0,0,1-.84-2.51c.6-7,1.6-13.9,2.09-20.88.16-2.15-.84-4.39-1.6-7.92,3.33-4.06,1.88-10.23,1-16.26-1.4-9.84-3-19.65-4.5-29.43-4.67.88-3.58,8.44-9.29,6.42,2.28-4.83,6.5-9.49,6-13.62-1-9-3.18-18-9.69-23.36l-5.64,1.77,2.65-5c-.59-5.13-1.39-9.3-1.46-13.48-.1-5.51-3.69-1.83-4.33-2l-11.83-14.4c.21,5.17-1.64,6.83-5.32,6.39a2.46,2.46,0,0,0-1.62.68c-6.18,5.29-12.25,10.71-18.54,15.88-1.6,1.31-3.85,1.83-5.8,2.71l-.66-1.11c.84-1,1.49-2.32,2.54-2.81,6-2.79,9.16-8.82,14.53-12.23,3.13-2,6.63-3.43,9.68-5.53a9.26,9.26,0,0,0,3.59-4.72c.28-1-1.43-2.75-2.51-3.91s-2.61-2-3.82-3.16C305.76,60,300.4,52.89,292.37,48s-15.22-10.9-23.52-15.31c-2.53-1.34-5.68-1.65-8-3.25-8.51-6-18.47-7.41-28.18-9.72-7.34-1.74-14.63-3.69-22-5.29-1.84-.39-3.91.25-6.31.45-.37-1.76-.75-3.52-1.23-5.77-2,4.72-5.49,4.5-9.61,4.45a172.63,172.63,0,0,0-60.69,10c-17.26,6.14-32.64,15.29-47.59,26l-2.74-5-.68,5.86-5,1.21c3.89,3.75.25,5.07-1.43,6.64-22,20.57-38.11,44.92-46.71,73.85a207.45,207.45,0,0,0-6.61,31.21,151.33,151.33,0,0,0,3.73,59.63,7.58,7.58,0,0,1,0,2.17l-6.08,1.18-.56,1.61c2.65,1.6,5.36,3.09,7.9,4.84a6.76,6.76,0,0,1,2.28,2.94c1.47,3.7,2.32,7.72,4.24,11.14,1.08,1.94,3.81,2.95,6.11,4.59l-4.47.93,15.88,28a75.51,75.51,0,0,1-9.83-.14c-1.29-.16-2.76-1.72-3.49-3-4.57-8.1-9-16.31-13.54-24.74l-4.78.42-.31-1.24,4.35-1.91c-1.43-4-2.78-8.24-4.48-12.31A4.6,4.6,0,0,0,16,235a77.1,77.1,0,0,0-8.87-.12l-.42-1.65a19.94,19.94,0,0,1,3.36-1.09c5.53-.72,7.55-3.44,5.62-7.85a5,5,0,0,0-1.93-1.79c-1.25-.81-3.72-1.53-3.69-2.2.09-2.09,1.07-4.15,1.81-6.19.14-.37,1.11-.67,1.07-.84-1.37-5.23,3.08-6.93,6.87-10.1l-8.32-1.64c0-10.57-.72-21.38.12-32.07C16.2,111.34,43.54,66.34,91,33.16c14.2-9.93,36-19.52,54.25-24,18.61-4.61,37.42-7,56.59-5.19,6.82.64,13.61,1.56,20.4,2.41a3.44,3.44,0,0,1,2.21.91c2,2.76,3.7,3.62,7.57,2.24,3-1.07,7.06,1,11.5,1.79l-2.88,1.09a168.13,168.13,0,0,1,77.18,44.81c-.83,1.63-2,3.1-2.25,4.71-.22,1.33.64,2.84,1.23,5,1.19.07,4,4.3,5.73-1.19,1.75.64,4.2.77,5.13,2,2.82,3.81,4.79,8.25,7.6,12.07s5.73,7.7,9.43,10.45c2.27,1.7,4.91-.14,6.55-3.26,2.58-4.92,7.08-7.93,12.5-9.42ZM240,348.23l-.05,1c2.56.34,5.12,1,7.65.87.92,0,1.76-1.9,2.63-2.94-1.11-.39-2.32-1.28-3.32-1.09A57.59,57.59,0,0,0,240,348.23Z"/><path d="M363.73,77.59c-1.76-3.09-.49-5.16,2-7.18,17.83-14.22,38.29-21.55,60.91-21.25a265.08,265.08,0,0,1,44.08,4.37c5.86,1.07,12.14.92,17.78,3.44,7.91,3.54,16.69,3.48,24.9,6s16.75,4.3,25.21,6c8.63,1.78,17.31,3.38,26,4.58,19.49,2.68,38.84,2.31,57.81-3.71,1.2-.38,2.65,0,4,.09-1,1.08-1.74,2.9-2.86,3.14C612,75.57,600.25,77.78,588,80.17c-.74,3.17-.2,6.19,4.93,7.7,3.35,1,3.16,4.18-.24,7.77-.94-10.11-11.39-9.29-16.88-15.2l5-.9,0-.39c-4,0-8.08-.07-12.12,0-3.7.07-7.6,1.52-10.45-2.47-.41-.57-2.4-.14-3.64,0-3.35.46-6.69,1-11.43,1.77l3-3.73c-.19-.22-.35-.57-.57-.62C531.07,70.69,516.5,67.31,502,63.81c-3-.72-5.91-2.07-7.32,3-3.6-9-11.69-6.14-17.54-9.17-.14,1.44-.23,2.31-.41,4-4.44-7.54-11.78-6.27-17.87-6.87-13.19-1.32-26.54-2.44-39.74-1.82-19.57.91-37.06,8.33-52.13,21a36.1,36.1,0,0,0-3.27,3.59Z"/><path d="M41.85,283.28c5.91-.55,11.41-3,14.9,3.39,2.37,4.31,7.85,6.79,7.59,11.2,7.61,6.41,14.92,11.87,21.11,18.39,1.17,1.24,6.7,5.8,1.2,9.54L90,329.67C70.61,318,54.81,302.63,41.85,283.28Z"/><path d="M653.71,144.54c-1.3,1.2-2.4,2.92-3.93,3.51-17.44,6.72-35.57,8-54,6.5-28.5-2.37-55.79-10.63-83.46-17.06-3.56-.83-7.16-1.56-10.66-2.59a20.17,20.17,0,0,1-4.08-2.29l.59-1.62c1.64.25,3.31.39,4.92.76,24.14,5.52,48.18,11.55,72.45,16.47,26,5.26,51.89,5.36,77-5Z"/><path d="M382.51,259.91c7.59-9.44,15.07-19,22.82-28.26,3.19-3.83,3.41-4.37-.51-7.41.23-.22.56-.69.69-.64,6.86,2.66,11-2.32,15.93-5.45a102.77,102.77,0,0,1,53.14-16.38c5.79-.18,11.6,0,17.39.35,1.61.09,3.16,1.16,4.48,2.88-6.16,0-12.32.08-18.47,0-4.12-.08-8.29-1-12.33-.53s-7.86,2.15-11.82,3.11c-24.48,5.91-43.07,20.23-57.62,40.3-3,4.18-5.73,8.59-8.8,12.73-.68.92-2.28,1.17-3.45,1.73Z"/><path d="M215.34,306.23c4.78-1,6-4,4.81-9.44,2.09,3,3,5.7,4.55,6.21,2,.63,4.49-.63,6.79-.92,5.66-.7,7.74.88,9,7.22-3.47-1.5-6.55-3.78-9.75-4-3.45-.21-7,1.55-11,2.57l3.55,11.72c5.07-2.41,11-1.84,13.84-7.58.22-.45,1.28-.49,2-.71.12,1.4.24,2.8.42,4.88,4.27,1.28,9.39,3.45,7.5,10.16-.76,2.72-2.89,5.95-5.28,7.11-5,2.43-10.61,3.64-16.39,5.48C222,328,218.73,317.29,215.34,306.23Zm9.31,15.6c1.12,4.67,2.12,8.85,3.24,13.49,4.41-1.53,8.51-2.22,11.69-4.31,2.19-1.44,4.6-5,4.26-7.27-.52-3.52-4-5.57-8-4.71C232.27,319.79,228.77,320.79,224.65,321.83Z"/><path d="M662.4,228.68c-29.5,6-58.2.61-86.8-6.15,0-.5-.05-1-.08-1.52,2.14-.21,4.33-.84,6.4-.57,19.08,2.46,38.1,5.47,57.24,7.43,6.27.64,12.79-1.39,19.22-2,1.45-.13,3,.52,4.46.81C662.69,227.34,662.55,228,662.4,228.68Z"/><path d="M293.84,108.85c11-1.53,22-3.12,33-4.47,1.12-.14,2.69,1,3.54,2,.43.51.09,2.28-.5,3-7.15,8.67-14.4,17.26-21.63,25.87l-1.72-.67a29.65,29.65,0,0,1,1.52-4.7c1.23-2.41,4.3-5.06,3.84-6.94a27.85,27.85,0,0,0-5.93-10.71c-1-1.19-4.24-.46-6.46-.67-2.05-.18-4.1-.44-6.15-.67ZM309,110.18l5.82,10.42c3.83-4.28,7.17-8,11.52-12.85Z"/><path d="M142.73,322c-1.12,4.19-2.24,8.35-3.47,12.92l-4.06-.21,10-34.47c5.42,1.83,10.64,3.28,15.59,5.37,4.38,1.85,5.87,5.7,4.87,10.31-1.37,6.33-3.76,8.61-9.27,8.22C152.08,323.8,147.87,322.8,142.73,322Zm5.09-17.63c-1.43,5.05-2.68,9.45-4,14.23,3.65.92,6.81,1.92,10,2.5,4.15.75,6.73-1.47,7.89-5.23s-.11-6.67-3.75-8.14C154.79,306.41,151.46,305.53,147.82,304.34Z"/><path d="M75.39,279.16c5.09-6,10.1-11.85,15.08-17.71,7.4,4.78,13.22,9,13.28,17.49,0,6.93-3.26,9.86-10.1,9-1.45-.17-2.86-.61-4.94-1.07l-3.9,15.3H83.09c-.21-1.45-.77-2.95-.55-4.33.48-2.94,1.36-5.81,2.08-8.7,1.74-7-.84-10.14-8-9.74A4.93,4.93,0,0,1,75.39,279.16Zm6.94-4.38a16.82,16.82,0,0,0,10.15,9.79c1.91.63,5.47-.6,6.77-2.2a7.74,7.74,0,0,0,.59-7c-1.73-3.21-4.74-5.73-7.28-8.6Z"/><path d="M306,252c-2.41,1.12-3.58,2-4.85,2.19-4.83.88-8.41,3.34-9.89,8.07s-.36,9,3.5,12.18c2.66,2.18,5.52,4.44,8.67,5.62,8.53,3.19,16.5-4,14.92-13a27.38,27.38,0,0,1,0-4.62l2.25-.18a62.22,62.22,0,0,1,1.25,7.95c.07,2.38-.55,4.78-1,8-12.85,8.35-20.38,8.17-31-1.48-2.62-2.39-3.31-12.5-1.16-16.82C292,253.18,297.55,250.28,306,252Z"/><path d="M48.11,201.34c2.69,7.72,7.35,10.24,15,7.89-5.13,4.38-9.89,8.4-4.23,15.76-5.78-2.86-11.17-4.52-16.93.92,4.5-8.53-1.5-10.81-6.34-14.37C42.25,211.41,48.06,210.49,48.11,201.34Z"/><path d="M663.79,184c1.5-1.49,2.74-3.51,4.54-4.41,18.56-9.27,32.56-23.44,44.1-40.36.77-1.14,2.55-1.58,3.86-2.34-.32,1.41-.26,3.09-1,4.2-12.48,18.32-27.5,33.84-48.07,43.14-.73.34-1.51.59-2.26.88Z"/><path d="M656.18,141.94a6.82,6.82,0,0,1,1.35-1.19c18.43-9.38,32.25-23.73,43.86-40.51.79-1.15,2.35-1.76,3.56-2.61l.76,1.23c-1.67,2.82-3.14,5.79-5.05,8.44-8.73,12.1-18.94,22.76-31.55,30.85-3.72,2.39-8,3.9-12,5.81Z"/><path d="M337.54,189.79h6.2c-4.56,4.91-3.4,9.77-1.3,15.22-2.74-1.17-5.5-3.3-8.21-3.23-2.33.06-4.6,2.62-7.76,4,3.47-6.82,2-11.28-5.47-13.56,6.16-.18,10.65-1.84,10.29-9.25l1.68-.07Z"/><path d="M636.8,66.28c1.26-1.5,2.23-3.47,3.81-4.43,15.83-9.61,28.26-22.64,38.71-37.76a6.6,6.6,0,0,1,4.11-2.27C665.28,48.41,650.3,62.76,636.8,66.28Z"/><path d="M78,101.42,84,91.49,68.1,86.43c1.84,6.75,8.12,11,7.79,17.57l-1.47.66c-3.46-5.77-7-11.5-10.27-17.37a3.69,3.69,0,0,1,.46-3.44A3.93,3.93,0,0,1,68,83c10.62,3.12,21.2,6.4,33.34,10.11C99.1,94.38,98.11,95,97,95.46c-.36.14-1-.15-1.41-.39-6.31-3.58-10.41-.91-13.59,4.67a18.08,18.08,0,0,1-2.2,2.62Z"/><path d="M143.2,33.13c1.15,4.3,2.21,8.24,3.26,12.14,5.95,1,11.27-4.64,17-1.05l-15.1,4.2c-1.09,5.91,4.23,10.41,1.26,15.12l-1.9.22c-3-10.76-5.91-21.52-9-32.76,7.21-1.78,13.67-4.69,20.66-4.81l.45,2Z"/><path d="M221.88,61.11c-.44-1.53-1.62-3.3-1.2-4.54,1.77-5.24,4-10.31,6.31-16,8.12,9.88,15.92,11.13,23.15-.88,1.6,6.92-1.29,10-10,11.71q1,7.55,2,15.14l-1,.51c-.64-.7-1.62-1.29-1.86-2.1a46,46,0,0,1-2-8.73c-.49-5.47-3.45-7.89-9.11-8.16-1.53,4.15-3.1,8.44-4.68,12.73Z"/><path d="M106.31,318.61c-1.79-1.09-2.6-1.66-3.48-2.09s-1.74-.69-2.65-1l11.28-22.07.6,4.93a62.1,62.1,0,0,0,2.27-6.13c1.55-6.39,3.75-7.07,9.08-3.2,3.24,2.35,6.92,4.08,10.31,6.23a9.49,9.49,0,0,1,1.92,2.37c-1,.06-2.3.53-3.09.11-3-1.6-5.83-3.59-8.83-5.23-5-2.77-6.26-2.27-8.36,2.83-.57,1.38-1.37,2.66-2.51,4.83l13,9.19-1,2c-2.87-2.22-5.29-4.54-8.12-6.13-1.72-1-5.32-1.79-5.92-1a47.19,47.19,0,0,0-5.36,10.08C105,315.16,105.81,316.5,106.31,318.61Z"/><path d="M733.21,175.53c-8.71,13-18.34,25.28-31.08,34.7-2.11,1.55-5,2.06-7.51,3.06l-.56-1.13c.94-.78,1.84-1.61,2.82-2.33,12.48-9.17,22.71-20.46,31.45-33.19.85-1.25,2.54-1.92,3.85-2.86Z"/><path d="M471,127.91c-.8.67-1.64,2-2.39,1.92-6.68-.44-13.33-1.51-20-1.6-4.39-.06-8.8,1.25-13.21,1.85-12,1.63-22.83,6.4-33.53,11.69-1.78.87-3.91,1-5.88,1.51l-.52-1.4c7.78-3.7,15.33-8.06,23.42-10.88,5.28-1.84,11.36-1.28,17-2.1,6.66-1,13.23-2.65,19.9-3.29,3.23-.31,6.62,1.08,9.94,1.65,1.77.31,3.55.51,5.32.75Z"/><path d="M207.37,39.87a58.16,58.16,0,0,1-3-5.65c-2.43-6.38-6.63-9.33-12.82-8.81s-9.75,4.12-10.8,11c-.3,2-.39,4-.8,5.93a2.18,2.18,0,0,1-1.51,1.43,2.13,2.13,0,0,1-1.56-1.39c-.55-6,.08-11.68,4.65-16.16s12.2-5.27,18.68-2.35A14.31,14.31,0,0,1,208.59,37C208.57,37.58,208.12,38.15,207.37,39.87Z"/><path d="M435.34,169.57c6.39-1.51,12.71-3.63,19.19-4.35s13.1-.23,19.64.09c6,.29,11.95.9,17.88,1.69,2.52.34,4.93,1.49,7.85,2.41,3.32-5.64,4.15,3.29,7.08,2.53-23.75-4.8-47.47-6.76-71.29-.65C435.57,170.72,435.45,170.14,435.34,169.57Z"/><path d="M412.83,180.92l-14,8.46a9.12,9.12,0,0,0-2.44,1.5c-5.58,6.8-11.17,13.6-16.57,20.55-2.47,3.18-4.43,6.75-6.79,10a41.68,41.68,0,0,1-3.86,4.13l-1.17-.91c.79-1.46,1.46-3,2.39-4.38,2-3,4.11-5.92,6.25-8.82,1-1.39,2.21-2.65,3.27-4,2-2.6,3.82-5.36,6-7.84,4.6-5.28,8-12,16.09-13.15.82-.12,1.29-1.9,2.18-2.55,2.4-1.76,4.94-3.32,7.43-5C412,179.61,412.42,180.26,412.83,180.92Z"/><path d="M45,136.1c2.94,1.42,5.81,3,8.83,4.23,6.12,2.47,11.72,1.56,15.19-2.44,3.88-4.46,4-9.23,1-14.28-.52-.87-.08-2.31-.08-4.51,5.45,4.71,5.91,9.69,4.69,14.88-1.31,5.56-4.66,9.65-10.46,10.88a21,21,0,0,1-17.45-4c-1.12-.84-1.09-3.22-1.6-4.89Z"/><path d="M273.66,45.8c5.94,3.83,2,9.38,3.57,13.79-3.2-.08-3.2-.08-4-7.29l-17,22.49-1.48-.11c0-1.18-.49-2.72.07-3.5C260.94,62.73,267.24,54.4,273.66,45.8Z"/><path d="M186.29,341.66c3-.92,6.39-1.5,9.32-2.93,3.94-1.94,5.41-5.65,5.36-10-.07-5.82-.16-11.64-.06-17.46,0-1,1-2,1.5-3,.65.92,1.84,1.83,1.86,2.76.12,7,.37,14-.11,20.95C203.55,340.67,194.27,345.41,186.29,341.66Z"/><path d="M273.3,274.93c8,8.89,14.76,16.37,21.38,24,.86,1,.83,2.77,1.21,4.18l-2,.7c-7.09-8-14.21-16-21.17-24.16C272.25,279.06,273,277.42,273.3,274.93Z"/><path d="M185.38,339.68c-4.32,1.18-6.76-1.18-7.07-4.5-.78-8.25-.9-16.56-1.05-24.85,0-.72,1.76-1.47,2.93-2.39C182.57,318.86,177.28,330.1,185.38,339.68Z"/><path d="M694.9,216.05l-29.55,12.8L664,227.13c.59-1,1-2.56,1.81-2.93q11.89-5.05,24-9.7c1.32-.51,2.92-.29,4.4-.4Z"/><path d="M178.31,46.63c4.53,2.72,8.36,6.56,12.64,7.16s9.26-1.93,13.62-3c-2.33,6.87-13.41,9.14-21.57,4a38.57,38.57,0,0,0-4.69-2Z"/><path d="M273.62,319.63l-7,4.51c-2.64-8.86-12.41-14.22-11.67-24.9,4.07,5.92,7.5,11.47,11.57,16.5C268,317.61,271,318.28,273.62,319.63Z"/><path d="M108.53,82.74,121,73.38l1.26.2c-.23,1.1-.07,2.68-.75,3.23-4.59,3.73-9.35,7.24-14.35,11-2.55-3.35-4.91-6.45-7.36-9.65C102.85,77,102.85,77,108.53,82.74Z"/><path d="M508.52,172.45c3.35-3.47,4.13-3.29,8.4,1.54.27-.08.78-.15.79-.26a6.12,6.12,0,0,0-.14-1.31c4.94,1,10.91.76,14.78,3.47,5.11,3.59,11.1-.53,16,4.18-1.21.55-2.38,1.61-3.25,1.4-3.93-.92-7.75-2.28-11.65-3.33-3.17-.85-6.4-1.47-9.61-2.2Z"/><path d="M277,62.34c0,6.12-.08,12.24.05,18.35.05,2.25.79,4.49.87,6.75,0,.88-.87,1.8-1.34,2.7A11.65,11.65,0,0,1,274.06,88a5.31,5.31,0,0,1-.68-2.85c.05-6.48.13-13,.38-19.44.05-1.27.85-2.52,1.31-3.78Z"/><path d="M45.07,136c-2.57.7-3.9-.43-4.69-2.85-2.76-8.52,3.38-18.18,13.89-19.46-3.84,3.73-7.26,6.3-9.7,9.6-3,4.06-.79,8.56.41,12.81Z"/><path d="M578.7,186.41c-11.17,2-20.18-1.63-29.43-3.5l0-1.48a43,43,0,0,1,6.91.06c6.29,1,12.54,2.36,18.8,3.6A37.24,37.24,0,0,1,578.7,186.41Z"/><path d="M279.3,81.48c5.25-6.48,10.5-13,15.84-19.37a23.23,23.23,0,0,1,2.23,1.48c-5.48,6.74-9.68,14.25-16.36,19.55Z"/><path d="M600.14,198.68v-5.86c-6.61-1.19-14,.66-19.17-6.17L606.43,192l-4.08,1.25c-.5,1.85-1,3.73-1.51,5.62Z"/><path d="M611,191.31c8.07-.45,16.14-.82,24.14.43,0,.52,0,1-.05,1.55H610.87Z"/><path d="M124.82,50.86a26.32,26.32,0,0,0,1.48,4.55A78.33,78.33,0,0,0,132,64.93c4,5.34,4.08,5.42-3.91,8.18,5.09-3.61,2.51-5.43.65-8.13-2.75-4-4.45-8.67-6.6-13.05Z"/><path d="M98.38,72c-6.4-.94-7.74-7.33-11.75-11C90.15,58.43,91,59.19,98.38,72Z"/><path d="M594.72,122.67c-1.32,1.67-2.36,3.8-4.06,4.84-1.24.75-3.6.51-5-.21-.64-.34-.66-3.91,0-4.22,2.36-1.21,5.09-1.7,7.68-2.46Z"/><path d="M471.06,128c1.71-.28,4-1.42,5-.71,5.56,4,11.69,4.21,18.09,3.84,1-.06,2,.89,3,1.37-1,.48-2.12,1.51-3,1.33-5-1-10-2.24-14.94-3.5-2.78-.71-5.52-1.61-8.27-2.43Z"/><path d="M566.29,219.08l-15.48-2.38c1.34-1.51,2.29-3.22,2.85-3.1,4.38.94,8.67,2.25,13,3.44Z"/><path d="M238.11,33.11c-6.84-3.4-6.53,4-9.33,6.67l-1.4-1.15,3.74-11.06,7.5,3.32Z"/><path d="M536.58,212.28c3.7,0,7.4-.14,11.08.12.75.06,1.4,1.63,2.09,2.51a27.13,27.13,0,0,1-3-.06c-3.45-.42-6.89-.92-10.33-1.39Z"/><path d="M91,319.9c1.88,1.3,3.75,2.61,6.06,4.2l-4.15,6.17c-1.37-4.1-2.34-7-3.31-9.88Z"/><path d="M510.34,207.22c-4-.55-8.45.33-11.67-3.07.18-.64.37-1.28.55-1.92l11.56,3.45Z"/><path d="M416.53,174.81c3.06-1.33,6-3.71,9.39-2.32l.38,2.38L416.69,177C416.64,176.24,416.58,175.52,416.53,174.81Z"/><path d="M79.08,106.06a66.43,66.43,0,0,1,4.15,7.08c.33.74-.77,2.12-1.21,3.21a18.47,18.47,0,0,1-2-2.46,18.54,18.54,0,0,1-1.59-3.79,27.47,27.47,0,0,1-.57-3.65Z"/><path d="M203.11,48.59l3.22-7.81,1.1-.36a18.33,18.33,0,0,1,.78,4.25C208.08,47.41,207.14,49.6,203.11,48.59Z"/><path d="M75.23,282.57l-5.65,6.08c-.53-1.85-1.4-3.72-1.08-3.95a50.33,50.33,0,0,1,6-3.43Z"/><path d="M531.29,208.48c-4.26,5.67-7.53.11-10.83,1.41,0-.47,0-.94,0-1.41Z"/><path d="M119.45,48l-3.53-7.31c1.67,0,3.47-.48,3.91.08C121.51,43,123,45.51,119.45,48Z"/><path d="M284,313.54l-8.48,4-.82-1.71,8.29-4.37Z"/><path class="cls-1" d="M240,348.23a57.59,57.59,0,0,1,6.91-2.18c1-.19,2.21.7,3.32,1.09-.87,1-1.71,2.9-2.63,2.94-2.53.12-5.09-.53-7.65-.87Z"/><path class="cls-1" d="M224.65,321.83c4.12-1,7.62-2,11.16-2.8,4.06-.86,7.51,1.19,8,4.71.34,2.24-2.07,5.83-4.26,7.27-3.18,2.09-7.28,2.78-11.69,4.31C226.77,330.68,225.77,326.5,224.65,321.83Z"/><path class="cls-1" d="M309,110.18l17.34-2.43c-4.35,4.84-7.69,8.57-11.52,12.85Z"/><path class="cls-1" d="M147.82,304.34c3.64,1.19,7,2.07,10.14,3.36,3.64,1.47,4.89,4.45,3.75,8.14s-3.74,6-7.89,5.23c-3.23-.58-6.39-1.58-10-2.5C145.14,313.79,146.39,309.39,147.82,304.34Z"/><path class="cls-1" d="M82.33,274.78l10.23-8c2.54,2.87,5.55,5.39,7.28,8.6a7.74,7.74,0,0,1-.59,7c-1.3,1.6-4.86,2.83-6.77,2.2A16.82,16.82,0,0,1,82.33,274.78Z"/></g></g></svg>