<svg xmlns="http://www.w3.org/2000/svg" viewBox="0 0 369 746.4"><defs><style>.cls-1{fill:#fff;}</style></defs><g id="Layer_2" data-name="Layer 2"><g id="Layer_1-2" data-name="Layer 1"><path class="cls-1" d="M283.42,328.21a47.25,47.25,0,0,1-16.31,6.39c-2.14.5-4.09.89-5.93,1.18l4,2.09c5.13-.59,9.3-1.39,13.48-1.46,5.51-.1,1.83-3.69,2-4.33l14.4-11.83h-.54A70.87,70.87,0,0,1,283.42,328.21Z"/><path class="cls-1" d="M0,0V734H369V0ZM85.72,41.85c.55,5.91,3,11.41-3.39,14.9-4.31,2.37-6.79,7.85-11.2,7.59C64.72,72,59.26,79.26,52.74,85.45c-1.24,1.17-5.8,6.7-9.54,1.2L39.33,90C51,70.61,66.37,54.81,85.72,41.85ZM48.61,89.6c.17.46.33.93.49,1.4-1.3,1.88-2.61,3.75-4.2,6.06l-6.17-4.15Zm72.54,306.61c-4.18-3-8.59-5.73-12.73-8.8-.92-.68-1.17-2.28-1.73-3.45l2.4-1.45c9.44,7.59,19,15.07,28.26,22.82,3.83,3.19,4.37,3.41,7.4-.51.23.23.7.56.65.69-2.66,6.86,2.32,11,5.45,15.93a102.77,102.77,0,0,1,16.38,53.14c.18,5.79,0,11.6-.35,17.39-.09,1.61-1.16,3.16-2.88,4.48,0-6.16-.08-12.32,0-18.47.08-4.12,1-8.29.53-12.33s-2.15-7.86-3.11-11.82C155.54,429.35,141.22,410.76,121.15,396.21Zm71.91,127.64c1.12-5,2.25-9.89,3.49-15.33,3.47,3.35,3.29,4.13-1.54,8.4.08.27.15.78.26.79a6.12,6.12,0,0,0,1.31-.14c-1,4.94-.76,10.91-3.47,14.78-3.59,5.11.53,11.1-4.18,16-.55-1.21-1.61-2.38-1.4-3.25.92-3.93,2.28-7.75,3.33-11.65C191.71,530.29,192.33,527.06,193.06,523.85Zm-1-107.16,2.14-.16c1.33,3.06,3.71,6,2.32,9.39l-2.38.38Zm5.66,19,1.72-.35c1.51,6.39,3.63,12.71,4.35,19.19s.23,13.1-.09,19.64c-.29,6-.9,11.95-1.69,17.88-.34,2.52-1.49,4.93-2.41,7.85,4.79,2.82-.94,3.84-2.3,5.89C201.92,482.44,203.71,459.11,197.71,435.69ZM177,606.43c-.34-1.11-.78-2.56-1.25-4.08l-5.62-1.51.21-.7h5.86c1.19-6.61-.66-14,6.17-19.17C180.48,589.83,178.72,598.2,177,606.43Zm.28,28.67-1.55-.05V610.87l2,.09C178.14,619,178.51,627.1,177.26,635.1Zm8.83-85.83,1.48,0a43,43,0,0,1-.06,6.91c-1,6.29-2.36,12.54-3.6,18.8a37.24,37.24,0,0,1-1.32,3.68C180.57,567.53,184.22,558.52,186.09,549.27Zm2-136.44-8.46-14a9.12,9.12,0,0,0-1.5-2.44c-6.8-5.58-13.6-11.17-20.55-16.57-3.18-2.47-6.75-4.43-10-6.79a41.68,41.68,0,0,1-4.13-3.86l.91-1.17c1.46.79,3,1.46,4.38,2.39,3,2,5.92,4.11,8.82,6.25,1.39,1,2.65,2.21,4,3.27,2.6,2,5.36,3.82,7.84,6,5.28,4.6,12,8,13.15,16.09.12.82,1.9,1.29,2.55,2.18,1.76,2.4,3.32,4.94,5,7.43Zm-21.31,86.39-3.45,11.56-1.54-.44c.55-4-.33-8.45,3.07-11.67Zm-7.66,21.24h1.41v10.84C154.85,527,160.41,523.76,159.11,520.46Zm-2.51,27.2c-.06.75-1.63,1.4-2.51,2.09a27.13,27.13,0,0,1,.06-3c.42-3.45.92-6.89,1.39-10.33l1.18.15C156.72,540.28,156.86,544,156.6,547.66ZM146.47,575.6l1.52-.08c.21,2.14.84,4.33.57,6.4-2.46,19.08-5.47,38.1-7.43,57.24-.64,6.27,1.39,12.79,2,19.22.13,1.45-.52,3-.81,4.46l-2-.44C134.36,632.9,139.71,604.2,146.47,575.6ZM153,694.9l-12.8-29.55,1.72-1.32c1,.59,2.56,1,2.93,1.81q5.05,11.89,9.7,24c.51,1.32.29,2.92.4,4.4Zm-1-128.25-2-.36c.73-4.78,1.47-9.57,2.38-15.48,1.51,1.34,3.22,2.29,3.1,2.85C154.46,558,153.15,562.33,152,566.65Zm41.51,166.56c-13-8.71-25.28-18.34-34.7-31.08-1.55-2.11-2.06-5-3.06-7.51l1.13-.56c.78.94,1.61,1.84,2.33,2.82,9.17,12.48,20.46,22.71,33.19,31.45,1.25.85,1.92,2.54,2.86,3.85Zm34.43-17.94c-18.32-12.48-33.84-27.5-43.14-48.07-.34-.73-.59-1.51-.88-2.26l1.11-1.15c1.49,1.5,3.51,2.74,4.41,4.54,9.27,18.56,23.44,32.56,40.36,44.1,1.14.77,1.58,2.55,2.34,3.86C230.69,716,229,716,227.9,715.27Zm10-221.09c.06,1-.89,2-1.37,3-.48-1-1.51-2.12-1.33-3,1-5,2.24-10,3.5-14.94.69-2.7,1.56-5.36,2.36-8,.32,1.69,1.37,3.9.68,4.87C237.71,481.65,237.49,487.78,237.86,494.18Zm3.84,91.5c.34-.64,3.91-.66,4.22,0,1.21,2.36,1.7,5.09,2.46,7.68l-2,1.4c-1.67-1.32-3.8-2.36-4.84-4.06C240.74,589.42,241,587.06,241.7,585.68Zm0-119.94c-.3,1.71-.5,3.44-.73,5.16-.69-.78-1.89-1.59-1.84-2.31.44-6.68,1.51-13.33,1.6-20,.06-4.39-1.25-8.8-1.85-13.21-1.63-12-6.4-22.83-11.69-33.53-.87-1.78-1-3.91-1.51-5.88l1.4-.52c3.7,7.78,8.06,15.33,10.88,23.42,1.84,5.28,1.28,11.36,2.1,17,1,6.66,2.65,13.23,3.29,19.9C243.7,459,242.31,462.42,241.74,465.74ZM231.51,512.3c.83-3.56,1.56-7.16,2.59-10.66a20.17,20.17,0,0,1,2.29-4.08l1.62.59c-.25,1.64-.39,3.31-.76,4.92-5.52,24.14-11.55,48.18-16.47,72.45-5.26,26-5.36,51.89,5,77l-1.35,1.19c-1.2-1.3-2.92-2.4-3.51-3.93-6.72-17.44-8-35.57-6.5-54C216.82,567.26,225.08,540,231.51,512.3Zm38.63,193.41c-2.82-1.67-5.79-3.14-8.44-5.05-12.1-8.73-22.76-18.94-30.85-31.55-2.39-3.72-3.9-8-5.81-12l2-.91a6.82,6.82,0,0,1,1.19,1.35c9.38,18.43,23.73,32.25,40.51,43.86,1.15.79,1.76,2.35,2.61,3.56Zm32.58-68.91c1.5,1.26,3.47,2.23,4.43,3.81,9.61,15.83,22.64,28.26,37.76,38.71a6.6,6.6,0,0,1,2.27,4.11C320.59,665.28,306.24,650.3,302.72,636.8Zm-3.59-14.3c.38,1.2,0,2.65-.09,4-1.08-1-2.9-1.74-3.14-2.86-2.47-11.66-4.68-23.37-7.07-35.61-3.17-.74-6.19-.2-7.7,4.93-1,3.35-4.18,3.16-7.77-.24,10.11-.94,9.29-11.39,15.2-16.88.35,2,.62,3.52.9,5l.39,0c0-4,.07-8.08,0-12.12-.07-3.7-1.52-7.6,2.47-10.45.57-.41.14-2.4,0-3.64-.46-3.35-1-6.69-1.77-11.43l3.73,3c.22-.19.57-.35.62-.57,3.45-14.57,6.83-29.14,10.33-43.69.72-3,2.07-5.91-3-7.32,9-3.6,6.14-11.69,9.17-17.54l-4-.41c7.54-4.44,6.27-11.78,6.87-17.87,1.32-13.19,2.44-26.54,1.82-39.74-.91-19.57-8.33-37.06-21.05-52.13a35.24,35.24,0,0,0-3.54-3.24c3.06-1.71,5.12-.44,7.13,2.07,14.22,17.83,21.55,38.29,21.25,60.91a265.08,265.08,0,0,1-4.37,44.08c-1.07,5.86-.92,12.14-3.44,17.78-3.54,7.91-3.48,16.69-6,24.9s-4.3,16.75-6.05,25.21c-1.78,8.63-3.38,17.31-4.58,26C292.74,584.18,293.11,603.53,299.13,622.5Zm65.93-420.67c-.64,6.82-1.56,13.61-2.41,20.4a3.44,3.44,0,0,1-.91,2.21c-2.76,2-3.62,3.7-2.24,7.57,1.07,3-1,7.06-1.79,11.5l-1.09-2.88a168.13,168.13,0,0,1-44.81,77.18c-1.63-.83-3.1-2-4.71-2.25-1.33-.22-2.84.64-5,1.23-.07,1.19-4.3,4,1.19,5.73-.64,1.75-.77,4.2-2,5.13-3.81,2.82-8.25,4.79-12.07,7.6s-7.7,5.73-10.45,9.43a3,3,0,0,0-.47,2.85,9.15,9.15,0,0,1,2.35-.31c6.23,0,8.9,5.5,8.05,10.24a22.91,22.91,0,0,1,2.71,6.15c-1.2-1.19-2.38-2.41-3.56-3.63a7.68,7.68,0,0,1-7.2,4.24c-8.58,0-10.43-10.43-5.57-15-2.21-.77-4.74-1-6.45-.37-7,2.72-13.54,6.68-19.78,9.94a9.72,9.72,0,0,1,1.83-.17c6.87,0,9.42,6.67,7.68,11.65a137.65,137.65,0,0,1,9.89,12.39C283,404.19,286.62,428.52,284.48,454c-2.42,28.85-10.7,56.53-17.08,84.58-4.54,20-9.18,39.89-8.74,60.63.76,36.17,16.22,64.46,45.08,85.8,1.47,1.08,3,2.13,4.47,3.2a16.84,16.84,0,0,1,4.68,4.62c-1.24.16-2.86.9-3.64.38C282.8,675.57,262.8,653,257.32,620.61c-4.43-26.16-1.21-52.14,5.13-77.72,3-12.24,7.26-24.23,9.62-36.58,3.83-20.07,7.44-40.26,9.5-60.56a88.22,88.22,0,0,0-12.19-55.22c-3.68-6-8.46-11.43-13.45-16.68a8,8,0,0,1-5.29,1.82c-7.92,0-10.1-8.9-6.56-13.82a6.86,6.86,0,0,0-4.06-.71c-11.86,2.44-23.66,5.21-35.65,7.92l0,0a7.88,7.88,0,0,1,7,7.17l13.15,13.56-1.18,1.85c-1.22-.55-2.71-.82-3.63-1.7-3-2.88-6-5.8-9-8.73a7.72,7.72,0,0,1-7.46,4.78c-9.14,0-10.64-11.83-4.53-15.75a10.89,10.89,0,0,0-9.3-.9c-.51-3.13-.92-5.62-1.32-8.11l-1,.14c.14,2.41.28,4.82.49,8.63-11.25-1.43-22.07-2.65-32.84-4.24a132.49,132.49,0,0,1-17.08-3.57c-46.93-13.49-82.39-41.75-107.1-83.69-2.74-4.65-5.67-9.26-7.78-14.2-3.24-7.58-5.86-15.43-8.67-23.2-.45-1.23-.23-2.74-.79-3.89-1.74-3.58,6.72-3.9,2.43-8.79-2-2.28-1.81-6.5-2.91-11.1l-1.11,8c-1.29-2.37-2.75-5-4.11-7.6-.38-.72-.91-1.92-.61-2.32,2.76-3.62,2.28-7.41,1.07-11.37a12.32,12.32,0,0,1-.56-4.34c.09-1.4.32-3.12,1.18-4.09,2.68-3,2.81-2.9,1.33-9-.89.81-1.67,1.53-2.84,2.62A7.36,7.36,0,0,1,7,186.77c2.54-7.39,1.76-15,1.79-22.59a18.27,18.27,0,0,1,.42-3.9c1.53-6.8,3-13.61,4.8-20.34.25-.91,2.09-1.4,3.57-2.31-3.53-6.88,2.13-12.49,4.62-18.9,2.59-6.67,4.79-13.5,7.16-20.26,1.14-3.23,2.27-6.46,3.78-10.75-.38,4.43-.68,7.86-1,11.28l.53.2,1.82-4.57,3.71.77c3.15,5.06,3.19,10.3-2.21,15.7-2.34,2.33-2.83,6.47-4.28,9.74-2.72,6.13-6.09,12-8.15,18.38-2.16,6.67-3.2,13.72-4.55,20.63-1,5.3.25,11.09-3.53,15.83-.38.47.07,1.59.09,2.41.14,4.54.06,9.09.43,13.61.63,7.82,1.65,15.6,2.3,23.42.37,4.45.38,8.94.46,13.42.06,3.66,0,7.27,3.73,9.52a4,4,0,0,1,1.35,2.07c1.87,5.1,3.67,10.23,5.57,15.55l-3.79-2.89c-3.66,6-2.38,7.94,5.92,8.73.18,1.42.36,2.89.54,4.35l1.06-.87a27,27,0,0,1,2.38,2.77c5,7.66,10,15.39,15.11,23,.48.71,2.17.61,2.5.69,1,2.25,1.27,4.45,2.52,5.77C63,304.91,70.05,313,78.18,319.84c14,11.68,29.33,21.35,46.56,27.66,2.92,1.07,6.18,1.23,10.14,2,1.94,4.23,7.67,3.13,12.05,4.9,2.32.93,4.58,2,7.4,3.26a4.61,4.61,0,0,1,2.51-.84c7,.6,13.9,1.6,20.88,2.09,2.15.16,4.39-.84,7.92-1.6,4.06,3.33,10.23,1.88,16.26,1,9.84-1.4,19.65-3,29.43-4.5-.88-4.67-8.44-3.58-6.42-9.29,4.83,2.28,9.49,6.5,13.62,6,9-1,18-3.18,23.36-9.69l-1.56-4.95a53.67,53.67,0,0,1-5.65.56A58.23,58.23,0,0,1,225.76,332c-.62-.26-1.23-.54-1.84-.82a58.28,58.28,0,0,1-12.37,9.91,42.82,42.82,0,0,1-21.38,6.82,43.5,43.5,0,0,1-22.92-1c-10.75-1.57-20.72-6.36-30.58-11-6.09-2-12.36-3.22-18.53-5.06q-2.34-.71-4.67-1.48c-13.89-.1-29-7.38-38.62-16.86-22.55-22.24-40.7-49.57-49-80.39a185.93,185.93,0,0,1-5.95-43.66,169.89,169.89,0,0,1,4.8-43.57,101.3,101.3,0,0,1,4.77-14.44c3.35-8.18,6.56-16.54,11-24.2a136.43,136.43,0,0,1,26-32.49,172.56,172.56,0,0,1,23-17.54c8-5,16.73-8.44,25.43-12,10.64-4.35,21.65-6,32.89-8,16.82-3,33.78-8.89,51-8.2a92.45,92.45,0,0,1,27,4.9A59,59,0,0,1,243,35.12,61.85,61.85,0,0,1,275.5,57.67c1.48.91,2.92,2.1,6.25,4.68.73.56,1.42,1.11,2.1,1.67a3,3,0,0,1,1.3.59,2.55,2.55,0,0,1,.66,1.08,67.33,67.33,0,0,1,6,6,56.25,56.25,0,0,1,15,10.93c4.73,4.79,9,10.8,12.74,16A122.85,122.85,0,0,1,329,113.93a143.67,143.67,0,0,1,8.94,19.85c1.66,3.64,3,7.46,4.44,11.1a62.24,62.24,0,0,1,3,11.22c2,11.26,3.4,21.33,3.15,31.71.14.68.27,1.35.39,2,1.16,6.68,2.54,13.8,2.32,20.66a76.52,76.52,0,0,1-8.49,33.11c-.09.18-.2.35-.29.53a80.11,80.11,0,0,1-1.8,15c5.05-8.12,6.45-17.41,8.61-26.49,1.74-7.34,3.69-14.63,5.29-22,.39-1.84-.25-3.91-.45-6.31l5.77-1.23c-4.72-2-4.5-5.49-4.45-9.61a172.63,172.63,0,0,0-10-60.69c-6.14-17.26-15.29-32.64-26-47.59l5-2.74-5.86-.68c-.37-1.51-.73-3-1.21-5-3.75,3.89-5.07.25-6.64-1.43-20.57-22-44.92-38.11-73.85-46.71a207.45,207.45,0,0,0-31.21-6.61,151.33,151.33,0,0,0-59.63,3.73,7.58,7.58,0,0,1-2.17,0c-.42-2.15-.8-4.11-1.18-6.08l-1.61-.56c-1.6,2.65-3.09,5.36-4.84,7.9a6.76,6.76,0,0,1-2.94,2.28c-3.7,1.47-7.72,2.32-11.14,4.24-1.94,1.08-3,3.81-4.59,6.11-.26-1.22-.49-2.34-.93-4.47l-28,15.88a75.51,75.51,0,0,1,.14-9.83c.16-1.29,1.72-2.76,3-3.49,8.1-4.57,16.31-9,24.74-13.54-.11-1.27-.26-3-.42-4.78l1.24-.31,1.91,4.35c4-1.43,8.24-2.78,12.31-4.48A4.6,4.6,0,0,0,134,16a77.1,77.1,0,0,0,.12-8.87l1.65-.42a19.94,19.94,0,0,1,1.09,3.36c.72,5.53,3.44,7.55,7.85,5.62a5,5,0,0,0,1.79-1.93c.81-1.25,1.53-3.72,2.2-3.69,2.09.09,4.15,1.07,6.19,1.81.37.14.67,1.11.84,1.07,5.23-1.37,6.93,3.08,10.1,6.87.61-3.13,1-5.28,1.64-8.32,10.57,0,21.38-.72,32.07.12C257.66,16.2,302.66,43.54,335.84,91c9.93,14.2,19.52,36,24,54.25C364.48,163.85,366.83,182.66,365.06,201.83Z"/><path class="cls-1" d="M303.77,310.4a72.07,72.07,0,0,1-7.49,8.25c1-.2,2.44-1.58,3.44-2.51,1.21-1.11,2-2.61,3.16-3.82,1.75-1.87,3.58-3.65,5.42-5.42Q306.07,308.68,303.77,310.4Z"/><path d="M308.21,688.23c-1.49-1.07-3-2.12-4.47-3.2-28.86-21.34-44.32-49.63-45.08-85.8-.44-20.74,4.2-40.65,8.74-60.63,6.38-28.05,14.66-55.73,17.08-84.58,2.14-25.5-1.46-49.83-16.27-71.31a137.65,137.65,0,0,0-9.89-12.39,8,8,0,0,1-2.39,3.53c5,5.25,9.77,10.63,13.45,16.68a88.22,88.22,0,0,1,12.19,55.22c-2.06,20.3-5.67,40.49-9.5,60.56-2.36,12.35-6.59,24.34-9.62,36.58-6.34,25.58-9.56,51.56-5.13,77.72,5.48,32.35,25.48,55,51.93,72.62.78.52,2.4-.22,3.64-.38A16.84,16.84,0,0,0,308.21,688.23Z"/><path d="M287.81,360c1.18,1.23,2.36,2.46,3.57,3.66a22.88,22.88,0,0,0-2.72-6.19A9,9,0,0,1,287.81,360Z"/><path d="M359.87,145.24c-4.51-18.23-14.1-40.05-24-54.25C302.66,43.54,257.66,16.2,199.58,11.62c-10.69-.84-21.5-.12-32.07-.12-.6,3-1,5.19-1.64,8.32C162.7,16,161,11.58,155.77,13c-.17,0-.47-.93-.84-1.07-2-.74-4.1-1.72-6.19-1.81-.67,0-1.39,2.44-2.2,3.69a5,5,0,0,1-1.79,1.93c-4.41,1.93-7.13-.09-7.85-5.62a19.94,19.94,0,0,0-1.09-3.36l-1.65.42A77.1,77.1,0,0,1,134,16a4.6,4.6,0,0,1-2.41,3.06c-4.07,1.7-8.28,3.05-12.31,4.48l-1.91-4.35-1.24.31c.16,1.76.31,3.51.42,4.78-8.43,4.58-16.64,9-24.74,13.54-1.3.73-2.86,2.2-3,3.49a75.51,75.51,0,0,0-.14,9.83l28-15.88c.44,2.13.67,3.25.93,4.47,1.64-2.3,2.65-5,4.59-6.11,3.42-1.92,7.44-2.77,11.14-4.24a6.76,6.76,0,0,0,2.94-2.28c1.75-2.54,3.24-5.25,4.84-7.9l1.61.56c.38,2,.76,3.93,1.18,6.08a7.58,7.58,0,0,0,2.17,0,151.33,151.33,0,0,1,59.63-3.73,207.45,207.45,0,0,1,31.21,6.61c28.93,8.6,53.28,24.72,73.85,46.71,1.57,1.68,2.89,5.32,6.64,1.43.48,2,.84,3.52,1.21,5l5.86.68-5,2.74c10.74,15,19.89,30.33,26,47.59a172.63,172.63,0,0,1,10,60.69c-.05,4.12-.27,7.62,4.45,9.61l-5.77,1.23c.2,2.4.84,4.47.45,6.31-1.6,7.36-3.55,14.65-5.29,22-2.16,9.08-3.56,18.37-8.61,26.49-.35,1.49-.76,3-1.27,4.47a88.81,88.81,0,0,1-22.79,36c-2.67,2.56-5.47,4.94-8.34,7.23-1.84,1.77-3.67,3.55-5.42,5.42-1.13,1.21-1.95,2.71-3.16,3.82-1,.93-2.41,2.31-3.44,2.51-.57.54-1.15,1.08-1.75,1.61h.54l-14.4,11.83c-.21.64,3.47,4.23-2,4.33-4.18.07-8.35.87-13.48,1.46l-4-2.09-.85.13,1.56,4.95c-5.35,6.51-14.38,8.66-23.36,9.69-4.13.47-8.79-3.75-13.62-6-2,5.71,5.54,4.62,6.42,9.29-9.78,1.5-19.59,3.1-29.43,4.5-6,.85-12.2,2.3-16.26-1-3.53.76-5.77,1.76-7.92,1.6-7-.49-13.91-1.49-20.88-2.09a4.61,4.61,0,0,0-2.51.84c-2.82-1.25-5.08-2.33-7.4-3.26-4.38-1.77-10.11-.67-12.05-4.9-4-.74-7.22-.9-10.14-2-17.23-6.31-32.6-16-46.56-27.66C70.05,313,63,304.91,55.66,297.21c-1.25-1.32-1.57-3.52-2.52-5.77-.33-.08-2,0-2.5-.69-5.14-7.59-10.07-15.32-15.11-23A27,27,0,0,0,33.15,265l-1.06.87c-.18-1.46-.36-2.93-.54-4.35-8.3-.79-9.58-2.72-5.92-8.73l3.79,2.89c-1.9-5.32-3.7-10.45-5.57-15.55a4,4,0,0,0-1.35-2.07c-3.72-2.25-3.67-5.86-3.73-9.52-.08-4.48-.09-9-.46-13.42-.65-7.82-1.67-15.6-2.3-23.42-.37-4.52-.29-9.07-.43-13.61,0-.82-.47-1.94-.09-2.41,3.78-4.74,2.49-10.53,3.53-15.83,1.35-6.91,2.39-14,4.55-20.63,2.06-6.34,5.43-12.25,8.15-18.38,1.45-3.27,1.94-7.41,4.28-9.74,5.4-5.4,5.36-10.64,2.21-15.7l-3.71-.77L32.68,99.2l-.53-.2c.3-3.42.6-6.85,1-11.28-1.51,4.29-2.64,7.52-3.78,10.75-2.37,6.76-4.57,13.59-7.16,20.26-2.49,6.41-8.15,12-4.62,18.9-1.48.91-3.32,1.4-3.57,2.31-1.78,6.73-3.27,13.54-4.8,20.34a18.27,18.27,0,0,0-.42,3.9c0,7.57.75,15.2-1.79,22.59a7.36,7.36,0,0,0,.18,2.52c1.17-1.09,1.95-1.81,2.84-2.62,1.48,6.08,1.35,6-1.33,9-.86,1-1.09,2.69-1.18,4.09a12.32,12.32,0,0,0,.56,4.34c1.21,4,1.69,7.75-1.07,11.37-.3.4.23,1.6.61,2.32,1.36,2.64,2.82,5.23,4.11,7.6l1.11-8c1.1,4.6.9,8.82,2.91,11.1,4.29,4.89-4.17,5.21-2.43,8.79.56,1.15.34,2.66.79,3.89,2.81,7.77,5.43,15.62,8.67,23.2,2.11,4.94,5,9.55,7.78,14.2,24.71,41.94,60.17,70.2,107.1,83.69a132.49,132.49,0,0,0,17.08,3.57c10.77,1.59,21.59,2.81,32.84,4.24-.21-3.81-.35-6.22-.49-8.63l1-.14c.4,2.49.81,5,1.32,8.11a10.89,10.89,0,0,1,9.3.9,8.22,8.22,0,0,1,4.53-1.25,10.79,10.79,0,0,1,1.16.07l0,0c12-2.71,23.79-5.48,35.65-7.92a6.86,6.86,0,0,1,4.06.71,7.46,7.46,0,0,1,4.73-3c6.24-3.26,12.77-7.22,19.78-9.94,1.71-.67,4.24-.4,6.45.37a7.49,7.49,0,0,1,3.22-1.74,3,3,0,0,1,.47-2.85c2.75-3.7,6.66-6.66,10.45-9.43s8.26-4.78,12.07-7.6c1.25-.93,1.38-3.38,2-5.13-5.49-1.75-1.26-4.54-1.19-5.73,2.18-.59,3.69-1.45,5-1.23,1.61.26,3.08,1.42,4.71,2.25a168.13,168.13,0,0,0,44.81-77.18l1.09,2.88c.81-4.44,2.86-8.53,1.79-11.5-1.38-3.87-.52-5.57,2.24-7.57a3.44,3.44,0,0,0,.91-2.21c.85-6.79,1.77-13.58,2.41-20.4C366.83,182.66,364.48,163.85,359.87,145.24Zm-338,105c-1-.87-2.89-1.71-2.93-2.63-.12-2.53.53-5.09.87-7.65l1,.05A57.59,57.59,0,0,1,23,246.94C23.14,247.94,22.25,249.15,21.85,250.26Z"/><path d="M210.7,381.24c3,2.93,6,5.85,9,8.73.92.88,2.41,1.15,3.63,1.7l1.18-1.85-13.15-13.56A9.61,9.61,0,0,1,210.7,381.24Z"/><path d="M291.41,363.73c3.09-1.76,5.16-.49,7.18,2,14.22,17.83,21.55,38.29,21.25,60.91a265.08,265.08,0,0,1-4.37,44.08c-1.07,5.86-.92,12.14-3.44,17.78-3.54,7.91-3.48,16.69-6,24.9s-4.3,16.75-6.05,25.21c-1.78,8.63-3.38,17.31-4.58,26-2.68,19.49-2.31,38.84,3.71,57.81.38,1.2,0,2.65-.09,4-1.08-1-2.9-1.74-3.14-2.86-2.47-11.66-4.68-23.37-7.07-35.61-3.17-.74-6.19-.2-7.7,4.93-1,3.35-4.18,3.16-7.77-.24,10.11-.94,9.29-11.39,15.2-16.88.35,2,.62,3.52.9,5l.39,0c0-4,.07-8.08,0-12.12-.07-3.7-1.52-7.6,2.47-10.45.57-.41.14-2.4,0-3.64-.46-3.35-1-6.69-1.77-11.43l3.73,3c.22-.19.57-.35.62-.57,3.45-14.57,6.83-29.14,10.33-43.69.72-3,2.07-5.91-3-7.32,9-3.6,6.14-11.69,9.17-17.54l-4-.41c7.54-4.44,6.27-11.78,6.87-17.87,1.32-13.19,2.44-26.54,1.82-39.74-.91-19.57-8.33-37.06-21.05-52.13a36.1,36.1,0,0,0-3.59-3.27Z"/><path d="M85.72,41.85c.55,5.91,3,11.41-3.39,14.9-4.31,2.37-6.79,7.85-11.2,7.59C64.72,72,59.26,79.26,52.74,85.45c-1.24,1.17-5.8,6.7-9.54,1.2L39.33,90C51,70.61,66.37,54.81,85.72,41.85Z"/><path d="M224.46,653.71c-1.2-1.3-2.92-2.4-3.51-3.93-6.72-17.44-8-35.57-6.5-54,2.37-28.5,10.63-55.79,17.06-83.46.83-3.56,1.56-7.16,2.59-10.66a20.17,20.17,0,0,1,2.29-4.08l1.62.59c-.25,1.64-.39,3.31-.76,4.92-5.52,24.14-11.55,48.18-16.47,72.45-5.26,26-5.36,51.89,5,77Z"/><path d="M109.09,382.51c9.44,7.59,19,15.07,28.26,22.82,3.83,3.19,4.37,3.41,7.41-.51.22.23.69.56.64.69-2.66,6.86,2.32,11,5.45,15.93a102.77,102.77,0,0,1,16.38,53.14c.18,5.79,0,11.6-.35,17.39-.09,1.61-1.16,3.16-2.88,4.48,0-6.16-.08-12.32,0-18.47.08-4.12,1-8.29.53-12.33s-2.15-7.86-3.11-11.82c-5.91-24.48-20.23-43.07-40.3-57.62-4.18-3-8.59-5.73-12.73-8.8-.92-.68-1.17-2.28-1.73-3.45Z"/><path d="M140.32,662.4c-6-29.5-.61-58.2,6.15-86.8l1.52-.08c.21,2.14.84,4.33.57,6.4-2.46,19.08-5.47,38.1-7.43,57.24-.64,6.27,1.39,12.79,2,19.22.13,1.45-.52,3-.81,4.46Z"/><path d="M185,663.79c1.49,1.5,3.51,2.74,4.41,4.54,9.27,18.56,23.44,32.56,40.36,44.1,1.14.77,1.58,2.55,2.34,3.86-1.41-.32-3.09-.26-4.2-1-18.32-12.48-33.84-27.5-43.14-48.07-.34-.73-.59-1.51-.88-2.26Z"/><path d="M227.06,656.18a6.82,6.82,0,0,1,1.19,1.35c9.38,18.43,23.73,32.25,40.51,43.86,1.15.79,1.76,2.35,2.61,3.56l-1.23.76c-2.82-1.67-5.79-3.14-8.44-5.05-12.1-8.73-22.76-18.94-30.85-31.55-2.39-3.72-3.9-8-5.81-12Z"/><path d="M302.72,636.8c1.5,1.26,3.47,2.23,4.43,3.81,9.61,15.83,22.64,28.26,37.76,38.71a6.6,6.6,0,0,1,2.27,4.11C320.59,665.28,306.24,650.3,302.72,636.8Z"/><path d="M205.67,746.4c-17.24-11.65-33.45-24.52-45.91-41.55-2.06-2.82-2.73-6.67-4-10l1.5-.75c1,1.25,2.13,2.46,3.08,3.77,12.13,16.69,27.07,30.36,43.91,42,1.65,1.14,2.54,3.4,3.79,5.14Z"/><path d="M241.09,471c-.67-.8-2-1.64-1.92-2.39.44-6.68,1.51-13.33,1.6-20,.06-4.39-1.25-8.8-1.85-13.21-1.63-12-6.4-22.83-11.69-33.53-.87-1.78-1-3.91-1.51-5.88l1.4-.52c3.7,7.78,8.06,15.33,10.88,23.42,1.84,5.28,1.28,11.36,2.1,17,1,6.66,2.65,13.23,3.29,19.9.31,3.23-1.08,6.62-1.65,9.94-.31,1.77-.51,3.55-.75,5.32Z"/><path d="M199.43,435.34c1.51,6.39,3.63,12.71,4.35,19.19s.23,13.1-.09,19.64c-.29,6-.9,11.95-1.69,17.88-.34,2.52-1.49,4.93-2.41,7.85,5.64,3.32-3.29,4.15-2.53,7.08,4.8-23.75,6.76-47.47.65-71.29Z"/><path d="M188.08,412.83l-8.46-14a9.12,9.12,0,0,0-1.5-2.44c-6.8-5.58-13.6-11.17-20.55-16.57-3.18-2.47-6.75-4.43-10-6.79a41.68,41.68,0,0,1-4.13-3.86l.91-1.17c1.46.79,3,1.46,4.38,2.39,3,2,5.92,4.11,8.82,6.25,1.39,1,2.65,2.21,4,3.27,2.6,2,5.36,3.82,7.84,6,5.28,4.6,12,8,13.15,16.09.12.82,1.9,1.29,2.55,2.18,1.76,2.4,3.32,4.94,5,7.43Z"/><path d="M153,694.9l-12.8-29.55,1.72-1.32c1,.59,2.56,1,2.93,1.81q5.05,11.89,9.7,24c.51,1.32.29,2.92.4,4.4Z"/><path d="M196.55,508.52c3.47,3.35,3.29,4.13-1.54,8.4.08.27.15.78.26.79a6.12,6.12,0,0,0,1.31-.14c-1,4.94-.76,10.91-3.47,14.78-3.59,5.11.53,11.1-4.18,16-.55-1.21-1.61-2.38-1.4-3.25.92-3.93,2.28-7.75,3.33-11.65.85-3.17,1.47-6.4,2.2-9.61C194.18,518.9,195.31,514,196.55,508.52Z"/><path d="M182.59,578.7c-2-11.17,1.63-20.18,3.5-29.43l1.48,0a43,43,0,0,1-.06,6.91c-1,6.29-2.36,12.54-3.6,18.8A37.24,37.24,0,0,1,182.59,578.7Z"/><path d="M170.32,600.14h5.86c1.19-6.61-.66-14,6.17-19.17-1.87,8.86-3.63,17.23-5.37,25.46l-1.25-4.08-5.62-1.51Z"/><path d="M177.69,611c.45,8.07.82,16.14-.43,24.14l-1.55-.05V610.87Z"/><path d="M246.33,594.72c-1.67-1.32-3.8-2.36-4.84-4.06-.75-1.24-.51-3.6.21-5,.34-.64,3.91-.66,4.22,0,1.21,2.36,1.7,5.09,2.46,7.68Z"/><path d="M241,471.06c.28,1.71,1.42,4,.71,5-4,5.56-4.21,11.69-3.84,18.09.06,1-.89,2-1.37,3-.48-1-1.51-2.12-1.33-3,1-5,2.24-10,3.5-14.94.71-2.78,1.61-5.52,2.43-8.27Z"/><path d="M149.92,566.29c.73-4.78,1.47-9.57,2.38-15.48,1.51,1.34,3.22,2.29,3.1,2.85-.94,4.38-2.25,8.67-3.44,13Z"/><path d="M156.72,536.58c0,3.7.14,7.4-.12,11.08-.06.75-1.63,1.4-2.51,2.09a27.13,27.13,0,0,1,.06-3c.42-3.45.92-6.89,1.39-10.33Z"/><path d="M49.1,91c-1.3,1.88-2.61,3.75-4.2,6.06l-6.17-4.15,9.88-3.31Z"/><path d="M161.78,510.34c.55-4-.33-8.45,3.07-11.67l1.92.55-3.45,11.56Z"/><path d="M194.19,416.53c1.33,3.06,3.71,6,2.32,9.39l-2.38.38q-1-4.82-2.08-9.61Z"/><path d="M243.86,358.2c6.88,5.65,14.51,10.16,19.45,18.75l-1.57,2.72-19.62-19.41Z"/><path d="M201.52,367.37c4.24,3.39,9.43,5.88,11.19,11.63l-2.08,2.16-11.15-12.1Z"/><path d="M160.52,531.29c-5.67-4.26-.11-7.53-1.41-10.83h1.41Z"/><path class="cls-1" d="M20.77,240A57.59,57.59,0,0,1,23,246.94c.19,1-.7,2.21-1.09,3.32-1-.87-2.9-1.71-2.94-2.63-.12-2.53.53-5.09.87-7.65Z"/><path d="M148.09,32.54c-16.1,4.05-35.38,12.67-47.91,21.58-41.9,29.81-66,70.24-70.09,122.42-.74,9.6-.1,19.32-.1,28.82l7.34,1.47c-3.34,2.84-7.28,4.37-6.07,9.07,0,.15-.82.42-.94.76a20.31,20.31,0,0,0-1.6,5.56c0,.6,2.16,1.24,3.26,2a4.44,4.44,0,0,1,1.71,1.61c1.7,4-.09,6.4-5,7a17.21,17.21,0,0,0-3,1l.37,1.48a65.91,65.91,0,0,1,7.83.11,4.07,4.07,0,0,1,2.7,2.17c1.5,3.65,2.7,7.43,4,11l-3.84,1.72.27,1.12,4.22-.39c4,7.58,7.92,15,12,22.24.65,1.16,1.94,2.56,3.08,2.71a66.66,66.66,0,0,0,8.68.13L51,251l3.94-.84c-2-1.48-4.44-2.38-5.39-4.12-1.7-3.08-2.44-6.69-3.74-10a6,6,0,0,0-2-2.64c-2.24-1.57-4.64-2.92-7-4.35l.49-1.45,5.37-1.05a7.19,7.19,0,0,0,0-2A138.1,138.1,0,0,1,39.33,171a189.54,189.54,0,0,1,5.83-28C52.76,117,67,95.13,86.41,76.65c1.48-1.41,4.7-2.6,1.26-6l4.45-1.09c.14-1.23.29-2.57.6-5.27l2.42,4.48c13.2-9.64,26.78-17.86,42-23.38a150.27,150.27,0,0,1,53.59-8.94c3.64,0,6.73.24,8.48-4,.43,2,.76,3.61,1.1,5.18,2.12-.18,3.94-.75,5.56-.39,6.51,1.43,12.94,3.18,19.42,4.75,8,1.94,16.22,3.2,23.4,7.73,1.31.31,2.63.69,3.94,1.14a78.16,78.16,0,0,1,31.8,20.48c2.26,2.4,4.36,4.91,6.38,7.49,1.57,1.65,3.14,3.3,4.79,4.87,1.07,1,2.39,1.75,3.37,2.83.82.9,2,2.17,2.22,3.09.48.52,1,1,1.42,1.58,0-.16,0-.32,0-.48l10.45,12.93c.56.19,3.73-3.11,3.82,1.84.07,3.75.77,7.49,1.29,12.11-.19.37-.81,1.55-1.84,3.56,0,.26.08.51.11.76l4.37-1.4c5.75,4.81,7.65,12.92,8.55,21,.42,3.71-3.3,7.9-5.32,12.23,5,1.82,4.08-5,8.2-5.76,1.33,8.79,2.75,17.6,4,26.44.75,5.41,2,11-.91,14.61.67,3.17,1.55,5.18,1.42,7.11-.44,6.27-1.33,12.5-1.85,18.76a4.11,4.11,0,0,0,.74,2.25c-1.1,2.53-2.06,4.57-2.88,6.65-1.56,3.94-.59,9.08-4.33,10.82-.65,3.57-.79,6.49-1.74,9.12-5.57,15.47-14.11,29.29-24.42,41.82-6,7.31-13.18,13.63-20,20.23-1.16,1.13-3.11,1.42-5.09,2.27-.08.29,0,1.81-.62,2.25-6.7,4.61-13.53,9-20.29,13.57a23.36,23.36,0,0,0-2.44,2.14l.76.95-3.84.48c-.7,7.46-2.4,8.61-7.71,5.32l2.56-3.4c-4.7,1.71-9.23,3.33-13.74,5a3.64,3.64,0,0,0-1.83,1.2c-2,3.34-5.17,3.3-8.4,3.36-3.95.07-7.92.08-11.86.41-6.9.58-13.77,1.5-20.67,2.07-4,.33-8,.26-12,.38-.72,0-1.71.42-2.13.08-4.18-3.4-9.3-2.23-14-3.16-6.11-1.22-12.34-2.15-18.22-4.1-5.6-1.84-10.82-4.88-16.24-7.32-2.88-1.3-6.54-1.74-8.59-3.84-4.77-4.85-9.4-4.82-13.87-2-.32,1.55-.5,2.44-.68,3.34l4,1.63-.17.47-10-.87,9.5,3.39c6,2.13,12,4.11,17.88,6.44,5.66,2.23,10.62,7.31,16.7,4.15.8,1.32,1.23,3,2,3.2,5.95,1.6,12,2.94,18,4.31a15.3,15.3,0,0,0,3.44.38c6.68,0,13.42-.67,19.94,1.61a6.59,6.59,0,0,0,2.23-.16l-2.32-2.56c5.37-1.32,5.27-1.21,7.94,1.2a6.25,6.25,0,0,0,3.61,1.06,10.64,10.64,0,0,0,3.83-.5c3.5-1.09,6.85-1.52,10,1,.35.27,1.42-.21,2-.54,2.33-1.23,4.62-2.54,6.71-3.7l-7.08-1c4.06-1,7.78-.81,9.8-2.61,4.32-3.85,4.6,3.74,7.76,2.18,1-.5,2.35-.31,3.44-.71,6.86-2.52,13.79-4.88,20.49-7.79a108.49,108.49,0,0,0,12.53-7c37-22.2,62-54,73.9-96.21a119.71,119.71,0,0,0,3.15-15.35c1.41-9.67,2.48-19.39,3.75-29.5l-7.63.44c0-.31-.07-.61-.11-.92l7.15-1.18a10,10,0,0,1,.8-8.36,7.47,7.47,0,0,1-1.1-4.07,8.69,8.69,0,0,1,.06-1l0,0c-2.39-10.78-4.84-21.37-7-32a6.22,6.22,0,0,1,.63-3.64,6.73,6.73,0,0,1-2.66-4.26c-2.88-5.61-6.38-11.47-8.78-17.77a9.22,9.22,0,0,1,.33-5.79,6.8,6.8,0,0,1-1.54-2.9,2.58,2.58,0,0,1-2.52-.42c-3.27-2.47-5.88-6-8.33-9.38s-4.21-7.43-6.7-10.85c-.82-1.13-3-1.24-4.54-1.81-1.54,4.92-4,1.13-5.05,1.07-.52-2-1.28-3.32-1.09-4.51.23-1.45,1.26-2.77,2-4.23a147.79,147.79,0,0,0-68.14-40.26l2.54-1c-3.93-.73-7.53-2.57-10.16-1.61-3.41,1.24-4.91.47-6.68-2a3.06,3.06,0,0,0-2-.81c-6-.76-12-1.59-18-2.16C181.12,26.28,164.52,28.4,148.09,32.54Zm92.73,303.67c-.77.92-1.51,2.59-2.32,2.63a37.27,37.27,0,0,1-6.76-.78l0-.88a50.29,50.29,0,0,1,6.1-2C238.77,335.05,239.84,335.85,240.82,336.21Z"/></g></g></svg>