<svg xmlns="http://www.w3.org/2000/svg" viewBox="0 0 594.55 110.73"><defs><style>.cls-1{fill:#fff;}</style></defs><g id="Layer_2" data-name="Layer 2"><g id="Layer_1-2" data-name="Layer 1"><path class="cls-1" d="M594.55,110.73H0V0H594.55ZM275.85,37c-4.73-3.39-8.38-2-9.47,3.26A13.59,13.59,0,0,0,266,43c-.05,8.76-.26,17.53,0,26.28A36.89,36.89,0,0,0,268,79c.91,2.94,3.4,4.33,5.78,3.82s3.66-2.4,3.71-5.57c0-3.43.06-6.86.08-10.3,0-2.3,0-4.6,0-7.83,2.75,1.29,4.89,2,6.68,3.18,4.67,3.12,9.1,6.59,13.78,9.7,8.47,5.62,18,8,28.07,8.27a22.79,22.79,0,0,0,8.87-2c2.49-1,2.62-3.4.36-4.89a32.74,32.74,0,0,0-7.32-3.4c-3.68-1.27-7.54-2-11.21-3.31-6.9-2.41-12.85-6.48-18.22-10.5,3.52-3.25,7.34-6,10.14-9.55,4.33-5.5,2.68-11.89-3.4-15.43a23.16,23.16,0,0,0-14.18-2.77A21.6,21.6,0,0,0,275.85,37ZM397.49,70.26c3.9-.73,7.07-1.1,10.09-2A10.52,10.52,0,0,0,412,65.36c.59-.63.47-2.23.16-3.25A2.65,2.65,0,0,0,410,60.86c-5.34,0-10.68,0-16,.25-2.1.11-3.21-.54-3.91-2.4-2.11-5.67-4.23-11.35-6.43-17a102.87,102.87,0,0,0-4.27-9.94,9,9,0,0,0-7.06-5c-4.1-.54-8.45,3.55-7.16,7,.62,1.67,0,2.34-.8,3.4-8.17,10.22-15.41,21-20.69,33-1.41,3.22-1.08,5.52,1,7.11s4.88,1.4,7.25-.71a30.17,30.17,0,0,0,5.2-5.86c4-6,7.78-12.21,11.65-18.33l1.58-2.53c2.26,4.84,4.34,9.29,6.46,13.81a70.86,70.86,0,0,0-8.09,2.61,79.75,79.75,0,0,0-9.42,5.27c-.73.46-.88,1.82-1.3,2.76.94.32,1.93,1,2.82.89,6.56-.86,13.1-1.8,19.63-2.89,2-.34,3.53-.15,5.07,1.48,3,3.21,6.6,5.69,11.19,6.18,4.08.43,6.66-1.63,6.73-4.64Zm-164-9.41c-3.23,4.49-6.89,7.79-12.1,8.61a9.61,9.61,0,0,1-9.7-4.27c-2.15-3.07-.49-6,1.25-8.53a38.84,38.84,0,0,1,19-15.21c3-1.09,6.52-.92,9.79-.81,2.57.09,4.7-1.68,3.66-4.12a10,10,0,0,0-3.77-4.33,15.54,15.54,0,0,0-11.28-2c-14.81,2.93-25.9,11.16-32.74,24.47-4.41,8.6-1.48,18.08,6.36,23.8,13.77,10,35.61,1.81,39.59-14.91a8.74,8.74,0,0,0-5.9-10.79,21.51,21.51,0,0,0-17.42,1.13c-2.13,1.14-3.72,3.31-5.46,5.09-.31.31-.16,1.06-.27,1.93A27.91,27.91,0,0,1,233.48,60.85Zm-89,3.71c2.51,1.63,4.31,2.82,6.13,4,9.2,5.81,19,8.42,29.84,5.45a4.28,4.28,0,0,1,1.84.1c3.57.73,5.81-.93,5.6-4.5-.58-10.11-1.19-20.22-2-30.31a27.34,27.34,0,0,0-2.12-7.78,5,5,0,0,0-5.19-3.27A2.4,2.4,0,0,0,176,31c.15,3.6.21,7.21.26,10.81.14,8.36.26,16.71.38,25.21a10.44,10.44,0,0,1-3.25-.59A125.89,125.89,0,0,1,162,60.27c-5.11-3.25-9.91-7-15.05-10.21-1.56-1-2.37-1.71-2.55-3.57-.38-4-2.8-6.31-6-6.11s-5,2.56-5.1,6.54q-.21,11.8-.27,23.61a31.47,31.47,0,0,0,.38,5.13c.48,3.13,2.68,5.12,5.42,5.1s4.88-2,5.38-5.17a25.69,25.69,0,0,0,.2-3.52C144.46,69.83,144.44,67.59,144.44,64.56Zm-83.53.13L59.78,64c-2.29,1.47-4.54,3-6.9,4.38C50.17,70,47.51,72,44.56,72.8c-6.14,1.66-11.05-3.49-9.57-9.6a18.3,18.3,0,0,1,1.54-4C40.07,52.38,45.27,47,51.17,42.23a9.61,9.61,0,0,1,3-1.2,4.37,4.37,0,0,0,3.18-5.24,6.19,6.19,0,0,0-4.59-4.88c-3.62-1.18-6.86,0-9.84,1.87C35,37.75,28.13,43.94,23.28,52a34.24,34.24,0,0,0-4,9.45C16.12,74.77,25,87.53,38.07,88.62c9.81.82,21.19-7.9,22.79-17.63A38.93,38.93,0,0,0,60.91,64.69Zm436.25-16a28.52,28.52,0,0,1,3.29-2.43c5-2.56,10-5,15.05-7.53,3-1.51,4.33-3.53,3.74-5.87s-2.76-3.83-6-3.53c-11.21,1-21.18,5.14-29.15,13.12-5.24,5.26-3.63,12.84,3.14,15.91a47.8,47.8,0,0,0,8.86,2.48c4.06,1,8.19,1.62,12.2,2.74,1.43.4,2.61,1.74,3.9,2.64-1,1.19-1.82,2.8-3.11,3.48-3.92,2-8,3.86-12.08,5.55a24.17,24.17,0,0,1-17.8.47c-.87-.31-1.8-.43-3.52-.82A11.65,11.65,0,0,0,477,77.32c3.67,3.35,7.77,6,12.78,6.81a38.2,38.2,0,0,0,28-6.25c8.93-6,8.56-16.73-.74-22.16-3.62-2.11-7.83-3.26-11.83-4.7C502.76,50.15,500.22,49.56,497.16,48.68Zm-50.62.3c1.12-.21,2.27-.38,3.4-.66,5.62-1.4,11.29-2.66,16.84-4.33a16,16,0,0,0,6.28-3.6,6.91,6.91,0,0,0,1.56-5c-.21-2.24-2.43-2.67-4.42-2.73a24.56,24.56,0,0,0-3.53.18c-9.65,1.07-19.31,2-28.94,3.3-6.64.87-13.25,2-19.82,3.38-3.22.65-4.85,2.8-4.74,5.13.12,2.48,2,4.3,5.45,4.74a69.15,69.15,0,0,0,10,.78c2.7-.05,3.57.6,3.49,3.44-.23,9-.07,18.1,2.22,26.94a21.27,21.27,0,0,0,2.56,5.91,4.69,4.69,0,0,0,5.27,2A4.78,4.78,0,0,0,446,84.34a17.33,17.33,0,0,0,.34-3.22q.12-12.48.19-25C446.55,53.84,446.54,51.51,446.54,49ZM76.1,61.28c.47,9.56,5.88,17,14.45,19.28,10.67,2.82,21.65-4.33,24.79-16.14,2.93-11.05-3.2-22.41-13.6-25.22s-17.57.28-22,10.28C78.07,53.22,77.28,57.34,76.1,61.28ZM558.74,36.79h-.35c0-3.89.19-7.78-.06-11.65a117.09,117.09,0,0,0-1.46-12.08c-.33-2-1.54-3.57-3.86-3.52s-3.21,1.86-3.34,3.87c-.86,13.15-1.7,26.31-2.4,39.47a17.71,17.71,0,0,0,1,5.56c.69,2.44,2.15,4.3,5,4.22s4.09-2.13,4.68-4.54a26.09,26.09,0,0,0,.8-5.62C558.81,47.27,558.74,42,558.74,36.79ZM558.38,83c-.91-1.8-1.66-3.55-2.63-5.15a5.11,5.11,0,0,0-6.53-2.33,4.71,4.71,0,0,0-2.48,6.18,102.46,102.46,0,0,0,6.79,12.54c.7,1.1,2.73,1.88,4.16,1.91,8.36.19,19.15-9.13,20.45-17.42a9,9,0,0,0,0-2.43,6.19,6.19,0,0,0-9.31-4.84,13.39,13.39,0,0,0-3.77,3C562.82,77.21,560.73,80,558.38,83Z"/><path d="M275.85,37a21.6,21.6,0,0,1,15.33-8.56,23.16,23.16,0,0,1,14.18,2.77c6.08,3.54,7.73,9.93,3.4,15.43-2.8,3.55-6.62,6.3-10.14,9.55,5.37,4,11.32,8.09,18.22,10.5,3.67,1.28,7.53,2,11.21,3.31a32.74,32.74,0,0,1,7.32,3.4c2.26,1.49,2.13,3.88-.36,4.89a22.79,22.79,0,0,1-8.87,2c-10-.26-19.6-2.65-28.07-8.27-4.68-3.11-9.11-6.58-13.78-9.7-1.79-1.21-3.93-1.89-6.68-3.18,0,3.23,0,5.53,0,7.83,0,3.44,0,6.87-.08,10.3,0,3.17-1.33,5.07-3.71,5.57S268.94,82,268,79A36.89,36.89,0,0,1,266,69.25c-.26-8.75-.05-17.52,0-26.28a13.59,13.59,0,0,1,.41-2.67C267.47,35,271.12,33.65,275.85,37Zm1.58,9.82c3.37.63,6.25,1.21,9.14,1.71a4.15,4.15,0,0,0,2.37,0,103.45,103.45,0,0,0,11.28-6.32c2.69-1.87,2.23-3.58-1-4.76a13.27,13.27,0,0,0-13.32,2.12c-2.44,1.86-5,3.55-7.43,5.43A5.22,5.22,0,0,0,277.43,46.86Z"/><path d="M397.49,70.26l6,5.15c-.07,3-2.65,5.07-6.73,4.64-4.59-.49-8.17-3-11.19-6.18-1.54-1.63-3-1.82-5.07-1.48-6.53,1.09-13.07,2-19.63,2.89-.89.11-1.88-.57-2.82-.89.42-.94.57-2.3,1.3-2.76a79.75,79.75,0,0,1,9.42-5.27,70.86,70.86,0,0,1,8.09-2.61c-2.12-4.52-4.2-9-6.46-13.81l-1.58,2.53c-3.87,6.12-7.64,12.3-11.65,18.33a30.17,30.17,0,0,1-5.2,5.86c-2.37,2.11-5.29,2.21-7.25.71s-2.41-3.89-1-7.11c5.28-12,12.52-22.82,20.69-33,.84-1.06,1.42-1.73.8-3.4-1.29-3.48,3.06-7.57,7.16-7a9,9,0,0,1,7.06,5,102.87,102.87,0,0,1,4.27,9.94c2.2,5.63,4.32,11.31,6.43,17,.7,1.86,1.81,2.51,3.91,2.4,5.33-.28,10.67-.28,16-.25a2.65,2.65,0,0,1,2.09,1.25c.31,1,.43,2.62-.16,3.25a10.52,10.52,0,0,1-4.38,2.91C404.56,69.16,401.39,69.53,397.49,70.26Z"/><path d="M233.48,60.85a27.91,27.91,0,0,0-19,0c.11-.87,0-1.62.27-1.93,1.74-1.78,3.33-4,5.46-5.09a21.51,21.51,0,0,1,17.42-1.13,8.74,8.74,0,0,1,5.9,10.79c-4,16.72-25.82,25-39.59,14.91-7.84-5.72-10.77-15.2-6.36-23.8,6.84-13.31,17.93-21.54,32.74-24.47a15.54,15.54,0,0,1,11.28,2,10,10,0,0,1,3.77,4.33c1,2.44-1.09,4.21-3.66,4.12-3.27-.11-6.82-.28-9.79.81a38.84,38.84,0,0,0-19,15.21c-1.74,2.57-3.4,5.46-1.25,8.53a9.61,9.61,0,0,0,9.7,4.27C226.59,68.64,230.25,65.34,233.48,60.85Z"/><path d="M144.44,64.56c0,3,0,5.27,0,7.51a25.69,25.69,0,0,1-.2,3.52c-.5,3.13-2.65,5.15-5.38,5.17s-4.94-2-5.42-5.1a31.47,31.47,0,0,1-.38-5.13q.06-11.81.27-23.61c.07-4,2-6.34,5.1-6.54s5.57,2.12,6,6.11c.18,1.86,1,2.6,2.55,3.57,5.14,3.21,9.94,7,15.05,10.21a125.89,125.89,0,0,0,11.37,6.18,10.44,10.44,0,0,0,3.25.59c-.12-8.5-.24-16.85-.38-25.21-.05-3.6-.11-7.21-.26-10.81a2.4,2.4,0,0,1,2.56-2.8,5,5,0,0,1,5.19,3.27,27.34,27.34,0,0,1,2.12,7.78c.84,10.09,1.45,20.2,2,30.31.21,3.57-2,5.23-5.6,4.5a4.28,4.28,0,0,0-1.84-.1c-10.84,3-20.64.36-29.84-5.45C148.75,67.38,147,66.19,144.44,64.56Z"/><path d="M60.91,64.69a38.93,38.93,0,0,1,0,6.3c-1.6,9.73-13,18.45-22.79,17.63C25,87.53,16.12,74.77,19.33,61.45a34.24,34.24,0,0,1,4-9.45C28.13,43.94,35,37.75,42.9,32.78c3-1.86,6.22-3.05,9.84-1.87a6.19,6.19,0,0,1,4.59,4.88A4.37,4.37,0,0,1,54.15,41a9.61,9.61,0,0,0-3,1.2C45.27,47,40.07,52.38,36.53,59.16a18.3,18.3,0,0,0-1.54,4c-1.48,6.11,3.43,11.26,9.57,9.6,2.95-.79,5.61-2.8,8.32-4.39C55.24,67,57.49,65.5,59.78,64Z"/><path d="M497.16,48.68c3.06.88,5.6,1.47,8,2.34,4,1.44,8.21,2.59,11.83,4.7,9.3,5.43,9.67,16.2.74,22.16a38.2,38.2,0,0,1-28,6.25c-5-.8-9.11-3.46-12.78-6.81a11.65,11.65,0,0,1-1.32-2.43c1.72.39,2.65.51,3.52.82a24.17,24.17,0,0,0,17.8-.47c4.1-1.69,8.16-3.5,12.08-5.55,1.29-.68,2.09-2.29,3.11-3.48-1.29-.9-2.47-2.24-3.9-2.64-4-1.12-8.14-1.78-12.2-2.74a47.8,47.8,0,0,1-8.86-2.48c-6.77-3.07-8.38-10.65-3.14-15.91,8-8,17.94-12.11,29.15-13.12,3.28-.3,5.46,1.23,6,3.53s-.71,4.36-3.74,5.87c-5,2.49-10.06,5-15.05,7.53A28.52,28.52,0,0,0,497.16,48.68Z"/><path d="M446.54,49c0,2.53,0,4.86,0,7.19q-.09,12.48-.19,25a17.33,17.33,0,0,1-.34,3.22,4.78,4.78,0,0,1-3.82,4.11,4.69,4.69,0,0,1-5.27-2,21.27,21.27,0,0,1-2.56-5.91c-2.29-8.84-2.45-17.89-2.22-26.94.08-2.84-.79-3.49-3.49-3.44a69.15,69.15,0,0,1-10-.78c-3.41-.44-5.33-2.26-5.45-4.74-.11-2.33,1.52-4.48,4.74-5.13,6.57-1.33,13.18-2.51,19.82-3.38,9.63-1.27,19.29-2.23,28.94-3.3a24.56,24.56,0,0,1,3.53-.18c2,.06,4.21.49,4.42,2.73a6.91,6.91,0,0,1-1.56,5,16,16,0,0,1-6.28,3.6c-5.55,1.67-11.22,2.93-16.84,4.33C448.81,48.6,447.66,48.77,446.54,49Z"/><path d="M76.1,61.28c1.18-3.94,2-8.06,3.63-11.8,4.44-10,11.47-13.12,22-10.28s16.53,14.17,13.6,25.22c-3.14,11.81-14.12,19-24.79,16.14C82,78.29,76.57,70.84,76.1,61.28Zm13.33-1.74c-.05,4.85,1.72,7.7,4.86,8.47s6.27-1,8.19-4.48c3.34-6,1.84-12.51-3.51-16.29-2.13-1.5-3.56-1.09-5.07.72A19.89,19.89,0,0,0,89.43,59.54Z"/><path d="M558.74,36.79c0,5.24.07,10.48,0,15.72a26.09,26.09,0,0,1-.8,5.62c-.59,2.41-1.84,4.46-4.68,4.54s-4.27-1.78-5-4.22a17.71,17.71,0,0,1-1-5.56c.7-13.16,1.54-26.32,2.4-39.47.13-2,.9-3.82,3.34-3.87s3.53,1.56,3.86,3.52a117.09,117.09,0,0,1,1.46,12.08c.25,3.87.06,7.76.06,11.65Z"/><path d="M558.38,83c2.35-3,4.44-5.83,6.72-8.49a13.39,13.39,0,0,1,3.77-3,6.19,6.19,0,0,1,9.31,4.84,9,9,0,0,1,0,2.43c-1.3,8.29-12.09,17.61-20.45,17.42-1.43,0-3.46-.81-4.16-1.91a102.46,102.46,0,0,1-6.79-12.54,4.71,4.71,0,0,1,2.48-6.18,5.11,5.11,0,0,1,6.53,2.33C556.72,79.49,557.47,81.24,558.38,83Z"/><path class="cls-1" d="M277.43,46.86a5.22,5.22,0,0,1,1.07-1.81c2.42-1.88,5-3.57,7.43-5.43a13.27,13.27,0,0,1,13.32-2.12c3.2,1.18,3.66,2.89,1,4.76a103.45,103.45,0,0,1-11.28,6.32,4.15,4.15,0,0,1-2.37,0C283.68,48.07,280.8,47.49,277.43,46.86Z"/><path class="cls-1" d="M89.43,59.54A19.89,19.89,0,0,1,93.9,48c1.51-1.81,2.94-2.22,5.07-.72,5.35,3.78,6.85,10.3,3.51,16.29C100.56,67,97.32,68.75,94.29,68S89.38,64.39,89.43,59.54Z"/></g></g></svg>