<svg xmlns="http://www.w3.org/2000/svg" viewBox="0 0 236.18 282.55"><defs><style>.cls-1{fill:#fff;}</style></defs><g id="Layer_2" data-name="Layer 2"><g id="Layer_1-2" data-name="Layer 1"><path class="cls-1" d="M236.18,282.55H0V0H236.18ZM142.94,259c.39-.93.6-1.62.94-2.23q12.75-23.25,25.55-46.46a3,3,0,0,1,1.8-1.4c2.73-.51,5.5-.81,8.77-1.26-.62.69-.88,1-1.18,1.3-12.23,11.59-20.56,25.69-26.66,41.23a9.65,9.65,0,0,0-1,3.91c.1,1.46.53,3.64,1.5,4.11s3-.39,4.23-1.22a11.65,11.65,0,0,0,2.79-3.63c4.15-6.92,8-14,12.42-20.77,4.26-6.5,8.54-13.15,13.83-18.78s10.48-11,16.92-15.35c14.06-9.52,18.17-23,12.79-39-3.86-11.54-11.34-20.36-20.72-27.7-19.76-15.44-42.49-24-67-28.19-3-.51-3.94-1.5-4.35-4.39-2.16-15.43-6.27-30.16-16.27-42.82,5-5.33,5.59-11.54,3.06-18.15q-4.59-12.06-9.49-24a10.8,10.8,0,0,0-2.62-3.72c-1.26-1.18-2.64-.77-3.13.93A7.08,7.08,0,0,0,95,14.84c.77,3.07,1.7,6.11,2.69,9.12C99.8,30.32,102.18,36.6,104,43c.53,1.85-.1,4.28-.89,6.16-.48,1.14-2.44,2.55-3.44,2.35a5.09,5.09,0,0,1-3.15-3.17A19,19,0,0,1,96,41.69c.32-4.16,1-8.28,1.44-12.43.19-1.86.07-3.82-2.35-4.21S92,26.49,91.48,28.29a116,116,0,0,0-3.09,12.1,30.6,30.6,0,0,0-.16,9.69c1,6.05,5.66,9.65,11.8,10a3,3,0,0,1,2.11,1.75c2.51,8.23,5.06,16.44,7.22,24.76,1.3,5,1.93,10.27,2.92,15.71-2.07.19-3.67.32-5.27.48-7.65.81-15,2.46-21.5,6.94-5.32,3.69-9.29,8.5-9.64,15.07-.58,11.06,2.45,21.19,9.85,29.68a17.9,17.9,0,0,0,5.13,4c13.19,6.9,27.19,8.6,41.72,5.84a11.53,11.53,0,0,0,9.05-7.8c.75-2,.16-3.1-1.65-3.42a31.79,31.79,0,0,0-6.46-.47c-8.74.24-17.39-.21-25.91-2.38C95.81,147.22,90,139,88,127.67a9.35,9.35,0,0,1,1.61-6.81c5.92-7.14,14.37-7.77,23.35-8.45-.43,5-.81,9.53-1.2,14-.28,3.31,1,5.67,3.42,6.36a5.28,5.28,0,0,0,6.43-3.31,44.34,44.34,0,0,0,2.49-8.83,69.86,69.86,0,0,0,.75-7.45c.67,0,1,0,1.38,0,.72.09,1.44.19,2.15.31a141.06,141.06,0,0,1,40,13.69,97.32,97.32,0,0,1,25,18.1A45.1,45.1,0,0,1,206,167.8a17.24,17.24,0,0,1-5.09,16.89c-4.54,4.47-10.08,7-16.15,8.53a107.74,107.74,0,0,1-35.11,2.86q-26.55-2.24-53-5.77c-15.45-2.07-30.8-5-45.58-10.15a56.88,56.88,0,0,1-11-5.3c-4-2.47-5.79-6.49-4.34-11.05,2.11-6.62,4.59-13.13,7.27-19.55A25.21,25.21,0,0,1,51.74,133a7.58,7.58,0,0,0,1.2-1.47c-.49-.16-.74-.32-1-.29a3.07,3.07,0,0,0-1.28.33c-3.22,2.1-6.93,3.75-9.52,6.47C34.1,145.47,30,154.68,27.31,164.5c-1.94,7.16.09,13.44,5.76,18.1,3.18,2.61,7,4.4,10.59,6.54a15.94,15.94,0,0,1,3.25,1.9c6.63,6.64,12.77,13.73,16.56,22.42,3.93,9,6.21,18.15.92,27.62-1.89,3.39-.79,5.91,3,7.22,16.68,5.8,33.38,11.59,50.17,17.05,3.52,1.15,7.46,1,11.22,1.33,4.6.34,9.24.94,13.79.59a70.32,70.32,0,0,0,13.14-2.76,2.86,2.86,0,0,0,2-4.08c-.48-.87-2.34-1.29-3.61-1.36C150.52,258.9,146.9,259,142.94,259Z"/><path d="M142.94,259c4,0,7.58-.11,11.18.06,1.27.07,3.13.49,3.61,1.36a2.86,2.86,0,0,1-2,4.08,70.32,70.32,0,0,1-13.14,2.76c-4.55.35-9.19-.25-13.79-.59-3.76-.28-7.7-.18-11.22-1.33-16.79-5.46-33.49-11.25-50.17-17.05-3.79-1.31-4.89-3.83-3-7.22,5.29-9.47,3-18.62-.92-27.62-3.79-8.69-9.93-15.78-16.56-22.42a15.94,15.94,0,0,0-3.25-1.9c-3.56-2.14-7.41-3.93-10.59-6.54-5.67-4.66-7.7-10.94-5.76-18.1,2.65-9.82,6.79-19,13.86-26.46,2.59-2.72,6.3-4.37,9.52-6.47a3.07,3.07,0,0,1,1.28-.33c.23,0,.48.13,1,.29a7.58,7.58,0,0,1-1.2,1.47A25.21,25.21,0,0,0,43,144.26c-2.68,6.42-5.16,12.93-7.27,19.55-1.45,4.56.32,8.58,4.34,11.05a56.88,56.88,0,0,0,11,5.3c14.78,5.14,30.13,8.08,45.58,10.15q26.4,3.52,53,5.77a107.74,107.74,0,0,0,35.11-2.86c6.07-1.51,11.61-4.06,16.15-8.53A17.24,17.24,0,0,0,206,167.8a45.1,45.1,0,0,0-12.55-22.5,97.32,97.32,0,0,0-25-18.1,141.06,141.06,0,0,0-40-13.69c-.71-.12-1.43-.22-2.15-.31-.35,0-.71,0-1.38,0a69.86,69.86,0,0,1-.75,7.45,44.34,44.34,0,0,1-2.49,8.83,5.28,5.28,0,0,1-6.43,3.31c-2.44-.69-3.7-3-3.42-6.36.39-4.49.77-9,1.2-14-9,.68-17.43,1.31-23.35,8.45A9.35,9.35,0,0,0,88,127.67c2,11.3,7.78,19.55,19.57,22.56,8.52,2.17,17.17,2.62,25.91,2.38a31.79,31.79,0,0,1,6.46.47c1.81.32,2.4,1.42,1.65,3.42a11.53,11.53,0,0,1-9.05,7.8c-14.53,2.76-28.53,1.06-41.72-5.84a17.9,17.9,0,0,1-5.13-4c-7.4-8.49-10.43-18.62-9.85-29.68.35-6.57,4.32-11.38,9.64-15.07,6.47-4.48,13.85-6.13,21.5-6.94,1.6-.16,3.2-.29,5.27-.48-1-5.44-1.62-10.66-2.92-15.71-2.16-8.32-4.71-16.53-7.22-24.76A3,3,0,0,0,100,60.11c-6.14-.38-10.82-4-11.8-10a30.6,30.6,0,0,1,.16-9.69,116,116,0,0,1,3.09-12.1c.51-1.8,1.28-3.62,3.65-3.24s2.54,2.35,2.35,4.21c-.43,4.15-1.12,8.27-1.44,12.43a19,19,0,0,0,.47,6.69,5.09,5.09,0,0,0,3.15,3.17c1,.2,3-1.21,3.44-2.35.79-1.88,1.42-4.31.89-6.16C102.18,36.6,99.8,30.32,97.71,24c-1-3-1.92-6.05-2.69-9.12a7.08,7.08,0,0,1,.13-3.45c.49-1.7,1.87-2.11,3.13-.93a10.8,10.8,0,0,1,2.62,3.72q4.88,12,9.49,24c2.53,6.61,1.9,12.82-3.06,18.15,10,12.66,14.11,27.39,16.27,42.82.41,2.89,1.38,3.88,4.35,4.39,24.47,4.21,47.2,12.75,67,28.19,9.38,7.34,16.86,16.16,20.72,27.7,5.38,16.07,1.27,29.5-12.79,39-6.44,4.35-11.75,9.85-16.92,15.35s-9.57,12.28-13.83,18.78c-4.42,6.74-8.27,13.85-12.42,20.77a11.65,11.65,0,0,1-2.79,3.63c-1.19.83-3.22,1.7-4.23,1.22s-1.4-2.65-1.5-4.11a9.65,9.65,0,0,1,1-3.91c6.1-15.54,14.43-29.64,26.66-41.23.3-.28.56-.61,1.18-1.3-3.27.45-6,.75-8.77,1.26a3,3,0,0,0-1.8,1.4q-12.83,23.19-25.55,46.46C143.54,257.39,143.33,258.08,142.94,259Zm-19-51.45c-5.36,14.73-9,29.82-17,43.52l7,2.33c5.85-15.17,11.56-30,17.35-45ZM82.2,200.42c-2,6.74-4,13.31-5.86,19.9a4.15,4.15,0,0,0,.13,1.87,24.54,24.54,0,0,1-2.6,17.1,10.58,10.58,0,0,0-.54,1.6l2.79.64c4.4-13.38,8.69-26.4,13.07-39.67Zm14.28,47.15c4.67-14.11,9.25-27.93,13.91-42l-5.78-.77a201.88,201.88,0,0,1-13.41,41.1Zm-10.12-3.14c4.56-13.65,9-27,13.56-40.58l-4.82-.79c-4.59,13.43-9.1,26.58-13.68,40Zm25.84-38.54c-.42,3.86-.48,7.53-1.27,11a134.26,134.26,0,0,1-4,13.24c-2.1,6.2-4.38,12.34-6.64,18.65L104,250l16-43Zm34.11,3.93L126.8,256.87c2.52.88,2.61.91,3.26-.79,5.75-15.22,13.49-29.45,21.43-43.6.43-.75.75-1.56,1.27-2.66Zm-10.34-.9c-2.75,8-5.22,15.75-8.09,23.35s-6.15,15-9.33,22.69l2.89.81c6.75-15.65,13.35-31,20-46.48Zm-2.09,49.28c1.93.71,3.17.82,4-1.35,6.28-16.13,15.26-30.79,24.67-45.22.38-.57.65-1.2,1-1.94a35.89,35.89,0,0,0-4.57.06,2.7,2.7,0,0,0-1.71,1.31c-5.35,10.68-10.63,21.39-15.93,32.09C138.91,248.15,136.4,253.14,133.88,258.2Zm-57-58.95-5.78-1.35c-.55,1.31-1.07,2.35-1.44,3.45s-1.1,2.41-.74,3.2a75.94,75.94,0,0,0,4.25,7.14C74.42,207.45,75.58,203.57,76.87,199.25ZM65.73,200.4l1.06-3.62-5.45-1.49Z"/><path class="cls-1" d="M124,207.56l7.31.89c-5.79,15-11.5,29.79-17.35,45l-7-2.33C114.94,237.38,118.63,222.29,124,207.56Z"/><path class="cls-1" d="M82.2,200.42l7,1.44c-4.38,13.27-8.67,26.29-13.07,39.67l-2.79-.64a10.58,10.58,0,0,1,.54-1.6,24.54,24.54,0,0,0,2.6-17.1,4.15,4.15,0,0,1-.13-1.87C78.24,213.73,80.2,207.16,82.2,200.42Z"/><path class="cls-1" d="M96.48,247.57l-5.28-1.69a201.88,201.88,0,0,0,13.41-41.1l5.78.77C105.73,219.64,101.15,233.46,96.48,247.57Z"/><path class="cls-1" d="M86.36,244.43,81.42,243c4.58-13.38,9.09-26.53,13.68-40l4.82.79C95.38,217.45,90.92,230.78,86.36,244.43Z"/><path class="cls-1" d="M112.2,205.89,120,207l-16,43-3.68-1.2c2.26-6.31,4.54-12.45,6.64-18.65a134.26,134.26,0,0,0,4-13.24C111.72,213.42,111.78,209.75,112.2,205.89Z"/><path class="cls-1" d="M146.31,209.82h6.45c-.52,1.1-.84,1.91-1.27,2.66-7.94,14.15-15.68,28.38-21.43,43.6-.65,1.7-.74,1.67-3.26.79Z"/><path class="cls-1" d="M136,208.92l5.49.37c-6.67,15.5-13.27,30.83-20,46.48l-2.89-.81c3.18-7.7,6.46-15.11,9.33-22.69S133.22,216.91,136,208.92Z"/><path class="cls-1" d="M133.88,258.2c2.52-5.06,5-10,7.51-15,5.3-10.7,10.58-21.41,15.93-32.09a2.7,2.7,0,0,1,1.71-1.31,35.89,35.89,0,0,1,4.57-.06c-.39.74-.66,1.37-1,1.94-9.41,14.43-18.39,29.09-24.67,45.22C137.05,259,135.81,258.91,133.88,258.2Z"/><path class="cls-1" d="M76.87,199.25c-1.29,4.32-2.45,8.2-3.71,12.44a75.94,75.94,0,0,1-4.25-7.14c-.36-.79.38-2.15.74-3.2s.89-2.14,1.44-3.45Z"/><path class="cls-1" d="M65.73,200.4l-4.39-5.11,5.45,1.49Z"/></g></g></svg>