<svg xmlns="http://www.w3.org/2000/svg" xmlns:xlink="http://www.w3.org/1999/xlink" viewBox="201.65029762 104.23809524 84.68303571 84.68303571">
  <defs>
    <path id="a2" d="M283.33 145.58c0 22.26-18.07 40.34-40.34 40.34-22.26 0-40.34-18.08-40.34-40.34 0-22.27 18.08-40.34 40.34-40.34 22.27 0 40.34 18.07 40.34 40.34z"/>
    <path id="b2" d="M219.07 147.4h47.79l.04.73v.25c0 .07 0 .13-.01.18 0 .12 0 .23-.01.31l.01.26c-.01.1-.01.18-.01.23 0 .17-.01.34-.02.51-.01.13-.02.26-.03.4 0 .14-.02.27-.03.41-.01.15-.03.29-.05.41-.02.12-.04.23-.06.35l-.19.88-.17.79-.19.67c-.03.13-.08.28-.14.44-.05.16-.12.33-.19.52l-.24.67c-.08.19-.16.35-.23.47-.08.12-.14.23-.18.32l-.4.74-.4.73c-.04.08-.1.19-.18.31-.08.12-.18.26-.3.43-.07.1-.15.21-.23.33-.09.13-.18.26-.28.4-.08.1-.16.21-.26.33-.09.12-.2.26-.32.41l-.65.73-.64.73-.64.74-.75.73-.68.56-.23.18c-.18.12-.29.2-.34.24-.12.1-.25.19-.4.28l-.69.43-.85.53-.88.52-.89.52-.83.5-.81.43-.82.38c-.24.1-.43.18-.57.23-.14.06-.34.14-.61.24l-.76.23-.84.26-.88.2-.84.18-.9.2-.88.19-.87.15-.58.06-.36.05c-.2.01-.33.01-.38.02-.15.02-.31.03-.47.03h-2.58c-.09 0-.21-.01-.36-.01-.15-.01-.35-.02-.6-.04l-.9-.11-.76-.1-.87-.2-.88-.2-.79-.24-.95-.3-.94-.37-.96-.36-.93-.44-.88-.36-.96-.47-.84-.47-.79-.53-.84-.61-.65-.57-.87-.71-.75-.68-.67-.67-.61-.64-.59-.68-.64-.78-.46-.69-.5-.78-.38-.71-.4-.76-.32-.74-.36-.83-.23-.66-.28-.71-.27-.73-.23-.74-.24-.75-.17-.81-.05-.37-.07-.44-.05-.56-.06-.74v-1.46z"/>
    <path id="c2" d="M261.53 133.8c0 3.16-2.56 5.72-5.72 5.72-3.17 0-5.73-2.56-5.73-5.72 0-3.16 2.56-5.73 5.73-5.73 3.16 0 5.72 2.57 5.72 5.73z"/>
    <path id="d2" d="M261.53 136.54c0 3.16-2.56 5.73-5.72 5.73-3.17 0-5.73-2.57-5.73-5.73 0-3.16 2.56-5.72 5.73-5.72 3.16 0 5.72 2.56 5.72 5.72z"/>
    <path id="e2" d="M235.89 134.04c0 3.16-2.57 5.73-5.73 5.73-3.16 0-5.73-2.57-5.73-5.73 0-3.16 2.57-5.72 5.73-5.72 3.16 0 5.73 2.56 5.73 5.72z"/>
    <path id="f2" d="M235.89 136.79c0 3.16-2.57 5.72-5.73 5.72-3.16 0-5.73-2.56-5.73-5.72 0-3.16 2.57-5.73 5.73-5.73 3.16 0 5.73 2.57 5.73 5.73z"/>
  </defs>
  <use fill="#fff" xlink:href="#a2"/>
  <use fill-opacity="0" stroke="#000" stroke-width="2" xlink:href="#a2"/>
  <use fill-opacity="0" stroke="#0d1b19" stroke-width="2" xlink:href="#b2"/>
  <g>
    <use xlink:href="#c2"/>
    <use fill="#fff" xlink:href="#d2"/>
    <g>
      <use xlink:href="#e2"/>
      <use fill="#fff" xlink:href="#f2"/>
    </g>
  </g>
</svg>
