<svg xmlns="http://www.w3.org/2000/svg" viewBox="0 0 793.09 193.09"><defs><style>.cls-1{fill:#fff;}</style></defs><g id="Layer_2" data-name="Layer 2"><g id="Layer_1-2" data-name="Layer 1"><path class="cls-1" d="M0,193.09V0H793.09V193.09ZM504,96.93c0,.85,0,1.36,0,1.86-.59,7.14-1.3,14.26-1.74,21.4a35.12,35.12,0,0,0,.47,8.63,7.55,7.55,0,0,0,6.31,6.36c3.52.68,6.24-.83,8.19-3.64a39.06,39.06,0,0,0,2.72-5c3.37-6.83,6.69-13.67,10-20.5.4-.79,1-1.5,1.8-2.8.46,6.07.63,11.34,1.33,16.53a23.82,23.82,0,0,0,2.64,8.41c1.77,3.14,5.36,3,7.32,0a12,12,0,0,0,2.06-5.5c.42-7.49.67-15,.64-22.5a26.23,26.23,0,0,0-1.59-8.23c-2.85-8.16-10.9-10.19-17-4-3.14,3.18-5.41,7.21-8.06,10.88-.55.75-1,1.57-1.52,2.36a6.92,6.92,0,0,1-.45-2.85c-.1-8.79-.11-17.58-.36-26.36a11.16,11.16,0,0,0-1.64-5.62A6.24,6.24,0,0,0,511,64.07c-1.94-.19-3,1.49-3.3,3.34s-.56,3.76-.8,5.65c-.67,5.18-1.32,10.36-1.87,14.77-8.63,3.31-17.11,4.54-26,4.94,0-1.19,0-2.17,0-3.14,0-6.16.15-12.33.08-18.49a31.65,31.65,0,0,0-.81-6.71A4.29,4.29,0,0,0,474,60.84c-2.35-.1-3.69,1.26-4.48,3.28a12.63,12.63,0,0,0-.83,2.86c-1.13,8.71-2.3,17.41-3.26,26.13-.2,1.8-.62,2.78-2.48,3.2A9.62,9.62,0,0,0,459,98.05c-1.16,1-2.71,2.5-2.59,3.62s2.1,2.16,3.47,2.72,3.13.59,5,.89c0,2.65-.12,5.18,0,7.69.41,7.15.84,14.33,3.94,21,1.47,3.14,4.08,4.47,6.76,3.83,2.52-.59,4-2.48,4-6,0-2.65-.77-5.29-.83-7.94-.11-5.79.05-11.6,0-17.39,0-1.57.45-2.23,2.09-2.41C488.91,103.09,496.9,102,504,96.93ZM239.07,118l-.62-.46c0-4.52,0-9,0-13.54,0-5.07,0-10.14-.28-15.2a10.58,10.58,0,0,0-1.89-5,3.27,3.27,0,0,0-4.84-.7c-1.32.93-3,2.05-1.17,4.15.39.44.09,1.55,0,2.33-1.41,10-3.05,19.89-4.15,29.87a24.16,24.16,0,0,0,1.17,9.86,8.39,8.39,0,0,0,11.86,5.23,20.25,20.25,0,0,0,6.32-4.59c4.82-5.3,9.33-10.86,13.95-16.32.49-.58,1-1.17,1.79-2.19a20.53,20.53,0,0,1,0,2.17c-1.13,8.35-2.08,16.73-3.49,25-1,5.73-2.7,11.31-6.2,16.12-4.81,6.64-10.78,6.94-15.9.59-2.54-3.16-4.5-6.79-6.78-10.16a15.91,15.91,0,0,0-2-2l-.85.58c1.14,8.74,2.31,17.53,9.45,24,3.35,3,7.55,3.89,12,3.32a22.58,22.58,0,0,0,17.26-11.54,61.14,61.14,0,0,0,6.57-15.69c4.24-17.21,4.56-34.81,3.79-52.43a15.49,15.49,0,0,0-.88-4.51c-2-5.4-8.21-6.59-12-2.26a34.34,34.34,0,0,0-3.24,5c-3.39,5.57-6.52,11.32-10.21,16.69C245.86,110.46,242.31,114.11,239.07,118Zm431,3.14-1-.36c-.14-2.63-.66-5.32-.35-7.9,1-8.35,2.4-16.67,3.54-25a9,9,0,0,0-.21-4.51,4.36,4.36,0,0,0-3-2.45c-1.1,0-2.43,1.22-3.3,2.22a9.77,9.77,0,0,0-1.37,3.21c-2.63,7.5-5.62,14.91-7.7,22.56a37.64,37.64,0,0,0-.88,13.18c1.1,11.27,11.47,16.25,21.18,10.37a29,29,0,0,0,6.54-5.27c4.44-4.9,8.59-10.06,12.86-15.11l1.38-1.63.95.34c-1.71,12.83-3.28,25.67-5.21,38.47a42.43,42.43,0,0,1-6.92,18.15c-4,5.8-5.65,6.39-12.56,4.74-.17,0-.35-.19-.51-.16-.49.09-1.19.1-1.41.42a1.72,1.72,0,0,0,.16,1.44c2.52,4.35,8.55,6.95,13.69,5.93,4.89-1,8.53-3.9,11.52-7.7a54,54,0,0,0,10.05-22.39c4.06-18.81,4.6-37.91,4.35-57.07a16.69,16.69,0,0,0-.31-2.42c-.54-3.18-2-5.68-5.36-6.48s-5.87.73-7.71,3.37c-1.65,2.38-3.1,4.9-4.62,7.37a100.06,100.06,0,0,1-18.45,22.74C673.73,118.62,671.83,119.8,670.05,121.11ZM39.26,94.18l-.52-.26c0-1.08,0-2.17,0-3.25-.36-12.86-.68-25.72-1.12-38.58a31.57,31.57,0,0,0-1-6.15c-.47-1.95-1.92-3.48-3.87-3.1a6.58,6.58,0,0,0-4.1,2.84A16,16,0,0,0,27.17,52q-2.55,35.25-4.93,70.51a45.06,45.06,0,0,0,0,8.13,7.73,7.73,0,0,0,7.07,7.12,8,8,0,0,0,8.39-5.59,40,40,0,0,0,1.62-6C41.5,115,46.44,105.25,53.16,96.27c.55-.74,1.21-1.41,1.82-2.12a51.7,51.7,0,0,1,1.19,9.35c.5,7.87.78,15.76,1.65,23.58a15,15,0,0,0,3.37,7.19c2.07,2.57,5.27,1.7,6.35-1.43a19,19,0,0,0,1.23-5.55c.24-9.32.7-18.66.26-28a41,41,0,0,0-3.45-14.12c-2.76-6.31-9.49-7.75-15-3.65a46.17,46.17,0,0,0-6.73,6.68C42.15,90.09,40.77,92.19,39.26,94.18ZM331.07,81.06c0-1.12,0-2.2,0-3.27,0-6.34,0-12.69-.19-19a11.42,11.42,0,0,0-1.37-5.72A6.31,6.31,0,0,0,325,50.33c-1.52,0-3.29,1.58-4.4,2.91-.83,1-1,2.71-1.11,4.13q-3.11,34.1-6.06,68.21a26.81,26.81,0,0,0,.47,7c.57,3.13,3.29,4.55,6.39,3.82a32.38,32.38,0,0,1,4-.39c2.78-.3,5.69-.19,8.3-1a46,46,0,0,0,24.13-16.86c5.66-7.75,9-16.38,8.61-26.09-.36-9.44-6.7-15.17-16.17-14.92a17.22,17.22,0,0,0-3.51.37C340.89,78.63,336.16,79.82,331.07,81.06Zm251.79,33.65c.11,1.58.15,2.56.25,3.54.41,3.68.69,7.39,1.3,11.05.38,2.29,1.75,4,4.39,4,2.47,0,3.8-1.53,4.4-3.71a32.23,32.23,0,0,0,.95-5.06c2.17-20.88,1.31-41.78.36-62.68a4.68,4.68,0,0,0-.41-2.38c-.88-1.24-2-3.08-3.11-3.17-1.33-.11-3.16,1.08-4.1,2.25a9.3,9.3,0,0,0-1.51,4.56q-1,8.22-1.66,16.48c-.13,1.68-.69,2.1-2.35,2.49a30.56,30.56,0,0,0-8.85,3.22,46.72,46.72,0,0,0-20.94,27.43,21.62,21.62,0,0,0-.42,9.86c1.37,7.12,8.13,10.49,14.57,7.16,4-2.08,7.64-5.12,11.14-8.09C579,119.87,580.63,117.36,582.86,114.71ZM187.06,92.85c-.12-.78-.2-2-.48-3.1s-.47-2.5-1.22-3.23a5.64,5.64,0,0,0-3.62-1.67c-.84,0-2.18,1.41-2.38,2.37a324,324,0,0,0-6.46,65.08,46.93,46.93,0,0,0,.88,7.82c.43,2.43,1.81,4.21,4.5,4.34,2.84.13,4.29-1.64,5-4.13a26.16,26.16,0,0,0,1-4.77c.77-9,1.51-18.06,2.09-27.1.13-2,.7-2.74,2.77-3a46.65,46.65,0,0,0,8.71-2.1c7.67-2.58,14-7,17.57-14.47,2.47-5.16,2.74-10.38-.86-15.18s-8.71-6.32-14.3-5.16C195.83,89.44,191.58,91.33,187.06,92.85ZM144,91.5c-1.89-1.27-3.33-3-4.92-3.11-2.62-.26-3.45,2.16-4,4.35a15.21,15.21,0,0,0-.52,2.39c-.84,9.81-1.81,19.62-2.42,29.45-.56,9-.83,17.92-1,26.88a103.57,103.57,0,0,0,.6,11.12c.2,2.42,1.54,4.13,4.09,4.33s4.06-1.41,4.75-3.67a25.44,25.44,0,0,0,1.16-5.57c.63-9.21,1.23-18.43,1.64-27.65.1-2.22.57-3.29,2.94-3.86a36.62,36.62,0,0,0,8.88-3.34c7.22-3.91,13-9.33,15.54-17.4,3.18-10.09-3.54-18.87-14.13-18.61C151.62,86.93,147.15,88.48,144,91.5Zm498.66,15a108.12,108.12,0,0,0-.08-10.84A47.9,47.9,0,0,0,640.31,84c-2.06-5.59-7.07-8.06-12.94-6.93-7.27,1.39-13,5.36-17.5,11.14a4.33,4.33,0,0,0-1,2.16c-.05,1,0,2.35.64,2.93a3.47,3.47,0,0,0,2.94.44c1.35-.42,2.48-1.48,3.79-2.08,3.77-1.73,7.53-3.47,11.38-5,1.62-.64,3,0,3.6,1.89.5,1.68.92,3-1.12,4.36a100.3,100.3,0,0,0-11.93,9.41,30.18,30.18,0,0,0-8.93,14.07c-1.28,4.63-.81,9.07,2.89,12.57s7.92,3.69,12.46,2.25c1.29-.41,2.51-1,3.78-1.52.61-.25,1.25-.46,2.29-.84,0,2.47-.12,4.55,0,6.61s1.07,3.95,3.48,4.2c2.25.24,3.58-1.2,4.2-3.15A47.88,47.88,0,0,0,639.9,130c.91-5.59,1.29-11.25,4.46-16.31,1.58-2.51,1.62-5.59.76-8.84C644.23,105.41,643.6,105.85,642.65,106.49ZM104.52,133.31c2,1.26,3.32,2.76,4.9,3,2.25.37,3.48-1.58,4.29-3.5.42-1,.76-2,1.08-3.08,1.3-4.23,2.68-8.45,3.83-12.72a20.84,20.84,0,0,0,.67-5.62c0-1.7-.67-3.39-.77-5.1-.16-2.8.23-5.66-.2-8.41-.65-4.16-1.26-8.48-2.87-12.32-2.52-6-8.46-8.28-14.72-6.31a21.24,21.24,0,0,0-12.38,10c-.54.93-1,2.86-.63,3.17a5.37,5.37,0,0,0,3.65.94c1.16-.15,2.19-1.2,3.33-1.73,2.36-1.11,4.72-2.25,7.16-3.16,2-.72,3.47,0,3.86,2.15s1.77,4-1.44,5.65A72.63,72.63,0,0,0,91,104.65a26.8,26.8,0,0,0-9.64,17.18c-1.54,10.15,6.13,17,16,14.22A74.06,74.06,0,0,0,104.52,133.31ZM748,51.42l-.62,0c0-8.51.18-17-.11-25.53A20.63,20.63,0,0,0,745,17.63a5,5,0,0,0-4.2-2.08c-1.28.19-2.38,2-3.42,3.26a3.64,3.64,0,0,0-.46,1.82c-2.19,17.7-4.54,35.38-6.46,53.11a100,100,0,0,0,.07,16.78c.23,3.76,2.47,6,5.32,6.35s5.57-1.1,7-4.49a31.45,31.45,0,0,0,2.83-9C746.68,72.74,747.27,62.07,748,51.42ZM419.18,94.24a80.12,80.12,0,0,0-.64-8,20.45,20.45,0,0,0-2.09-6.32C416,79,414.1,78.39,413,78.55c-.81.12-1.93,1.66-2,2.64q-1.85,19.86-3.34,39.75a26.62,26.62,0,0,0,.68,7.26,5.57,5.57,0,0,0,4.89,4.49,5.79,5.79,0,0,0,6.26-2.89,18.45,18.45,0,0,0,1.79-4.52c.86-3.14,1.53-6.33,2.34-9.48a47.36,47.36,0,0,1,13.64-23.67c1-.91,2.11-2.06,3.3-2.24,2.47-.37,3.56-1.72,3.65-3.93a4.3,4.3,0,0,0-3.4-4.67,14.38,14.38,0,0,0-6.62.23c-5.43,1.59-9.31,5.43-12.71,9.79ZM389,95.45a59.78,59.78,0,0,0-.07-7.52,48.94,48.94,0,0,0-2-9.19,4.73,4.73,0,0,0-4.8-3.37c-1.59,0-2.71.67-2.85,2.57-.44,6-.89,12-1.53,18-.74,6.92-2,13.8-2.43,20.74a64,64,0,0,0,1,12.92,4,4,0,0,0,4.26,3.51c2.33,0,3.41-1.61,4-3.78A148.36,148.36,0,0,0,389,95.45ZM740.45,126.3c-.55-.52-1.5-2.13-2.81-2.52-2-.57-5.27,2.74-5.33,4.83a3.43,3.43,0,0,0,3.58,3.56C738.33,132.18,740.44,130,740.45,126.3Zm-358-64c.08,1.17,0,1.69.17,2,.55,1,1.23,1.81,1.85,2.71.93-.68,2.22-1.17,2.7-2.08a9.85,9.85,0,0,0,1-4.38c0-.87-.72-2.33-1.37-2.49a3.52,3.52,0,0,0-3,1A10.47,10.47,0,0,0,382.41,62.26Z"/><path d="M504,96.93c-7.1,5-15.09,6.16-23.13,7-1.64.18-2.11.84-2.09,2.41,0,5.79-.12,11.6,0,17.39.06,2.65.83,5.29.83,7.94,0,3.56-1.45,5.45-4,6-2.68.64-5.29-.69-6.76-3.83-3.1-6.63-3.53-13.81-3.94-21-.14-2.51,0-5,0-7.69-1.86-.3-3.55-.29-5-.89s-3.35-1.67-3.47-2.72S457.88,99,459,98.05A9.62,9.62,0,0,1,463,96.31c1.86-.42,2.28-1.4,2.48-3.2,1-8.72,2.13-17.42,3.26-26.13a12.63,12.63,0,0,1,.83-2.86c.79-2,2.13-3.38,4.48-3.28a4.29,4.29,0,0,1,4.23,3.59,31.65,31.65,0,0,1,.81,6.71c.07,6.16,0,12.33-.08,18.49,0,1,0,2,0,3.14,8.91-.4,17.39-1.63,26-4.94.55-4.41,1.2-9.59,1.87-14.77.24-1.89.47-3.78.8-5.65s1.36-3.53,3.3-3.34a6.24,6.24,0,0,1,4.21,2.21,11.16,11.16,0,0,1,1.64,5.62c.25,8.78.26,17.57.36,26.36a6.92,6.92,0,0,0,.45,2.85c.5-.79,1-1.61,1.52-2.36,2.65-3.67,4.92-7.7,8.06-10.88,6.07-6.15,14.12-4.12,17,4a26.23,26.23,0,0,1,1.59,8.23c0,7.5-.22,15-.64,22.5a12,12,0,0,1-2.06,5.5c-2,3.05-5.55,3.17-7.32,0a23.82,23.82,0,0,1-2.64-8.41c-.7-5.19-.87-10.46-1.33-16.53-.84,1.3-1.4,2-1.8,2.8-3.36,6.83-6.68,13.67-10,20.5a39.06,39.06,0,0,1-2.72,5c-2,2.81-4.67,4.32-8.19,3.64a7.55,7.55,0,0,1-6.31-6.36,35.12,35.12,0,0,1-.47-8.63c.44-7.14,1.15-14.26,1.74-21.4C504,98.29,504,97.78,504,96.93Z"/><path d="M239.07,118c3.24-3.86,6.79-7.51,9.64-11.64,3.69-5.37,6.82-11.12,10.21-16.69a34.34,34.34,0,0,1,3.24-5c3.8-4.33,10-3.14,12,2.26a15.49,15.49,0,0,1,.88,4.51c.77,17.62.45,35.22-3.79,52.43a61.14,61.14,0,0,1-6.57,15.69,22.58,22.58,0,0,1-17.26,11.54c-4.43.57-8.63-.31-12-3.32-7.14-6.44-8.31-15.23-9.45-24l.85-.58a15.91,15.91,0,0,1,2,2c2.28,3.37,4.24,7,6.78,10.16,5.12,6.35,11.09,6,15.9-.59,3.5-4.81,5.23-10.39,6.2-16.12,1.41-8.29,2.36-16.67,3.49-25a20.53,20.53,0,0,0,0-2.17c-.83,1-1.3,1.61-1.79,2.19-4.62,5.46-9.13,11-13.95,16.32a20.25,20.25,0,0,1-6.32,4.59,8.39,8.39,0,0,1-11.86-5.23,24.16,24.16,0,0,1-1.17-9.86c1.1-10,2.74-19.91,4.15-29.87.11-.78.41-1.89,0-2.33-1.83-2.1-.15-3.22,1.17-4.15a3.27,3.27,0,0,1,4.84.7,10.58,10.58,0,0,1,1.89,5c.31,5.06.25,10.13.28,15.2,0,4.51,0,9,0,13.54Z"/><path d="M670.05,121.11c1.78-1.31,3.68-2.49,5.33-4a100.06,100.06,0,0,0,18.45-22.74c1.52-2.47,3-5,4.62-7.37,1.84-2.64,4.35-4.17,7.71-3.37s4.82,3.3,5.36,6.48a16.69,16.69,0,0,1,.31,2.42c.25,19.16-.29,38.26-4.35,57.07A54,54,0,0,1,697.43,172c-3,3.8-6.63,6.72-11.52,7.7-5.14,1-11.17-1.58-13.69-5.93a1.72,1.72,0,0,1-.16-1.44c.22-.32.92-.33,1.41-.42.16,0,.34.12.51.16,6.91,1.65,8.52,1.06,12.56-4.74a42.43,42.43,0,0,0,6.92-18.15c1.93-12.8,3.5-25.64,5.21-38.47l-.95-.34L696.34,112c-4.27,5-8.42,10.21-12.86,15.11a29,29,0,0,1-6.54,5.27c-9.71,5.88-20.08.9-21.18-10.37a37.64,37.64,0,0,1,.88-13.18c2.08-7.65,5.07-15.06,7.7-22.56a9.77,9.77,0,0,1,1.37-3.21c.87-1,2.2-2.25,3.3-2.22a4.36,4.36,0,0,1,3,2.45,9,9,0,0,1,.21,4.51c-1.14,8.34-2.51,16.66-3.54,25-.31,2.58.21,5.27.35,7.9Z"/><path d="M39.26,94.18c1.51-2,2.89-4.09,4.55-5.94a46.17,46.17,0,0,1,6.73-6.68c5.55-4.1,12.28-2.66,15,3.65A41,41,0,0,1,69,99.33c.44,9.3,0,18.64-.26,28a19,19,0,0,1-1.23,5.55c-1.08,3.13-4.28,4-6.35,1.43a15,15,0,0,1-3.37-7.19c-.87-7.82-1.15-15.71-1.65-23.58A51.7,51.7,0,0,0,55,94.15c-.61.71-1.27,1.38-1.82,2.12-6.72,9-11.66,18.77-13.85,29.84a40,40,0,0,1-1.62,6,8,8,0,0,1-8.39,5.59,7.73,7.73,0,0,1-7.07-7.12,45.06,45.06,0,0,1,0-8.13Q24.64,87.23,27.17,52a16,16,0,0,1,1.47-6.29,6.58,6.58,0,0,1,4.1-2.84c1.95-.38,3.4,1.15,3.87,3.1a31.57,31.57,0,0,1,1,6.15c.44,12.86.76,25.72,1.12,38.58,0,1.08,0,2.17,0,3.25Z"/><path d="M331.07,81.06c5.09-1.24,9.82-2.43,14.57-3.53a17.22,17.22,0,0,1,3.51-.37c9.47-.25,15.81,5.48,16.17,14.92.36,9.71-2.95,18.34-8.61,26.09A46,46,0,0,1,332.58,135c-2.61.82-5.52.71-8.3,1a32.38,32.38,0,0,0-4,.39c-3.1.73-5.82-.69-6.39-3.82a26.81,26.81,0,0,1-.47-7q2.93-34.11,6.06-68.21c.12-1.42.28-3.12,1.11-4.13,1.11-1.33,2.88-2.88,4.4-2.91a6.31,6.31,0,0,1,4.48,2.72,11.42,11.42,0,0,1,1.37,5.72c.2,6.33.15,12.68.19,19C331.08,78.86,331.07,79.94,331.07,81.06Zm-4.39,44.32c3.07-1.71,5.85-3,8.41-4.7,9.51-6.17,15.66-14.69,17.54-26,.83-5-.39-6.32-5.36-5.38-5.24,1-10.39,2.49-15.53,3.93-.62.18-1.25,1.38-1.35,2.18-.41,3.32-.49,6.68-.92,10C328.65,111.87,327.68,118.29,326.68,125.38Z"/><path d="M582.86,114.71c-2.23,2.65-3.82,5.16-6,7-3.5,3-7.1,6-11.14,8.09-6.44,3.33-13.2,0-14.57-7.16a21.62,21.62,0,0,1,.42-9.86,46.72,46.72,0,0,1,20.94-27.43,30.56,30.56,0,0,1,8.85-3.22c1.66-.39,2.22-.81,2.35-2.49q.64-8.25,1.66-16.48a9.3,9.3,0,0,1,1.51-4.56c.94-1.17,2.77-2.36,4.1-2.25,1.13.09,2.23,1.93,3.11,3.17a4.68,4.68,0,0,1,.41,2.38c1,20.9,1.81,41.8-.36,62.68a32.23,32.23,0,0,1-.95,5.06c-.6,2.18-1.93,3.74-4.4,3.71-2.64,0-4-1.76-4.39-4-.61-3.66-.89-7.37-1.3-11.05C583,117.27,583,116.29,582.86,114.71ZM566.57,117a45.24,45.24,0,0,0,15.64-11.19,2,2,0,0,0,.58-1.19c.05-4.28,0-8.56,0-13.37C574.42,98.08,569.48,106.49,566.57,117Z"/><path d="M187.06,92.85c4.52-1.52,8.77-3.41,13.22-4.33,5.59-1.16,10.72.38,14.3,5.16s3.33,10,.86,15.18c-3.59,7.5-9.9,11.89-17.57,14.47a46.65,46.65,0,0,1-8.71,2.1c-2.07.29-2.64,1-2.77,3-.58,9-1.32,18.07-2.09,27.1a26.16,26.16,0,0,1-1,4.77c-.71,2.49-2.16,4.26-5,4.13-2.69-.13-4.07-1.91-4.5-4.34a46.93,46.93,0,0,1-.88-7.82,324,324,0,0,1,6.46-65.08c.2-1,1.54-2.35,2.38-2.37a5.64,5.64,0,0,1,3.62,1.67c.75.73.94,2.1,1.22,3.23S186.94,92.07,187.06,92.85Zm.14,24.5c2.75-1.28,5.4-2.36,7.89-3.72,4.19-2.28,7.93-5.13,10.28-9.4s.73-7.36-4-6.88c-4.41.45-8.72,2.05-13,3.26a2.1,2.1,0,0,0-1.1,1.59C187.16,107.06,187.2,111.93,187.2,117.35Z"/><path d="M144,91.5c3.16-3,7.63-4.57,12.6-4.69,10.59-.26,17.31,8.52,14.13,18.61-2.54,8.07-8.32,13.49-15.54,17.4a36.62,36.62,0,0,1-8.88,3.34c-2.37.57-2.84,1.64-2.94,3.86-.41,9.22-1,18.44-1.64,27.65a25.44,25.44,0,0,1-1.16,5.57c-.69,2.26-2.17,3.88-4.75,3.67s-3.89-1.91-4.09-4.33a103.57,103.57,0,0,1-.6-11.12c.19-9,.46-17.93,1-26.88.61-9.83,1.58-19.64,2.42-29.45a15.21,15.21,0,0,1,.52-2.39c.54-2.19,1.37-4.61,4-4.35C140.66,88.54,142.1,90.23,144,91.5Zm-.46,24.83c6.51-3.45,11.71-7.4,15.3-13.11.77-1.22,1.33-3.54.7-4.45-.76-1.08-2.88-1.49-4.47-1.67-4.47-.49-7.27,3.31-11.08,4.62-.22.08-.43.59-.43.9C143.52,107,143.53,111.4,143.53,116.33Z"/><path d="M642.65,106.49c1-.64,1.58-1.08,2.47-1.69.86,3.25.82,6.33-.76,8.84-3.17,5.06-3.55,10.72-4.46,16.31a47.88,47.88,0,0,1-1.58,6.59c-.62,2-2,3.39-4.2,3.15-2.41-.25-3.32-2.07-3.48-4.2s0-4.14,0-6.61c-1,.38-1.68.59-2.29.84-1.27.5-2.49,1.11-3.78,1.52-4.54,1.44-8.86,1.15-12.46-2.25s-4.17-7.94-2.89-12.57a30.18,30.18,0,0,1,8.93-14.07,100.3,100.3,0,0,1,11.93-9.41c2-1.39,1.62-2.68,1.12-4.36-.56-1.87-2-2.53-3.6-1.89-3.85,1.51-7.61,3.25-11.38,5-1.31.6-2.44,1.66-3.79,2.08a3.47,3.47,0,0,1-2.94-.44c-.61-.58-.69-1.93-.64-2.93a4.33,4.33,0,0,1,1-2.16c4.5-5.78,10.23-9.75,17.5-11.14,5.87-1.13,10.88,1.34,12.94,6.93a47.9,47.9,0,0,1,2.26,11.64A108.12,108.12,0,0,1,642.65,106.49Zm-19.82,12.45.6.62c1.75-.68,3.55-1.25,5.22-2.08.9-.44,2.15-1.26,2.25-2,.46-3.68.58-7.41.83-11.12C627.53,108.66,624.35,113.34,622.83,118.94Z"/><path d="M104.52,133.31a74.06,74.06,0,0,1-7.17,2.74c-9.86,2.78-17.53-4.07-16-14.22A26.8,26.8,0,0,1,91,104.65a72.63,72.63,0,0,1,13.28-8.33c3.21-1.62,1.81-3.62,1.44-5.65s-1.91-2.87-3.86-2.15c-2.44.91-4.8,2-7.16,3.16-1.14.53-2.17,1.58-3.33,1.73a5.37,5.37,0,0,1-3.65-.94c-.4-.31.09-2.24.63-3.17a21.24,21.24,0,0,1,12.38-10c6.26-2,12.2.27,14.72,6.31,1.61,3.84,2.22,8.16,2.87,12.32.43,2.75,0,5.61.2,8.41.1,1.71.75,3.4.77,5.1a20.84,20.84,0,0,1-.67,5.62c-1.15,4.27-2.53,8.49-3.83,12.72-.32,1-.66,2.08-1.08,3.08-.81,1.92-2,3.87-4.29,3.5C107.84,136.07,106.47,134.57,104.52,133.31ZM106.1,105c-5.13,3.65-9.46,7.74-11.65,13.63a17.74,17.74,0,0,0-1,5c0,.63,1.07,1.95,1.32,1.87a55.41,55.41,0,0,0,10-3.63c1-.54,1.14-3.14,1.21-4.82C106.21,113.14,106.1,109.22,106.1,105Z"/><path d="M748,51.42c-.76,10.65-1.35,21.32-2.37,32a31.45,31.45,0,0,1-2.83,9c-1.46,3.39-4.16,4.88-7,4.49s-5.09-2.59-5.32-6.35a100,100,0,0,1-.07-16.78c1.92-17.73,4.27-35.41,6.46-53.11a3.64,3.64,0,0,1,.46-1.82c1-1.23,2.14-3.07,3.42-3.26a5,5,0,0,1,4.2,2.08,20.63,20.63,0,0,1,2.35,8.23c.29,8.5.11,17,.11,25.53Z"/><path d="M419.18,94.24l2.28-2.93c3.4-4.36,7.28-8.2,12.71-9.79a14.38,14.38,0,0,1,6.62-.23,4.3,4.3,0,0,1,3.4,4.67c-.09,2.21-1.18,3.56-3.65,3.93-1.19.18-2.32,1.33-3.3,2.24A47.36,47.36,0,0,0,423.6,115.8c-.81,3.15-1.48,6.34-2.34,9.48a18.45,18.45,0,0,1-1.79,4.52,5.79,5.79,0,0,1-6.26,2.89,5.57,5.57,0,0,1-4.89-4.49,26.62,26.62,0,0,1-.68-7.26q1.49-19.89,3.34-39.75c.09-1,1.21-2.52,2-2.64,1.1-.16,3,.47,3.45,1.35a20.45,20.45,0,0,1,2.09,6.32A80.12,80.12,0,0,1,419.18,94.24Z"/><path d="M389,95.45a148.36,148.36,0,0,1-4.49,33.89c-.55,2.17-1.63,3.74-4,3.78a4,4,0,0,1-4.26-3.51,64,64,0,0,1-1-12.92c.44-6.94,1.69-13.82,2.43-20.74.64-6,1.09-12,1.53-18,.14-1.9,1.26-2.53,2.85-2.57a4.73,4.73,0,0,1,4.8,3.37,48.94,48.94,0,0,1,2,9.19A59.78,59.78,0,0,1,389,95.45Z"/><path d="M740.45,126.3c0,3.68-2.12,5.88-4.56,5.87a3.43,3.43,0,0,1-3.58-3.56c.06-2.09,3.36-5.4,5.33-4.83C739,124.17,739.9,125.78,740.45,126.3Z"/><path d="M382.41,62.26A10.47,10.47,0,0,1,383.8,59a3.52,3.52,0,0,1,3-1c.65.16,1.38,1.62,1.37,2.49a9.85,9.85,0,0,1-1,4.38c-.48.91-1.77,1.4-2.7,2.08-.62-.9-1.3-1.76-1.85-2.71C382.38,64,382.49,63.43,382.41,62.26Z"/><path class="cls-1" d="M326.68,125.38c1-7.09,2-13.51,2.79-19.94.43-3.32.51-6.68.92-10,.1-.8.73-2,1.35-2.18,5.14-1.44,10.29-2.94,15.53-3.93,5-.94,6.19.36,5.36,5.38-1.88,11.28-8,19.8-17.54,26C332.53,122.34,329.75,123.67,326.68,125.38Z"/><path class="cls-1" d="M566.57,117c2.91-10.48,7.85-18.89,16.25-25.75,0,4.81,0,9.09,0,13.37a2,2,0,0,1-.58,1.19A45.24,45.24,0,0,1,566.57,117Z"/><path class="cls-1" d="M187.2,117.35c0-5.42,0-10.29.05-15.15a2.1,2.1,0,0,1,1.1-1.59c4.32-1.21,8.63-2.81,13-3.26,4.71-.48,6.3,2.64,4,6.88s-6.09,7.12-10.28,9.4C192.6,115,190,116.07,187.2,117.35Z"/><path class="cls-1" d="M143.53,116.33c0-4.93,0-9.32,0-13.71,0-.31.21-.82.43-.9,3.81-1.31,6.61-5.11,11.08-4.62,1.59.18,3.71.59,4.47,1.67.63.91.07,3.23-.7,4.45C155.24,108.93,150,112.88,143.53,116.33Z"/><path class="cls-1" d="M622.83,118.94c1.52-5.6,4.7-10.28,8.9-14.62-.25,3.71-.37,7.44-.83,11.12-.1.78-1.35,1.6-2.25,2-1.67.83-3.47,1.4-5.22,2.08Z"/><path class="cls-1" d="M106.1,105c0,4.23.11,8.15,0,12.05-.07,1.68-.22,4.28-1.21,4.82a55.41,55.41,0,0,1-10,3.63c-.25.08-1.36-1.24-1.32-1.87a17.74,17.74,0,0,1,1-5C96.64,112.73,101,108.64,106.1,105Z"/></g></g></svg>