<?xml version="1.0" encoding="UTF-8" standalone="no"?>
<!DOCTYPE svg PUBLIC "-//W3C//DTD SVG 1.1//EN" "http://www.w3.org/Graphics/SVG/1.1/DTD/svg11.dtd">
<svg version="1.1" xmlns="http://www.w3.org/2000/svg" xmlns:xlink="http://www.w3.org/1999/xlink"
  preserveAspectRatio="xMidYMid meet" viewBox="0 0 640 640" width="640" height="640">
  <defs>
    <path
      d="M628.65 320C628.65 490.35 490.35 628.65 320 628.65C149.65 628.65 11.35 490.35 11.35 320C11.35 149.65 149.65 11.35 320 11.35C490.35 11.35 628.65 149.65 628.65 320Z"
      id="boJ3AXNMC"></path>
    <path
      d="M499.76 353.04L499.02 359.98L497.99 366.83L496.69 373.59L495.1 380.26L493.25 386.83L491.14 393.29L488.77 399.64L486.15 405.88L483.28 411.99L480.17 417.97L476.83 423.82L473.27 429.53L469.48 435.1L465.47 440.51L461.25 445.77L456.83 450.87L452.21 455.8L447.4 460.56L442.4 465.14L437.22 469.54L431.86 473.74L426.33 477.76L420.65 481.57L414.8 485.18L408.8 488.58L402.65 491.75L396.37 494.71L389.94 497.44L383.4 499.94L376.72 502.19L369.93 504.2L363.03 505.96L356.03 507.47L348.92 508.71L341.72 509.69L334.44 510.4L327.07 510.82L319.62 510.97L312.18 510.82L304.81 510.4L297.52 509.69L290.32 508.71L283.21 507.47L276.21 505.96L269.31 504.2L262.52 502.19L255.85 499.94L249.3 497.44L242.88 494.71L236.59 491.75L230.44 488.58L224.44 485.18L218.6 481.57L212.91 477.76L207.38 473.74L202.02 469.54L196.84 465.14L191.84 460.56L187.03 455.8L182.41 450.87L177.99 445.77L173.77 440.51L169.77 435.1L165.98 429.53L162.41 423.82L159.07 417.97L155.96 411.99L153.09 405.88L150.47 399.64L148.1 393.29L145.99 386.83L144.14 380.26L142.56 373.59L141.25 366.83L140.22 359.98L139.48 353.04L139.03 346.03L139 344.55L500.24 344.55L500.21 346.03L499.76 353.04Z"
      id="b53ihyOjbE"></path>
    <path
      d="M261.91 192.62C261.91 214.2 244.39 231.72 222.81 231.72C201.23 231.72 183.71 214.2 183.71 192.62C183.71 171.04 201.23 153.52 222.81 153.52C244.39 153.52 261.91 171.04 261.91 192.62Z"
      id="adxL4djO"></path>
    <path
      d="M455.73 192.62C455.73 214.2 438.21 231.72 416.63 231.72C395.05 231.72 377.53 214.2 377.53 192.62C377.53 171.04 395.05 153.52 416.63 153.52C438.21 153.52 455.73 171.04 455.73 192.62Z"
      id="aEJX8XUJD"></path>
  </defs>
  <g>
    <g>
      <g>
        <g>
          <use xlink:href="#boJ3AXNMC" opacity="1" fill="#ffffff" fill-opacity="0"></use>
          <g>
            <use xlink:href="#boJ3AXNMC" opacity="1" fill-opacity="0" stroke="#000000" stroke-width="15"
              stroke-opacity="1"></use>
          </g>
        </g>
        <g>
          <use xlink:href="#b53ihyOjbE" opacity="1" fill="#ffffff" fill-opacity="0"></use>
          <g>
            <use xlink:href="#b53ihyOjbE" opacity="1" fill-opacity="0" stroke="#000000" stroke-width="15"
              stroke-opacity="1"></use>
          </g>
        </g>
        <g>
          <use xlink:href="#adxL4djO" opacity="1" fill="#ffffff" fill-opacity="0"></use>
          <g>
            <use xlink:href="#adxL4djO" opacity="1" fill-opacity="0" stroke="#000000" stroke-width="15"
              stroke-opacity="1"></use>
          </g>
        </g>
        <g>
          <use xlink:href="#aEJX8XUJD" opacity="1" fill="#ffffff" fill-opacity="0"></use>
          <g>
            <use xlink:href="#aEJX8XUJD" opacity="1" fill-opacity="0" stroke="#000000" stroke-width="15"
              stroke-opacity="1"></use>
          </g>
        </g>
      </g>
    </g>
  </g>
</svg>
