<?xml version="1.0" encoding="UTF-8" standalone="no"?>
<!DOCTYPE svg PUBLIC "-//W3C//DTD SVG 1.1//EN" "http://www.w3.org/Graphics/SVG/1.1/DTD/svg11.dtd">
<svg version="1.1" xmlns="http://www.w3.org/2000/svg" xmlns:xlink="http://www.w3.org/1999/xlink" preserveAspectRatio="xMidYMid meet" viewBox="0 0 640 640" width="640" height="640"><defs><path d="M628.65 320C628.65 490.35 490.35 628.65 320 628.65C149.65 628.65 11.35 490.35 11.35 320C11.35 149.65 149.65 11.35 320 11.35C490.35 11.35 628.65 149.65 628.65 320Z" id="bpTgduxEK"></path><path d="M499.76 351.04L499.02 357.98L497.99 364.83L496.69 371.59L495.1 378.26L493.25 384.83L491.14 391.29L488.77 397.64L486.15 403.88L483.28 409.99L480.17 415.97L476.83 421.82L473.27 427.53L469.48 433.1L465.47 438.51L461.25 443.77L456.83 448.87L452.21 453.8L447.4 458.56L442.4 463.14L437.22 467.54L431.86 471.74L426.33 475.76L420.65 479.57L414.8 483.18L408.8 486.58L402.65 489.75L396.37 492.71L389.94 495.44L383.4 497.94L376.72 500.19L369.93 502.2L363.03 503.96L356.03 505.47L348.92 506.71L341.72 507.69L334.44 508.4L327.07 508.82L319.62 508.97L312.18 508.82L304.81 508.4L297.52 507.69L290.32 506.71L283.21 505.47L276.21 503.96L269.31 502.2L262.52 500.19L255.85 497.94L249.3 495.44L242.88 492.71L236.59 489.75L230.44 486.58L224.44 483.18L218.6 479.57L212.91 475.76L207.38 471.74L202.02 467.54L196.84 463.14L191.84 458.56L187.03 453.8L182.41 448.87L177.99 443.77L173.77 438.51L169.77 433.1L165.98 427.53L162.41 421.82L159.07 415.97L155.96 409.99L153.09 403.88L150.47 397.64L148.1 391.29L145.99 384.83L144.14 378.26L142.56 371.59L141.25 364.83L140.22 357.98L139.48 351.04L139.03 344.03L139 342.55L500.24 342.55L500.21 344.03L499.76 351.04Z" id="c19fLE58M"></path><path d="M482.45 184.8C497.15 189.78 505.74 208.24 500.55 225.17C492.69 250.8 465.28 266.96 418.33 273.65C416.54 271.94 415.62 271.17 415.57 271.32C415.57 271.32 415.57 271.32 415.57 271.32C378.42 246 364.63 217.7 374.21 186.44C379.4 169.51 397.25 158.69 413.63 163.71C430.01 168.73 442.47 192.98 437.28 209.91C442.47 192.98 467.74 179.83 482.45 184.8Z" id="c92bIq8L1"></path><path d="M157.55 184.8C142.85 189.78 134.26 208.24 139.45 225.17C147.31 250.8 174.72 266.96 221.67 273.65C223.46 271.94 224.38 271.17 224.43 271.32C224.43 271.32 224.43 271.32 224.43 271.32C261.58 246 275.37 217.7 265.79 186.44C260.6 169.51 242.75 158.69 226.37 163.71C209.99 168.73 197.53 192.98 202.72 209.91C197.53 192.98 172.26 179.83 157.55 184.8Z" id="a8r1tBh1z"></path></defs><g><g><g></g><g><g><use xlink:href="#bpTgduxEK" opacity="1" fill="#ffffff" fill-opacity="0"></use><g><use xlink:href="#bpTgduxEK" opacity="1" fill-opacity="0" stroke="#000000" stroke-width="6" stroke-opacity="1"></use></g></g><g><use xlink:href="#c19fLE58M" opacity="1" fill="#ffffff" fill-opacity="0"></use><g><use xlink:href="#c19fLE58M" opacity="1" fill-opacity="0" stroke="#000000" stroke-width="6" stroke-opacity="1"></use></g></g><g><g><use xlink:href="#c92bIq8L1" opacity="1" fill="#ffffff" fill-opacity="0"></use><g><use xlink:href="#c92bIq8L1" opacity="1" fill-opacity="0" stroke="#000000" stroke-width="6" stroke-opacity="1"></use></g></g><g><use xlink:href="#a8r1tBh1z" opacity="1" fill="#ffffff" fill-opacity="0"></use><g><use xlink:href="#a8r1tBh1z" opacity="1" fill-opacity="0" stroke="#000000" stroke-width="6" stroke-opacity="1"></use></g></g></g></g></g></g></svg>