<svg xmlns="http://www.w3.org/2000/svg" viewBox="0 0 451.64 115.09"><defs><style>.cls-1{fill:#fff;}</style></defs><g id="Layer_2" data-name="Layer 2"><g id="Layer_1-2" data-name="Layer 1"><path class="cls-1" d="M0,115.09V0H451.64V115.09ZM33.79,53.72c0,1.86-.08,2.85,0,3.81.27,2.91-.68,4.13-3.91,4.56A23.16,23.16,0,0,0,21,65.67c-1.13.7-1.82,3.22-1.52,4.68.21,1.06,2.28,2.18,3.68,2.46a46.59,46.59,0,0,0,7.85.55c1.62,0,2.17.64,2.15,2.29a57.24,57.24,0,0,0,.43,7.28c.22,1.87,1,3.71,3.2,3.8s3.15-1.66,3.62-3.46c.63-2.44.93-5,1.51-7.42.16-.64.79-1.66,1.22-1.67,4.58-.13,9.16-.08,13.86-.08.06.89.1,1.78.17,2.67A65.55,65.55,0,0,0,58,85.66c.35,1.62,1.84,3,2.82,4.48,1-1.41,2.39-2.69,2.83-4.24a37.25,37.25,0,0,0,1.25-8.28c.17-3.25.61-6,4.66-6.36a1.4,1.4,0,0,0,1-.47c.88-1.34,2.39-2.77,2.31-4.08-.07-1.13-1.88-2.34-3.15-3.13-.93-.57-2.25-.52-3.28-.73V51.2c2.17-.49,4-.86,5.88-1.34s4.1-1.17,3.88-3.74-2.36-3.24-4.56-3.38c-1.78-.12-3.58,0-5.5,0-.13-1.09-.18-2-.35-2.84A61.45,61.45,0,0,0,63.92,32c-.37-1.07-1.84-1.77-2.81-2.64-.58,1.12-1.51,2.19-1.67,3.36-.41,2.95-.4,5.95-.74,8.92-.07.69-.75,1.82-1.28,1.89-4.46.65-9,1.1-13.62,1.62-.15-3.29-.16-6.35-.46-9.39s-1.9-4.55-4.17-4.45c-2.69.12-3.79,1.92-4.05,4.29-.32,3-.58,5.94-.61,8.92a2.92,2.92,0,0,1-2.4,3.25A36.92,36.92,0,0,0,24.68,51a10.36,10.36,0,0,0-3.11,3.59,2.18,2.18,0,0,0,.48,2.1,3.07,3.07,0,0,0,2.41.23C27.43,56,30.35,54.91,33.79,53.72ZM115,58.27c3.13-1.92,6.59-3.87,9.87-6.09s6.78-4.82,10-7.45a3.11,3.11,0,0,0,.53-4.62c-1.36-1.65-2.78-.79-4.34,0-8.17,4.25-16.4,8.39-24.64,12.58-.4-5-.71-9.83-1.22-14.67-.25-2.31-1.32-4.35-4-4.24s-3.43,2.12-3.63,4.35C96,53.76,95.4,69.37,97.43,85a8.11,8.11,0,0,0,1.13,3.57c.71,1,2,2.24,3,2.19a4.65,4.65,0,0,0,3.26-2.24A14.2,14.2,0,0,0,106.07,83c.25-4.78.26-9.58.37-14.37,0-.86.09-1.73.17-3.37,2.66,2.27,4.94,4,7,6,2.77,2.74,5.09,6,8.05,8.45A51.41,51.41,0,0,0,131.35,86a7.48,7.48,0,0,0,5.2.09c2.49-.82,2.52-3.72.56-5.37-3.38-2.83-6.72-5.74-9.8-8.89C123.16,67.55,119.27,63,115,58.27Zm103.27-1.09c.4,5.52.7,11.75,1.35,17.94.44,4.25,2.47,6,6.78,6.34a16,16,0,0,0,4.32-.2c13-2.53,24.54-18.09,23.16-31.25-.64-6-3.73-10.34-9.43-12.53a28.66,28.66,0,0,0-16.57-1.29,5,5,0,0,1-2.59.05c-3.81-1.38-5.55-.54-5.91,3.43C218.84,45.25,218.62,50.85,218.23,57.18ZM202.88,78.9c1.47.72,3,2,3.65,1.65a5,5,0,0,0,2.14-3.34A93.94,93.94,0,0,0,210,65.63c.43-9.38.77-18.76.81-28.15,0-2-1.18-4.11-2.31-5.86-.43-.67-2.28-.71-3.39-.51-.37.07-.58,1.8-.6,2.77,0,2.78.2,5.58.05,8.35C204,52.6,203.32,63,202.66,73.32a21.22,21.22,0,0,1-.52,2.71c-1-.4-2.39-.52-3-1.26-3.24-4-6.31-8.1-9.39-12.22-2.32-3.1-4.62-6.23-6.8-9.43a10.21,10.21,0,0,1-1.41-3.48c-.45-2-.39-4.15-1.1-6-.31-.83-1.95-1.46-3.06-1.58-.55-.07-1.67,1.14-1.81,1.91-.77,4.07-1.34,8.18-1.93,12.28s-1.29,8.22-1.68,12.36a56.6,56.6,0,0,0-.18,9.74,4.54,4.54,0,0,0,2.31,3.37c1.77.6,2.6-1.13,3-2.7s.8-3,1.09-4.48c.74-3.86,1.43-7.73,2.22-12.08a49.08,49.08,0,0,0,3.78,5.5,119.41,119.41,0,0,0,10.43,10.55C197.06,80.53,200.25,81,202.88,78.9ZM340,60.34A29.75,29.75,0,0,0,335.08,43c-4.66-6.73-8.58-7.95-16.18-5C305.61,43,300.14,61.67,308.57,73.09c7.1,9.6,20.12,9.49,27-.27A23.82,23.82,0,0,0,340,60.34Zm63.14-14.92C402.3,51,401.28,56,400.83,61.15c-.53,6.11-.68,12.27-.77,18.41,0,2.11.65,4.38,3.37,4.48C406,84.13,406.61,82,407,80a83.4,83.4,0,0,0,1.35-8.3c.89-9.41,2.87-18.78,1.18-28.64,3.38-.78,6.81-1.56,10.23-2.36,4.5-1,9-2,13.48-3.22,1.67-.44,3.15-1.82,2.45-3.6a4.61,4.61,0,0,0-3.3-2.45,102.66,102.66,0,0,0-12.77,0c-9.93.64-19.41,3-27.68,8.76a29.93,29.93,0,0,0-6.49,6.42c-1.75,2.29-.68,4.1,2.26,3.92A28.87,28.87,0,0,0,395.07,49C397.71,48.05,400.2,46.73,403.14,45.42ZM274,65.18c7.77-1.51,13.49-3.68,19.22-7.76a29.45,29.45,0,0,0,6.48-6.07c3.74-5,2.25-10.29-3.38-13a11.86,11.86,0,0,0-4.63-1.42c-5.31-.12-10.64.08-16,.13-.66,0-1.52.11-1.94-.24-3.42-2.85-5.26-2.26-6.61,2-.43,1.36-1.55,2.48-2.15,3.8a3.85,3.85,0,0,0-.14,2.26c.22,1.09,1,2.12,1,3.17.07,8.85,0,17.7,0,26.55a12,12,0,0,0,.7,4.52c.45,1.09,1.63,2.5,2.58,2.57s2.26-1.22,2.83-2.24a11.79,11.79,0,0,0,1-4.18C273.39,72,273.66,68.63,274,65.18ZM348.2,65c-3.37,2.78-3.17,7.71.26,11.33,7,7.36,21.13,7.43,28.16.15,3.52-3.65,4.05-8.22,1.1-12.34a43,43,0,0,0-5.21-5.51c-2.21-2.14-4.74-4-6.74-6.3-4.21-4.86-1.62-11.95,4.79-12.67,3.31-.38,6.75.55,10.15.78,1,.07,2.63,0,2.8-.45a4,4,0,0,0-.32-3.16,5.15,5.15,0,0,0-2.78-2,49.86,49.86,0,0,0-9.76-2.21c-7.19-.51-12.34,2.84-14.9,9.06s-1,11.62,4.51,16.52c1.49,1.32,3.11,2.48,4.64,3.77a74.93,74.93,0,0,1,5.94,5.16c2,2,1.75,3.23-.44,4.9C362.76,77.84,350.89,74.21,348.2,65Zm-198.94,1.7.63,0c0,4.33-.19,8.68.08,13,.14,2.33.35,5.14,3.52,5.72,2,.37,4-1.49,4.29-5.35,1-12,1.67-24,2.27-35.95a7.63,7.63,0,0,0-1.66-4.72,4.37,4.37,0,0,0-3.74-1.29,4.31,4.31,0,0,0-2.56,3C151,49.66,150.17,58.21,149.26,66.74Z"/><path d="M33.79,53.72c-3.44,1.19-6.36,2.28-9.33,3.19a3.07,3.07,0,0,1-2.41-.23,2.18,2.18,0,0,1-.48-2.1A10.36,10.36,0,0,1,24.68,51a36.92,36.92,0,0,1,7.43-3.24,2.92,2.92,0,0,0,2.4-3.25c0-3,.29-6,.61-8.92.26-2.37,1.36-4.17,4.05-4.29,2.27-.1,3.88,1.51,4.17,4.45s.31,6.1.46,9.39c4.66-.52,9.16-1,13.62-1.62.53-.07,1.21-1.2,1.28-1.89.34-3,.33-6,.74-8.92.16-1.17,1.09-2.24,1.67-3.36,1,.87,2.44,1.57,2.81,2.64a61.45,61.45,0,0,1,1.82,7.89c.17.86.22,1.75.35,2.84,1.92,0,3.72-.09,5.5,0,2.2.14,4.33.8,4.56,3.38s-1.9,3.23-3.88,3.74-3.71.85-5.88,1.34V62.85c1,.21,2.35.16,3.28.73,1.27.79,3.08,2,3.15,3.13.08,1.31-1.43,2.74-2.31,4.08a1.4,1.4,0,0,1-1,.47c-4,.32-4.49,3.11-4.66,6.36a37.25,37.25,0,0,1-1.25,8.28c-.44,1.55-1.86,2.83-2.83,4.24-1-1.49-2.47-2.86-2.82-4.48a65.55,65.55,0,0,1-.79-8.89c-.07-.89-.11-1.78-.17-2.67-4.7,0-9.28,0-13.86.08-.43,0-1.06,1-1.22,1.67-.58,2.46-.88,5-1.51,7.42-.47,1.8-1.44,3.55-3.62,3.46s-3-1.93-3.2-3.8a57.24,57.24,0,0,1-.43-7.28c0-1.65-.53-2.26-2.15-2.29a46.59,46.59,0,0,1-7.85-.55c-1.4-.28-3.47-1.4-3.68-2.46-.3-1.46.39-4,1.52-4.68a23.16,23.16,0,0,1,8.87-3.58c3.23-.43,4.18-1.65,3.91-4.56C33.71,56.57,33.79,55.58,33.79,53.72Zm9.3,7.81,14.25.83.53-9.77L43.45,53.93C43.33,56.51,43.22,58.83,43.09,61.53Z"/><path d="M115,58.27c4.31,4.75,8.2,9.28,12.35,13.54,3.08,3.15,6.42,6.06,9.8,8.89,2,1.65,1.93,4.55-.56,5.37a7.48,7.48,0,0,1-5.2-.09,51.41,51.41,0,0,1-9.73-6.26c-3-2.49-5.28-5.71-8.05-8.45-2-2-4.3-3.73-7-6-.08,1.64-.14,2.51-.17,3.37-.11,4.79-.12,9.59-.37,14.37a14.2,14.2,0,0,1-1.23,5.49,4.65,4.65,0,0,1-3.26,2.24c-1,.05-2.31-1.19-3-2.19A8.11,8.11,0,0,1,97.43,85c-2-15.61-1.4-31.22,0-46.83.2-2.23,1.05-4.24,3.63-4.35s3.8,1.93,4,4.24c.51,4.84.82,9.7,1.22,14.67,8.24-4.19,16.47-8.33,24.64-12.58,1.56-.81,3-1.67,4.34,0a3.11,3.11,0,0,1-.53,4.62c-3.2,2.63-6.55,5.12-10,7.45S118.09,56.35,115,58.27Z"/><path d="M218.23,57.18c.39-6.33.61-11.93,1.11-17.51.36-4,2.1-4.81,5.91-3.43a5,5,0,0,0,2.59-.05,28.66,28.66,0,0,1,16.57,1.29c5.7,2.19,8.79,6.52,9.43,12.53,1.38,13.16-10.15,28.72-23.16,31.25a16,16,0,0,1-4.32.2c-4.31-.36-6.34-2.09-6.78-6.34C218.93,68.93,218.63,62.7,218.23,57.18Zm9,19.49a33.46,33.46,0,0,0,11-8.45,28.83,28.83,0,0,0,7.08-16.11c.28-3-.59-5.6-3.53-7-4.37-2.07-9-2.23-13.3-2C228,54.39,227.62,65.36,227.21,76.67Z"/><path d="M202.88,78.9c-2.63,2.14-5.82,1.63-8.24-.42a119.41,119.41,0,0,1-10.43-10.55,49.08,49.08,0,0,1-3.78-5.5c-.79,4.35-1.48,8.22-2.22,12.08-.29,1.51-.7,3-1.09,4.48s-1.25,3.3-3,2.7a4.54,4.54,0,0,1-2.31-3.37,56.6,56.6,0,0,1,.18-9.74c.39-4.14,1.08-8.24,1.68-12.36s1.16-8.21,1.93-12.28c.14-.77,1.26-2,1.81-1.91,1.11.12,2.75.75,3.06,1.58.71,1.88.65,4,1.1,6A10.21,10.21,0,0,0,183,53.12c2.18,3.2,4.48,6.33,6.8,9.43,3.08,4.12,6.15,8.24,9.39,12.22.6.74,2,.86,3,1.26a21.22,21.22,0,0,0,.52-2.71c.66-10.36,1.34-20.72,1.9-31.09.15-2.77-.1-5.57-.05-8.35,0-1,.23-2.7.6-2.77,1.11-.2,3-.16,3.39.51,1.13,1.75,2.32,3.89,2.31,5.86,0,9.39-.38,18.77-.81,28.15a93.94,93.94,0,0,1-1.33,11.58,5,5,0,0,1-2.14,3.34C205.85,80.89,204.35,79.62,202.88,78.9Z"/><path d="M340,60.34a23.82,23.82,0,0,1-4.43,12.48c-6.88,9.76-19.9,9.87-27,.27C300.14,61.67,305.61,43,318.9,38c7.6-2.9,11.52-1.68,16.18,5A29.75,29.75,0,0,1,340,60.34Zm-6.51-3.51a22.37,22.37,0,0,0-4-12.43c-1.64-2.34-3.34-3-5.7-1.39a22.15,22.15,0,0,0-6.22,5.85c-3.7,5.72-4.58,12-1.07,18.17,3.22,5.68,9.34,6,13.35.9A17.31,17.31,0,0,0,333.49,56.83Z"/><path d="M403.14,45.42c-2.94,1.31-5.43,2.63-8.07,3.53a28.87,28.87,0,0,1-7.36,1.62c-2.94.18-4-1.63-2.26-3.92a29.93,29.93,0,0,1,6.49-6.42c8.27-5.78,17.75-8.12,27.68-8.76a102.66,102.66,0,0,1,12.77,0,4.61,4.61,0,0,1,3.3,2.45c.7,1.78-.78,3.16-2.45,3.6-4.46,1.19-9,2.17-13.48,3.22-3.42.8-6.85,1.58-10.23,2.36,1.69,9.86-.29,19.23-1.18,28.64A83.4,83.4,0,0,1,407,80c-.39,2-1,4.14-3.57,4.05-2.72-.1-3.4-2.37-3.37-4.48.09-6.14.24-12.3.77-18.41C401.28,56,402.3,51,403.14,45.42Z"/><path d="M274,65.18c-.33,3.45-.6,6.78-1,10.09a11.79,11.79,0,0,1-1,4.18c-.57,1-1.92,2.31-2.83,2.24s-2.13-1.48-2.58-2.57a12,12,0,0,1-.7-4.52c0-8.85,0-17.7,0-26.55,0-1-.79-2.08-1-3.17a3.85,3.85,0,0,1,.14-2.26c.6-1.32,1.72-2.44,2.15-3.8,1.35-4.25,3.19-4.84,6.61-2,.42.35,1.28.25,1.94.24,5.32,0,10.65-.25,16-.13a11.86,11.86,0,0,1,4.63,1.42c5.63,2.7,7.12,8,3.38,13a29.45,29.45,0,0,1-6.48,6.07C287.48,61.5,281.76,63.67,274,65.18Zm.51-5.45c6.73-3.42,13.17-6.71,18.37-11.9,2.13-2.13,1.88-3.29-1-4.18-5.33-1.64-10.74-1.22-16.13-.25a2,2,0,0,0-1.2,1.39C274.46,49.65,274.5,54.51,274.5,59.73Z"/><path d="M348.2,65c2.69,9.17,14.56,12.8,22.2,7,2.19-1.67,2.42-2.87.44-4.9A74.93,74.93,0,0,0,364.9,62c-1.53-1.29-3.15-2.45-4.64-3.77-5.53-4.9-7-10.44-4.51-16.52s7.71-9.57,14.9-9.06a49.86,49.86,0,0,1,9.76,2.21,5.15,5.15,0,0,1,2.78,2,4,4,0,0,1,.32,3.16c-.17.45-1.83.52-2.8.45-3.4-.23-6.84-1.16-10.15-.78-6.41.72-9,7.81-4.79,12.67,2,2.31,4.53,4.16,6.74,6.3a43,43,0,0,1,5.21,5.51c2.95,4.12,2.42,8.69-1.1,12.34-7,7.28-21.19,7.21-28.16-.15C345,72.75,344.83,67.82,348.2,65Z"/><path d="M149.26,66.74c.91-8.53,1.74-17.08,2.83-25.59a4.31,4.31,0,0,1,2.56-3,4.37,4.37,0,0,1,3.74,1.29,7.63,7.63,0,0,1,1.66,4.72c-.6,12-1.27,24-2.27,36-.32,3.86-2.26,5.72-4.29,5.35-3.17-.58-3.38-3.39-3.52-5.72-.27-4.32-.08-8.67-.08-13Z"/><path class="cls-1" d="M43.09,61.53c.13-2.7.24-5,.36-7.6l14.42-1.34-.53,9.77Z"/><path class="cls-1" d="M227.21,76.67c.41-11.31.8-22.28,1.21-33.6,4.29-.19,8.93,0,13.3,2,2.94,1.4,3.81,4,3.53,7a28.83,28.83,0,0,1-7.08,16.11A33.46,33.46,0,0,1,227.21,76.67Z"/><path class="cls-1" d="M333.49,56.83a17.31,17.31,0,0,1-3.62,11.1c-4,5.13-10.13,4.78-13.35-.9-3.51-6.19-2.63-12.45,1.07-18.17A22.15,22.15,0,0,1,323.81,43c2.36-1.62,4.06-.95,5.7,1.39A22.37,22.37,0,0,1,333.49,56.83Z"/><path class="cls-1" d="M274.5,59.73c0-5.22,0-10.08.05-14.94a2,2,0,0,1,1.2-1.39c5.39-1,10.8-1.39,16.13.25,2.87.89,3.12,2.05,1,4.18C287.67,53,281.23,56.31,274.5,59.73Z"/></g></g></svg>