<svg xmlns="http://www.w3.org/2000/svg" viewBox="0 0 246 404.73"><defs><style>.cls-1{fill:#fff;}</style></defs><g id="Layer_2" data-name="Layer 2"><g id="Layer_1-2" data-name="Layer 1"><path class="cls-1" d="M246,404.73H0V0H246ZM121.66,316.84c-.54-1.77-1-3.23-1.43-4.68-3.3-9.94-8.85-18.07-18.6-22.7-8.06-3.82-15.81-2-21.41,5a29.19,29.19,0,0,0-5.67,13.11c-2.54,13.17-1.13,26.17,1.28,39.21s8.51,24.46,13.37,36.44c2.32,5.7,7.8,6.78,14.08,4.27,11.41-4.56,22.09-10.51,32.77-16.49,8.14-4.57,16.32-9.11,24.2-14.12,15.18-9.64,16.44-25.88,12.65-38.35-2.76-9.07-10.23-13.56-19.71-12.57-2.34.24-4.68.6-7,.67a36.4,36.4,0,0,0-21.78,8.15C123.54,315.42,122.69,316.06,121.66,316.84ZM71.35,46c-3.46-4.21-6.54-8.5-10.18-12.25a28.94,28.94,0,0,0-19.76-9.18C33,24.1,27.24,29.44,27.3,37.86a34.69,34.69,0,0,0,1.88,10.91A118.48,118.48,0,0,0,48.25,83.41a63.55,63.55,0,0,0,5.49,5.65c2.39,2.34,4.89,4.58,7.21,7,2.64,2.73,5.68,3.83,9.36,2.75a25.05,25.05,0,0,0,5.35-1.92,60.36,60.36,0,0,0,9.61-6.1A133.41,133.41,0,0,0,109.11,64.4c4.71-6.85,7.69-14.43,7.42-22.92-.24-7.52-5.39-12.66-12.89-13.29A26.14,26.14,0,0,0,88.3,32,60.17,60.17,0,0,0,71.35,46ZM69.16,178.64a20.88,20.88,0,0,0-9-13.33c-5.43-3.66-10-3.31-14.7,1.27a31.14,31.14,0,0,0-9.62,20.2c-1.72,20.2,5.34,38,15.79,54.64,4.07,6.48,10.52,4.48,14.47.11,7.85-8.67,15.77-17.3,23.1-26.4a96.37,96.37,0,0,0,10.11-16.34,26.26,26.26,0,0,0,2.14-17c-1.85-10.33-9.36-14.92-19.34-11.6a26,26,0,0,0-6.06,3C73.77,174.75,71.68,176.64,69.16,178.64ZM216.35,95.88c-.72-.76-1.53-1.71-2.44-2.57-4.6-4.29-10.68-2.59-12.11,3.53a16.36,16.36,0,0,0-.11,6.16c1.25,7.39,6.72,12,11.71,16.82,3.09,3,5.86,2.69,9.23,0,2.74-2.22,5.46-4.46,8.11-6.78A14.48,14.48,0,0,0,236,102.89c.55-7.51-5.49-12.5-12.65-10.3C221,93.29,218.92,94.64,216.35,95.88Zm-8.19,116.89c-.9-1.33-1.62-2.59-2.53-3.69a5.44,5.44,0,0,0-5.83-2,5.08,5.08,0,0,0-3.8,4.52,27.92,27.92,0,0,0-.22,6.77c.29,2.78,1.07,5.51,1.58,8.27.82,4.34,3.66,6.52,7.8,5a57.37,57.37,0,0,0,11.94-6.26,11.16,11.16,0,0,0,4.64-8.61c.2-2.55-.34-4.94-2.62-6.48s-4.5-1-6.69.15C211,211.14,209.61,212,208.16,212.77Z"/><path d="M121.66,316.84c1-.78,1.88-1.42,2.71-2.08a36.4,36.4,0,0,1,21.78-8.15c2.36-.07,4.7-.43,7-.67,9.48-1,16.95,3.5,19.71,12.57,3.79,12.47,2.53,28.71-12.65,38.35-7.88,5-16.06,9.55-24.2,14.12-10.68,6-21.36,11.93-32.77,16.49C97,390,91.52,388.9,89.2,383.2c-4.86-12-11-23.5-13.37-36.44s-3.82-26-1.28-39.21a29.19,29.19,0,0,1,5.67-13.11c5.6-6.95,13.35-8.8,21.41-5,9.75,4.63,15.3,12.76,18.6,22.7C120.71,313.61,121.12,315.07,121.66,316.84Zm-21.08,49.89c1-.36,1.7-.54,2.34-.84q24-11.37,47.88-22.78a22.22,22.22,0,0,0,3.44-2.19c6.11-4.4,6.72-11.07,5.11-17.6a3.47,3.47,0,0,0-4.28-2.83c-3.94.56-7.93.88-11.86,1.51-6.4,1-11.56,4.37-16.33,8.63a30.4,30.4,0,0,1-7.74,4.85c-2.64,1.19-5-.18-6-3-.39-1-.53-2.11-.88-3.14-2-5.91-3.79-11.91-6.14-17.68a17.31,17.31,0,0,0-8.75-9.33c-2.27-1.06-4-.51-4.87,1.73a22.25,22.25,0,0,0-1.61,5.73C88.65,329.61,93.83,348.13,100.58,366.73Z"/><path d="M71.35,46a60.17,60.17,0,0,1,17-14,26.14,26.14,0,0,1,15.34-3.79c7.5.63,12.65,5.77,12.89,13.29.27,8.49-2.71,16.07-7.42,22.92A133.41,133.41,0,0,1,85.27,90.77a60.36,60.36,0,0,1-9.61,6.1,25.05,25.05,0,0,1-5.35,1.92c-3.68,1.08-6.72,0-9.36-2.75-2.32-2.4-4.82-4.64-7.21-7a63.55,63.55,0,0,1-5.49-5.65A118.48,118.48,0,0,1,29.18,48.77,34.69,34.69,0,0,1,27.3,37.86C27.24,29.44,33,24.1,41.41,24.52A28.94,28.94,0,0,1,61.17,33.7C64.81,37.45,67.89,41.74,71.35,46Zm31.87-4.75c-2.35.63-4.11.77-5.53,1.55A54.06,54.06,0,0,0,89.46,48c-4,3.24-7.72,6.87-11.62,10.25-4.74,4.09-8.11,2.51-11.11-2.74-3.8-6.65-8.28-12.62-14.55-17a26.91,26.91,0,0,0-9-3.63c-3.15-.75-4.37.55-3.73,3.7a46.58,46.58,0,0,0,2.9,9.59A153.87,153.87,0,0,0,64,83.32c1.28,1.55,2.18,1.78,4,.74,12.79-7.23,22.25-17.89,30.6-29.65,1.7-2.38,2.61-5.35,3.68-8.13A31,31,0,0,0,103.22,41.2Z"/><path d="M69.16,178.64c2.52-2,4.61-3.89,6.93-5.43a26,26,0,0,1,6.06-3c10-3.32,17.49,1.27,19.34,11.6a26.26,26.26,0,0,1-2.14,17,96.37,96.37,0,0,1-10.11,16.34c-7.33,9.1-15.25,17.73-23.1,26.4-4,4.37-10.4,6.37-14.47-.11C41.22,224.75,34.16,207,35.88,186.78a31.14,31.14,0,0,1,9.62-20.2c4.72-4.58,9.27-4.93,14.7-1.27A20.88,20.88,0,0,1,69.16,178.64ZM58.31,227.25c9.27-9.64,18.18-18.53,26.61-27.86A25.23,25.23,0,0,0,90,189.32c.64-2.32-.58-5.15-1-7.75-2.32.51-4.68.88-6.93,1.57a11,11,0,0,0-3.24,2c-3,2.32-5.86,4.84-9,7-1.28.9-3.22,1.84-4.5,1.47-1-.29-1.77-2.45-2.13-3.91-.61-2.45-.71-5-1.19-7.51a10.92,10.92,0,0,0-5.62-7.92c-1.27-.7-2.33-.66-2.94.67-1.56,3.43-3.72,6.79-4.33,10.4a47.41,47.41,0,0,0-.12,13.77C50.28,208.69,53.91,217.58,58.31,227.25Z"/><path d="M216.35,95.88c2.57-1.24,4.67-2.59,7-3.29,7.16-2.2,13.2,2.79,12.65,10.3A14.48,14.48,0,0,1,230.74,113c-2.65,2.32-5.37,4.56-8.11,6.78-3.37,2.73-6.14,3-9.23,0-5-4.79-10.46-9.43-11.71-16.82a16.36,16.36,0,0,1,.11-6.16c1.43-6.12,7.51-7.82,12.11-3.53C214.82,94.17,215.63,95.12,216.35,95.88Z"/><path d="M208.16,212.77c1.45-.81,2.84-1.63,4.27-2.38,2.19-1.14,4.47-1.66,6.69-.15s2.82,3.93,2.62,6.48a11.16,11.16,0,0,1-4.64,8.61,57.37,57.37,0,0,1-11.94,6.26c-4.14,1.55-7-.63-7.8-5-.51-2.76-1.29-5.49-1.58-8.27a27.92,27.92,0,0,1,.22-6.77,5.08,5.08,0,0,1,3.8-4.52,5.44,5.44,0,0,1,5.83,2C206.54,210.18,207.26,211.44,208.16,212.77Z"/><path class="cls-1" d="M100.58,366.73c-6.75-18.6-11.93-37.12-9.73-56.9a22.25,22.25,0,0,1,1.61-5.73c.91-2.24,2.6-2.79,4.87-1.73a17.31,17.31,0,0,1,8.75,9.33c2.35,5.77,4.14,11.77,6.14,17.68.35,1,.49,2.13.88,3.14,1.06,2.78,3.4,4.15,6,3a30.4,30.4,0,0,0,7.74-4.85c4.77-4.26,9.93-7.62,16.33-8.63,3.93-.63,7.92-.95,11.86-1.51a3.47,3.47,0,0,1,4.28,2.83c1.61,6.53,1,13.2-5.11,17.6a22.22,22.22,0,0,1-3.44,2.19q-23.93,11.43-47.88,22.78C102.28,366.19,101.59,366.37,100.58,366.73Z"/><path class="cls-1" d="M103.22,41.2a31,31,0,0,1-1,5.08c-1.07,2.78-2,5.75-3.68,8.13C90.23,66.17,80.77,76.83,68,84.06c-1.82,1-2.72.81-4-.74A153.87,153.87,0,0,1,42.4,48.2a46.58,46.58,0,0,1-2.9-9.59c-.64-3.15.58-4.45,3.73-3.7a26.91,26.91,0,0,1,9,3.63c6.27,4.33,10.75,10.3,14.55,17,3,5.25,6.37,6.83,11.11,2.74,3.9-3.38,7.61-7,11.62-10.25a54.06,54.06,0,0,1,8.23-5.23C99.11,42,100.87,41.83,103.22,41.2Z"/><path class="cls-1" d="M58.31,227.25c-4.4-9.67-8-18.56-9.25-28.14a47.41,47.41,0,0,1,.12-13.77c.61-3.61,2.77-7,4.33-10.4.61-1.33,1.67-1.37,2.94-.67a10.92,10.92,0,0,1,5.62,7.92c.48,2.49.58,5.06,1.19,7.51.36,1.46,1.11,3.62,2.13,3.91,1.28.37,3.22-.57,4.5-1.47,3.09-2.19,6-4.71,9-7a11,11,0,0,1,3.24-2c2.25-.69,4.61-1.06,6.93-1.57.39,2.6,1.61,5.43,1,7.75a25.23,25.23,0,0,1-5.06,10.07C76.49,208.72,67.58,217.61,58.31,227.25Z"/></g></g></svg>