<svg xmlns="http://www.w3.org/2000/svg" viewBox="0 0 733.09 437.45"><defs><style>.cls-1{fill:#fff;}</style></defs><g id="Layer_2" data-name="Layer 2"><g id="Layer_1-2" data-name="Layer 1"><path class="cls-1" d="M733.09,437.45H0V0H733.09ZM259.15,326.67c-.54-1.77-.95-3.24-1.43-4.68-3.31-9.95-8.86-18.08-18.62-22.71-8.08-3.82-15.84-2-21.45,5A29.08,29.08,0,0,0,212,317.38c-2.54,13.16-1.13,26.18,1.28,39.22s8.53,24.46,13.4,36.45c2.31,5.7,7.8,6.78,14.09,4.27,11.42-4.57,22.14-10.5,32.82-16.49,8.16-4.57,16.35-9.12,24.24-14.13,15.21-9.64,16.46-25.9,12.67-38.36-2.76-9.07-10.24-13.57-19.74-12.58-2.34.25-4.69.61-7,.68a36.49,36.49,0,0,0-21.82,8.15C261,325.25,260.18,325.88,259.15,326.67ZM658,178.09c-1.63-4.56-2.66-9.26-4.86-13.33-6.76-12.47-22.09-14.26-31.93-4-4,4.11-6.17,9.14-7.49,14.6a74.51,74.51,0,0,0-1.16,26.25c1.2,10.44,3.61,20.61,8.36,30a36.57,36.57,0,0,0,7.44,9.9c4,3.71,8.48,2.16,10.52-2.82a3.14,3.14,0,0,1,2.39-1.25c3.71-.18,7.47.19,11.13-.26,17.41-2.14,30.75-11.44,41.56-24.63a43.92,43.92,0,0,0,9.75-26.12c.5-10-5-16.35-15-17.63-10.33-1.32-19.58,1.51-28,7.4ZM446.21,310.77c-.16-1.75-.22-2.73-.35-3.7a54.68,54.68,0,0,0-8.59-23.84c-7.07-10.65-26-12.77-34.6,1A43.87,43.87,0,0,0,396,306c-.94,20.36,2.5,40.35,4.66,60.44.33,3,2.29,4.21,5.29,3.37,13.45-3.76,27.09-7,40.27-11.55a282.89,282.89,0,0,0,34.24-14.65c13.12-6.58,19.31-19.92,16.68-33.26a16.44,16.44,0,0,0-15.05-13.56c-9.81-.64-18.91,1.53-26.85,7.72C452.53,306.66,449.58,308.46,446.21,310.77ZM208.75,55.7c-3.37-4.11-6.44-8.39-10.06-12.15a29,29,0,0,0-20-9.3c-8.29-.38-14,4.88-14,13.17a35,35,0,0,0,1.91,11.19A117.26,117.26,0,0,0,185.7,93.23a69.8,69.8,0,0,0,5.92,6c2.2,2.16,4.52,4.2,6.63,6.44,2.68,2.85,5.91,4.26,9.55,2.79,4.5-1.83,9.24-3.63,13-6.55A118.85,118.85,0,0,0,247.93,72a36.56,36.56,0,0,0,6.12-19.51c.12-8.72-5.41-14.32-14.14-14.61A27.12,27.12,0,0,0,225.18,42,60.51,60.51,0,0,0,208.75,55.7ZM206.7,188.28c-2.93-7.66-4.59-10.08-8.94-13.07-5.52-3.81-10.14-3.48-14.93,1.2a31.19,31.19,0,0,0-9.6,20.23c-1.71,20.11,5.36,37.8,15.7,54.42,4.14,6.66,10.61,4.71,14.67.23,7.74-8.54,15.33-17.22,22.88-25.93a59.54,59.54,0,0,0,11-18.07,29,29,0,0,0,.76-19c-1.79-6-6.29-9.31-12.54-9.36a20.13,20.13,0,0,0-11.75,3.74C211.45,184.4,209.18,186.35,206.7,188.28Zm385.75,124c-.45-1.44-.69-2.38-1-3.27-1.5-4-2.78-8.08-4.62-11.9-2.42-5-5.64-6.91-9.45-6.29s-6,3.68-6.82,9.13c-1.36,9.56-.47,19.07,1.55,28.41,1,4.64,3.58,8.93,4.64,13.57s4.16,5.59,7.78,6.3a17.08,17.08,0,0,0,5.15.12c15.15-1.73,27.24-13.58,30.61-29.91,1-4.59,1.29-9.19-.1-13.75-2.52-8.26-10.42-11-17.1-5.55-3.24,2.64-5.66,6.3-8.38,9.56A33,33,0,0,0,592.45,312.24ZM77.1,143.62l.33.24c-.2-1.43-.34-2.87-.6-4.28A33,33,0,0,0,66,120c-3-2.59-5.9-3-8.47-1.44s-3.47,4.31-2.73,7.93a26.49,26.49,0,0,0,1.44,4.95C60.73,142,65.64,152.44,73,161.48a5.73,5.73,0,0,1,.94,1.92c1.08,3.46,3.36,4.95,6.82,3.91a19,19,0,0,0,5.52-2.8A48.68,48.68,0,0,0,105.41,136c1.34-5.41,2-10.91.39-16.4-2.14-7.11-8.56-9.44-14.12-4.57a36.18,36.18,0,0,0-8.76,11.2C80.29,131.67,79,137.78,77.1,143.62ZM571,105.37c-.75-2.64-1.34-5.49-2.38-8.16a6.8,6.8,0,0,0-6.93-4.69,6.68,6.68,0,0,0-6.17,5.33c-1.92,8.22-2.52,16.57,0,24.74,2.58,8.37,10.4,9.87,16.43,3.49a16.62,16.62,0,0,1,4.25-3.25,49.28,49.28,0,0,0,18.38-17.37,14.49,14.49,0,0,0,1.79-4.23c1.36-5.48-2.44-10.14-8-9.26a17.37,17.37,0,0,0-7.95,3.7C577,98.52,574.12,102.09,571,105.37ZM65.32,336.62c-1.85-2-3.39-3.93-5.17-5.57a51,51,0,0,0-6.56-5.27c-3.18-2.08-6.51-1.92-8.89,0s-3.33,5.34-1.8,8.93a57.47,57.47,0,0,0,4.35,7.81A54.13,54.13,0,0,0,62,357.65c4.27,3.05,7.25,2.5,10.61-1.62a31.4,31.4,0,0,0,4.5-6.77c2.75-6.21,5.21-12.54,7.63-18.88a20.29,20.29,0,0,0,1-5.33c.3-3.45-1.13-6.23-3.56-7.35-2.66-1.21-5.76-.61-8,2.35a84.06,84.06,0,0,0-6.1,10.22C67,332.23,66.28,334.37,65.32,336.62ZM354,105.7c-.85-.91-1.66-1.89-2.59-2.74-4.55-4.15-10.54-2.44-12,3.54a16,16,0,0,0-.16,6.16c1.27,7.5,6.79,12.21,11.89,17,3,2.83,5.74,2.55,9-.1,2.75-2.21,5.47-4.46,8.13-6.77A14.62,14.62,0,0,0,373.6,113c.76-7.76-5.42-13-12.82-10.61C358.49,103.11,356.42,104.49,354,105.7ZM472.72,210.1c-.88-3.3-1.23-6.44-2.53-9.13-2.67-5.53-9.13-5.67-12.42-.49a16.21,16.21,0,0,0-2.15,10.74c.37,3.52.79,7,1.16,10.55.43,4.17,2.48,6.41,6.67,6.35a79.52,79.52,0,0,0,12.7-1.14,17.53,17.53,0,0,0,6.39-2.84,7.64,7.64,0,0,0,2.88-8.47,7.2,7.2,0,0,0-6.67-5.53C476.69,209.94,474.6,210.1,472.72,210.1ZM345.91,222.48a32.59,32.59,0,0,0-3.6-4.45,5,5,0,0,0-8.36,2.23,10,10,0,0,0-.69,4.26c.42,3.95,1.43,7.86,1.62,11.81a5.88,5.88,0,0,0,8.1,5.08,64.1,64.1,0,0,0,11.48-6,11.19,11.19,0,0,0,4.87-10.65c-.52-4.67-4.14-6.76-8.44-4.89C349.16,220.58,347.54,221.6,345.91,222.48Z"/><path d="M259.15,326.67c1-.79,1.88-1.42,2.72-2.08a36.49,36.49,0,0,1,21.82-8.15c2.35-.07,4.7-.43,7-.68,9.5-1,17,3.51,19.74,12.58,3.79,12.46,2.54,28.72-12.67,38.36-7.89,5-16.08,9.56-24.24,14.13-10.68,6-21.4,11.92-32.82,16.49-6.29,2.51-11.78,1.43-14.09-4.27-4.87-12-11-23.51-13.4-36.45s-3.82-26.06-1.28-39.22a29.08,29.08,0,0,1,5.68-13.12c5.61-7,13.37-8.8,21.45-5,9.76,4.63,15.31,12.76,18.62,22.71C258.2,323.43,258.61,324.9,259.15,326.67Zm-21,49.94c1.1-.43,1.88-.68,2.61-1Q264.46,364.33,288.2,353a24.59,24.59,0,0,0,3-1.84c6-4.14,7.53-9.95,5.74-17.88a3.56,3.56,0,0,0-4.44-3c-3.77.55-7.57.94-11.35,1.42-6.29.81-11.33,4.12-16.12,8a46.57,46.57,0,0,1-7.25,5.12c-3.66,1.94-6.53.4-7.62-3.64-1-3.5-1.81-7-2.89-10.48-1.84-5.93-3.92-11.84-8.81-16-1.74-1.48-4.62-3.21-6.33-2.69s-2.49,3.74-3.59,5.82a5.64,5.64,0,0,0-.31,1.87c-1.13,8.92-.35,17.76,1.18,26.56A163.32,163.32,0,0,0,238.12,376.61Z"/><path d="M658,178.09l2.71-1.91c8.44-5.89,17.69-8.72,28-7.4,10,1.28,15.48,7.62,15,17.63A43.92,43.92,0,0,1,694,212.53c-10.81,13.19-24.15,22.49-41.56,24.63-3.66.45-7.42.08-11.13.26a3.14,3.14,0,0,0-2.39,1.25c-2,5-6.57,6.53-10.52,2.82a36.57,36.57,0,0,1-7.44-9.9c-4.75-9.39-7.16-19.56-8.36-30a74.51,74.51,0,0,1,1.16-26.25c1.32-5.46,3.53-10.49,7.49-14.6,9.84-10.24,25.17-8.45,31.93,4C655.36,168.83,656.39,173.53,658,178.09Zm-22.42,48.8c4.66-4.29,10.28-5.19,15.79-6.27,11.59-2.28,21-8.38,29-16.74a29.7,29.7,0,0,0,7.25-13.23c1.47-5.56.78-6.31-5-5.77-6,.56-11.13,3-16,6.34-2.85,1.92-5.66,4.26-8.85,5.27-7.27,2.3-10,1-10.5-6-.2-2.71-.19-5.44-.43-8.15-.38-4.37-1.12-8.69-3.87-12.3-2.88-3.77-7.4-3.84-10,.1a21.86,21.86,0,0,0-3.24,7.69C626.35,194.59,629.37,210.63,635.6,226.89Z"/><path d="M446.21,310.77c3.37-2.31,6.32-4.11,9-6.22,7.94-6.19,17-8.36,26.85-7.72a16.44,16.44,0,0,1,15.05,13.56c2.63,13.34-3.56,26.68-16.68,33.26a282.89,282.89,0,0,1-34.24,14.65c-13.18,4.56-26.82,7.79-40.27,11.55-3,.84-5-.38-5.29-3.37-2.16-20.09-5.6-40.08-4.66-60.44a43.87,43.87,0,0,1,6.68-21.81c8.59-13.77,27.53-11.65,34.6-1a54.68,54.68,0,0,1,8.59,23.84C446,308,446.05,309,446.21,310.77ZM413,355.43c11.82-3.43,23.23-6.43,34.44-10.07,9.4-3,18.59-6.74,27.81-10.31a21.47,21.47,0,0,0,12.13-11.9,11.26,11.26,0,0,0-.94-11.19c-2.31-3.36-6-2.8-9.49-2.21a40.31,40.31,0,0,0-14.81,5.85,95.85,95.85,0,0,1-15.25,7.75c-4.68,1.85-10.29.54-10.84-6.28-.15-1.9-.44-3.79-.72-5.68-1.15-7.69-2.93-15.2-7.6-21.6-3.82-5.24-10.7-4.79-14,.75A25.06,25.06,0,0,0,410,303.21c-.2,11.88-.7,23.77,1,35.61C411.78,344.19,412.31,349.59,413,355.43Z"/><path d="M208.75,55.7A60.51,60.51,0,0,1,225.18,42a27.12,27.12,0,0,1,14.73-4.16c8.73.29,14.26,5.89,14.14,14.61A36.56,36.56,0,0,1,247.93,72a118.85,118.85,0,0,1-27.11,29.93c-3.78,2.92-8.52,4.72-13,6.55-3.64,1.47-6.87.06-9.55-2.79-2.11-2.24-4.43-4.28-6.63-6.44a69.8,69.8,0,0,1-5.92-6,117.26,117.26,0,0,1-19.13-34.62,35,35,0,0,1-1.91-11.19c0-8.29,5.73-13.55,14-13.17a29,29,0,0,1,20,9.3C202.31,47.31,205.38,51.59,208.75,55.7Zm31.78-4.84c-2.37.71-4.21,1-5.73,1.78a52,52,0,0,0-8,5.15c-4,3.25-7.71,6.89-11.65,10.24-4.7,4-7.93,2.52-10.94-2.66-3.71-6.38-7.94-12.21-13.88-16.52A28.58,28.58,0,0,0,181,44.7c-3.58-1-4.82.41-4.12,4a38.06,38.06,0,0,0,2.36,8.06,153,153,0,0,0,22.37,36.57c1,1.25,1.82,1.54,3.37.67,13.17-7.37,22.94-18.25,31.36-30.44,1.76-2.54,2.56-5.76,3.67-8.72A20.93,20.93,0,0,0,240.53,50.86Z"/><path d="M206.7,188.28c2.48-1.93,4.75-3.88,7.2-5.57A20.13,20.13,0,0,1,225.65,179c6.25.05,10.75,3.37,12.54,9.36a29,29,0,0,1-.76,19,59.54,59.54,0,0,1-11,18.07c-7.55,8.71-15.14,17.39-22.88,25.93-4.06,4.48-10.53,6.43-14.67-.23-10.34-16.62-17.41-34.31-15.7-54.42a31.19,31.19,0,0,1,9.6-20.23c4.79-4.68,9.41-5,14.93-1.2C202.11,178.2,203.77,180.62,206.7,188.28Zm-11.5,47.8,1.07.43c8.83-9.21,17.86-18.25,26.38-27.74,2.43-2.71,3.91-6.58,4.88-10.16.59-2.16-.64-4.81-1.05-7.24-2.24.46-4.49.86-6.71,1.39a5.64,5.64,0,0,0-1.88,1.07c-3.45,2.64-6.8,5.41-10.35,7.9-1.36,1-3.36,2-4.71,1.66-1-.27-1.81-2.6-2.19-4.14-.62-2.45-.7-5-1.21-7.5a11,11,0,0,0-5.31-7.56c-1.43-.85-2.64-.89-3.36.73-1.54,3.44-3.66,6.81-4.29,10.43C183.91,210.06,189.74,223.06,195.2,236.08Z"/><path d="M592.45,312.24a33,33,0,0,1,2.24-3.58c2.72-3.26,5.14-6.92,8.38-9.56,6.68-5.46,14.58-2.71,17.1,5.55,1.39,4.56,1.05,9.16.1,13.75-3.37,16.33-15.46,28.18-30.61,29.91a17.08,17.08,0,0,1-5.15-.12c-3.62-.71-6.76-1.79-7.78-6.3s-3.63-8.93-4.64-13.57c-2-9.34-2.91-18.85-1.55-28.41.78-5.45,3.16-8.54,6.82-9.13s7,1.27,9.45,6.29c1.84,3.82,3.12,7.92,4.62,11.9C591.76,309.86,592,310.8,592.45,312.24Zm15.69-1.43c-4.8,5.07-7.67,11.3-9.82,17.92A28.78,28.78,0,0,0,608.14,310.81Z"/><path d="M77.1,143.62c1.88-5.84,3.19-12,5.82-17.43A36.18,36.18,0,0,1,91.68,115c5.56-4.87,12-2.54,14.12,4.57,1.65,5.49,1,11-.39,16.4a48.68,48.68,0,0,1-19.14,28.55,19,19,0,0,1-5.52,2.8c-3.46,1-5.74-.45-6.82-3.91a5.73,5.73,0,0,0-.94-1.92c-7.35-9-12.26-19.45-16.73-30.09a26.49,26.49,0,0,1-1.44-4.95c-.74-3.62.29-6.44,2.73-7.93s5.5-1.15,8.47,1.44a33,33,0,0,1,10.81,19.63c.26,1.41.4,2.85.6,4.28Zm9.7,1.9c4.9-5.31,9.14-16.91,8-21.59C89.37,130,87.71,137.25,86.8,145.52Z"/><path d="M571,105.37c3.13-3.28,6-6.85,9.45-9.7a17.37,17.37,0,0,1,7.95-3.7c5.54-.88,9.34,3.78,8,9.26a14.49,14.49,0,0,1-1.79,4.23,49.28,49.28,0,0,1-18.38,17.37,16.62,16.62,0,0,0-4.25,3.25c-6,6.38-13.85,4.88-16.43-3.49-2.53-8.17-1.93-16.52,0-24.74a6.68,6.68,0,0,1,6.17-5.33,6.8,6.8,0,0,1,6.93,4.69C569.65,99.88,570.24,102.73,571,105.37Z"/><path d="M65.32,336.62c1-2.25,1.69-4.39,2.76-6.35a84.06,84.06,0,0,1,6.1-10.22c2.21-3,5.31-3.56,8-2.35,2.43,1.12,3.86,3.9,3.56,7.35a20.29,20.29,0,0,1-1,5.33c-2.42,6.34-4.88,12.67-7.63,18.88a31.4,31.4,0,0,1-4.5,6.77c-3.36,4.12-6.34,4.67-10.61,1.62a54.13,54.13,0,0,1-14.7-15.12,57.47,57.47,0,0,1-4.35-7.81c-1.53-3.59-.66-7,1.8-8.93s5.71-2.09,8.89,0a51,51,0,0,1,6.56,5.27C61.93,332.69,63.47,334.6,65.32,336.62Z"/><path d="M354,105.7c2.41-1.21,4.48-2.59,6.77-3.31,7.4-2.36,13.58,2.85,12.82,10.61a14.62,14.62,0,0,1-5.26,9.82c-2.66,2.31-5.38,4.56-8.13,6.77-3.29,2.65-6,2.93-9,.1-5.1-4.82-10.62-9.53-11.89-17a16,16,0,0,1,.16-6.16c1.43-6,7.42-7.69,12-3.54C352.35,103.81,353.16,104.79,354,105.7Z"/><path d="M472.72,210.1c1.88,0,4-.16,6,0a7.2,7.2,0,0,1,6.67,5.53,7.64,7.64,0,0,1-2.88,8.47,17.53,17.53,0,0,1-6.39,2.84,79.52,79.52,0,0,1-12.7,1.14c-4.19.06-6.24-2.18-6.67-6.35-.37-3.52-.79-7-1.16-10.55a16.21,16.21,0,0,1,2.15-10.74c3.29-5.18,9.75-5,12.42.49C471.49,203.66,471.84,206.8,472.72,210.1Z"/><path d="M345.91,222.48c1.63-.88,3.25-1.9,5-2.66,4.3-1.87,7.92.22,8.44,4.89a11.19,11.19,0,0,1-4.87,10.65,64.1,64.1,0,0,1-11.48,6,5.88,5.88,0,0,1-8.1-5.08c-.19-4-1.2-7.86-1.62-11.81a10,10,0,0,1,.69-4.26,5,5,0,0,1,8.36-2.23A32.59,32.59,0,0,1,345.91,222.48Z"/><path class="cls-1" d="M238.12,376.61a163.32,163.32,0,0,1-8.69-30.3c-1.53-8.8-2.31-17.64-1.18-26.56a5.64,5.64,0,0,1,.31-1.87c1.1-2.08,1.95-5.33,3.59-5.82s4.59,1.21,6.33,2.69c4.89,4.16,7,10.07,8.81,16,1.08,3.46,1.94,7,2.89,10.48,1.09,4,4,5.58,7.62,3.64a46.57,46.57,0,0,0,7.25-5.12c4.79-3.88,9.83-7.19,16.12-8,3.78-.48,7.58-.87,11.35-1.42a3.56,3.56,0,0,1,4.44,3c1.79,7.93.26,13.74-5.74,17.88a24.59,24.59,0,0,1-3,1.84q-23.73,11.3-47.47,22.56C240,375.93,239.22,376.18,238.12,376.61Z"/><path class="cls-1" d="M635.6,226.89c-6.23-16.26-9.25-32.3-5.92-49a21.86,21.86,0,0,1,3.24-7.69c2.62-3.94,7.14-3.87,10-.1,2.75,3.61,3.49,7.93,3.87,12.3.24,2.71.23,5.44.43,8.15.52,7,3.23,8.29,10.5,6,3.19-1,6-3.35,8.85-5.27,4.9-3.3,10.06-5.78,16-6.34,5.8-.54,6.49.21,5,5.77a29.7,29.7,0,0,1-7.25,13.23c-8,8.36-17.41,14.46-29,16.74C645.88,221.7,640.26,222.6,635.6,226.89Z"/><path class="cls-1" d="M413,355.43c-.7-5.84-1.23-11.24-2-16.61-1.7-11.84-1.2-23.73-1-35.61a25.06,25.06,0,0,1,3.68-12.67c3.34-5.54,10.22-6,14-.75,4.67,6.4,6.45,13.91,7.6,21.6.28,1.89.57,3.78.72,5.68.55,6.82,6.16,8.13,10.84,6.28a95.85,95.85,0,0,0,15.25-7.75A40.31,40.31,0,0,1,477,309.75c3.47-.59,7.18-1.15,9.49,2.21a11.26,11.26,0,0,1,.94,11.19,21.47,21.47,0,0,1-12.13,11.9c-9.22,3.57-18.41,7.27-27.81,10.31C436.24,349,424.83,352,413,355.43Z"/><path class="cls-1" d="M240.53,50.86a20.93,20.93,0,0,1-.49,4c-1.11,3-1.91,6.18-3.67,8.72C228,75.78,218.18,86.66,205,94c-1.55.87-2.33.58-3.37-.67a153,153,0,0,1-22.37-36.57,38.06,38.06,0,0,1-2.36-8.06c-.7-3.62.54-5,4.12-4a28.58,28.58,0,0,1,9.32,4.15c5.94,4.31,10.17,10.14,13.88,16.52,3,5.18,6.24,6.66,10.94,2.66,3.94-3.35,7.64-7,11.65-10.24a52,52,0,0,1,8-5.15C236.32,51.81,238.16,51.57,240.53,50.86Z"/><path class="cls-1" d="M195.2,236.08c-5.46-13-11.29-26-8.73-40.73.63-3.62,2.75-7,4.29-10.43.72-1.62,1.93-1.58,3.36-.73a11,11,0,0,1,5.31,7.56c.51,2.48.59,5.05,1.21,7.5.38,1.54,1.15,3.87,2.19,4.14,1.35.35,3.35-.71,4.71-1.66,3.55-2.49,6.9-5.26,10.35-7.9a5.64,5.64,0,0,1,1.88-1.07c2.22-.53,4.47-.93,6.71-1.39.41,2.43,1.64,5.08,1.05,7.24-1,3.58-2.45,7.45-4.88,10.16-8.52,9.49-17.55,18.53-26.38,27.74Z"/><path class="cls-1" d="M608.14,310.81a28.78,28.78,0,0,1-9.82,17.92C600.47,322.11,603.34,315.88,608.14,310.81Z"/><path class="cls-1" d="M86.8,145.52c.91-8.27,2.57-15.53,8-21.59C95.94,128.61,91.7,140.21,86.8,145.52Z"/></g></g></svg>