<svg xmlns="http://www.w3.org/2000/svg" viewBox="0 0 383.45 140.73"><defs><style>.cls-1{fill:#fff;}</style></defs><g id="Layer_2" data-name="Layer 2"><g id="Layer_1-2" data-name="Layer 1"><path class="cls-1" d="M0,140.73V0H383.45V140.73ZM68.5,68.12c0,1.12-.08,2.19,0,3.25.73,8.19,1.39,16.39,2.33,24.56a18.81,18.81,0,0,0,2.24,6.89,4.83,4.83,0,0,0,3.83,2.09c1-.09,2.3-1.86,2.66-3.12a20.78,20.78,0,0,0,.35-5.65c0-9.23,0-18.46,0-27.69,0-1.93.56-2.8,2.52-3.38a49.53,49.53,0,0,0,9-3.64c3.05-1.6,4.28-4.21,3.43-6.37-1.19-3-3.89-2.46-6.28-2.3-2.77.18-5.52.56-8.53.88C80,52.13,80,51,79.9,49.83c-.3-4.33-.41-8.69-1-13A22.06,22.06,0,0,0,76.58,30c-.9-1.76-2.81-2.27-4.75-1.56-1.77.65-2.17,2.1-2.21,3.92-.14,6.7-.51,13.38-.66,20.08,0,1.92-1,2.16-2.55,2.24-5.79.28-11.59.65-17.38,1a8.68,8.68,0,0,1-1.74-.3c.33-7.44.7-14.76.93-22.07a28.65,28.65,0,0,0-.46-6.74,6.07,6.07,0,0,0-5.51-4.89,6.17,6.17,0,0,0-6.38,4.11,13,13,0,0,0-.93,3.11c-2.76,17.54-4.58,35.17-3.87,53,.22,5.52,1,11,3.72,16,1.78,3.31,4.84,4.7,7.9,3.85s4.47-3.42,4.44-7.24q-.06-11.54,0-23.08a18.64,18.64,0,0,1,.22-2.1Zm97.78-17.94c-.16,1.3-.27,2.45-.45,3.59-2,12.62-3.78,25.27-3,38.09A32.83,32.83,0,0,0,165,101a4.73,4.73,0,0,0,5.33,2.93c2.3-.31,3.49-1.94,4-4a74.44,74.44,0,0,0,1.32-7.74c1.94-15.55,3.62-31.11,3.29-46.82a3.65,3.65,0,0,1,1.88-2.49c8.64-4.61,17.35-9.09,26-13.65a18.18,18.18,0,0,0,3.88-2.48c3.29-3,2.24-7.77-2-8.93a13.8,13.8,0,0,0-5.62-.19c-8.43,1.29-16.27,4.45-23.88,8.09-10.8,5.18-21.51,10.53-32.19,15.93a18.89,18.89,0,0,0-5.18,3.86c-2.59,2.78-1.76,6.5,1.87,7.56a18.77,18.77,0,0,0,8,.43C156.4,52.76,161.11,51.39,166.28,50.18Zm51.48,29.09,1,.26c.11.87.17,1.76.33,2.62,1.16,6.12,2.11,12.29,3.6,18.33.85,3.45,3.19,5.09,5.25,4.5,3-.86,2.49-3.58,2.41-5.67-.24-6.78-.63-13.56-1.26-20.31a50.55,50.55,0,0,0-2-9.53,6.29,6.29,0,0,0-5.33-4.84c-2.88-.38-4.9,1.15-6.34,3.4s-2.7,4.7-4,7.1c-1.1,2.09-2.1,4.24-3.15,6.36a5.61,5.61,0,0,1-.72-2.77c-.54-9.31-1-18.62-1.64-27.92-.11-1.79-.2-3.79-1.05-5.26a7,7,0,0,0-3.94-3c-2-.5-3.75,1-4.23,3a35.83,35.83,0,0,0-1.14,8c-.11,13.48-.07,27,0,40.45a37.05,37.05,0,0,0,.62,5.93c.76,4.52,2.92,7,6.12,7.3s5.36-1.57,6.88-6.35c.22-.69.39-1.4.66-2.07Q213.77,89,217.76,79.27Zm101.25,30a22.79,22.79,0,0,0,14.6-6.44c4.94-4.63,7.66-10.45,9-17a7.45,7.45,0,0,0-.16-2.08A9.48,9.48,0,0,0,340.93,85c-2,2.53-3.67,5.55-6.12,7.56a41.3,41.3,0,0,1-10.56,6.39c-4.61,1.86-7.08.39-8.89-4.3-.77-2-1.1-4.19-1.67-6.28-.47-1.72.12-2.5,1.88-3.1,5.57-1.88,10.26-5.06,13.18-10.31,3.47-6.24.6-13.13-6.24-15.15-5.4-1.6-9.82.21-13.46,4.22-8.29,9.15-9.54,28.64-2.52,38.81A13.87,13.87,0,0,0,319,109.24ZM246.59,85c8.84-3.37,13.65-8.85,14.7-16.79.54-4-.54-7.62-4-10s-7.18-2-10.48.16A19.64,19.64,0,0,0,241,63.85c-7.72,12.14-8.14,24.8-1.75,37.63a20.75,20.75,0,0,0,4.14,5.32,13.12,13.12,0,0,0,11.74,3.63c6.63-1,11.72-6.11,13.33-13.67a71.39,71.39,0,0,0,.83-7.47l-1-.26a28.21,28.21,0,0,1-1.81,2.82c-2.16,2.64-4,5.63-6.66,7.72-3.39,2.74-6.63,1.84-9-1.78A28,28,0,0,1,246.59,85Zm36.62-20.79c-.77-2.12-1.22-4.4-2.4-6.22-.66-1-2.5-1.59-3.85-1.68-.65,0-2,1.52-2,2.35,0,12.75.11,25.51.29,38.26a12.56,12.56,0,0,0,.86,4.22,5.74,5.74,0,0,0,11-.62,19.37,19.37,0,0,0,.45-4.57c.16-13.72,3.52-26.32,12.88-36.85a19.31,19.31,0,0,0,2.33-3.33c1.22-2.11,1.62-4.37-.21-6.29a4.76,4.76,0,0,0-6.27-.6,23.66,23.66,0,0,0-6,5C287.67,57.05,285.56,60.66,283.21,64.16ZM118,76.28l-.31,0c0-4.79.26-9.6-.1-14.36A30.34,30.34,0,0,0,115.46,53a5.44,5.44,0,0,0-6.27-3.66c-2.88.63-4,2.89-4.09,5.42-.63,13-1.13,26-1.58,39a15.1,15.1,0,0,0,.76,4.53c.88,3,2.94,4.87,5.4,5s4.71-1.5,5.82-4.48a18.77,18.77,0,0,0,1.12-4.72C117.17,88.16,117.58,82.22,118,76.28ZM350.5,94.66l.72-.32c.23-2,.58-3.92.68-5.89q1.35-25.87,2.58-51.77a34.66,34.66,0,0,0-.43-7.82,6.69,6.69,0,0,0-2.31-4.08,6.09,6.09,0,0,0-4.5-.51c-.66.18-.91,2.11-1.24,3.28-.17.59-.05,1.27-.2,1.88-3.38,14.36-3.21,28.9-2.07,43.47A51.05,51.05,0,0,0,348.61,92,20.4,20.4,0,0,0,350.5,94.66Zm-229-58a5.19,5.19,0,0,0-5.54-4.8,4.53,4.53,0,0,0-4.65,4.62,5.11,5.11,0,0,0,5.39,4.66A4.54,4.54,0,0,0,121.54,36.64ZM357.43,108.8c-2.46,0-5.25,2.07-5.23,3.8,0,2.07,3.15,4.68,5.58,4.67a4.31,4.31,0,0,0,4.35-4.25A4.46,4.46,0,0,0,357.43,108.8Z"/><path d="M68.5,68.12,47.32,69.25a18.64,18.64,0,0,0-.22,2.1q0,11.54,0,23.08c0,3.82-1.53,6.44-4.44,7.24s-6.12-.54-7.9-3.85c-2.68-5-3.5-10.48-3.72-16-.71-17.79,1.11-35.42,3.87-53a13,13,0,0,1,.93-3.11,6.17,6.17,0,0,1,6.38-4.11,6.07,6.07,0,0,1,5.51,4.89,28.65,28.65,0,0,1,.46,6.74c-.23,7.31-.6,14.63-.93,22.07a8.68,8.68,0,0,0,1.74.3c5.79-.3,11.59-.67,17.38-1,1.54-.08,2.51-.32,2.55-2.24.15-6.7.52-13.38.66-20.08,0-1.82.44-3.27,2.21-3.92,1.94-.71,3.85-.2,4.75,1.56a22.06,22.06,0,0,1,2.32,6.84c.59,4.29.7,8.65,1,13,.08,1.15.11,2.3.18,3.81,3-.32,5.76-.7,8.53-.88,2.39-.16,5.09-.74,6.28,2.3.85,2.16-.38,4.77-3.43,6.37a49.53,49.53,0,0,1-9,3.64c-2,.58-2.53,1.45-2.52,3.38.08,9.23.06,18.46,0,27.69a20.78,20.78,0,0,1-.35,5.65c-.36,1.26-1.65,3-2.66,3.12a4.83,4.83,0,0,1-3.83-2.09,18.81,18.81,0,0,1-2.24-6.89c-.94-8.17-1.6-16.37-2.33-24.56C68.42,70.31,68.5,69.24,68.5,68.12Z"/><path d="M166.28,50.18c-5.17,1.21-9.88,2.58-14.69,3.35a18.77,18.77,0,0,1-8-.43c-3.63-1.06-4.46-4.78-1.87-7.56a18.89,18.89,0,0,1,5.18-3.86c10.68-5.4,21.39-10.75,32.19-15.93,7.61-3.64,15.45-6.8,23.88-8.09a13.8,13.8,0,0,1,5.62.19c4.28,1.16,5.33,6,2,8.93a18.18,18.18,0,0,1-3.88,2.48c-8.66,4.56-17.37,9-26,13.65a3.65,3.65,0,0,0-1.88,2.49c.33,15.71-1.35,31.27-3.29,46.82a74.44,74.44,0,0,1-1.32,7.74c-.47,2-1.66,3.66-4,4A4.73,4.73,0,0,1,165,101a32.83,32.83,0,0,1-2.11-9.14c-.8-12.82.94-25.47,3-38.09C166,52.63,166.12,51.48,166.28,50.18Z"/><path d="M217.76,79.27q-4,9.75-7.95,19.5c-.27.67-.44,1.38-.66,2.07-1.52,4.78-3.53,6.64-6.88,6.35s-5.36-2.78-6.12-7.3a37.05,37.05,0,0,1-.62-5.93c-.06-13.48-.1-27,0-40.45a35.83,35.83,0,0,1,1.14-8c.48-2,2.19-3.5,4.23-3a7,7,0,0,1,3.94,3c.85,1.47.94,3.47,1.05,5.26.6,9.3,1.1,18.61,1.64,27.92a5.61,5.61,0,0,0,.72,2.77c1.05-2.12,2.05-4.27,3.15-6.36,1.27-2.4,2.51-4.82,4-7.1s3.46-3.78,6.34-3.4a6.29,6.29,0,0,1,5.33,4.84,50.55,50.55,0,0,1,2,9.53c.63,6.75,1,13.53,1.26,20.31.08,2.09.59,4.81-2.41,5.67-2.06.59-4.4-1-5.25-4.5-1.49-6-2.44-12.21-3.6-18.33-.16-.86-.22-1.75-.33-2.62Z"/><path d="M319,109.24a13.87,13.87,0,0,1-12.48-6.42c-7-10.17-5.77-29.66,2.52-38.81,3.64-4,8.06-5.82,13.46-4.22,6.84,2,9.71,8.91,6.24,15.15-2.92,5.25-7.61,8.43-13.18,10.31-1.76.6-2.35,1.38-1.88,3.1.57,2.09.9,4.27,1.67,6.28,1.81,4.69,4.28,6.16,8.89,4.3a41.3,41.3,0,0,0,10.56-6.39c2.45-2,4.08-5,6.12-7.56a9.48,9.48,0,0,1,1.55-1.22,7.45,7.45,0,0,1,.16,2.08c-1.37,6.51-4.09,12.33-9,17A22.79,22.79,0,0,1,319,109.24Zm-5.68-27.45c4.93-2.31,8.87-4.94,10.63-9.73a4.31,4.31,0,0,0-.71-3.84,5.23,5.23,0,0,0-4.11-1c-1.11.23-2.24,1.52-2.89,2.62C314.19,73.32,313.41,77.18,313.33,81.79Z"/><path d="M246.59,85a28,28,0,0,0,4.24,12.84c2.34,3.62,5.58,4.52,9,1.78,2.61-2.09,4.5-5.08,6.66-7.72A28.21,28.21,0,0,0,268.27,89l1,.26a71.39,71.39,0,0,1-.83,7.47c-1.61,7.56-6.7,12.67-13.33,13.67a13.12,13.12,0,0,1-11.74-3.63,20.75,20.75,0,0,1-4.14-5.32c-6.39-12.83-6-25.49,1.75-37.63a19.64,19.64,0,0,1,5.81-5.56c3.3-2.18,7-2.55,10.48-.16s4.55,6,4,10C260.24,76.1,255.43,81.58,246.59,85Zm-.29-4.76c4.92-1.11,9.42-7.11,9.22-12.42-.05-1.2-1-2.36-1.48-3.54-1.14.56-2.64.84-3.35,1.74C247.46,70.11,246.51,75,246.3,80.19Z"/><path d="M283.21,64.16c2.35-3.5,4.46-7.11,7.05-10.33a23.66,23.66,0,0,1,6-5,4.76,4.76,0,0,1,6.27.6c1.83,1.92,1.43,4.18.21,6.29a19.31,19.31,0,0,1-2.33,3.33C291,69.58,287.67,82.18,287.51,95.9a19.37,19.37,0,0,1-.45,4.57,5.74,5.74,0,0,1-11,.62,12.56,12.56,0,0,1-.86-4.22c-.18-12.75-.3-25.51-.29-38.26,0-.83,1.37-2.39,2-2.35,1.35.09,3.19.66,3.85,1.68C282,59.76,282.44,62,283.21,64.16Z"/><path d="M118,76.28c-.46,5.94-.87,11.88-1.42,17.82a18.77,18.77,0,0,1-1.12,4.72c-1.11,3-3.36,4.61-5.82,4.48s-4.52-2-5.4-5a15.1,15.1,0,0,1-.76-4.53c.45-13,1-26,1.58-39,.12-2.53,1.21-4.79,4.09-5.42A5.44,5.44,0,0,1,115.46,53a30.34,30.34,0,0,1,2.17,8.86c.36,4.76.1,9.57.1,14.36Z"/><path d="M350.5,94.66A20.4,20.4,0,0,1,348.61,92a51.05,51.05,0,0,1-4.88-19.07c-1.14-14.57-1.31-29.11,2.07-43.47.15-.61,0-1.29.2-1.88.33-1.17.58-3.1,1.24-3.28a6.09,6.09,0,0,1,4.5.51,6.69,6.69,0,0,1,2.31,4.08,34.66,34.66,0,0,1,.43,7.82q-1.2,25.89-2.58,51.77c-.1,2-.45,3.93-.68,5.89Z"/><path d="M121.54,36.64a4.54,4.54,0,0,1-4.8,4.48,5.11,5.11,0,0,1-5.39-4.66A4.53,4.53,0,0,1,116,31.84,5.19,5.19,0,0,1,121.54,36.64Z"/><path d="M357.43,108.8a4.46,4.46,0,0,1,4.7,4.22,4.31,4.31,0,0,1-4.35,4.25c-2.43,0-5.56-2.6-5.58-4.67C352.18,110.87,355,108.84,357.43,108.8Z"/><path class="cls-1" d="M313.33,81.79c.08-4.61.86-8.47,2.92-12,.65-1.1,1.78-2.39,2.89-2.62a5.23,5.23,0,0,1,4.11,1,4.31,4.31,0,0,1,.71,3.84C322.2,76.85,318.26,79.48,313.33,81.79Z"/><path class="cls-1" d="M246.3,80.19c.21-5.18,1.16-10.08,4.39-14.22.71-.9,2.21-1.18,3.35-1.74.52,1.18,1.43,2.34,1.48,3.54C255.72,73.08,251.22,79.08,246.3,80.19Z"/></g></g></svg>