<?xml version="1.0" encoding="utf-8"?>
<!-- Generator: Adobe Adobe Illustrator 24.2.0, SVG Export Plug-In . SVG Version: 6.00 Build 0)  -->
<svg version="1.1" id="Layer_1" xmlns="http://www.w3.org/2000/svg" xmlns:xlink="http://www.w3.org/1999/xlink" x="0px" y="0px"
	 viewBox="0 0 612 792" style="enable-background:new 0 0 612 792;" xml:space="preserve">
<g>
	<path d="M204.58,317.94c-5.47,0.05-10.19,0.23-15.23-2.31c-5.06-2.55-9.26-6.42-13.15-10.47c-5.72-5.95-10.69-12.77-16.54-18.63
		c11.58-3.75,24.23-10.56,29.08-21.23c2.15-4.73-4.81-8.89-7.05-4.12c-5.12,10.95-20.51,16.7-31.46,19.42
		c-0.42,0.11-0.79,0.26-1.12,0.45c-0.3-12.41-0.69-24.82-2.14-37.17c-0.62-5.25-8.93-5.32-8.31,0c1.85,15.99,1.92,32.08,2.31,48.15
		c0.19,8.05,0.44,16.11,1.18,24.13c0.68,7.34,1.02,15.76,3.85,22.63c1.37,3.33,6.64,3.22,6.66-0.9c0.04-7.8-1.8-15.76-2.3-23.57
		c-0.5-7.74-0.81-15.48-1-23.23c-0.02-0.98-0.05-1.97-0.07-2.95c9.64,7.35,16.07,18.39,24.97,26.58c8.37,7.7,20.56,14.74,32.02,9.5
		C209.42,322.79,207.74,317.92,204.58,317.94z"/>
	<path d="M398.48,266.36c-14.72,13.03-31.64,20.54-50.16,24.77c-0.01-0.37-0.03-0.75-0.06-1.12c-1.04-11.73-11.08-24.72-24.1-20.72
		c-7.38,2.27-12.89,8.85-16.06,16.04c-0.22-6.42-0.67-12.83-1.57-19.23c-0.45-3.2-5.4-2.84-6.12,0c-2.56,10.13-4,21.16-9.89,30.03
		c-5.02,7.55-14.68,14.66-24.2,14.3c-1.13-0.04-2.15-0.21-3.08-0.49c2.19-2.03,4.21-4.23,5.99-6.53
		c5.65-7.29,11.51-20.07,6.86-29.22c-2.11-4.16-6.88-6.33-11.45-5.61c-4.61,0.72-7.87,4.58-10.05,8.44
		c-4.79,8.5-8.16,21.47-3.46,30.63c0.44,0.86,0.92,1.64,1.44,2.36c-2.04,1.26-4.15,2.34-6.28,3.19c-9.74,3.89-23.47,3.1-29.36-6.86
		c-0.72-1.22-1.24-2.48-1.61-3.76c0.11-0.01,0.22-0.01,0.33-0.04c9.49-2.02,21.04-10.07,24.9-19.12
		c4.19-9.83-4.47-20.06-14.54-14.74c-9.19,4.85-16.6,15.81-17.76,26.05c-1.59,14.12,8.71,25.18,22.37,27.11
		c9.59,1.35,19.01-1.84,26.89-7.31c7.85,4.54,18.95,1.73,26.72-3.4c9.21-6.09,13.9-14.63,17.09-24.07
		c0.15,16.27-0.88,32.57,0.13,48.84c0.28,4.43,5.78,4.83,7.37,1c7.41-17.89-3.66-40.81,10.44-56.21c3.36-3.67,8.17-6.75,13.23-4.65
		c4.14,1.72,6.94,6.07,8.19,10.2c0.65,2.14,0.89,4.25,0.77,6.28c-1.82,0.33-3.64,0.65-5.49,0.92c-6.93,1.04-16.49,1.93-21.79,7.13
		c-5.81,5.71-0.71,14.11,6.27,15.25c11.88,1.93,23.2-6.08,26.76-16.86c20.32-3.66,41.96-12.51,56.13-27.78
		C406.34,267.95,401.77,263.44,398.48,266.36z M220.48,282.33c2.42-3.07,6.1-7.54,10.06-8.56c4.4-1.13,5.21,4.08,3.85,7.17
		c-3,6.79-12.36,12.83-19.65,14.66C215.27,290.81,217.5,286.1,220.48,282.33z M255.82,293.88c0.77-5.39,3.14-17.79,9.71-19.22
		c9.02-1.97,4.9,13.35,3.31,17.15c-2.26,5.39-6.18,10.35-10.88,14.32C255.72,302.86,255.2,298.22,255.82,293.88z M323.39,308.94
		c-1.82,0.02-5.63-0.76-4.07-3.2c1.28-1.99,5.97-2.76,8.04-3.29c3.86-0.99,7.79-1.6,11.72-2.18
		C336.02,305.39,330.27,308.88,323.39,308.94z"/>
	<path d="M271.66,428.94c-7.12,6.54-17,8.15-24.18,0.76c-6.82-7.03-7.82-18.94-8.1-28.22c-0.26-8.9,0.51-17.86,2.03-26.71
		c0.05-0.02,0.09-0.04,0.14-0.06c9.16-3.91,17.89-8.67,26.8-13.08c4.63-2.3,0.57-9.13-4.04-6.91c-6.97,3.34-13.82,6.93-20.87,10.11
		c2.03-8.65,4.7-17.15,7.78-25.34c1.53-4.06-4.98-5.81-6.49-1.79c-0.57,1.47-1.13,2.95-1.68,4.45c-3.5,9.23-7.15,18.53-11.36,27.55
		c-4.63,1.63-9.46,2.78-14.2,2.36c-4.02-0.36-4.33,4.85-1.83,6.77c2.83,2.16,6.7,2.27,10.72,1.47c-3.68,6.8-7.78,13.34-12.53,19.44
		c-5.09,6.53-12.7,16.03-21.49,17.37c-13.13,2-7.71-17.21-6.53-23.9c0.77-4.38-5.94-6.26-6.71-1.85
		c-1.74,10.01-6.23,24.22,4.64,30.81c9.46,5.74,20.41-2.19,27.09-8.69c9.22-8.97,16.3-19.68,22.23-31.12
		c-1.22,10.22-1.32,20.49,0.15,30.44c1.53,10.36,5.25,21.32,15.17,26.47c9.79,5.07,20.42,1.82,27.38-6.23
		C278.19,430.24,274.43,426.4,271.66,428.94z"/>
	<path d="M187.96,367.37c-0.59,0.05-1.2,0.07-1.81,0.12c-0.57-0.05-1.13-0.01-1.66,0.15c-0.3,0.02-0.61,0.05-0.9,0.12
		c-0.79,0.17-1.48,0.86-1.76,1.62c-0.28,0.24-0.55,0.49-0.83,0.74c-0.89,0.82-1.03,2.31-0.43,3.33c0.11,0.19,0.25,0.36,0.4,0.51
		c0.46,1.23,1.75,2.05,3.2,1.69c1.14-0.29,2.42-0.5,3.42-1.17c1.16-0.77,1.89-1.97,2.69-3.08
		C191.42,369.81,189.91,367.2,187.96,367.37z"/>
	<path d="M199.34,518.77c-9.61,5.25-19.28-2.02-26.38-8.32c-6.39-5.68-11.87-12.27-17.98-18.22c9.66-6.59,19.95-12.24,29.33-19.25
		c3.75-2.81,0.08-9.21-3.72-6.37c-8.84,6.61-18.48,12.01-27.65,18.13c0.02-9.04-0.38-18.06-1.65-27.08
		c-0.72-5.08-8.43-2.92-7.72,2.13c2.95,20.91,0.78,42.15,0.04,63.14c-0.24,6.91-0.66,13.8-0.92,20.71
		c-0.17,4.4-0.86,12.05,4.71,13.51c3.59,0.94,5.89-3.4,3.51-6.03c0.94,1.04,0.08-0.97,0.05-1.51c-0.06-1.41-0.13-2.8-0.12-4.21
		c0.04-3.08,0.28-6.16,0.47-9.23c0.47-7.44,0.41-14.91,0.72-22.36c0.19-4.47,0.39-8.93,0.56-13.39
		c13.39,14.12,32.9,37.3,50.45,23.16C205.81,521.33,202.27,517.17,199.34,518.77z"/>
	<path d="M359.18,527.81c-8.55-6.28-11.57-19.13-14.2-28.83c-0.49-1.8-0.93-3.61-1.34-5.43c0.54-1.09,1.05-2.16,1.54-3.19
		c5.27-11.26,8.9-23.41,10.41-35.76c1.15-9.34,1.85-22.76-6.21-29.51c-1.03-0.87-2.57-1.29-3.8-0.49
		c-7.3,4.77-10.06,13.46-11.28,21.69c-1.04,6.95-1.15,14.02-0.76,21.05c-11.29,2.15-18.65,12.69-24.07,22.07
		c-2.35,4.07-4.1,8.47-6.39,12.57c-1.72,3.08-3.97,8.13-7.24,4.18c-5.31-6.41-3.21-16.11-6.21-23.48
		c-3.44-8.47-11.77-5.4-17.23-0.66c-8.77,7.61-11.94,19.36-16.75,29.74c-0.46-4.83,1.47-10.56,2.25-14.65
		c1.07-5.67,2.07-12.12-1.58-17.1c-1.02-1.39-2.7-2.04-4.31-1.13c-11.33,6.37-14.66,19.22-22.62,28.64
		c-2.68,3.17-11.14,10.32-15.38,6.26c-3.41-3.27-1.6-11.61-0.91-15.58c0.67-3.88-5.28-5.55-5.95-1.64
		c-1.04,6.07-2.3,13.71,0.9,19.38c3.33,5.9,10.12,5.49,15.66,3.23c14.68-6,16.88-24.01,28.53-32.89c1.35,5.38-1.3,12.24-2.15,17.25
		c-1.09,6.44-1.35,12.79,3.01,18.09c1.35,1.64,4.09,0.99,5.07-0.65c6.01-10.09,8.39-22.58,16.13-31.61c1.45-1.69,6.5-7.05,8.76-5.3
		c2.06,1.6,1.99,8.2,2.32,10.52c0.95,6.86,2.73,17.64,10.73,19.83c7.91,2.17,12.54-8.41,15.23-13.91c0,0,0,0,0,0
		c0.89,8.14,8.45,15.07,16.88,11.25c4.38-1.98,7.89-5.74,10.76-9.99c0.11,0.39,0.21,0.78,0.32,1.17
		c3.1,10.92,6.87,23.62,16.71,30.36C359.39,535.59,362.4,530.17,359.18,527.81z M340.11,450.4c0.58-6.27,1.91-14.23,6.72-18.85
		c3.44,4.77,3.3,12.04,2.99,17.54c-0.56,9.82-3.06,19.6-6.38,28.83c-0.56,1.57-1.17,3.16-1.81,4.75c-0.25-1.64-0.47-3.27-0.67-4.91
		C339.83,468.72,339.26,459.49,340.11,450.4z M330.83,501.35c-3.58,3.97-10.43,8.1-12.74,0.1c-1.64-5.66,2.7-12.37,5.88-16.68
		c2.77-3.75,6.17-7.47,10.15-10.09c0.1,1.03,0.21,2.05,0.33,3.08c0.59,5.06,1.37,10.1,2.38,15.09
		C335.11,495.9,333.14,498.8,330.83,501.35z"/>
	<path d="M214.11,474.76c-0.4-0.42-0.8-0.88-1.22-1.32c-0.03-0.13-0.08-0.25-0.13-0.38c-0.42-0.96-1.51-1.91-2.64-1.78
		c-0.38,0.04-0.77,0.1-1.14,0.18c-1.23-0.28-2.62,0.21-3.25,1.36c0,0.01-0.01,0.01-0.01,0.02c-0.27,0.21-0.53,0.44-0.77,0.72
		c-0.06,0.07-0.11,0.15-0.16,0.22c-0.62,0.68-1.08,1.53-1.21,2.44c-0.14,0.96-0.04,1.87,0.52,2.6c0.03,0.06,0.05,0.13,0.08,0.19
		c0.83,1.55,2.45,2.51,4.22,2.53c2.22,0.03,4.1-1.15,5.72-2.55C215.35,477.91,215.16,475.86,214.11,474.76z"/>
</g>
</svg>
