<svg xmlns="http://www.w3.org/2000/svg" viewBox="0 0 358.49 358.52"><defs><style>.cls-1{font-size:42px;font-family:AveriaSerifLibre-Bold, Averia Serif Libre;font-weight:700;}</style></defs><g id="Layer_2" data-name="Layer 2"><g id="Layer_1-2" data-name="Layer 1"><text class="cls-1" transform="matrix(1, 0.1, -0.1, 1, 178.59, 34.46)">K</text><text class="cls-1" transform="translate(207.85 37.86) rotate(14.62)">I</text><text class="cls-1" transform="matrix(0.91, 0.4, -0.4, 0.91, 222.74, 41)">N</text><text class="cls-1" transform="matrix(0.81, 0.58, -0.58, 0.81, 250.84, 53.35)">D</text><text class="cls-1" transform="matrix(0.69, 0.73, -0.73, 0.69, 274.73, 70.64)">P</text><text class="cls-1" transform="translate(292.51 88.94) rotate(57.61)">O</text><text class="cls-1" transform="matrix(0.37, 0.93, -0.93, 0.37, 308.49, 114.6)">S</text><text class="cls-1" transform="translate(317.1 135.28) rotate(77.79)">T</text><text class="cls-1" transform="translate(322.22 161.17) rotate(84.97)"> </text><text class="cls-1" transform="translate(323.4 171.01) rotate(90.93)">•</text><text class="cls-1" transform="translate(323.02 189.11) rotate(95.97)"> </text><text class="cls-1" transform="translate(322.58 198.94) rotate(103.21)">B</text><text class="cls-1" transform="matrix(-0.4, 0.92, -0.92, -0.4, 316.62, 224.52)">E</text><text class="cls-1" transform="matrix(-0.51, 0.86, -0.86, -0.51, 306.13, 247.62)"> </text><text class="cls-1" transform="translate(301.82 256.4) rotate(128.27)">K</text><text class="cls-1" transform="translate(283.2 279.23) rotate(137.09)">I</text><text class="cls-1" transform="translate(272.56 290.1) rotate(146.2)">N</text><text class="cls-1" transform="matrix(-0.93, 0.37, -0.37, -0.93, 247.08, 307.25)">D</text><text class="cls-1" transform="translate(219.21 317.74) rotate(166.06)"> </text><text class="cls-1" transform="translate(209.59 320.37) rotate(171.65)">•</text><text class="cls-1" transform="translate(191.74 322.82) rotate(177.19)"> </text><text class="cls-1" transform="translate(182 324.03) rotate(-175.11)">K</text><text class="cls-1" transform="matrix(-0.97, -0.24, 0.24, -0.97, 152.71, 321.05)">I</text><text class="cls-1" transform="translate(137.76 318.13) rotate(-157)">N</text><text class="cls-1" transform="matrix(-0.82, -0.57, 0.57, -0.82, 109.49, 306.2)">D</text><text class="cls-1" transform="matrix(-0.7, -0.72, 0.72, -0.7, 85.35, 289.25)">P</text><text class="cls-1" transform="matrix(-0.55, -0.84, 0.84, -0.55, 67.31, 271.21)">O</text><text class="cls-1" transform="translate(50.97 245.81) rotate(-112.76)">S</text><text class="cls-1" transform="translate(42.06 225.24) rotate(-103.05)">T</text><text class="cls-1" transform="matrix(-0.1, -0.99, 0.99, -0.1, 36.55, 199.45)"> </text><text class="cls-1" transform="translate(35.4 189.6) rotate(-90.93)">•</text><text class="cls-1" transform="translate(35.36 171.48) rotate(-84.86)"> </text><text class="cls-1" transform="matrix(0.21, -0.98, 0.98, 0.21, 35.66, 161.64)">B</text><text class="cls-1" transform="translate(41.24 135.99) rotate(-67.37)">E</text><text class="cls-1" transform="translate(51.38 112.75) rotate(-60.35)"> </text><text class="cls-1" transform="translate(55.58 103.9) rotate(-52.55)">K</text><text class="cls-1" transform="matrix(0.72, -0.69, 0.69, 0.72, 73.84, 80.82)">I</text><text class="cls-1" transform="matrix(0.82, -0.57, 0.57, 0.82, 84.35, 69.78)">N</text><text class="cls-1" transform="translate(109.57 52.27) rotate(-22.69)">D</text><text class="cls-1" transform="translate(137.25 41.38) rotate(-14.79)"> </text><text class="cls-1" transform="translate(146.86 38.6) rotate(-9.18)">•</text></g></g></svg>