<svg width="160" height="160" viewBox="0 0 160 160" fill="none" xmlns="http://www.w3.org/2000/svg">
<rect width="160" height="160" fill="white"/>
<path d="M3.66138 27.5386V29.3663L5.51455 29.855L7.141 30.6565L7.97887 32.0542L8.83645 33.7646L9.60531 35.8464L10.0686 37.9869V39.8733L9.60531 42.0724L8.9646 44.2715L7.73244 45.7376L5.92856 46.9203L3.46424 47.7608V49.2465L4.67668 49.6081L6.30312 50.8298L7.78171 52.1786L8.52101 53.6447L9.60531 56.2055L10.1967 58.3459V60.7894L9.60531 62.7442L8.9646 64.4546L7.60429 65.6764L5.87927 66.7808L3.5431 67.3086L3.66138 69.3416L5.02169 69.7521L6.74671 70.8077L8.09715 72.1955L9.21103 73.8669L10.1967 76.066V80.2199L9.93061 82.4972L8.94488 84.6964L7.59444 86.1625L5.62298 87.1398L3.52338 88.1172V89.7104L5.62298 89.9547L7.141 91.2937L8.69845 92.6426L9.60531 94.4703L9.93061 96.1807L10.177 98.6242L10.0587 100.188L9.60531 102.631L8.8266 104.713L7.59444 106.404L5.62298 107.401L3.15867 108.251L3.03052 109.962L4.67668 110.206L6.60871 110.939L7.71272 112.161L8.8266 113.735L9.60531 115.709L10.0587 117.664V121.065L9.73346 122.179L9.19131 123.509L8.45202 125.111L7.26915 126.196L5.9877 127.066L3.89796 128.044V129.51L5.2484 130.125L6.36228 131.103L7.59444 132.442L8.58016 133.282L9.60531 135.726L9.93061 137.212L10.0587 139.528L9.93061 141.61L9.31946 143.565L8.33373 145.5L7.141 146.858L6.11585 147.943L4.67668 149.429L6.36228 151.384" stroke="black" stroke-width="4.82703"/>
<path d="M111.658 5.14642L110.179 5.02914L109.686 6.0554L108.829 7.96131L106.857 9.30033L105.379 10.5221L103.249 11.3528L101.13 11.7243L98.784 11.5972L96.5661 11.3528L94.9692 10.9423L92.8696 9.28079L91.5192 7.19895L90.287 5.61558L88.4634 5.47874L87.0637 7.43352L85.7133 8.89961L84.1065 10.3657L82.2632 11.216L79.9172 11.4604H77.8275L75.856 11.3431L73.6775 10.483L71.785 9.14396L70.0599 7.55081L68.7489 5.72309H67.3492L66.2846 7.18918L65.1313 8.41091L63.8203 9.3883L62.1741 10.3657L59.9562 10.9423L57.2455 11.3431L55.274 11.4604L53.0364 10.9423L50.9368 9.52514L49.0344 8.05905L47.6149 6.0554H46.2546L45.8899 7.32601L44.5296 8.49888L42.6863 9.88677L40.9613 10.9423L38.8617 11.3528H36.7128L34.2485 10.9423L31.4687 10.2582L29.3198 9.39807L27.5258 7.44329L26.5401 5.73286H25.0615L24.3912 7.57036L22.8436 8.49888L20.7539 10.2582L18.7824 10.9423L16.5645 11.4799L14.2185 11.5972L11.7542 10.9423L9.60526 9.88677L6.82551 8.05905L5.83978 9.15373L7.14095 10.2582L8.43225 12.0859L9.04339 14.0407L9.60526 16.4841V21.0876L8.92511 23.5702L7.69295 25.6032L5.96793 27.1181L2.51788 29.5127M5.47507 150.387L6.46079 151.53L8.3041 150.387L10.6502 149.576L12.4935 148.842L14.7311 148.52L17.501 148.324L19.4626 149.087L21.0003 149.693L22.4789 150.797L23.711 152.019L24.9432 154.824H26.1754L26.8555 153.114L28.3933 151.159L30.1774 149.644L31.7841 148.911L34.6132 148.305L36.4663 147.943H38.0632L40.5276 148.549L42.2526 149.4L43.8593 150.748L44.7169 151.97L45.5843 154.775L48.0486 154.414L48.5415 152.83L49.892 151.599L51.4987 150.387L53.5884 149.4L55.4712 148.764L57.8172 148.276H60.2815L62.3713 148.647L63.8203 149.624L65.082 150.719L66.2846 152.185L67.428 155L69.0249 154.756L69.6459 152.83L71.2132 150.963L72.8495 149.742L74.5745 148.891L76.7924 148.52L78.6062 148.403H81.0705L82.7068 148.647L84.5797 149.566L86.423 151.032L87.5369 152.371L88.4634 154.814L90.2476 154.697L90.9277 153.231L92.2191 151.882L93.6977 150.387L95.8564 149.077L98.3207 148.706L100.47 148.461L102.441 148.706L104.137 149.126L105.714 149.976L107.094 150.836L108.572 152.302L109.923 154.374H111.529L111.776 152.83L113.107 151.814L114.605 150.387L116.705 149.126L118.922 148.51L120.766 148.393L123.358 148.266L125.083 148.393L126.68 149.243L128.533 150.103L129.637 151.442L130.357 152.83L131.244 154.863L132.821 154.99L133.58 153.524L134.319 152.547L135.552 150.836L137.405 149.615L139.376 148.882L141.712 148.637L143.93 148.393L146.276 148.51L148.248 148.999L150.071 149.615L151.57 150.836L152.802 149.37L5.47507 150.387Z" stroke="black" stroke-width="4.82703"/>
<path d="M109.913 5H111.145L112.87 7.44347L114.023 8.66521L115.571 9.50577L118.035 10.8057L120.5 11.2944L122.964 11.1087H125.428L127.252 10.1606L129.125 8.66521L130.032 7.44347L131.096 5H132.989L133.156 5.6744L134.3 7.44347L135.453 9.18323L137.178 9.88695L139.228 10.8057L141.446 11.1087H143.171L145.557 10.8057L147.035 10.0727L149.007 9.09527L151.304 7.71714L152.703 9.26142L151.304 10.4832L149.825 11.7049L148.593 13.5522L147.607 15.2919L147.035 16.67L146.956 18.4391V19.9345L147.331 22.1043L148.839 24.1471L150.288 25.9455L152.339 26.9913L154.556 27.2454L154.724 29.4347H152.536L151.304 30.3437L149.874 31.2331L148.484 33.1L147.607 34.654L147.163 36.7652V40.6845L147.607 43.128L148.238 44.6625L150.071 46.2067L152.536 47.1841L155 47.4285V49.3833L153.245 49.4615L151.52 50.2043L149.795 50.8493L148.396 52.6477L147.824 54.1041L147.252 56.313L147.163 58.0136V60.2128L147.607 62.1675L148.425 64.699L149.49 66.0771L151.954 67.3086L155 67.7875L154.418 69.7521L152.536 70.0746L150.89 70.7197L149.332 72.1955L147.932 73.7398L147.114 75.8607L146.72 77.6885L147.045 80.4545L147.607 82.6536L148.356 84.1197L149.342 85.1753L150.574 86.2407L152.053 87.2962L154.606 87.8631L155 89.2999L152.881 89.6615L150.988 90.7171L149.263 91.9388L148.277 93.6493L147.607 95.7311L147.39 97.852V99.9632L147.607 101.918L148.839 104.195L149.529 105.583L150.761 106.805L152.24 107.626L154.783 108.193V109.903L153.137 110.069L151.304 110.881L149.855 111.858L148.839 113.158L147.883 114.956L147.173 116.491L147.094 117.791L147.173 119.843L147.607 122.111L148.248 123.508L148.839 124.554L150.071 125.952L151.698 127.486L154.813 127.975L155 129.617L153.088 129.842L151.304 130.663L150.071 131.719L149.066 132.618L148.159 134.162L147.607 136.195L147.173 138.56L147.094 140.026L147.173 141.835L148.001 143.447L148.839 144.835L149.638 146.135L150.466 147.034L151.944 147.943L153.088 149.165L151.777 150.387" stroke="black" stroke-width="4.82703"/>
<path d="M127.972 81.397C130.555 82.0714 132.083 84.1924 131.265 87.2711C129.017 95.7842 118.933 96.1459 118.874 96.3804C118.933 96.1459 110.318 90.9266 112.575 82.4135C113.384 79.3347 115.365 78.113 117.948 78.7874C119.663 79.237 120.984 81.2798 121.9 84.9156C124.227 82.1203 126.257 80.9474 127.972 81.397V81.397Z" fill="#D4004C"/>
<path d="M40.2969 82.0938C38.8672 82.0938 38.1523 84.1562 38.1523 88.2812C38.1523 89.7344 38.4922 91.1523 39.1719 92.5352L40.1211 94.1523C40.4492 94.7383 40.6133 95.1602 40.6133 95.418C40.6133 96.2617 38.2578 96.6836 33.5469 96.6836C28.8359 96.6836 26.4805 96.2852 26.4805 95.4883C26.4805 95.2773 26.8672 94.6445 27.6406 93.5898C28.4375 92.5117 29.0117 91.2578 29.3633 89.8281C29.7383 88.375 29.9258 85.0117 29.9258 79.7383L29.9609 78.4023C30.0078 77.207 30.0312 76.3164 30.0312 75.7305L30.1016 73.0586L30.1367 70.3516V64.9023C30.1367 58.1289 30.0078 54.1328 29.75 52.9141C29.5156 51.6719 29.082 50.7344 28.4492 50.1016L27.6758 49.5039L26.832 48.9766C26.1523 48.4844 25.8125 48.0273 25.8125 47.6055C25.8125 47.1602 26.0938 46.7734 26.6562 46.4453C28.25 45.5312 30.7109 45.0742 34.0391 45.0742H35.2344C36.5703 45.0742 37.4023 46.0234 37.7305 47.9219C37.8477 48.625 37.9062 53.875 37.9062 63.6719L37.8711 67.7148C37.8711 70.9258 37.8828 72.6367 37.9062 72.8477C38.1641 75.0742 38.7734 76.1875 39.7344 76.1875C40.6953 76.1875 42.3477 74.9219 44.6914 72.3906C47.0352 69.8359 48.207 68.0195 48.207 66.9414L48.1016 65.6758C48.1016 64.8789 48.4062 64.3164 49.0156 63.9883C49.6484 63.6602 50.9492 63.4961 52.918 63.4961C57.3945 63.4961 59.6328 63.9766 59.6328 64.9375C59.6328 64.9609 57.5586 66.6367 53.4102 69.9648C49.2617 73.293 47.1875 75.6719 47.1875 77.1016C47.1875 78.5312 50.0352 82.5742 55.7305 89.2305C56.9727 90.6836 58.332 91.9375 59.8086 92.9922C61.3086 94.0469 62.0586 94.75 62.0586 95.1016C62.0586 96.25 60.3242 96.8242 56.8555 96.8242H54.2891C52.0391 96.8242 50.4219 96.1797 49.4375 94.8906L48.0312 91.4805C47.4453 90.0742 46.4727 88.4102 45.1133 86.4883C43.0273 83.5586 41.4219 82.0938 40.2969 82.0938V82.0938ZM94.5078 81.3203V79.2461C94.5078 75.4727 93.7344 72.4609 92.1875 70.2109C90.6406 67.9609 88.6953 66.8359 86.3516 66.8359H86C84.7109 66.8359 83.457 67.1992 82.2383 67.9258C81.0195 68.6289 80.082 69.5312 79.4258 70.6328C78.793 71.7344 78.4766 74.9805 78.4766 80.3711V83.3594L78.5117 83.7461V85.2227L78.5469 85.5742V86.3125C78.5938 86.8281 78.6172 87.2031 78.6172 87.4375C78.6172 89.4297 79.25 90.9883 80.5156 92.1133C81.8047 93.2148 83.5273 93.7656 85.6836 93.7656H86.0352C88.6133 93.7656 90.6641 92.582 92.1875 90.2148C93.7344 87.8477 94.5078 84.8828 94.5078 81.3203V81.3203ZM80.4453 96.4375C79.2266 96.4375 78.6172 98.0078 78.6172 101.148C78.6172 104.312 78.8398 106.316 79.2852 107.16C79.7539 108.027 80.4922 108.812 81.5 109.516C82.5312 110.219 83.0469 110.816 83.0469 111.309C83.0469 112.363 81.5234 112.891 78.4766 112.891H74.9609C69.6172 112.891 66.9453 112.352 66.9453 111.273C66.9453 110.945 67.625 110.125 68.9844 108.812C69.7109 108.109 70.2852 106.68 70.707 104.523C71.1289 102.391 71.3398 98.3359 71.3398 92.3594V77.7695L71.2695 74.0078C71.2695 71.7109 70.9648 70.0352 70.3555 68.9805C70.1211 68.582 69.5117 68.043 68.5273 67.3633C67.543 66.6602 67.0508 66.0625 67.0508 65.5703C67.0508 65.0781 67.332 64.6914 67.8945 64.4102C69.7227 63.5195 72.1367 63.0742 75.1367 63.0742C75.9102 63.0742 76.6953 63.543 77.4922 64.4805C78.3125 65.418 78.7695 65.8867 78.8633 65.8867C79.2383 65.8867 79.9883 65.5703 81.1133 64.9375C82.2617 64.2812 82.8711 63.9297 82.9414 63.8828C84.957 62.9453 86.7031 62.4766 88.1797 62.4766H90.0078C91.3203 62.4766 92.8086 62.8398 94.4727 63.5664C97.6602 64.9492 99.9453 67.5391 101.328 71.3359C102.148 73.5625 102.559 75.7305 102.559 77.8398V79.8086C102.559 81.9883 102.113 84.2266 101.223 86.5234C99.4648 91.0703 96.4883 94.1641 92.293 95.8047C90.5117 96.5078 88.4375 96.8594 86.0703 96.8594L80.4453 96.4375V96.4375Z" fill="black"/>
</svg>
