<?xml version="1.0" encoding="utf-8"?>
<svg viewBox="0 0 160 160" fill="none" xmlns="http://www.w3.org/2000/svg">
  <defs>
    <linearGradient gradientUnits="userSpaceOnUse" x1="77.66" y1="5.029" x2="77.66" y2="155" id="gradient-1">
      <stop offset="0" style="stop-color: #bada55"/>
      <stop offset="1" style="stop-color: #758d29"/>
    </linearGradient>
  </defs>
  <path stroke="#fff" stroke-width="4.82703" d="M3.66135 27.5386v1.8277l1.85317.4887 1.62645.8015.83787 1.3977.85758 1.7104.76886 2.0818.46332 2.1405v1.8864l-.46332 2.1991-.64071 2.1991-1.23216 1.4661-1.80388 1.1827-2.46432.8405v1.4857l1.21244.3616 1.62644 1.2217 1.47859 1.3488.7393 1.4661 1.0843 2.5608.59142 2.1404v2.4435l-.59142 1.9548-.64071 1.7104-1.36031 1.2218-1.72502 1.1044-2.33617.5278.11828 2.033 1.36031.4105 1.72502 1.0556 1.35044 1.3878L9.211 73.8669l.9857 2.1991v4.1539l-.26612 2.2773-.98573 2.1992-1.35044 1.4661-1.97146.9773-2.0996.9774v1.5932l2.0996.2443 1.51802 1.339 1.55745 1.3489.90686 1.8277.3253 1.7104.24642 2.4435-.1183 1.5638-.45342 2.443-.77871 2.082-1.23216 1.691-1.97146.997-2.46431.85-.12815 1.711 1.64616.244 1.93203.733 1.10401 1.222 1.11388 1.574.77871 1.974.45342 1.955v3.401l-.32527 1.114-.54215 1.33-.73929 1.602-1.18287 1.085-1.28145.87-2.08974.978v1.466l1.35044.615 1.11388.978 1.23216 1.339.98572.84 1.02515 2.444.3253 1.486.12812 2.316-.12812 2.082-.61115 1.955-.98573 1.935-1.19273 1.358-1.02515 1.085-1.43917 1.486 1.6856 1.955"/>
  <path stroke="#fff" stroke-width="4.82703" d="M5.4751 150.387l.98572 1.143 1.84331-1.143 2.34607-.811 1.8433-.734 2.2376-.322 2.7699-.196 1.9616.763 1.5377.606 1.4786 1.104 1.2321 1.222 1.2322 2.805h1.2322l.6801-1.71 1.5378-1.955 1.7841-1.515 1.6067-.733 2.8291-.606 1.8531-.362h1.5969l2.4644.606 1.725.851 1.6067 1.348.8576 1.222.8674 2.805 2.4643-.361.4929-1.584 1.3505-1.231 1.6067-1.212 2.0897-.987 1.8828-.636 2.346-.488h2.4643l2.0898.371 1.449.977 1.2617 1.095 1.2026 1.466L67.428 155l1.5969-.244.621-1.926 1.5673-1.867 1.6363-1.221 1.725-.851 2.2179-.371 1.8138-.117h2.4643l1.6363.244 1.8729.919 1.8433 1.466 1.1139 1.339.9265 2.443 1.7842-.117.6801-1.466 1.2914-1.349 1.4786-1.495 2.1587-1.31 2.4643-.371 2.1493-.245 1.971.245 1.696.42 1.577.85 1.38.86 1.478 1.466 1.351 2.072h1.606l.247-1.544 1.331-1.016 1.498-1.427 2.1-1.261 2.217-.616 1.844-.117 2.592-.127 1.725.127 1.597.85 1.853.86 1.104 1.339.72 1.388.887 2.033 1.577.127.759-1.466.739-.977 1.233-1.711 1.853-1.221 1.971-.733 2.336-.245 2.218-.244 2.346.117 1.972.489 1.823.616 1.499 1.221 1.232-1.466M111.658 5.14641l-1.479-.11728-.493 1.02626-.857 1.90591-1.972 1.33902-1.478 1.22178-2.13.8307-2.119.3715-2.346-.1271-2.2179-.2444-1.5969-.4105-2.0996-1.66152-1.3504-2.08184-1.2322-1.58337-1.8236-.13684-1.3997 1.95478-1.3504 1.46609-1.6068 1.4661-1.8433.8503-2.346.2444h-2.0897l-1.9715-.1173-2.1785-.8601-1.8925-1.33905-1.7251-1.59315-1.311-1.82772h-1.3997l-1.0646 1.46609-1.1533 1.22173-1.311.97739-1.6462.97741-2.2179.5766-2.7107.4008-1.9715.1173-2.2376-.5181-2.0996-1.41717-1.9024-1.46609-1.4195-2.00365h-1.3603L45.8899 7.326l-1.3603 1.17287-1.8433 1.38789-1.725 1.05554-2.0996.4105h-2.1489l-2.4643-.4105-2.7798-.6841-2.1489-.86014-1.794-1.95478-.9857-1.71043h-1.4786l-.6703 1.8375-1.5476.92852-2.0897 1.75933-1.9715.6841-2.2179.5376-2.346.1173-2.4643-.6549-2.14891-1.05554-2.77975-1.82772-.98573 1.09468 1.30117 1.10448 1.2913 1.8277.61114 1.9548.56187 2.4434v4.6035l-.68015 2.4826-1.23216 2.033-1.72502 1.5149-3.45005 2.3946" style="fill: url(#gradient-1); fill-opacity: 0;"/>
  <path stroke="#fff" stroke-width="4.82703" d="M109.913 5h1.232l1.725 2.44347 1.153 1.22174 1.548.84056 2.464 1.29993 2.465.4887 2.464-.1857h2.464l1.824-.9481 1.873-1.49539.907-1.22174L131.096 5h1.893l.167.6744 1.144 1.76907 1.153 1.73976 1.725.70372 2.05.91875 2.218.303h1.725l2.386-.303 1.478-.733 1.972-.97743 2.297-1.37813 1.399 1.54428-1.399 1.22178-1.479 1.2217-1.232 1.8473-.986 1.7397-.572 1.3781-.079 1.7691v1.4954l.375 2.1698 1.508 2.0428 1.449 1.7984 2.051 1.0458 2.217.2541.168 2.1893h-2.188l-1.232.909-1.43.8894-1.39 1.8669-.877 1.554-.444 2.1112v3.9193l.444 2.4435.631 1.5345 1.833 1.5442 2.465.9774 2.464.2444v1.9548l-1.755.0782-1.725.7428-1.725.645-1.399 1.7984-.572 1.4564-.572 2.2089-.089 1.7006v2.1992l.444 1.9547.818 2.5315 1.065 1.3781 2.464 1.2315 3.046.4789-.582 1.9646-1.882.3225-1.646.6451-1.558 1.4758-1.4 1.5443-.818 2.1209-.394 1.8278.325 2.766.562 2.1991.749 1.4661.986 1.0556 1.232 1.0654 1.479 1.0555 2.553.5669.394 1.4368-2.119.3616-1.893 1.0556-1.725 1.2217-.986 1.7105-.67 2.0818-.217 2.1209v2.1112l.217 1.9548 1.232 2.277.69 1.388 1.232 1.222 1.479.821 2.543.567v1.71l-1.646.166-1.833.812-1.449.977-1.016 1.3-.956 1.798-.71 1.535-.079 1.3.079 2.052.434 2.268.641 1.397.591 1.046 1.232 1.398 1.627 1.534 3.115.489.187 1.642-1.912.225-1.784.821-1.233 1.056-1.005.899-.907 1.544-.552 2.033-.434 2.365-.079 1.466.079 1.809.828 1.612.838 1.388.799 1.3.828.899 1.478.909 1.144 1.222-1.311 1.222" style="fill: rgb(186, 218, 85); fill-opacity: 0;"/>
  <path fill="#fff" d="M127.972 81.397c2.583.6744 4.111 2.7954 3.293 5.8741-2.248 8.5131-12.332 8.8748-12.391 9.1093.059-.2345-8.556-5.4538-6.299-13.9669.809-3.0788 2.79-4.3005 5.373-3.6261 1.715.4496 3.036 2.4924 3.952 6.1282 2.327-2.7953 4.357-3.9682 6.072-3.5186z"/>
  <path fill="#fff" d="M40.2969 82.0938c-1.4297 0-2.1446 2.0624-2.1446 6.1874 0 1.4532.3399 2.8711 1.0196 4.254l.9492 1.6171c.3281.586.4922 1.0079.4922 1.2657 0 .8437-2.3555 1.2656-7.0664 1.2656-4.711 0-7.0664-.3984-7.0664-1.1953 0-.211.3867-.8438 1.1601-1.8985.7969-1.0781 1.3711-2.332 1.7227-3.7617.375-1.4531.5625-4.8164.5625-10.0898l.0351-1.336c.0469-1.1953.0703-2.0859.0703-2.6718l.0704-2.6719.0351-2.707v-5.4493c0-6.7734-.1289-10.7695-.3867-11.9882-.2344-1.2422-.668-2.1797-1.3008-2.8125l-.7734-.5977-.8438-.5273c-.6797-.4922-1.0195-.9493-1.0195-1.3711 0-.4453.2813-.8321.8437-1.1602 1.5938-.9141 4.0547-1.3711 7.3829-1.3711h1.1953c1.3359 0 2.1679.9492 2.4961 2.8477.1172.7031.1757 5.9531.1757 15.75l-.0351 4.0429c0 3.211.0117 4.9219.0351 5.1329.2579 2.2265.8672 3.3398 1.8282 3.3398.9609 0 2.6133-1.2656 4.957-3.7969 2.3438-2.5547 3.5156-4.3711 3.5156-5.4492l-.1054-1.2656c0-.7969.3046-1.3594.914-1.6875.6328-.3281 1.9336-.4922 3.9024-.4922 4.4765 0 6.7148.4805 6.7148 1.4414 0 .0234-2.0742 1.6992-6.2226 5.0273-4.1485 3.3282-6.2227 5.7071-6.2227 7.1368 0 1.4296 2.8477 5.4726 8.543 12.1289 1.2422 1.4531 2.6015 2.707 4.0781 3.7617 1.5 1.0547 2.25 1.7578 2.25 2.1094 0 1.1484-1.7344 1.7226-5.2031 1.7226h-2.5664c-2.25 0-3.8672-.6445-4.8516-1.9336l-1.4063-3.4101c-.5859-1.4063-1.5585-3.0703-2.9179-4.9922-2.086-2.9297-3.6914-4.3945-4.8164-4.3945zm54.2109-.7735v-2.0742c0-3.7734-.7734-6.7852-2.3203-9.0352s-3.4922-3.375-5.8359-3.375H86c-1.2891 0-2.543.3633-3.7617 1.0899-1.2188.7031-2.1563 1.6054-2.8125 2.707-.6328 1.1016-.9492 4.3477-.9492 9.7383v2.9883l.0351.3867v1.4766l.0352.3515v.7383c.0469.5156.0703.8906.0703 1.125 0 1.9922.6328 3.5508 1.8984 4.6758 1.2891 1.1015 3.0117 1.6523 5.168 1.6523h.3516c2.5781 0 4.6289-1.1836 6.1523-3.5508 1.5469-2.3671 2.3203-5.332 2.3203-8.8945zM80.4453 96.4375c-1.2187 0-1.8281 1.5703-1.8281 4.7105 0 3.164.2226 5.168.668 6.012.4687.867 1.207 1.652 2.2148 2.356 1.0312.703 1.5469 1.3 1.5469 1.793 0 1.054-1.5235 1.582-4.5703 1.582h-3.5157c-5.3437 0-8.0156-.539-8.0156-1.618 0-.328.6797-1.148 2.0391-2.461.7265-.703 1.3008-2.132 1.7226-4.289.4219-2.132.6328-6.1871.6328-12.1636V77.7695l-.0703-3.7617c0-2.2969-.3047-3.9726-.914-5.0273-.2344-.3985-.8438-.9375-1.8282-1.6172-.9843-.7031-1.4765-1.3008-1.4765-1.793 0-.4922.2812-.8789.8437-1.1601 1.8282-.8907 4.2422-1.336 7.2422-1.336.7735 0 1.5586.4688 2.3555 1.4063.8203.9375 1.2773 1.4062 1.3711 1.4062.375 0 1.125-.3164 2.25-.9492 1.1484-.6563 1.7578-1.0078 1.8281-1.0547 2.0156-.9375 3.7617-1.4062 5.2383-1.4062h1.8281c1.3125 0 2.8008.3632 4.4649 1.0898 3.1875 1.3828 5.4726 3.9727 6.8553 7.7695.82 2.2266 1.231 4.3946 1.231 6.5039v1.9688c0 2.1797-.446 4.418-1.336 6.7148-1.7582 4.5469-4.7347 7.6407-8.93 9.2813-1.7813.7031-3.8555 1.0547-6.2227 1.0547l-5.625-.4219z"/>
</svg>