<svg xmlns="http://www.w3.org/2000/svg" viewBox="0 0 1.37 39.32"><g id="Layer_2" data-name="Layer 2"><g id="Layer_1-2" data-name="Layer 1"><g id="surface1"><path d="M1.37.81v.62a.76.76,0,0,1-.69.81A.76.76,0,0,1,0,1.43V.81A.75.75,0,0,1,.68,0,.76.76,0,0,1,1.37.81Z"/><path d="M1.37,4.86V6.14A.77.77,0,0,1,.68,7,.76.76,0,0,1,0,6.14V4.86A.76.76,0,0,1,.68,4,.77.77,0,0,1,1.37,4.86Zm0,4.72v1.29a.76.76,0,0,1-.69.81A.75.75,0,0,1,0,10.87V9.58a.75.75,0,0,1,.68-.81A.76.76,0,0,1,1.37,9.58Zm0,4.72v1.29a.76.76,0,0,1-.69.81A.75.75,0,0,1,0,15.59V14.3a.76.76,0,0,1,.68-.82A.77.77,0,0,1,1.37,14.3Zm0,4.72V20.3a.77.77,0,0,1-.69.82A.76.76,0,0,1,0,20.3V19a.76.76,0,0,1,.68-.82A.77.77,0,0,1,1.37,19Zm0,4.72V25a.76.76,0,0,1-.69.81A.75.75,0,0,1,0,25V23.74a.75.75,0,0,1,.68-.81A.76.76,0,0,1,1.37,23.74Zm0,4.72v1.29a.76.76,0,0,1-.69.81A.75.75,0,0,1,0,29.75V28.46a.76.76,0,0,1,.68-.82A.77.77,0,0,1,1.37,28.46Zm0,4.72v1.29a.76.76,0,0,1-.69.81A.75.75,0,0,1,0,34.47V33.18a.75.75,0,0,1,.68-.81A.76.76,0,0,1,1.37,33.18Z"/><path d="M1.37,37.9v.61a.76.76,0,0,1-.69.81A.75.75,0,0,1,0,38.51V37.9a.75.75,0,0,1,.68-.81A.76.76,0,0,1,1.37,37.9Z"/></g></g></g></svg>