<svg xmlns="http://www.w3.org/2000/svg" viewBox="0 0 582.55 312"><defs><style>.cls-1{fill:#fff;}</style></defs><g id="Layer_2" data-name="Layer 2"><g id="Layer_1-2" data-name="Layer 1"><path class="cls-1" d="M582.55,312H0V0H582.55ZM437.82,235.92c-1.14.14-2.78-.16-3.35.49a63.87,63.87,0,0,0-5.45,7.38c-4.27,6.53-4.88,13.39-1.2,20.36,4.12,7.8,11.82,9.22,18.25,3.17s9.94-13.37,7.15-22-9.28-14.17-18.37-15.93c-2.07-.4-4.36.4-7.19.72l10.1,5.92Zm73.42,18.3c.78-.39,1.17-.6,1.57-.78,8.28-3.56,12.14-10.35,13.36-18.84.79-5.57-3.26-8.87-8.66-7.28a17.63,17.63,0,0,0-4.9,2.27c-6.51,4.41-9.92,10.67-10.58,18.47-.07.87-.1,1.74-.15,2.59L495.5,250l-.32,1c1.18.89,2.25,2.27,3.57,2.56,3.19.71,4.21,2.84,5.32,5.58,6.31,15.66,21.64,18.05,32.44,5.16a42.37,42.37,0,0,0,8.6-15.65,21.17,21.17,0,0,0,.86-7.49c-.46-5.43-5.85-7.81-10.5-4.66a7.77,7.77,0,0,0,1.24.82c3.61,1.36,4.07,2.08,2.75,5.6-2.55,6.84-6.34,12.89-12.24,17.35-5.65,4.27-9.79,3.57-13.83-2.23C512.63,256.92,512.06,255.68,511.24,254.22Zm-18.91-97a11.37,11.37,0,0,0-2.64,1.21,2.3,2.3,0,0,0,.68,1.77c3,1.76,3.64,5,5.12,7.73,7,12.88,22,13.77,29.82,1.48A67.63,67.63,0,0,0,532,154.33a20.16,20.16,0,0,0,.28-9.09c-.52-3.39-4-4.44-6.08-2.63.36,1.37,1.21,2.72.89,3.69-2.2,6.66-4.94,13.11-9.71,18.39-5,5.6-12.06,4.11-14.71-2.89a64.09,64.09,0,0,0,4.67-5c4.16-5.44,7.88-11.15,8.26-18.29.17-3.32-1-6.1-4-7.78s-6-1.06-8.76.67c-3.62,2.24-5.82,5.64-7.48,9.45A35.76,35.76,0,0,0,492.33,157.21ZM146.5,243.84H143c.68,1.06,1.36,2.13,2,3.2a21.69,21.69,0,0,1,2.53,4.17c2.6,7.67,9.36,12.31,16.75,10.56,9.68-2.29,15.83-8.87,19.15-18a7.25,7.25,0,0,0-1.4-7.85c-1.85,6.74-6.27,11.12-11.28,14.9A19.23,19.23,0,0,1,164,254c-4.16,1-7.67-1.53-8.56-5.83.37-.18.77-.39,1.17-.57a27.56,27.56,0,0,0,14.85-15.88,17.5,17.5,0,0,0,1.11-7.44c-.48-5.87-5-8.6-10.25-6a28.84,28.84,0,0,0-8.53,6.52A29.36,29.36,0,0,0,146.5,243.84ZM483.12,71.93c-.6,3,.45,5.31,3.43,5.74s3.28,2.08,3.89,4.24c2.22,8,8.26,12.48,15.71,11.91,8.61-.66,17.73-8.57,19.56-17a10,10,0,0,0-1.39-8.33,5.17,5.17,0,0,0-1.4-.94c-.31,2-.24,3.86-.89,5.37a21.26,21.26,0,0,1-12.74,12c-5.26,1.91-9.32-.34-11.11-5.62-.64-1.89-.41-3,1.47-4.15a34.9,34.9,0,0,0,12.88-13.77c3-5.82-.08-10.87-6.65-11.18-4.53-.21-8.35,1.49-10.78,5.2a43,43,0,0,0-4.57,9.78c-.94,2.77-1.08,5.8-1.64,9.14ZM123.47,166.62C122.79,165,122.28,164,122,163c-2-6.79-3.87-13.61-5.89-20.39A11.9,11.9,0,0,0,114,138.2a3.69,3.69,0,0,0-3.26-.77c-.62.21-1.11,1.95-1,2.93a42.32,42.32,0,0,0,1.44,5.52c2.11,8,4.06,16,6.38,23.91.87,3,2.25,6.25,6.09,6.54s5.69-2.81,7.21-5.71c7.22-13.8,11.53-28.58,14.33-43.83a9.3,9.3,0,0,0-.52-5.31,5.75,5.75,0,0,0-3.65-2.59c-1.8-.39-2.84,1-3.37,2.82-.85,3-2,5.84-2.86,8.8-2.47,8.35-4.8,16.75-7.33,25.09C126.41,159.12,125,162.52,123.47,166.62Zm190-92.76c.39.88.77,1.79,1.21,2.68,2.67,5.42,7.06,8.58,13,8.93,11.84.69,20.92-4.9,28.44-13.43.88-1,.71-2.93,1-4.43-1.52.16-3.25-.09-4.52.57-2.88,1.49-5.49,3.52-8.29,5.19-4.73,2.81-9.72,4.89-15.37,4.84a9,9,0,0,1-8.51-5.3c-1-1.88-.84-3,1-4.51a120.07,120.07,0,0,0,13.33-12.35c3.82-4.35,2.13-9.53-3.16-12-6.08-2.88-12.45-.68-15.93,5.66a30.41,30.41,0,0,0-3.27,18.74c.27,2.2-.72,2.56-2.39,2.46-1.18-.06-2.35-.32-3.73-.52C307.6,73.85,308.88,74.42,313.47,73.86Zm-182.5,5-.68.18c-1.11-2.56-2.35-5.07-3.31-7.69-2.8-7.58-5.46-15.2-8.26-22.78a11.8,11.8,0,0,0-2.33-4.23,3.56,3.56,0,0,0-3.29-.65c-.65.32-1,2.1-.82,3.13a31.17,31.17,0,0,0,1.61,4.61c2.89,8.79,5.66,17.62,8.7,26.37a44.23,44.23,0,0,0,4.2,8.81c2.88,4.63,7.5,4.2,9.82-.78A34.26,34.26,0,0,0,138.35,81q6-20.64,11.93-41.3a12.29,12.29,0,0,0,.34-1.6c.33-2.08-.14-3.91-2.26-4.7a3.78,3.78,0,0,0-4.86,2,27.8,27.8,0,0,0-2.3,5.21c-1.91,6.15-3.81,12.31-5.47,18.54C134,65.64,132.55,72.27,131,78.87Zm203.24,80.78c6.5-5.66,9.28-13.25,10.81-21.4a17.27,17.27,0,0,0-.07-6.45c-.95-4.54-5.21-7-9.75-6-4,.88-6.5,3.51-8.21,7-3.18,6.47-3.87,13.35-3.1,20.46.18,1.59-.23,3.24-.19,4.86a3.4,3.4,0,0,0,.87,1.76,31.05,31.05,0,0,1,2.37,2.82c3.87,6.63,10.22,10,16.84,8a24.29,24.29,0,0,0,16.36-15.17c.63-1.63.53-3.56.76-5.35l-.85-.32a37.73,37.73,0,0,1-3.07,3.24c-3.94,3.31-7.67,7-12,9.66C340.89,165.26,337,163.73,334.21,159.65Zm-80.6,74.1c-1.21,4.42-2.5,8.46-3.41,12.58-1.16,5.28-1.63,10.6.47,15.82,2.63,6.51,8.19,9.19,14.73,6.79A26,26,0,0,0,280.73,254c2.37-5.63,1.3-11.13-3.27-15.15a33.41,33.41,0,0,0-22.64-8.55c-2,0-4,.73-5.93,1.13l.07,1Zm-183.25,14a42.86,42.86,0,0,0,1.18,5.77c2.08,6.3,7.52,9.18,13.78,7.06,7.29-2.47,12.81-7.17,15.75-14.43,3.92-9.65-1.82-21.45-11.7-24.34-3.86-1.14-7.16-.12-9.44,2.94-1.3,1.75-2.59,3.5-3.83,5.28C72.56,235,70.85,240.7,70.36,247.72Zm53.27,2.77c-.65-1.85-1.21-3.06-1.51-4.34-1.49-6.55-2.83-13.13-4.42-19.65a12.61,12.61,0,0,0-2.37-4.43,2.55,2.55,0,0,0-2.42-.26c-.48.26-.67,1.51-.58,2.28a59.37,59.37,0,0,0,1,5.89c1.81,8.69,3.58,17.4,5.55,26.06.53,2.32,1.78,4.47,4.53,4.9s4.74-1.19,6.08-3.33c2.44-3.92,5.11-7.8,6.85-12,3.59-8.71,6.75-17.59,9.77-26.52a9.48,9.48,0,0,0-.56-6c-.43-1.09-2.31-2.08-3.62-2.18-1-.08-2.5,1.15-3,2.16-1.52,3.38-2.61,6.94-4,10.39-3.2,8-6.46,16-9.72,24C124.91,248.25,124.39,249.05,123.63,250.49ZM246.09,136c-.62,2.26-1.17,4.25-1.72,6.24-2.39,8.54-2,16.57,4.5,23.36,4.6,4.76,10,5.7,15.85,2.59a30.09,30.09,0,0,0,14.85-18c1.73-5.39.2-10.26-4.81-12.86A107.91,107.91,0,0,0,258.65,131c-1.88-.62-4.14-.26-6.2-.06-.87.08-1.68.88-2.63,1.42a105.08,105.08,0,0,1,20.55,10.71c2,1.3,2.26,3.25,1.42,5.3a23.83,23.83,0,0,1-11,12.36,5.34,5.34,0,0,1-6.92-1.14,13.16,13.16,0,0,1-3.79-9.35c-.06-3.45.18-6.91.09-10.35C250.11,136.94,248.76,135.79,246.09,136ZM230.37,149.4h1.16c0-8.89.06-17.79-.05-26.69a12.65,12.65,0,0,0-1.16-5.51,4.66,4.66,0,0,0-3.58-2.16c-1.16.08-2.38,1.53-3.27,2.63a4.94,4.94,0,0,0-.56,2.61q-.74,10.32-1.4,20.65c-.64,10.15-1.37,20.3-1.8,30.46a24.6,24.6,0,0,0,1.22,8,4.44,4.44,0,0,0,5.16,3.1c2.37-.33,3.62-2,4-4.22a23.12,23.12,0,0,0,.27-3.53Q230.39,162.07,230.37,149.4Zm103.83,106-.35.81c1.23.76,2.37,1.91,3.71,2.21a9.59,9.59,0,0,1,5.29,3.34c2.95,3.32,6.78,5,11.22,4.16a19.94,19.94,0,0,0,15.08-11.69c1.09-2.4,1.16-5.27,1.69-7.93l-1-.38c-.64.88-1.34,1.71-1.9,2.64a23.13,23.13,0,0,1-11.15,9.59c-3.78,1.57-6.3.91-9.13-2.18a37.83,37.83,0,0,0,9.58-15.56,33.4,33.4,0,0,0,1.46-7.42c.34-3.71-.93-6.9-4.44-8.61s-7-.66-9.86,1.73a21.19,21.19,0,0,0-7.51,14.94c-.37,4.49.34,9.07.57,13.76ZM484.86,56.17l.68-.2c.14-2,.72-4.21.28-6.13-.37-1.64-1.64-3.77-3-4.29a6.1,6.1,0,0,0-5.13,1.17,17.42,17.42,0,0,0-4.47,6.06c-2.48,5.64-4.59,11.44-6.78,17.2-1,2.66-1.85,5.38-3,8.6a81.54,81.54,0,0,1-7.81-19.67c-.32-1.22-.41-2.7-1.17-3.56s-2.28-1.27-3.47-1.87c-.5,1.12-1.58,2.32-1.41,3.32A93.66,93.66,0,0,0,458,84c1.41,2.79,2.64,6.1,6.55,6.12s5.57-3.19,6.76-6.21c2.56-6.49,4.79-13.11,7.16-19.68l4.18-11.57ZM187.41,63.36a18.84,18.84,0,0,0-.86,1.89C184.7,71.56,180.39,75.58,174.5,78c-3.07,1.25-4.84.55-6.18-2.49a56.74,56.74,0,0,1-2.14-7.26c-.55-1.92.27-3.06,1.78-4.32,5.88-4.88,10.68-10.62,12.64-18.24a6.25,6.25,0,0,0-2.37-7,6,6,0,0,0-7.16-.17c-2.23,1.57-4.69,3.53-5.77,5.9a97.73,97.73,0,0,0-5,15.11c-.51,1.9-1,2.8-3,2.85a14.61,14.61,0,0,0-4.49,1c-.72.26-1.22,1.12-1.82,1.71.62.57,1.16,1.45,1.89,1.65,2.15.62,4.38,1,6.73,1.44.28,1.78.43,3.69.89,5.51a28.22,28.22,0,0,0,2,5.63c2.7,5.41,7.53,7.63,13.11,5.81a20.85,20.85,0,0,0,13-11.93A9.39,9.39,0,0,0,187.41,63.36Zm95.06,13.86-.87.31c-1.56-4-3.46-7.92-4.6-12-1.27-4.61-1.89-9.41-2.73-14.13-.38-2.1-1.4-3.55-3.56-3.92s-3,.77-2.23,2.84a29.57,29.57,0,0,1,1.12,4.45c.85,4.63,1.15,9.43,2.54,13.89a99.5,99.5,0,0,0,7,17.29c2.63,4.91,7.93,4.19,10.2-1a34.64,34.64,0,0,0,1.72-5.43c2.49-9.71,5.45-19.2,11.14-27.63a12.58,12.58,0,0,0,1.68-4.27c.43-2,.61-4.19-1.57-5.31s-3.6.44-5,1.79A11.6,11.6,0,0,0,295,46.75c-2.7,5.11-5.6,10.16-7.81,15.48C285.21,67.06,284,72.21,282.47,77.22Zm17.92,82.72-.93,0c-1.17-5.07-2.42-10.12-3.47-15.22-.72-3.46-1.1-7-1.74-10.47-.32-1.71-1.42-2.8-3.29-2.47a2.52,2.52,0,0,0-2.2,3.17c.73,5.11,1.26,10.25,2.27,15.3a113.51,113.51,0,0,0,4.13,16.58c2,5.56,7.57,5.94,10.9,1a23.05,23.05,0,0,0,3.47-7.33Q313,145.73,316,130.79a60.08,60.08,0,0,0,.72-10.57c0-.81-1-2.22-1.68-2.29a4,4,0,0,0-2.87,1.34,7.39,7.39,0,0,0-1.16,3c-1.42,5.35-2.73,10.73-4.23,16C304.7,145.55,302.51,152.73,300.39,159.94Zm-226.66-88c0,.73-.06,1.46,0,2.18.78,7.85,6.24,11.41,13.61,8.67A31.47,31.47,0,0,0,102.15,72,18.28,18.28,0,0,0,106,58.51c-1-8.41-10.88-15.75-21-15.3a1.66,1.66,0,0,0-1.14.48C77.42,52,74.7,61.64,73.73,71.89ZM310.2,261.72l-1.37.06a54.1,54.1,0,0,1-3-6.28c-2-5.84-3.7-11.77-5.6-17.63a13.41,13.41,0,0,0-2.1-4.65,3.84,3.84,0,0,0-3.51-.64,2.16,2.16,0,0,0-.85,3.41,10.57,10.57,0,0,1,1,3c1.48,5.71,2.68,11.51,4.5,17.1a46.15,46.15,0,0,0,5.21,11c2.7,4.09,7.39,4.22,10.66.54a22.85,22.85,0,0,0,4.11-6.67,83.78,83.78,0,0,0,5.56-35,6.6,6.6,0,0,0-1-3.34,3.62,3.62,0,0,0-2.6-1.43c-.67,0-1.39,1.18-1.9,2a5.08,5.08,0,0,0-.44,1.84c-1,5.17-1.69,10.4-2.93,15.5C314.26,247.66,312.15,254.67,310.2,261.72Zm113.38-170c8.05,0,16.44-5.69,19.37-13.19,2.33-5.94,1.43-11.55-2.92-16.19-4.55-4.84-10.14-7.83-17-6.09A16,16,0,0,0,416.55,60c-1.41,1.28-2,3.43-3,5.22-1.39,2.73-3.19,5.35-4,8.24C406.8,83,413.69,91.81,423.58,91.74Zm-352.3,62.5c-.21,9.89,6.48,15.39,14.9,13.1a20.94,20.94,0,0,0,11.38-7.51c3.48-4.5,5.14-9.5,2.72-15-2.52-5.69-7.4-8.46-13.31-9.64a10.15,10.15,0,0,1-2.62-.52,3.68,3.68,0,0,0-4.86,1.05A32.68,32.68,0,0,0,71.28,154.24ZM476.65,255.45l-1.17.28c-1.55-3.12-3.34-6.14-4.59-9.38s-2-7-3.08-10.43c-.53-1.78-1.7-2.93-3.65-2.37s-2.23,2.11-1.78,3.75c1.57,5.68,2.95,11.43,5,16.94a25.85,25.85,0,0,0,5.27,8.13c2.92,3.17,7,2.89,9.77-.37a17.7,17.7,0,0,0,3.57-5.74c3.47-10.59,6.75-21.24,9.93-31.92.57-1.89,1.19-4.61-1.29-5.48s-3.84,1.65-4.73,3.56c-2,4.18-3.74,8.46-5.45,12.76C481.79,241.91,479.24,248.69,476.65,255.45ZM185,143.87c-.17.73-.1,1.7-.55,2.17-4.48,4.67-9.1,9.23-15.65,10.9-4.15,1.06-7.14-.49-9.19-4.4-1.14-2.19-1.47-3.83,1.3-5.25a21,21,0,0,0,5.45-4.44c2.51-2.7,4.34-5.84,4.32-9.72,0-5.09-4.08-7.69-8.55-5.23a18.57,18.57,0,0,0-5.06,4.43,20.56,20.56,0,0,0-4.79,12.52c-.09,3.13-1.72,3.87-4.15,4.05-1.93.14-3.88,0-6.42,0,.59,1.22.8,2.25,1.17,2.31,3.18.53,6.39.88,10,1.34a34.58,34.58,0,0,0,1.43,3.3c2.28,4.25,5.69,7.06,10.57,7.7,8.52,1.12,20.71-6.66,23.39-14.87C189.24,145.63,188.29,144.19,185,143.87Zm282.1,15.43-.49,0c-.59-2.05-1.21-4.09-1.76-6.15-1.1-4.12-1.9-8.35-3.35-12.34-.68-1.86-2.47-3.4-4-4.79-.44-.4-2,0-2.65.48-.38.31-.13,1.65.11,2.44.51,1.72,1.35,3.35,1.8,5.08,2.19,8.34,4.19,16.72,6.47,25,.77,2.8,2,5.88,5.6,5.77s4.87-3.26,5.42-6.24c2.21-12.05,4.27-24.12,6.26-36.21a3.13,3.13,0,0,0-1.34-2.62,3.31,3.31,0,0,0-2.89.56,7.39,7.39,0,0,0-2.09,3.12c-1.39,3.83-2.78,7.68-3.83,11.61C469.07,149.76,468.16,154.55,467.09,159.3ZM231.68,246.64h.9c0-8.63,0-17.26,0-25.89a26.68,26.68,0,0,0-.8-7.27c-.38-1.27-2-2.16-3.1-3.23-.74,1.09-1.52,2.15-2.21,3.27a3.54,3.54,0,0,0-.26,1.33c-2.52,17.49-3.15,35.11-3.39,52.75a37.09,37.09,0,0,0,.75,7.57c.58,2.93,2.6,4.46,4.87,4.16s3.29-2,3.28-5.15Q231.66,260.41,231.68,246.64Zm213.2-88c0-6.94-5.52-12.74-13.56-14.53-.85-.19-1.55-1.05-2.31-1.61s-1.6-1.66-2.45-1.7-1.79.83-2.57,1.47-1.12,1.38-1.76,2a26.1,26.1,0,0,0-8.39,17.49c-.78,9.47,6.79,16.86,15.6,15.34C437.58,175.68,444.91,166.92,444.88,158.64Zm-395,87.63h-.38c0,10-.05,20,.08,30,0,1,.89,2.74,1.62,2.88a3.92,3.92,0,0,0,3.42-1.23,14.07,14.07,0,0,0,2.08-5.8c2-18.19,1.87-36.44,1.07-54.69a4.84,4.84,0,0,0-.88-3.06c-1-1-2.56-2.12-3.72-2s-2.33,1.68-3,2.89c-.51.94-.3,2.31-.3,3.48Q49.82,232.52,49.84,246.27Zm194-191.59c2.57,0,4.72-.09,6.85,0,5.32.27,7.22,3.22,5.42,8.29-2.08,5.86-8.65,10.61-14.82,10.72-3.64.07-5.05-1.24-4.85-4.89A28.81,28.81,0,0,1,242,53.67a8.42,8.42,0,0,0,1.58-4.17,2.2,2.2,0,0,0-3.74-1.6c-6.69,6-10.45,13.45-10.58,22.47a9.81,9.81,0,0,0,8.06,10.24c10.76,2.41,24.58-7.38,25.8-18.27.56-5-1.8-9.42-6.09-10.67a14.37,14.37,0,0,0-10.85.87A12.21,12.21,0,0,0,243.86,54.68ZM389.57,171.16l.49.11c.19,4,.32,8,.59,12,.12,1.9,1.06,3.34,3.16,3.45s3.1-1.22,3.58-3.07a14.74,14.74,0,0,0,.49-2.12c.6-5.87,1.26-11.74,1.71-17.63q1.38-18.08,2.55-36.17c.14-2.08-.11-4.21-2.76-4.55s-3.41,1.72-3.7,3.77C393.6,141.65,391.6,156.41,389.57,171.16ZM46.71,159.83h-.25c0,4.53-.05,9.07,0,13.6a24,24,0,0,0,.58,6.48,4.5,4.5,0,0,0,3,2.67c.84.1,2.21-1.48,2.79-2.59a9.46,9.46,0,0,0,.52-3.73c.67-12.78,1.37-25.55,2-38.33.33-6.88.59-13.76.66-20.65,0-3-1.56-4.59-3.7-4.41-2.63.22-3.06,2.2-3.18,4.3Q47.93,138.5,46.71,159.83ZM393.66,96l-.11-.81c-3.38.28-3.48-2-3.35-4,.53-8,.9-16,1.91-23.86,1.09-8.53,2.88-17,4.23-25.47a7.73,7.73,0,0,0-.47-4.7,5,5,0,0,0-3.73-1.81c-1.64,0-2.36,1.23-2,3.08a6.5,6.5,0,0,1-.66,2.86,136.1,136.1,0,0,0-6.74,45A26.65,26.65,0,0,0,385.36,96c.55,1.26,2.85,2.36,4.39,2.4C391,98.46,392.35,96.84,393.66,96Zm16.58,176.83c0-1.23-.07-2.23,0-3.21,1.19-14.57,2.42-29.13,3.57-43.69a16,16,0,0,0-.28-4.84,3.06,3.06,0,0,0-4-2.38c-1.85.39-2.88,1.39-2.31,3.52a5.64,5.64,0,0,1-.19,2.13c-.81,5-1.9,10-2.4,15.05-1,9.93-1.87,19.88-2.29,29.84-.12,2.89,1.15,6,2.46,8.7.54,1.1,2.95,2,4.33,1.77,1.18-.19,2.43-1.91,3-3.24s.49-3.08.76-5.19ZM60.49,49.44l-.42,0c0-4.18,0-8.36,0-12.54a9.18,9.18,0,0,0-.5-4c-.53-1-1.92-2.19-2.91-2.17S54.56,32,53.81,33c-.42.55-.31,1.56-.36,2.37C52.59,49.22,51.7,63.09,50.89,77c-.25,4.35-.43,8.71-.3,13.06A3.57,3.57,0,0,0,53,92.6c1,.07,2.27-1.11,3-2.07a6.63,6.63,0,0,0,.76-3.14Q58.63,68.41,60.49,49.44ZM222.8,67.05h.14c0-6.62.21-13.26-.11-19.87-.11-2.19-1.44-4.39-2.53-6.42-.32-.59-1.79-.91-2.62-.75-.43.08-.82,1.45-.87,2.26-.18,2.63-.1,5.27-.27,7.9-.65,10.15-1.43,20.3-2,30.45a28.49,28.49,0,0,0,.7,6.74,3.42,3.42,0,0,0,3.56,3.13c2.08,0,3-1.54,3.43-3.31a19.74,19.74,0,0,0,.55-4.32C222.84,77.59,222.8,72.32,222.8,67.05Z"/><path d="M511.24,254.22c.82,1.46,1.39,2.7,2.15,3.8,4,5.8,8.18,6.5,13.83,2.23,5.9-4.46,9.69-10.51,12.24-17.35,1.32-3.52.86-4.24-2.75-5.6a7.77,7.77,0,0,1-1.24-.82c4.65-3.15,10-.77,10.5,4.66a21.17,21.17,0,0,1-.86,7.49,42.37,42.37,0,0,1-8.6,15.65c-10.8,12.89-26.13,10.5-32.44-5.16-1.11-2.74-2.13-4.87-5.32-5.58-1.32-.29-2.39-1.67-3.57-2.56l.32-1,6.38.64c.05-.85.08-1.72.15-2.59.66-7.8,4.07-14.06,10.58-18.47a17.63,17.63,0,0,1,4.9-2.27c5.4-1.59,9.45,1.71,8.66,7.28-1.22,8.49-5.08,15.28-13.36,18.84C512.41,253.62,512,253.83,511.24,254.22Zm8.9-20.27c-5.39,1.08-10.33,8.68-9.46,14.57C516.07,246.82,520.8,239.55,520.14,234Z"/><path d="M492.33,157.21a35.76,35.76,0,0,1,3-16.33c1.66-3.81,3.86-7.21,7.48-9.45,2.78-1.73,5.74-2.36,8.76-.67s4.2,4.46,4,7.78c-.38,7.14-4.1,12.85-8.26,18.29a64.09,64.09,0,0,1-4.67,5c2.65,7,9.67,8.49,14.71,2.89,4.77-5.28,7.51-11.73,9.71-18.39.32-1-.53-2.32-.89-3.69,2.08-1.81,5.56-.76,6.08,2.63a20.16,20.16,0,0,1-.28,9.09,67.63,67.63,0,0,1-6.68,15.07c-7.87,12.29-22.85,11.4-29.82-1.48-1.48-2.73-2.11-6-5.12-7.73a2.3,2.3,0,0,1-.68-1.77A11.37,11.37,0,0,1,492.33,157.21Zm8.75-2.37c3.93-4.13,7-8.74,8.4-14.28.29-1.15-.33-2.52-.54-3.79-1.19.6-2.76.9-3.53,1.85C501.61,143.29,500.79,148.9,501.08,154.84Z"/><path d="M146.5,243.84a29.36,29.36,0,0,1,7.28-19,28.84,28.84,0,0,1,8.53-6.52c5.27-2.59,9.77.14,10.25,6a17.5,17.5,0,0,1-1.11,7.44,27.56,27.56,0,0,1-14.85,15.88c-.4.18-.8.39-1.17.57.89,4.3,4.4,6.87,8.56,5.83a19.23,19.23,0,0,0,6.79-3.22c5-3.78,9.43-8.16,11.28-14.9a7.25,7.25,0,0,1,1.4,7.85c-3.32,9.15-9.47,15.73-19.15,18-7.39,1.75-14.15-2.89-16.75-10.56A21.69,21.69,0,0,0,145,247c-.67-1.07-1.35-2.14-2-3.2Zm19.86-19.74c-6.49,1.47-13.37,13.14-11.41,19.09C162.62,239.57,168.42,230,166.36,224.1Z"/><path d="M483.12,71.93l5.77,2.33c.56-3.34.7-6.37,1.64-9.14a43,43,0,0,1,4.57-9.78c2.43-3.71,6.25-5.41,10.78-5.2,6.57.31,9.67,5.36,6.65,11.18a34.9,34.9,0,0,1-12.88,13.77c-1.88,1.16-2.11,2.26-1.47,4.15,1.79,5.28,5.85,7.53,11.11,5.62A21.26,21.26,0,0,0,522,72.9c.65-1.51.58-3.34.89-5.37a5.17,5.17,0,0,1,1.4.94,10,10,0,0,1,1.39,8.33c-1.83,8.45-11,16.36-19.56,17-7.45.57-13.49-3.93-15.71-11.91-.61-2.16-1-3.83-3.89-4.24S482.52,74.94,483.12,71.93ZM497.36,71a28.76,28.76,0,0,0,9.49-10,16,16,0,0,0,1-3.92,28.82,28.82,0,0,0-5.11.46c-.82.21-1.55,1.23-2.09,2A21.88,21.88,0,0,0,497.36,71Z"/><path d="M123.47,166.62c1.5-4.1,2.94-7.5,4-11,2.53-8.34,4.86-16.74,7.33-25.09.88-3,2-5.84,2.86-8.8.53-1.81,1.57-3.21,3.37-2.82a5.75,5.75,0,0,1,3.65,2.59,9.3,9.3,0,0,1,.52,5.31c-2.8,15.25-7.11,30-14.33,43.83-1.52,2.9-3.23,6-7.21,5.71s-5.22-3.53-6.09-6.54c-2.32-7.92-4.27-15.94-6.38-23.91a42.32,42.32,0,0,1-1.44-5.52c-.12-1,.37-2.72,1-2.93a3.69,3.69,0,0,1,3.26.77,11.9,11.9,0,0,1,2.08,4.36c2,6.78,3.91,13.6,5.89,20.39C122.28,164,122.79,165,123.47,166.62Z"/><path d="M313.47,73.86c-4.59.56-5.87,0-7.16-3.5,1.38.2,2.55.46,3.73.52,1.67.1,2.66-.26,2.39-2.46a30.41,30.41,0,0,1,3.27-18.74c3.48-6.34,9.85-8.54,15.93-5.66,5.29,2.5,7,7.68,3.16,12A120.07,120.07,0,0,1,321.46,68.4c-1.81,1.51-1.94,2.63-1,4.51a9,9,0,0,0,8.51,5.3c5.65.05,10.64-2,15.37-4.84,2.8-1.67,5.41-3.7,8.29-5.19,1.27-.66,3-.41,4.52-.57-.31,1.5-.14,3.43-1,4.43-7.52,8.53-16.6,14.12-28.44,13.43-6-.35-10.37-3.51-13-8.93C314.24,75.65,313.86,74.74,313.47,73.86Zm5.21-8.42.9.54c3.41-3.73,6.9-7.37,10.15-11.23.81-1,1.55-3.19,1.06-3.78a5.52,5.52,0,0,0-4.17-1.8,7.09,7.09,0,0,0-4.51,2.43C319.05,55.67,318.39,60.49,318.68,65.44Z"/><path d="M131,78.87c1.58-6.6,3-13.23,4.76-19.78,1.66-6.23,3.56-12.39,5.47-18.54a27.8,27.8,0,0,1,2.3-5.21,3.78,3.78,0,0,1,4.86-2c2.12.79,2.59,2.62,2.26,4.7a12.29,12.29,0,0,1-.34,1.6q-6,20.66-11.93,41.3a34.26,34.26,0,0,1-1.74,4.86c-2.32,5-6.94,5.41-9.82.78a44.23,44.23,0,0,1-4.2-8.81c-3-8.75-5.81-17.58-8.7-26.37a31.17,31.17,0,0,1-1.61-4.61c-.16-1,.17-2.81.82-3.13a3.56,3.56,0,0,1,3.29.65,11.8,11.8,0,0,1,2.33,4.23c2.8,7.58,5.46,15.2,8.26,22.78,1,2.62,2.2,5.13,3.31,7.69Z"/><path d="M334.21,159.65c2.79,4.08,6.68,5.61,10.77,3.08,4.33-2.68,8.06-6.35,12-9.66a37.73,37.73,0,0,0,3.07-3.24l.85.32c-.23,1.79-.13,3.72-.76,5.35a24.29,24.29,0,0,1-16.36,15.17c-6.62,2-13-1.38-16.84-8a31.05,31.05,0,0,0-2.37-2.82,3.4,3.4,0,0,1-.87-1.76c0-1.62.37-3.27.19-4.86-.77-7.11-.08-14,3.1-20.46,1.71-3.47,4.25-6.1,8.21-7,4.54-1,8.8,1.48,9.75,6a17.27,17.27,0,0,1,.07,6.45C343.49,146.4,340.71,154,334.21,159.65Zm-2.54-5.06a30.88,30.88,0,0,0,8.09-19c.07-1-.88-2.82-1.64-3-1-.23-2.38.68-3.49,1.29a3.23,3.23,0,0,0-1.1,1.52A28,28,0,0,0,331.67,154.59Z"/><path d="M253.61,233.75,249,232.44l-.07-1c2-.4,4-1.13,5.93-1.13a33.41,33.41,0,0,1,22.64,8.55c4.57,4,5.64,9.52,3.27,15.15a26,26,0,0,1-15.33,14.95c-6.54,2.4-12.1-.28-14.73-6.79-2.1-5.22-1.63-10.54-.47-15.82C251.11,242.21,252.4,238.17,253.61,233.75Zm3.85,1.24v12.16c0,3.25-.36,6.56.14,9.74.71,4.57,3,5.61,6.86,3a31.47,31.47,0,0,0,7.31-7.12c3-4,2.44-7.18-1.63-10.07S261.67,237.5,257.46,235Z"/><path d="M70.36,247.72c.49-7,2.2-12.68,5.74-17.72,1.24-1.78,2.53-3.53,3.83-5.28,2.28-3.06,5.58-4.08,9.44-2.94,9.88,2.89,15.62,14.69,11.7,24.34-2.94,7.26-8.46,12-15.75,14.43-6.26,2.12-11.7-.76-13.78-7.06A42.86,42.86,0,0,1,70.36,247.72Zm16-20.59c-1.22,2.11-2.55,4.17-3.62,6.35s-2.41,4.6-2.8,7a44.33,44.33,0,0,0-.23,10.17c.14,1.87,1.72,2.51,3.71,2,5.37-1.33,10.28-6.91,10.82-12.45A13.39,13.39,0,0,0,86.35,227.13Z"/><path d="M123.63,250.49c.76-1.44,1.28-2.24,1.63-3.12,3.26-8,6.52-16,9.72-24,1.38-3.45,2.47-7,4-10.39.46-1,2-2.24,3-2.16,1.31.1,3.19,1.09,3.62,2.18a9.48,9.48,0,0,1,.56,6c-3,8.93-6.18,17.81-9.77,26.52-1.74,4.24-4.41,8.12-6.85,12-1.34,2.14-3.24,3.78-6.08,3.33s-4-2.58-4.53-4.9c-2-8.66-3.74-17.37-5.55-26.06a59.37,59.37,0,0,1-1-5.89c-.09-.77.1-2,.58-2.28a2.55,2.55,0,0,1,2.42.26,12.61,12.61,0,0,1,2.37,4.43c1.59,6.52,2.93,13.1,4.42,19.65C122.42,247.43,123,248.64,123.63,250.49Z"/><path d="M246.09,136c2.67-.17,4,1,4.1,3.94.09,3.44-.15,6.9-.09,10.35a13.16,13.16,0,0,0,3.79,9.35,5.34,5.34,0,0,0,6.92,1.14,23.83,23.83,0,0,0,11-12.36c.84-2,.55-4-1.42-5.3a105.08,105.08,0,0,0-20.55-10.71c1-.54,1.76-1.34,2.63-1.42,2.06-.2,4.32-.56,6.2.06a107.91,107.91,0,0,1,16.11,6.26c5,2.6,6.54,7.47,4.81,12.86a30.09,30.09,0,0,1-14.85,18c-5.86,3.11-11.25,2.17-15.85-2.59-6.54-6.79-6.89-14.82-4.5-23.36C244.92,140.21,245.47,138.22,246.09,136Z"/><path d="M230.37,149.4q0,12.67,0,25.34a23.12,23.12,0,0,1-.27,3.53c-.38,2.27-1.63,3.89-4,4.22a4.44,4.44,0,0,1-5.16-3.1,24.6,24.6,0,0,1-1.22-8c.43-10.16,1.16-20.31,1.8-30.46q.66-10.34,1.4-20.65a4.94,4.94,0,0,1,.56-2.61c.89-1.1,2.11-2.55,3.27-2.63a4.66,4.66,0,0,1,3.58,2.16,12.65,12.65,0,0,1,1.16,5.51c.11,8.9.05,17.8.05,26.69Z"/><path d="M334.2,255.4l3.22-.59c-.23-4.69-.94-9.27-.57-13.76a21.19,21.19,0,0,1,7.51-14.94c2.88-2.39,6.26-3.49,9.86-1.73s4.78,4.9,4.44,8.61a33.4,33.4,0,0,1-1.46,7.42A37.83,37.83,0,0,1,347.62,256c2.83,3.09,5.35,3.75,9.13,2.18a23.13,23.13,0,0,0,11.15-9.59c.56-.93,1.26-1.76,1.9-2.64l1,.38c-.53,2.66-.6,5.53-1.69,7.93a19.94,19.94,0,0,1-15.08,11.69c-4.44.85-8.27-.84-11.22-4.16a9.59,9.59,0,0,0-5.29-3.34c-1.34-.3-2.48-1.45-3.71-2.21ZM345,251.55c4.69-5.48,7.66-11.53,8.36-18.55.1-1-1-2.91-1.65-3a5.5,5.5,0,0,0-3.77,1.42C343.44,235.73,342,245.37,345,251.55Z"/><path d="M484.86,56.17l-2.19-3.52-4.18,11.57c-2.37,6.57-4.6,13.19-7.16,19.68-1.19,3-2.76,6.22-6.76,6.21S459.43,86.78,458,84A93.66,93.66,0,0,1,449.6,56.8c-.17-1,.91-2.2,1.41-3.32,1.19.6,2.66.94,3.47,1.87s.85,2.34,1.17,3.56a81.54,81.54,0,0,0,7.81,19.67c1.1-3.22,1.94-5.94,3-8.6,2.19-5.76,4.3-11.56,6.78-17.2a17.42,17.42,0,0,1,4.47-6.06,6.1,6.1,0,0,1,5.13-1.17c1.39.52,2.66,2.65,3,4.29.44,1.92-.14,4.08-.28,6.13Z"/><path d="M187.41,63.36a9.39,9.39,0,0,1,1.16,9.75,20.85,20.85,0,0,1-13,11.93c-5.58,1.82-10.41-.4-13.11-5.81a28.22,28.22,0,0,1-2-5.63c-.46-1.82-.61-3.73-.89-5.51-2.35-.48-4.58-.82-6.73-1.44-.73-.2-1.27-1.08-1.89-1.65.6-.59,1.1-1.45,1.82-1.71a14.61,14.61,0,0,1,4.49-1c2,0,2.51-.95,3-2.85a97.73,97.73,0,0,1,5-15.11c1.08-2.37,3.54-4.33,5.77-5.9a6,6,0,0,1,7.16.17,6.25,6.25,0,0,1,2.37,7c-2,7.62-6.76,13.36-12.64,18.24-1.51,1.26-2.33,2.4-1.78,4.32a56.74,56.74,0,0,0,2.14,7.26c1.34,3,3.11,3.74,6.18,2.49,5.89-2.4,10.2-6.42,12.05-12.73A18.84,18.84,0,0,1,187.41,63.36Zm-21.33-5.9.88.42c3.65-3.4,6.82-7.19,8.58-12,.34-.92-.12-2.14-.21-3.23-1,.38-2.31.5-3.07,1.19a10.77,10.77,0,0,0-2.7,3.69C168.25,50.81,167.22,54.16,166.08,57.46Z"/><path d="M282.47,77.22c1.55-5,2.74-10.16,4.74-15,2.21-5.32,5.11-10.37,7.81-15.48a11.6,11.6,0,0,1,2.31-2.66c1.38-1.35,2.9-2.86,5-1.79s2,3.34,1.57,5.31a12.58,12.58,0,0,1-1.68,4.27c-5.69,8.43-8.65,17.92-11.14,27.63a34.64,34.64,0,0,1-1.72,5.43c-2.27,5.15-7.57,5.87-10.2,1a99.5,99.5,0,0,1-7-17.29c-1.39-4.46-1.69-9.26-2.54-13.89a29.57,29.57,0,0,0-1.12-4.45c-.73-2.07.06-3.2,2.23-2.84s3.18,1.82,3.56,3.92c.84,4.72,1.46,9.52,2.73,14.13,1.14,4.13,3,8,4.6,12Z"/><path d="M300.39,159.94c2.12-7.21,4.31-14.39,6.35-21.62,1.5-5.32,2.81-10.7,4.23-16a7.39,7.39,0,0,1,1.16-3,4,4,0,0,1,2.87-1.34c.66.07,1.69,1.48,1.68,2.29a60.08,60.08,0,0,1-.72,10.57q-2.93,14.93-6.43,29.74a23.05,23.05,0,0,1-3.47,7.33c-3.33,4.94-8.88,4.56-10.9-1A113.51,113.51,0,0,1,291,150.28c-1-5.05-1.54-10.19-2.27-15.3a2.52,2.52,0,0,1,2.2-3.17c1.87-.33,3,.76,3.29,2.47.64,3.48,1,7,1.74,10.47,1.05,5.1,2.3,10.15,3.47,15.22Z"/><path d="M73.73,71.89c1-10.25,3.69-19.9,10.11-28.2A1.66,1.66,0,0,1,85,43.21c10.16-.45,20,6.89,21,15.3A18.28,18.28,0,0,1,102.15,72a31.47,31.47,0,0,1-14.8,10.71c-7.37,2.74-12.83-.82-13.61-8.67C73.67,73.35,73.73,72.62,73.73,71.89ZM89.46,47.4l-1.19.05c-1.82,5.66-3.83,11.27-5.39,17a38.44,38.44,0,0,0-1.07,9.16c0,2.6,1.07,3.37,3.45,2.59,5.14-1.66,9.58-4.39,12.45-9.15,3.13-5.19,2.58-10.14-1.74-14.36C94,50.75,91.64,49.15,89.46,47.4Z"/><path d="M310.2,261.72c1.95-7.05,4.06-14.06,5.78-21.17,1.24-5.1,2-10.33,2.93-15.5a5.08,5.08,0,0,1,.44-1.84c.51-.77,1.23-1.92,1.9-2a3.62,3.62,0,0,1,2.6,1.43,6.6,6.6,0,0,1,1,3.34,83.78,83.78,0,0,1-5.56,35,22.85,22.85,0,0,1-4.11,6.67c-3.27,3.68-8,3.55-10.66-.54a46.15,46.15,0,0,1-5.21-11c-1.82-5.59-3-11.39-4.5-17.1a10.57,10.57,0,0,0-1-3,2.16,2.16,0,0,1,.85-3.41,3.84,3.84,0,0,1,3.51.64,13.41,13.41,0,0,1,2.1,4.65c1.9,5.86,3.62,11.79,5.6,17.63a54.1,54.1,0,0,0,3,6.28Z"/><path d="M423.58,91.74c-9.89.07-16.78-8.74-14-18.29.84-2.89,2.64-5.51,4-8.24.92-1.79,1.55-3.94,3-5.22A16,16,0,0,1,423,56.27c6.89-1.74,12.48,1.25,17,6.09,4.35,4.64,5.25,10.25,2.92,16.19C440,86.05,431.63,91.69,423.58,91.74Zm.12-31.55c-1.26,2.23-2.39,4.12-3.41,6.06-1.58,3-3.51,5.93-4.53,9.14-1.18,3.71,1,7.31,4.68,8.68,4.29,1.6,8,.05,11.31-2.66s5.35-6,4.45-10.41C435.13,65.67,429.9,61.3,423.7,60.19Z"/><path d="M437.76,236l-10.1-5.92c2.83-.32,5.12-1.12,7.19-.72,9.09,1.76,15.56,7.23,18.37,15.93s-.81,16.09-7.15,22-14.13,4.63-18.25-3.17c-3.68-7-3.07-13.83,1.2-20.36a63.87,63.87,0,0,1,5.45-7.38c.57-.65,2.21-.35,3.35-.48,1.21,3.54-.07,6.41-2.15,9.25a24.16,24.16,0,0,0-3.19,6c-1.52,4.13-.43,7.85,2.44,11.09a3.35,3.35,0,0,0,4.64.64c6.42-3.69,9.07-13.71,4.89-19.8C442.63,240.43,440,238.33,437.76,236Z"/><path d="M71.28,154.24a32.68,32.68,0,0,1,8.21-18.5,3.68,3.68,0,0,1,4.86-1.05,10.15,10.15,0,0,0,2.62.52c5.91,1.18,10.79,3.95,13.31,9.64,2.42,5.48.76,10.48-2.72,15a20.94,20.94,0,0,1-11.38,7.51C77.76,169.63,71.07,164.13,71.28,154.24Zm7.1.81.75.3c-.06,3.77,1.57,5.51,4.65,5,4.35-.72,8.94-5.34,9.41-9.49.45-3.85-2.63-8.13-7.21-9.8-.61-.22-2,.08-2.16.51C81.91,146,80.17,150.55,78.38,155.05Z"/><path d="M476.65,255.45c2.59-6.76,5.14-13.54,7.8-20.27,1.71-4.3,3.48-8.58,5.45-12.76.89-1.91,2.13-4.47,4.73-3.56s1.86,3.59,1.29,5.48c-3.18,10.68-6.46,21.33-9.93,31.92a17.7,17.7,0,0,1-3.57,5.74c-2.82,3.26-6.85,3.54-9.77.37a25.85,25.85,0,0,1-5.27-8.13c-2.05-5.51-3.43-11.26-5-16.94-.45-1.64,0-3.22,1.78-3.75s3.12.59,3.65,2.37c1,3.47,1.78,7.05,3.08,10.43s3,6.26,4.59,9.38Z"/><path d="M185,143.87c3.3.32,4.25,1.76,3.25,4.83-2.68,8.21-14.87,16-23.39,14.87-4.88-.64-8.29-3.45-10.57-7.7a34.58,34.58,0,0,1-1.43-3.3c-3.59-.46-6.8-.81-10-1.34-.37-.06-.58-1.09-1.17-2.31,2.54,0,4.49.12,6.42,0,2.43-.18,4.06-.92,4.15-4.05a20.56,20.56,0,0,1,4.79-12.52,18.57,18.57,0,0,1,5.06-4.43c4.47-2.46,8.52.14,8.55,5.23,0,3.88-1.81,7-4.32,9.72a21,21,0,0,1-5.45,4.44c-2.77,1.42-2.44,3.06-1.3,5.25,2.05,3.91,5,5.46,9.19,4.4,6.55-1.67,11.17-6.23,15.65-10.9C184.89,145.57,184.82,144.6,185,143.87Zm-26.26,0c4.76-2.76,7.51-7.43,6.51-10.82C162,134.54,159.42,138.77,158.73,143.9Z"/><path d="M467.09,159.3c1.07-4.75,2-9.54,3.24-14.23,1.05-3.93,2.44-7.78,3.83-11.61a7.39,7.39,0,0,1,2.09-3.12,3.31,3.31,0,0,1,2.89-.56,3.13,3.13,0,0,1,1.34,2.62c-2,12.09-4.05,24.16-6.26,36.21-.55,3-1.67,6.12-5.42,6.24s-4.83-3-5.6-5.77c-2.28-8.3-4.28-16.68-6.47-25-.45-1.73-1.29-3.36-1.8-5.08-.24-.79-.49-2.13-.11-2.44.65-.51,2.21-.88,2.65-.48,1.55,1.39,3.34,2.93,4,4.79,1.45,4,2.25,8.22,3.35,12.34.55,2.06,1.17,4.1,1.76,6.15Z"/><path d="M231.68,246.64q0,13.77,0,27.54c0,3.15-1.05,4.85-3.28,5.15s-4.29-1.23-4.87-4.16a37.09,37.09,0,0,1-.75-7.57c.24-17.64.87-35.26,3.39-52.75a3.54,3.54,0,0,1,.26-1.33c.69-1.12,1.47-2.18,2.21-3.27,1.07,1.07,2.72,2,3.1,3.23a26.68,26.68,0,0,1,.8,7.27c.09,8.63,0,17.26,0,25.89Z"/><path d="M444.88,158.64c0,8.28-7.3,17-15.44,18.45-8.81,1.52-16.38-5.87-15.6-15.34a26.1,26.1,0,0,1,8.39-17.49c.64-.61,1.08-1.44,1.76-2s1.74-1.52,2.57-1.47,1.63,1.1,2.45,1.7,1.46,1.42,2.31,1.61C439.36,145.9,444.84,151.7,444.88,158.64Zm-7.17-.78a8.73,8.73,0,0,0-.39-2.18c-1.75-4.24-5.52-6.3-9.26-8.35a1.55,1.55,0,0,0-1.21.26c-4.3,2.77-7.72,13.13-6,18a6.72,6.72,0,0,0,8.8,4.11C433.93,168.17,437.67,162.89,437.71,157.86Z"/><path d="M49.84,246.27q0-13.76,0-27.52c0-1.17-.21-2.54.3-3.48.65-1.21,1.85-2.75,3-2.89s2.73,1,3.72,2a4.84,4.84,0,0,1,.88,3.06c.8,18.25.89,36.5-1.07,54.69a14.07,14.07,0,0,1-2.08,5.8,3.92,3.92,0,0,1-3.42,1.23c-.73-.14-1.61-1.86-1.62-2.88-.13-10-.08-20-.08-30Z"/><path d="M243.86,54.68a12.21,12.21,0,0,1,2.31-2.14A14.37,14.37,0,0,1,257,51.67c4.29,1.25,6.65,5.66,6.09,10.67-1.22,10.89-15,20.68-25.8,18.27a9.81,9.81,0,0,1-8.06-10.24c.13-9,3.89-16.49,10.58-22.47a2.2,2.2,0,0,1,3.74,1.6A8.42,8.42,0,0,1,242,53.67a28.81,28.81,0,0,0-5.53,15.15c-.2,3.65,1.21,5,4.85,4.89,6.17-.11,12.74-4.86,14.82-10.72,1.8-5.07-.1-8-5.42-8.29C248.58,54.59,246.43,54.68,243.86,54.68Z"/><path d="M389.57,171.16c2-14.75,4-29.51,6.11-44.25.29-2,1-4.11,3.7-3.77s2.9,2.47,2.76,4.55q-1.2,18.09-2.55,36.17c-.45,5.89-1.11,11.76-1.71,17.63a14.74,14.74,0,0,1-.49,2.12c-.48,1.85-1.49,3.17-3.58,3.07s-3-1.55-3.16-3.45c-.27-4-.4-8-.59-12Z"/><path d="M46.71,159.83q1.23-21.33,2.46-42.66c.12-2.1.55-4.08,3.18-4.3,2.14-.18,3.73,1.45,3.7,4.41-.07,6.89-.33,13.77-.66,20.65-.6,12.78-1.3,25.55-2,38.33A9.46,9.46,0,0,1,52.9,180c-.58,1.11-1.95,2.69-2.79,2.59a4.5,4.5,0,0,1-3-2.67,24,24,0,0,1-.58-6.48c-.07-4.53,0-9.07,0-13.6Z"/><path d="M393.66,96c-1.31.89-2.63,2.51-3.91,2.47-1.54,0-3.84-1.14-4.39-2.4a26.65,26.65,0,0,1-2.64-9.82,136.1,136.1,0,0,1,6.74-45,6.5,6.5,0,0,0,.66-2.86c-.34-1.85.38-3.12,2-3.08a5,5,0,0,1,3.73,1.81,7.73,7.73,0,0,1,.47,4.7c-1.35,8.5-3.14,16.94-4.23,25.47-1,7.91-1.38,15.9-1.91,23.86-.13,2.06,0,4.3,3.35,4Z"/><path d="M410.24,272.78l2.74-1.54c-.27,2.11-.14,3.82-.76,5.19s-1.86,3.05-3,3.24c-1.38.21-3.79-.67-4.33-1.77-1.31-2.69-2.58-5.81-2.46-8.7.42-10,1.31-19.91,2.29-29.84.5-5.05,1.59-10,2.4-15.05a5.64,5.64,0,0,0,.19-2.13c-.57-2.13.46-3.13,2.31-3.52a3.06,3.06,0,0,1,4,2.38,16,16,0,0,1,.28,4.84c-1.15,14.56-2.38,29.12-3.57,43.69C410.17,270.55,410.24,271.55,410.24,272.78Z"/><path d="M60.49,49.44q-1.87,19-3.77,38A6.63,6.63,0,0,1,56,90.53c-.72,1-2,2.14-3,2.07A3.57,3.57,0,0,1,50.59,90c-.13-4.35,0-8.71.3-13.06.81-13.87,1.7-27.74,2.56-41.61,0-.81-.06-1.82.36-2.37.75-1,1.86-2.28,2.83-2.29s2.38,1.16,2.91,2.17a9.18,9.18,0,0,1,.5,4c.06,4.18,0,8.36,0,12.54Z"/><path d="M222.8,67.05c0,5.27,0,10.54,0,15.81a19.74,19.74,0,0,1-.55,4.32c-.42,1.77-1.35,3.27-3.43,3.31a3.42,3.42,0,0,1-3.56-3.13,28.49,28.49,0,0,1-.7-6.74c.57-10.15,1.35-20.3,2-30.45.17-2.63.09-5.27.27-7.9.05-.81.44-2.18.87-2.26.83-.16,2.3.16,2.62.75,1.09,2,2.42,4.23,2.53,6.42.32,6.61.11,13.25.11,19.87Z"/><path class="cls-1" d="M520.14,234c.66,5.6-4.07,12.87-9.46,14.57C509.81,242.63,514.75,235,520.14,234Z"/><path class="cls-1" d="M501.08,154.84c-.29-5.94.53-11.55,4.33-16.22.77-1,2.34-1.25,3.53-1.85.21,1.27.83,2.64.54,3.79C508.1,146.1,505,150.71,501.08,154.84Z"/><path class="cls-1" d="M166.36,224.1c2.06,5.9-3.74,15.47-11.41,19.09C153,237.24,159.87,225.57,166.36,224.1Z"/><path class="cls-1" d="M497.36,71a21.88,21.88,0,0,1,3.31-11.42c.54-.81,1.27-1.83,2.09-2a28.82,28.82,0,0,1,5.11-.46,16,16,0,0,1-1,3.92A28.76,28.76,0,0,1,497.36,71Z"/><path class="cls-1" d="M318.68,65.44c-.29-4.95.37-9.77,3.43-13.84a7.09,7.09,0,0,1,4.51-2.43,5.52,5.52,0,0,1,4.17,1.8c.49.59-.25,2.82-1.06,3.78-3.25,3.86-6.74,7.5-10.15,11.23Z"/><path class="cls-1" d="M331.67,154.59a28,28,0,0,1,1.86-19.18,3.23,3.23,0,0,1,1.1-1.52c1.11-.61,2.46-1.52,3.49-1.29.76.17,1.71,2,1.64,3A30.88,30.88,0,0,1,331.67,154.59Z"/><path class="cls-1" d="M257.46,235c4.21,2.51,8.65,4.81,12.68,7.67s4.59,6.05,1.63,10.07a31.47,31.47,0,0,1-7.31,7.12c-3.83,2.65-6.15,1.61-6.86-3-.5-3.18-.13-6.49-.14-9.74Z"/><path class="cls-1" d="M86.35,227.13a13.39,13.39,0,0,1,7.88,13.13c-.54,5.54-5.45,11.12-10.82,12.45-2,.49-3.57-.15-3.71-2a44.33,44.33,0,0,1,.23-10.17c.39-2.44,1.7-4.77,2.8-7S85.13,229.24,86.35,227.13Z"/><path class="cls-1" d="M345,251.55c-3-6.18-1.59-15.82,2.94-20.1a5.5,5.5,0,0,1,3.77-1.42c.66.06,1.75,2,1.65,3C352.69,240,349.72,246.07,345,251.55Z"/><path class="cls-1" d="M166.08,57.46c1.14-3.3,2.17-6.65,3.48-9.88a10.77,10.77,0,0,1,2.7-3.69c.76-.69,2-.81,3.07-1.19.09,1.09.55,2.31.21,3.23-1.76,4.76-4.93,8.55-8.58,12Z"/><path class="cls-1" d="M89.46,47.4C91.64,49.15,94,50.75,96,52.7c4.32,4.22,4.87,9.17,1.74,14.36-2.87,4.76-7.31,7.49-12.45,9.15-2.38.78-3.5,0-3.45-2.59a38.44,38.44,0,0,1,1.07-9.16c1.56-5.74,3.57-11.35,5.39-17Z"/><path class="cls-1" d="M423.7,60.19c6.2,1.11,11.43,5.48,12.5,10.81.9,4.46-1.23,7.74-4.45,10.41s-7,4.26-11.31,2.66c-3.68-1.37-5.86-5-4.68-8.68,1-3.21,2.95-6.13,4.53-9.14C421.31,64.31,422.44,62.42,423.7,60.19Z"/><path class="cls-1" d="M437.76,236c2.26,2.35,4.87,4.45,6.69,7.1,4.18,6.09,1.53,16.11-4.89,19.8a3.35,3.35,0,0,1-4.64-.64c-2.87-3.24-4-7-2.44-11.09a24.16,24.16,0,0,1,3.19-6c2.08-2.84,3.36-5.71,2.15-9.25C437.82,235.92,437.76,236,437.76,236Z"/><path class="cls-1" d="M78.38,155.05c1.79-4.5,3.53-9,5.44-13.47.18-.43,1.55-.73,2.16-.51,4.58,1.67,7.66,6,7.21,9.8-.47,4.15-5.06,8.77-9.41,9.49-3.08.5-4.71-1.24-4.65-5Z"/><path class="cls-1" d="M158.73,143.9c.69-5.13,3.28-9.36,6.51-10.82C166.24,136.47,163.49,141.14,158.73,143.9Z"/><path class="cls-1" d="M437.71,157.86c0,5-3.78,10.31-8,11.82a6.72,6.72,0,0,1-8.8-4.11c-1.75-4.85,1.67-15.21,6-18a1.55,1.55,0,0,1,1.21-.26c3.74,2,7.51,4.11,9.26,8.35A8.73,8.73,0,0,1,437.71,157.86Z"/></g></g></svg>