<svg xmlns="http://www.w3.org/2000/svg" viewBox="0 0 275.62 15.67"><defs><style>.cls-1{fill:#f2d4d7;opacity:0.11;}</style></defs><g id="Layer_2" data-name="Layer 2"><g id="Layer_1-2" data-name="Layer 1"><path class="cls-1" d="M9.47,8.21c43.75.29,87.49.17,131.24.17h131.5a1.79,1.79,0,0,0-.84-1q-1.86-1.46-3.8-2.84c-1.27-.94-2.57-1.84-3.88-2.72a1.78,1.78,0,0,0-1.19-.49H131C87.47,1.35,43.92,1.92.42.54a1.7,1.7,0,0,0,.76,1Q2.91,3.16,4.7,4.66t3.63,3A1.74,1.74,0,0,0,9.47,8.21Z"/><path class="cls-1" d="M10.65,10.26c87.6.49,175.2.14,262.8.14a2,2,0,0,0-.86-1.09q-1.9-1.7-3.88-3.31t-4-3.18a1.91,1.91,0,0,0-1.23-.63H132c-43.52,0-87.07.61-130.57-.78a2,2,0,0,0,.76,1.15C3.36,3.77,4.55,5,5.78,6.11s2.44,2.32,3.7,3.44A2,2,0,0,0,10.65,10.26Z"/><path class="cls-1" d="M12.6,9.94q18.28-1,36.6-.7H274.62c1,0-.38-1.37-.85-1.37H29.58l-17.37,1C11.46,9,12.1,10,12.6,9.94Z"/><path class="cls-1" d="M11.69,15.12C55.43,14.68,99.18,15,142.92,15h131.5c.67,0-1.32-2.89-2-2.89H84.53c-24.84,0-49.67-.14-74.51.31C9.26,12.39,11.07,15.13,11.69,15.12Z"/><path class="cls-1" d="M10,10.76c87.58.38,175.17.12,262.76.12a2.47,2.47,0,0,0-.92-1.27c-1.38-1.36-2.77-2.7-4.2-4S264.76,3,263.3,1.7A2.54,2.54,0,0,0,262,.87H130.47C87,.87,43.53,1.51.09,0A2.5,2.5,0,0,0,.91,1.33q1.88,2.19,3.84,4.3t4,4.2A2.46,2.46,0,0,0,10,10.76Z"/><path class="cls-1" d="M9.82,9c87.58.49,175.16.15,262.74.15A2.08,2.08,0,0,0,271.64,8q-2-1.68-4.12-3.28t-4.21-3.15A2.07,2.07,0,0,0,262,1H130.52C87,1,43.48,1.57,0,.12A2,2,0,0,0,.83,1.26c1.25,1.22,2.53,2.4,3.83,3.56S7.25,7.14,8.59,8.25A2,2,0,0,0,9.82,9Z"/><path class="cls-1" d="M10.61,12.6q131.34,0,262.68,0a.92.92,0,0,0-.39-.81c-.71-.8-1.45-1.57-2.21-2.32-.59-.58-2.1-2.59-3.14-2.59H79.69C54.94,6.9,30.21,7,5.47,6.38a1,1,0,0,0,.31.84c.63.86,1.28,1.69,2,2.51C8.19,10.26,9.65,12.6,10.61,12.6Z"/><path class="cls-1" d="M12.82,10.75c43.69-.54,87.39-.22,131.07-.22h131.5c.67,0-.32-.89-.31-.88-.42-.4-1.29-1.17-1.93-1.17H85.3c-24.77,0-49.53-.18-74.29.36-.59,0,.14.79.19.84C11.54,10,12.28,10.75,12.82,10.75Z"/><path class="cls-1" d="M10.8,12.61c87.58.29,175.16.08,262.73.08a1.83,1.83,0,0,0-.7-1.11q-1.66-1.78-3.4-3.48c-1.14-1.15-2.31-2.28-3.51-3.37a1.87,1.87,0,0,0-1.13-.7H39.36Q21.15,4.07,3,3.28a1.85,1.85,0,0,0,.6,1.17c1,1.27,2,2.52,3,3.74s2.08,2.45,3.16,3.63A1.8,1.8,0,0,0,10.8,12.61Z"/><path class="cls-1" d="M9.7,9.78c87.58.45,175.17.14,262.75.14a2.27,2.27,0,0,0-.91-1.17c-1.34-1.24-2.71-2.46-4.1-3.64s-2.78-2.37-4.21-3.52a2.26,2.26,0,0,0-1.29-.72H130.44C87,.87,43.46,1.49,0,0a2.29,2.29,0,0,0,.8,1.24C2,2.57,3.3,3.87,4.59,5.16S7.15,7.72,8.47,9A2.2,2.2,0,0,0,9.7,9.78Z"/><path class="cls-1" d="M11.21,11.77c87.58.31,175.16.09,262.73.09a1.59,1.59,0,0,0-.69-1c-1.08-1-2.18-2.06-3.31-3s-2.25-2-3.41-2.92a1.65,1.65,0,0,0-1.09-.57H40q-18.27,0-36.52-.72a1.61,1.61,0,0,0,.59,1.06c1,1.12,2,2.21,3,3.28s2,2.14,3.11,3.17A1.58,1.58,0,0,0,11.21,11.77Z"/><path class="cls-1" d="M12.31,15.67c43.77-.35,87.56-.14,131.34-.14h131.5c.7,0-1.23-2.87-1.91-2.87H141.74c-43.71,0-87.44-.41-131.14.25C9.85,12.92,11.68,15.67,12.31,15.67Z"/></g></g></svg>