<svg xmlns="http://www.w3.org/2000/svg" data-name="Post Card" viewBox="0 0 100 125" x="0px" y="0px"><title>100 ICons</title><path d="M94.38,20.82H5.29a2,2,0,0,0-2,2V78.45a2,2,0,0,0,2,2H94.38a2,2,0,0,0,2-2V22.82A2,2,0,0,0,94.38,20.82Zm-2,55.63H7.29V24.82H92.38V76.45Z"/><path d="M49.83,74.52a2,2,0,0,0,2-2V28.74a2,2,0,0,0-4,0V72.52A2,2,0,0,0,49.83,74.52Z"/><rect x="79.63" y="28.74" width="10.26" height="10.26" rx="1" ry="1"/><path d="M59.38,48.87H88.75a2,2,0,0,0,0-4H59.38A2,2,0,0,0,59.38,48.87Z"/><path d="M59.38,58.87H88.75a2,2,0,0,0,0-4H59.38A2,2,0,0,0,59.38,58.87Z"/><path d="M59.38,67.87H88.75a2,2,0,0,0,0-4H59.38A2,2,0,0,0,59.38,67.87Z"/><path d="M25.73,65.25a2,2,0,0,0,2.21,0c0.51-.34,12.45-8.39,12.45-17.44,0-4.91-3.49-8.9-7.78-8.9a7.37,7.37,0,0,0-5.78,2.95,7.37,7.37,0,0,0-5.78-2.95c-4.29,0-7.78,4-7.78,8.9C13.28,56.87,25.22,64.91,25.73,65.25ZM21.05,42.91c2.08,0,3.78,2.2,3.78,4.9a2,2,0,0,0,4,0c0-2.7,1.7-4.9,3.78-4.9s3.78,2.2,3.78,4.9c0,5.12-6.13,10.77-9.56,13.33-3.43-2.56-9.56-8.19-9.56-13.33C17.28,45.1,19,42.91,21.05,42.91Z"/></svg>
