<svg xmlns="http://www.w3.org/2000/svg" data-name="Layer 1" viewBox="0 0 100 125">
  <path d="M58 71H42a1 1 0 010-2h16a1 1 0 010 2zM29.5 80a8.5 8.5 0 118.5-8.5 8.51 8.51 0 01-8.5 8.5zm0-15a6.5 6.5 0 106.5 6.5 6.51 6.51 0 00-6.5-6.5z"/>
  <path d="M18 71h-.14a1 1 0 01-.86-1.14 12.92 12.92 0 0112.69-11.38A13.6 13.6 0 0143 69.86a1 1 0 11-2 .28 11.56 11.56 0 00-11.32-9.67A10.93 10.93 0 0019 70.14a1 1 0 01-1 .86zM58 71h-.14a1 1 0 01-.86-1.14 13.18 13.18 0 0112.88-11.38A13.48 13.48 0 0183 69.86a1 1 0 01-2 .28 11.45 11.45 0 00-11.13-9.67A11.17 11.17 0 0059 70.14a1 1 0 01-1 .86z"/>
  <path d="M69.5 80a8.5 8.5 0 118.5-8.5 8.51 8.51 0 01-8.5 8.5zm0-15a6.5 6.5 0 106.5 6.5 6.51 6.51 0 00-6.5-6.5zM87 47H69a1 1 0 010-2h18a1 1 0 010 2zM14 71h-3a1 1 0 010-2h3a1 1 0 010 2zM92 56h-5a1 1 0 010-2h5a1 1 0 010 2zM91 65h-7a1 1 0 010-2h7a1 1 0 010 2zM92 60h-7a1 1 0 010-2h7a1 1 0 010 2zM29.5 75a3.5 3.5 0 113.5-3.5 3.5 3.5 0 01-3.5 3.5zm0-5a1.5 1.5 0 101.5 1.5 1.5 1.5 0 00-1.5-1.5z"/>
  <path d="M69.5 75a3.5 3.5 0 113.5-3.5 3.5 3.5 0 01-3.5 3.5zm0-5a1.5 1.5 0 101.5 1.5 1.5 1.5 0 00-1.5-1.5zM28 39H5a1 1 0 010-2h23a1 1 0 010 2zM27 46H8a1 1 0 010-2h19a1 1 0 010 2zM26 53H12a1 1 0 010-2h14a1 1 0 010 2zM64.72 61.63a1 1 0 01-.26 0 1 1 0 01-.7-1.23L72 29.74a1 1 0 111.93.52l-8.25 30.63a1 1 0 01-.96.74zM76 52h-4a1 1 0 010-2h4a1 1 0 010 2zM58 53H33.5a1 1 0 01-1-1.19l2.71-14a1 1 0 011-.81h24.64a1 1 0 011 1.2L59 52.2a1 1 0 01-1 .8zm-23.29-2h22.47l2.44-12H37z"/>
  <path d="M46.52 47.93a1 1 0 01-.68-.26l-10.08-9.28 1.35-1.47 9.53 8.76 13.83-8.54 1.05 1.7L47 47.78a1 1 0 01-.48.15z"/>
  <path d="M33.08445317 50.65335789l9.2884203-7.43876659 1.25021287 1.56107904-9.2884203 7.4387666zM50.26217218 44.67873574l1.47361101-1.35220952 6.82865808 7.44173561-1.47361102 1.35220952zM91 80H11a1 1 0 010-2h80a1 1 0 010 2zM18.96 41h-2.02l-.72 5h2.03l.71-5zM17.25 53l.71-5h-2.02l-.72 5h2.03zM18 69h-3l2-14h-2l-2.18 14.86a1 1 0 001 1.14H18a1 1 0 000-2z"/>
  <path d="M94.34 49.15l-5.95-3.78-3.9-15.61a1 1 0 00-1-.76h-64a1 1 0 00-1 .86L17.22 39h2l1.14-8h62.38l3.81 15.24a1 1 0 00.43.6l5.72 3.64L89.54 69H82a1 1 0 000 2h8.38a1 1 0 001-.83l3.43-20a1 1 0 00-.47-1.02z"/>
</svg>
