<svg xmlns="http://www.w3.org/2000/svg" viewBox="0 0 100 125">
  <path d="M50 6C25.72316 6 6 25.72314 6 50c0 24.2768 19.72316 44 44 44s44-19.7232 44-44C94 25.72314 74.27684 6 50 6zm0 4c22.115078 0 40 17.8849 40 40S72.115078 90 50 90c-22.115079 0-40-17.8849-40-40s17.884921-40 40-40zM36 30c-3.290019 0-6 2.70999-6 6-.01499 1.056652.94324 2.028568 2 2.028568 1.05676 0 2.014988-.971916 2-2.028568 0-1.12826.871741-2 2-2 1.12826 0 2 .87174 2 2-.01499 1.056652.94324 2.028568 2 2.028568 1.05676 0 2.014988-.971916 2-2.028568 0-3.29001-2.70998-6-6-6zm28 0c-3.290018 0-6 2.70998-6 6-.01496 1.056634.943259 2.028512 2 2.028512 1.056741 0 2.014958-.971878 2-2.028512 0-1.12826.871743-2 2-2 1.128258 0 2 .87174 2 2-.01496 1.056634.943259 2.028512 2 2.028512 1.056741 0 2.014958-.971878 2-2.028512 0-3.29002-2.709982-6-6-6zM23.8125 53c-1.015201.09435-1.864561 1.075504-1.8125 2.09375.405244 8.4757 3.302876 15.4966 8.21875 20.375C35.134624 80.34705 42.010891 83 50 83c7.98911 0 14.865376-2.65295 19.78125-7.53125 4.915874-4.8784 7.813505-11.8993 8.21875-20.375.050473-1.077979-.92084-2.094823-2-2.09375H23.8125zm2.4375 4h47.5c-.706879 6.6444-3.06334 11.9355-6.78125 15.625C62.855198 76.7071 57.120628 79 50 79s-12.855198-2.2929-16.96875-6.375C29.31334 68.9355 26.956878 63.6444 26.25 57z" color="#000" overflow="visible" style="text-indent:0;text-transform:none;block-progression:tb"/>
</svg>
