<svg xmlns="http://www.w3.org/2000/svg" xmlns:xlink="http://www.w3.org/1999/xlink" version="1.1" x="0px" y="0px" viewBox="0 0 520 650" style="enable-background:new 0 0 520 520;" xml:space="preserve"><g><g><g><path d="M89.682,468.84c-12.117,0-23.509-4.718-32.076-13.283c-12.7-12.699-16.709-31.725-10.214-48.468l88.342-227.77     c1.298-3.346,4.918-5.167,8.378-4.219c3.462,0.95,5.644,4.364,5.052,7.904c-1.658,9.922,22.263,55.446,73.905,107.088     c48.262,48.262,92.694,73.966,106.212,73.966c0.427,0,0.712-0.032,0.876-0.06c3.538-0.593,6.955,1.591,7.904,5.053     c0.949,3.461-0.873,7.08-4.22,8.378l-227.77,88.342C100.82,467.808,95.306,468.84,89.682,468.84z M140.929,204.639     L60.444,412.151c-4.49,11.575-1.718,24.727,7.061,33.505c5.922,5.922,13.799,9.184,22.177,9.184     c3.886,0,7.697-0.714,11.329-2.122l207.5-80.479c-25.285-11.456-61.844-38.751-95.34-72.246     c-22.721-22.722-43.28-47.561-57.89-69.943C150.26,222.358,144.872,213.317,140.929,204.639z"/></g><g><path d="M329.288,378.063c-21.69,0-71.611-33.563-116.119-78.072c-24.95-24.95-46.813-51.84-61.561-75.717     c-6.906-11.181-11.724-20.867-14.32-28.791c-1.247-3.806-5.042-15.389,1.634-22.064c2.539-2.539,6.056-3.826,10.453-3.826     c21.691,0,71.611,33.564,116.12,78.073c24.949,24.95,46.812,51.839,61.56,75.716c6.906,11.181,11.724,20.867,14.32,28.791     c1.247,3.806,5.041,15.389-1.634,22.064C337.202,376.776,333.686,378.063,329.288,378.063z M149.076,183.599     c-0.153,3.412,2.457,14.678,16.689,36.885c14.162,22.097,34.513,46.817,57.304,69.608c48.264,48.266,92.7,73.972,106.219,73.972     c0.109,0,0.21-0.002,0.301-0.005c0.153-3.412-2.456-14.679-16.688-36.885c-14.163-22.098-34.514-46.817-57.304-69.608     c-48.265-48.266-92.7-73.973-106.22-73.973C149.267,183.593,149.167,183.595,149.076,183.599z"/></g><g><path d="M267.971,400.684c-0.925,0-1.865-0.185-2.77-0.575c-24.547-10.592-58.032-35.407-87.387-64.76     c-29.354-29.356-54.169-62.841-64.761-87.387c-1.532-3.55,0.104-7.669,3.654-9.201c3.55-1.531,7.669,0.104,9.201,3.654     c7.788,18.049,28.114,49.341,61.806,83.035c33.692,33.689,64.984,54.017,83.034,61.806c3.55,1.531,5.186,5.65,3.653,9.2     C273.26,399.101,270.681,400.684,267.971,400.684z"/></g><g><path d="M193.37,234.867c-1.768,0-3.536-0.665-4.898-2c-2.762-2.705-2.808-7.137-0.102-9.899     c33.675-34.377,46.737-76.982,51.765-106.67c5.503-32.495,2.875-57.114,2.848-57.359c-0.426-3.84,2.339-7.303,6.179-7.732     c3.84-0.427,7.301,2.331,7.734,6.17c0.12,1.064,2.872,26.471-2.881,60.807c-5.328,31.796-19.305,77.486-55.644,114.582     C197,234.165,195.185,234.867,193.37,234.867z"/></g><g><path d="M228.729,256.08c-1.985,0-3.957-0.839-5.342-2.472c-2.501-2.949-2.138-7.366,0.811-9.866     c53.404-45.293,68.37-95.105,68.516-95.603c1.078-3.708,4.956-5.849,8.668-4.773c3.71,1.073,5.851,4.943,4.783,8.654     c-0.631,2.19-16.09,54.207-72.911,102.398C231.938,255.535,230.329,256.08,228.729,256.08z"/></g><g><path d="M285.294,326.791c-1.815,0-3.63-0.702-5.001-2.102c-2.705-2.762-2.659-7.193,0.103-9.899     c37.096-36.338,82.785-50.315,114.581-55.643c34.335-5.753,59.742-3,60.808-2.881c3.841,0.433,6.604,3.898,6.172,7.74     c-0.434,3.841-3.91,6.608-7.739,6.172c-0.474-0.052-25.012-2.628-57.354,2.849c-29.688,5.027-72.293,18.089-106.67,51.765     C288.83,326.126,287.062,326.791,285.294,326.791z"/></g><g><path d="M264.077,291.436c-1.6,0-3.208-0.546-4.524-1.661c-2.948-2.501-3.312-6.918-0.811-9.866     c48.191-56.823,100.208-72.28,102.398-72.91c3.72-1.072,7.595,1.077,8.663,4.792c1.067,3.712-1.073,7.586-4.782,8.659l0,0     c-0.497,0.145-50.31,15.109-95.602,68.514C268.035,290.596,266.063,291.436,264.077,291.436z"/></g><path d="M455,78.161L455,78.161c5.522,0,10,4.477,10,10l0,0c0,5.523-4.478,10-10,10l0,0c-5.522,0-10-4.477-10-10    l0,0C445,82.638,449.478,78.161,455,78.161z"/><path d="M305,58.161L305,58.161c5.522,0,10,4.477,10,10l0,0c0,5.523-4.478,10-10,10l0,0c-5.522,0-10-4.477-10-10    l0,0C295,62.638,299.478,58.161,305,58.161z"/><path d="M375,358.161L375,358.161c5.522,0,10,4.478,10,10l0,0c0,5.522-4.478,10-10,10l0,0    c-5.522,0-10-4.478-10-10l0,0C365,362.639,369.478,358.161,375,358.161z"/><path d="M305,428.161L305,428.161c5.522,0,10,4.478,10,10l0,0c0,5.521-4.478,10-10,10l0,0    c-5.522,0-10-4.479-10-10l0,0C295,432.639,299.478,428.161,305,428.161z"/><path d="M115,58.161L115,58.161c5.523,0,10,4.477,10,10l0,0c0,5.523-4.477,10-10,10l0,0c-5.523,0-10-4.477-10-10    l0,0C105,62.638,109.477,58.161,115,58.161z"/><rect x="59.144" y="194.02" transform="matrix(0.7071 -0.7071 0.7071 0.7071 -124.0121 108.6483)" width="20" height="20"/><rect x="329.148" y="104.023" transform="matrix(0.7071 -0.7071 0.7071 0.7071 18.7104 273.2159)" width="20" height="20"/><rect x="450.859" y="174.009" transform="matrix(0.7071 -0.7071 0.7071 0.7071 4.8649 379.7636)" width="20" height="20"/><rect x="410.864" y="314.018" transform="matrix(0.7071 -0.7071 0.7071 0.7071 -105.847 392.4978)" width="19.999" height="19.999"/><rect x="170.86" y="102.303" transform="matrix(0.7071 -0.7071 0.7071 0.7071 -26.4374 160.7799)" width="20" height="20"/><g><path d="M430,445.161c-12.131,0-22-9.869-22-22s9.869-22,22-22s22,9.869,22,22S442.131,445.161,430,445.161z M430,415.161     c-4.411,0-8,3.589-8,8s3.589,8,8,8s8-3.589,8-8S434.411,415.161,430,415.161z"/></g><g><path d="M65,155.161c-14.888,0-27-12.112-27-27s12.112-27,27-27s27,12.112,27,27S79.888,155.161,65,155.161z M65,115.161     c-7.168,0-13,5.832-13,13s5.832,13,13,13s13-5.832,13-13S72.168,115.161,65,115.161z"/></g><g><path d="M414.993,181.162c-1.226,0-2.467-0.322-3.595-0.999l-27.427-16.458c-3.683-2.208-5.971-6.25-5.971-10.545     c0-4.295,2.288-8.335,5.971-10.545l22.944-13.767l-17.997-13.497c-3.08-2.312-4.919-5.99-4.919-9.839     c0-4.766,2.606-8.981,6.801-11.077l14.531-7.267c1.646-0.823,2.668-2.477,2.668-4.315v-4.692c0-3.866,3.134-7,7-7s7,3.134,7,7     v4.692c0,7.176-3.987,13.627-10.406,16.837l-12.133,6.067l17.62,13.213c3.081,2.313,4.919,5.991,4.919,9.839v0.351     c0,4.296-2.288,8.337-5.972,10.546l-22.421,13.453l24.994,14.999c3.315,1.989,4.39,6.289,2.4,9.604     C419.689,179.95,417.371,181.162,414.993,181.162z"/></g></g></g><text x="0" y="535" fill="#000000" font-size="5px" font-weight="bold" font-family="'Helvetica Neue', Helvetica, Arial-Unicode, Arial, Sans-serif">Created by Flatart</text><text x="0" y="540" fill="#000000" font-size="5px" font-weight="bold" font-family="'Helvetica Neue', Helvetica, Arial-Unicode, Arial, Sans-serif">from the Noun Project</text></svg>