<svg xmlns="http://www.w3.org/2000/svg" xmlns:xlink="http://www.w3.org/1999/xlink" viewBox="121.56966069 77.34699698 88.43033931 72.65300302">
  <defs>
    <path id="a1" d="M152.9 142.32l31.32-7.67-16.06-21.52-16.06-21.52-15.27 29.2L121.57 150l31.33-7.68z"/>
    <path id="b1" d="M173.25 77.35c.2.65.36 1.23.48 1.73s.26 1.07.43 1.73c.1.75.18 1.32.22 1.71.07.74.1 1.51.06 2.29.01.7-.02 1.4-.08 2.1-.06.71-.16 1.42-.29 2.13-.14.67-.29 1.32-.46 1.94-.16.62-.34 1.23-.54 1.81-.16.49-.35.99-.58 1.49-.24.5-.51 1.01-.83 1.52-.27.42-.54.81-.81 1.16-.28.36-.55.69-.82.98-.31.34-.67.67-1.08.99-.41.32-.87.63-1.38.94l-2.97 1.48"/>
    <path id="c1" d="M160.77 85.96l-.64-.09-.17-.03-.13-.02-.12-.03-.25-.08-.15-.06-.11-.05-.25-.13-.11-.08-.09-.08-.44-.42-.09-.12-.08-.11-.08-.13-.05-.09-.09-.22-.04-.27-.02-.28.01-.58.02-.15.02-.15.05-.24.05-.15.18-.5.15-.33.16-.27.09-.12.08-.12.13-.15.24-.2.28-.17.41-.18.27-.05.16-.04.21-.03.18-.02.24-.01.27.01.25.04.26.05.14.04.03.01.09.04.17.09.14.09.15.1.13.11.26.24.13.15.22.25.11.14.1.18.14.29.09.24.08.25.07.35c.02.19.05.38.08.54.03.24.02.42.04.64.04.38.03.75 0 1.11-.04.44-.09.85-.14 1.24-.05.39-.12.74-.21 1.04l-.27.72-.3.75-.28.55-.29.52-.65.87-.82.87-1.14 1.02"/>
    <path id="d1" d="M171.42 110.71c.75-.74 1.42-1.37 2.01-1.89.59-.52 1.27-1.13 2.04-1.83.94-.67 1.66-1.18 2.16-1.51.96-.63 1.98-1.2 3.06-1.69.94-.51 1.91-.96 2.91-1.37 1-.4 2.03-.76 3.09-1.07 1-.27 1.98-.51 2.94-.71.96-.2 1.91-.37 2.83-.49.78-.13 1.59-.2 2.43-.22.85-.02 1.72.02 2.64.11.75.1 1.47.21 2.15.35.67.14 1.3.3 1.89.49.68.2 1.38.48 2.1.84.72.36 1.47.79 2.23 1.31l4.1 3.2"/>
    <path id="e1" d="M185.61 86.58l-.37.32c-.15.14-.29.23-.42.27-.21.05-.45.08-.69.07-.25-.01-.51-.05-.79-.12l-.25-.14-.2-.12-.19-.12-.37-.27-.22-.19-.15-.13-.35-.35-.14-.19-.12-.17-.53-.91-.09-.22-.09-.23-.08-.24-.03-.16-.05-.39.05-.44.09-.43.27-.87.09-.22.11-.21.19-.33.14-.2.51-.64.4-.4.37-.32.19-.12.2-.14.27-.15.48-.15.53-.08.75-.03.46.08.28.04.35.09.3.07.41.14.42.18.4.2.4.24.22.15.04.02.13.12.23.24.2.22.19.24.16.26.32.51.15.31.25.51.11.27.08.33.12.52.03.42.02.43-.04.58c-.05.3-.08.59-.11.86-.04.38-.14.65-.21 1-.11.59-.28 1.14-.49 1.66-.26.64-.52 1.24-.77 1.8-.25.55-.52 1.03-.8 1.43l-.75.93-.83.94-.7.66-.7.62-1.43.91-1.72.82-2.3.84"/>
    <path id="g1" d="M150.41 80.92l1.9-2"/>
    <path id="h1" d="M152.37 84.46l-1.94-1.95"/>
    <path id="i1" d="M146.99 84.53l1.9-2.01"/>
    <path id="j1" d="M146.93 78.98l1.94 1.96"/>
    <path id="k1" d="M197.86 110.48l-.68-.44-.56-.3-.68-.33-.81-.28-.8-.27-.78-.16-.92-.1-.54-.04-.66.06-.98.13-.49.15-.49.14-.91.52-.72.72-.57.75-1.21 1.85-.6 1.12-.39 1.07-.08.79.02.61.04.21.03.18.04.17.1.33.08.2.06.14.16.33.1.15.09.12.51.6.13.12.14.11.14.12.1.05.26.13.31.06.32.03.66.01.17-.02.17-.03.27-.06.17-.06.56-.23.36-.2.3-.19.13-.12.14-.11.16-.16.21-.32.18-.37.19-.54.05-.35.03-.22.02-.27.02-.24v-.32l-.03-.36-.05-.33-.07-.35-.05-.19-.01-.04-.05-.12-.11-.22-.11-.19-.12-.2-.14-.18-.28-.34-.18-.19-.3-.3-.16-.14-.21-.14-.33-.2-.28-.12-.29-.11-.4-.1c-.22-.04-.43-.07-.62-.11-.27-.06-.48-.05-.73-.08-.44-.05-.85-.06-1.26-.02-.5.04-.97.09-1.41.15-.44.06-.83.14-1.17.26l-.8.33-.84.39-.6.36-.59.38-.95.83-.95 1.07-1.1 1.49"/>
    <path id="l1" d="M195.86 129.07l-.49.04c-.2.01-.36.05-.47.11-.2.12-.38.27-.55.46-.17.18-.32.4-.47.65l-.08.28-.07.23-.05.23-.08.45-.03.3-.01.2-.01.5.03.24.04.2.24 1.03.09.23.09.23.11.22.09.14.23.32.34.27.35.23.79.43.21.09.22.07.37.09.24.05.8.08h.55l.48-.05.22-.05.24-.05.29-.08.44-.25.44-.32.55-.53.27-.38.17-.24.19-.31.16-.27.2-.4.18-.43.14-.44.12-.46.05-.26.01-.05.02-.17v-.34l-.02-.3-.03-.31-.05-.3-.13-.59-.11-.34-.17-.54-.1-.27-.17-.3-.28-.45-.26-.32-.28-.32-.42-.37c-.24-.19-.47-.37-.68-.54-.28-.23-.54-.36-.82-.55-.49-.34-.98-.62-1.49-.82-.62-.27-1.22-.51-1.78-.72-.56-.22-1.07-.36-1.55-.44l-1.16-.11-1.24-.08-.94.05-.92.07-1.64.39-1.79.66-2.2 1.08"/>
    <path id="n1" d="M204.27 117.2l.64 2.72"/>
    <path id="o1" d="M207.71 115.18l-2.64.66"/>
    <path id="p1" d="M203.11 112.3l.64 2.72"/>
    <path id="q1" d="M200.31 117.04l2.64-.67"/>
    <path id="s1" d="M201.25 90.63l1.91-2.01"/>
    <path id="t1" d="M203.22 94.17l-1.95-1.96"/>
    <path id="u1" d="M197.83 94.23l1.9-2"/>
    <path id="v1" d="M197.77 88.68l1.95 1.96"/>
    <path id="y1" d="M172.15 137.63c-12.52-16.5-21.22-27.97-26.12-34.42"/>
    <path id="z1" d="M167.18 138.78c-5.13-6.73-12.99-17.05-23.58-30.96"/>
    <path id="A1" d="M147.83 143.53c-5.61-7.39-10.1-13.31-13.48-17.75"/>
    <path id="B1" d="M142.87 144.74c-5.33-7.01-8.97-11.79-10.93-14.35"/>
  </defs>
  <use fill="#fff" xlink:href="#a"/>
  <use fill-opacity="0" stroke="#000" stroke-width="2" xlink:href="#a1"/>
  <use fill-opacity="0" stroke="#060606" stroke-width="2" xlink:href="#b1"/>
  <use fill-opacity="0" stroke="#060606" stroke-width="2" xlink:href="#c1"/>
  <use fill-opacity="0" stroke="#060606" stroke-width="2" xlink:href="#d1"/>
  <use fill-opacity="0" stroke="#060606" stroke-width="2" xlink:href="#e1"/>
  <use fill-opacity="0" stroke="#060606" stroke-width="2" xlink:href="#f1"/>
  <use fill-opacity="0" stroke="#060606" stroke-width="2" xlink:href="#g1"/>
  <use fill-opacity="0" stroke="#060606" stroke-width="2" xlink:href="#h1"/>
  <use fill-opacity="0" stroke="#060606" stroke-width="2" xlink:href="#i1"/>
  <use fill-opacity="0" stroke="#060606" stroke-width="2" xlink:href="#j1"/>
  <use fill-opacity="0" stroke="#060606" stroke-width="2" xlink:href="#k1"/>
  <use fill-opacity="0" stroke="#060606" stroke-width="2" xlink:href="#l1"/>
  <use fill-opacity="0" stroke="#060606" stroke-width="2" xlink:href="#m1"/>
  <use fill-opacity="0" stroke="#060606" stroke-width="2" xlink:href="#n1"/>
  <use fill-opacity="0" stroke="#060606" stroke-width="2" xlink:href="#o1"/>
  <use fill-opacity="0" stroke="#060606" stroke-width="2" xlink:href="#p1"/>
  <use fill-opacity="0" stroke="#060606" stroke-width="2" xlink:href="#q1"/>
  <g>
    <use fill-opacity="0" stroke="#060606" stroke-width="2" xlink:href="#r1"/>
    <use fill-opacity="0" stroke="#060606" stroke-width="2" xlink:href="#s1"/>
    <use fill-opacity="0" stroke="#060606" stroke-width="2" xlink:href="#t1"/>
    <use fill-opacity="0" stroke="#060606" stroke-width="2" xlink:href="#u1"/>
    <use fill-opacity="0" stroke="#060606" stroke-width="2" xlink:href="#v1"/>
  </g>
  <g>
    <use fill-opacity="0" stroke="#060606" stroke-width="2" xlink:href="#w1"/>
  </g>
  <g>
    <use fill-opacity="0" stroke="#060606" stroke-width="2" xlink:href="#x1"/>
  </g>
  <g>
    <use fill-opacity="0" stroke="#060606" stroke-width="2" xlink:href="#y1"/>
  </g>
  <g>
    <use fill-opacity="0" stroke="#060606" stroke-width="2" xlink:href="#z1"/>
  </g>
  <g>
    <use fill-opacity="0" stroke="#060606" stroke-width="2" xlink:href="#A1"/>
  </g>
  <g>
    <use fill-opacity="0" stroke="#060606" stroke-width="2" xlink:href="#B1"/>
  </g>
</svg>
