<svg xmlns="http://www.w3.org/2000/svg" viewBox="0 0 761 292"><defs><style>.cls-1{fill:#fff;}</style></defs><g id="Layer_2" data-name="Layer 2"><g id="Layer_1-2" data-name="Layer 1"><path class="cls-1" d="M0,208V140H3.74l-2.21,6,26.82-1.34-.41,2.93c5.48-2.38,10.15-6,16.78-4.94-1.14,2.26-1.95,3.84-3.29,6.47L53.76,143l-.09-.43L47.79,144c-1.55-1.35-2.75-3.29-3.91-3.26a96.83,96.83,0,0,0-15.69,1.39c-4.34.82-8.35,4.09-13.22,1.25l2.2-5.72L0,139V127l17.55-2.68-.13-1L0,125V0H761V292H0V221H9.17L4,237.7l1.2.46c2.18-5.76,4.79-11.4,6.41-17.31,1.53-5.6,2-11.48,2.95-17.23l-1.41-.31c-.91,2.89-1.62,5.89-2.81,8.66-1.32,3.07-3.57,5-6,4.49C2.51,213,1.26,210.5,0,208ZM114,90c.66,1.32,1.31,2.64,2,4,.88,1.68,1.41,4.26,2.77,4.82,3.23,1.34,5.57-.06,7.15-3.17-6.61,2.61-6.59,2.6-8.2-4.48-.55-2.46-1.43-4.19-3.59-1-5.18-.17-6.65,3.26-7.86,6.92l1.16,1.07Zm338.63,59.66c-.24,1.12-.48,2.25-.71,3.37,1.72.21,3.79,1.14,5.1.5a107,107,0,0,0,12.13-7.21c.62-.41.39-2.11.64-3.78-4.48,3.29-8.05,6.27-12,8.68-3.05,1.87-4,1.31-5.33-1.68,2.35-3.17,2.85-8.94,9.42-7.13-1.21-1.12-2.79-2.23-4.13-2C454.13,141.06,451.82,145.58,452.64,149.61ZM145.87,40.76l-3-2.72c-3.35,2.23-6.43,4.51-9.73,6.4s-6.11,2.09-6.79-2.9c-.7,4,1.09,6.13,4.77,5.3,2.84-.64,5.38-2.61,8.3-4.12l-1.11,3.38,1.17,1c2.1-2.15,4.21-4.31,6.32-6.45.93,1.8,1.6,3.83,2.87,5.35,1.52,1.82,3.35,4.1,5.41,4.55,2.66.59,4.76-2.61,4.86-6.84-.91,1.19-1.32,2.13-2,2.6-1.39.9-3.24,2.42-4.36,2s-2-2.59-2.65-4.12c-.44-1,.05-2.74-.6-3.27S147.05,40.79,145.87,40.76ZM266.9,150l-9.25,4-1.45-.92c1.91-5.85,3.81-11.69,6.06-18.61-6.88,5.35-6.69,12-7,18.26-.06.9,2.84,3,3.39,2.73a76.84,76.84,0,0,0,8.2-5.57l9.49-5.17c-.89,4.14-1.63,7.59-2.33,10.88,3.09-1.16,4.71-8.51,2.63-16.18Zm72.73-65.34-7.14,3.24c-2.25,1-4.44,2.52-6.41-.73-.34-.56-2.65.08-4.05.17.06.54.11,1.09.17,1.64,4.56.88,9.11,1.91,13.7,2.58,2.24.33,4.8.57,6.81-.2,2.91-1.11,4.47-3.91,2.76-6.87s-4.06-1.65-6,.27ZM507,85.53c-1.52,2.44-3.31,4.76-4.42,7.37-.39.91.58,3.3,1.46,3.64,1.3.5,3.18,0,4.62-.51,2.59-1,5-2.58,7.57-3.61s5.47-1.47,8.06-2.57,4-3.14,2.45-7.19c-2.86,6.37-7.65,7.93-12.76,8.08-.63-2.7-1.15-5-1.67-7.21l-5.27,2ZM63.11,44.1c-1.44-1.77-2.81-4.87-4.33-4.94-1.85-.1-5,2-5.54,3.78-1.88,6.19-6,5.26-10.52,4.59,1.42-7.8,0-10.92-3.58-10.47.89,2,2.38,4.16,2.63,6.44.11,1.11-2.76,3.7-3.15,3.5-2.27-1.22-4.21-3.06-6.67-5,0,1.93-.61,4.61.26,6.64.43,1,3.63.94,5.59,1a56.43,56.43,0,0,0,7.91-.1C51.88,49,58.94,51.09,63,44l2,0c5,4.11,10.63,4,18.13-.42,3.15,2.48,6.18,3.73,9.25-.45,2.34-3.2,4.63-2.8,7.22,1.13l4.78-9.2L103,34c-2.15,4.11-4.58,7.44-8.26,4.36l-8.45,5.75-1-6.79a10.8,10.8,0,0,1-3.07-1.16c-3.06-2.18-5.19-1.86-6.38,1.91l.15-.16-4.43,7.25-6.81-1.09,4.8-8.35-.82-1.22c-1.52.69-3.89,1-4.39,2.15C63.43,38.9,63.48,41.59,63.11,44.1ZM87.8,219.15l6.1-9.58c-2.36,1.23-5.11,1.9-6.47,3.65-.88,1.13.25,3.84.48,5.84-2.5,3.61-7.46,3.45-10.78-.05-2.55-2.68-5.46-5-8.86-8.08.62-7.94.62-7.94-.59-8.6l-6,19.89a13.21,13.21,0,0,0,5.82-3.84c2.51-2.8,4.19-2.63,6.74.34,1.9,2.2,5.27,4.81,7.73,4.57,9.73-.92,20,2.55,29.22-3.87.4,1.42.68,2.4.94,3.31,4.43-2.09,8.53-4.19,12.76-6,3.36-1.4,4.71.1,4.13,3.57-.12.71-.15,1.45-.3,3,1.57-1.06,2.46-1.69,3.39-2.27s2.16-1.29,3.3-2c2.05,5.06,4.1,6.24,9.3,5.68,3.95-.43,6.17-2.21,6.61-5.28-7.05,4.83-10.77,4.23-14-1.77-2.2-.57-4-1.06-5.77-1.5-2.34-.57-4.78-1.77-7-1.47-2.78.38-5.4,2-8,3.08l-.67-3.65c-7,5.21-13.89,9-22.65,6.79l1.43-4.24ZM33.1,92.85,34.85,86l-7.63-1.39,2.7-7.08a15.49,15.49,0,0,0-3.42,5.3c-2.08,4.33-4.2,8.64-6.29,13-.66,1.36-1.26,2.74-1.89,4.11,1.56.29,3.16.95,4.69.81,4.54-.39,9.09-.93,13.58-1.72,2.52-.45,4.49.65,6.66,1.09,3.69.74,7.86-.9,12.3-1.62,2.78,3,12.33,2.42,15.33-1.45,2.16-2.77,3.18-7,7.8-7.36,1.39,9.69,6.27,11.62,14.43,6.24,1.75-1.15,3.8-2.36,5.8-2.52,7.25-.56,10.57-6.9,15.8-10.38,1.54-1,2.25-3.31,3.35-5-7.16,3.8-10.37,12.34-19.51,14,.18-1.29.36-2,.38-2.83,0-1.6,0-3.21,0-4.82a30.26,30.26,0,0,0-5.05,2.93A4.24,4.24,0,0,0,93,90.45c.59,5.26-3,6.12-6.83,6.5-4.45.46-5.73-2.4-5.79-6.22,0-1.1-.13-2.19-.19-3.23-9.52-1-12,11.73-21.6,10.71l2.6-8.46c-5.6,4.2-9.46,10.21-18.09,9l3.6-9.23-1.15-.9c-3.78,3.78-5.36,11.64-13.4,8.16l1.1-4.08Zm402,126.86c5.26,6.89,10.5,7.32,15.69,1.45.54-.63,1-1.88,1.53-1.88,2.26,0,6.22-.23,6.52.65,2,5.8,5.6,4,9.66,3.27a66,66,0,0,1,13.2-.65c8.77.21,17.61,1.58,26.29.86s16.24-10.16,15.86-17.69c-.82.21-1.94.17-2.25.65-2,3.09-4.76,6.09-5.57,9.51-1.2,5.06-5.26,4.29-8.38,5.33-1,.34-2.54-.86-4-1.42-1.19,5.09-4.82,2.81-7.57,1.51-1.18-2.82-2.71-6.88-4.42-7a14.43,14.43,0,0,0-9.71,3.38,8.62,8.62,0,0,1-8.65,2.32c-1-3.32-1.43-7.66-2.63-7.89-2.46-.48-5.35,1.23-8.06,2.06a.94.94,0,0,0-.41.28c-2.87,3.24-5.74,3.6-8.39-.26-9.54,11.46-13.13,12.1-17.17,2.94l-12.16,4.88-.83-1.39,6.8-6.33c-.78-.23-2-.89-2.26-.64-2.41,2.72-4.66,5.58-7,8.4,1,.72,2.23,2.24,2.91,2C427.73,222.94,431.21,221.32,435.08,219.71Zm23-119.54-.74-1.7c-.31,0-.68-.24-.92-.13-7.59,3.38-7.66,3.39-8.39-4.89-.25-2.79-1.55-3.52-4-2.62-2.26.85-4.45,1.87-6.82,2.88,0-7-1.41-7.94-7.41-5.18-.3.14-.58.44-.88.45-4.44.23-8.87.45-13.31.59-.34,0-.81-.58-1.05-1-2.9-5-6.8-3.62-10.77-1.68-3.44,1.68-6.87,3.4-9.74,4.82l-3.85-6.29c.56,3.57,1,6.41,1.55,9.94l10.55-6.22a19.75,19.75,0,0,0,2.09,3.73c1.64,1.81,3.29,4.27,5.35,4.8,1.26.32,3.8-2.17,4.89-3.93,2.07-3.35,4.5-3.61,8.15-2.32l-4,5.52c5.92-2.09,9.69-7.57,16.92-7.71l-2.9,8.88,11.5-5.22c2.05,3.64,3.08,7.51,5.57,9.15C451.51,103.12,455.26,100.92,458.06,100.17ZM286.94,89.59a17.24,17.24,0,0,0,.11,1.93c.12.69.34,1.37.65,2.53,1.17-.89,2.44-1.35,2.56-2,1-5.5,1-5.54,5.39-2.82l3.12-3.38c-5.31.33-5.31.33-4.51-7.29-5.95,4.67-9.44,11.82-17.17,14.5a17.38,17.38,0,0,0-.53-3.2c-.86-2-2-5.61-2.77-5.56-2.43.15-4.91,1.53-7.08,2.88a6.49,6.49,0,0,0-2.5,3.61c-1.43,5.25-4.77,5-9.4,3.3.93-3.17,1.81-6.2,3.15-10.83-6,2.24-10.87,3.94-15.64,5.86-3.27,1.32-5.65,1.63-6.67-2.77-.86-3.7-3.53-3.54-5.35-1-2.53,3.5-4.36,7.5-6.49,11.29l1.54.91,7.5-12.29c3.9,7.64,4.68,7.87,12,4.76,3-1.26,6-2.32,9.82-3.79-.47,2.2-.7,3.29-.94,4.38-1,4.79-.15,5.4,4.75,6.16a15.66,15.66,0,0,0,15-5.43C278,95.75,278,95.75,286.94,89.59ZM273.41,42c-1.77-1.13-4.73-2-4.92-3.37-.3-2.08,1.27-4.42,2.28-7.31-2,.79-3.39,1.8-4.65,1.71a61.92,61.92,0,0,0-29.31,5c-4.66,2-6.42,1.13-8.49-3.77a4.64,4.64,0,0,0-1.8-2c-5-3-11.41.25-12.92,6.77-.32,1.4.43,3,.69,4.58,1.36-.25,3-.12,4-.82,2.81-1.91,5.39-4.17,8.15-6.35,3.73,7.5,9.21,3.19,14.3,1.83l-1.07,4.91c4.5-4,7.94-8.67,14.26-7.21.44,2.15.79,3.91,1.15,5.67a60.45,60.45,0,0,0,6-1.63,36,36,0,0,0,4.58-2.54C267.24,43.47,269.83,44.6,273.41,42ZM479.05,150.9a66.75,66.75,0,0,1-5,4.53c-2.67,1.95-5.77,3.41-8.14,5.65-1.15,1.09-1.06,3.48-1.53,5.29,1.78-.1,4.05.47,5.23-.42,2.61-2,4.6-4.73,7-7.06,3.1-3,6.31-6,9.48-9l.8,1-2.37,5.27c4.93-2.33,9.47-4.43,14-6.65,1.31-.64,3-1.39,3.52-2.53.79-1.74.71-3.88,1-5.84a23.94,23.94,0,0,0-5,.28c-1.38.37-2.57,1.43-3.86,2.16-4.13,2.35-8.27,4.68-13.16,7.45,1.08-3.34,1.77-5.46,2.46-7.58-.47-.48-.94-1-1.42-1.42-2.21,6.42-7.06,7.09-12.7,6l.38,1.78Zm191.4-6.75c.48-6.67-1.12-8.08-6.24-6.37a15.34,15.34,0,0,0-3.12,1.54c-4.54,2.81-9,5.74-13.58,8.45-1.12.66-2.65.63-4.3,1v-8.37l-11.07,7c2.23-8.29,2.23-8.29-2.76-7.16,5.26,4.71-3.07,7.34-1.65,12.52l13.1-8.63c.23,2.51.38,4.14.55,6.09,5.8,1.33,9.51-3.11,12.64-4.34,3.35,1.79,6.9,4.73,7.89,4,5.11-3.6,11-3.71,16.61-5.16.29-.08.42-.75.82-1.51Zm-289.59,78.3c2,.49,3.05,1,4,.93,3-.17,6-.74,6.06-4.49,0-4.16-3.43-4.24-6.16-3.69-4.52.92-8.9,2.54-13.36,3.77-3.67,1-7.38,1.9-11.49,2.95,0-2.52,0-3.67,0-4.81s.11-2.08.25-4.47c-1.95,2.14-2.92,3.37-4.07,4.43-3.36,3.1-7.68,3.57-9,.56-2.3-5.4-5.73-6.82-12.19-3.73l5.84-12-.91-1.17-9.22,3.66.28.81,7.68-2.1c-3.46,6.64-6.49,12.43-9.51,18.23,3-1.41,5.12-3.44,7.51-5.15,4.95-3.56,6.41-3.35,9.09,2.1,1.53,3.12,3.52,3.65,6.42,2.87,1.57-.42,3.11-.9,4.63-1.34,3.13,5.68,7.67,3.75,11.9,2.44,4.75-1.47,9.34-3.51,14.12-4.86,1.84-.51,4,.21,6.05.38l.05,1.91ZM390,39.37c.88-1.62,1.65-2.55,1.89-3.6a30.2,30.2,0,0,0,.38-4.48c-1.37.84-3.06,1.42-4,2.6s-1,2.9-1.89,5.58c-2.2-2.24-4.44-3.48-4.9-5.19-1.4-5.2-4.41-5.54-7.44-4.07-2.55-1.11-4.68-2.88-5.78-2.38-5.26,2.4-11.87,3.41-14.11,12,5.53-4.6,9-10,16.56-10.3-1.73,3.41-3.15,6.19-4.56,9l.71.29,9.78-7.84C379.53,34.47,381,38,383.51,39c7.06,2.91,14.49,5,21.83,0,1.48-1,3.66-1,6.65-1.74l5.12-9.38-1.4-1.11C408.67,33.58,402.64,42.52,390,39.37ZM571.9,143.76c-1.28-.87-2.52-2.41-3.87-2.51a162.9,162.9,0,0,0-20.35-.62c-2.91.16-5.73,2.37-8.52,3.78-3.82,1.93-7.51,4.11-11.4,5.86-.83.38-2.27-.62-3.43-1a12.25,12.25,0,0,1,1.48-3.16c1.8-2.07,3.83-3.94,6.19-6.31-4.69-1.33-4.69-1.33-10.23,4.71-3.36-1.08-6.89-3.46-9.65-2.77-3,.75-5.26,4.37-7.84,6.74l.93,1.11c1.73-1.37,3.44-2.76,5.18-4.11,3.69-2.85,10-1.77,11.43,2.65,1.74,5.51,5.51,4.08,8.77,3.27,2.44-.61,4.57-2.58,6.75-4.06,4.6-3.12,9.23-6.06,15-5.37l1.23,1.62-8.07,5.74,1,1.58C554.19,146.48,561,138.29,571.9,143.76ZM176.25,89.2c-2.11,5.16-4.41,9.19-5.35,13.51-1.13,5.2,2.22,8.68,6.56,7.88,5.29-1,10.62-6.46,11.5-11.16-2.87,2.6-5.94,6.07-9.66,8.6-4.66,3.17-6.88,1.63-6.9-4.12,0-8.19,8.44-14.83,18.34-14.34-.18,1.63-.35,3.26-.53,4.89l.73.11,2.62-9.31-10,1.56.48-1.16c-2.42-1-4.83-2.77-7.25-2.8-4.23-.06-7.79,2.09-8.55,6.67-.28,1.69.81,3.61,1.28,5.42l1.26-.33c-2.29-5.2-1.77-6.94,2.82-9.31Zm49.58,169.07c-2.27,2-5,4.52-7.84,6.79-2.43,1.92-4.9,4.51-7.46-.37-.76-1.45-3.54-2.32-5.5-2.56-6.6-.84-9.34,3.46-10.88,9.21,6.3,3.94,10.48-.31,13.67-3.44l9.77,1.21c.07.67.18,1.67.35,3.29,3.8-2.58,5.11-11.1,11.62-3.64ZM598,92.13c.4.63,1.1,1.93,2,3.11,1.79,2.45,4.51,3.83,6.78,1.63s3.59-5.56,5.32-8.4c-2.24-1-4.48-2.66-6.73-2.68s-4.77,1.67-7.22,2.4c-2.23.67-5.08,2.14-6.73,1.34-5.25-2.54-10.07-.41-13.85,1.81-8,4.69-10.31,4.53-12.82-3.67-4.87,2.66-8.27,8.36-15.65,7,.95,1,1.67,2.14,1.91,2,4.31-1.71,8.57-3.57,12.71-5.35,1,6.28,6.51,6.29,14.06,2.07-.09,1.45-.17,2.72-.27,4.35,3.17-2.62,5.61-6,8.75-6.85S593.4,91.56,598,92.13ZM390.79,268.29c-2.44-.78-5.27-1.14-7.48-2.51-3.72-2.31-6.3-2.4-9.41,1.22-4,4.7-9.76,5.1-14.68,1.83l1.82-5.3-1.22-1.06c-3.51,6.45-8.26,10.35-16.29,8.89.74-.88,1.29-1.29,1.48-1.82.75-2.07,1.38-4.18,2.05-6.27-2.62.32-5.86-.19-7.68,1.18s-2.35,4.54-2.6,7c0,.54,3.54,2.12,5.4,2,3.55-.15,7.06-1.13,10.59-1.79,1.55-.29,3.14-1,4.63-.84,2.86.35,5.7,1.85,8.48,1.71,4.6-.25,10.73,2.08,12.34-5.38,0-.2.55-.29.85-.43C388.81,270.52,388.81,270.52,390.79,268.29ZM66.18,142.83c4.34,6.89,9.81,4.34,15.35,2.39,1.38-.49,3.11-.1,4.67,0,2.93.19,5.85.59,8.79.65,1.56,0,3.53-1.17,4.64-.57,6,3.23,10.88.8,15.72-2.55,1-.72,2.22-1.26,3.33-1.89l1.9,2.25-5.84,2.74c6-.48,7.42-3.57,4.85-8.58-5.6,3.33-10.3,9.36-18.18,6.83l.83-3.65-13.65,5.82v-5.56l-7.06,2.69-6.79-4.63-.82,1.4c.67.27,1.34.52,2,.8s1.47.68,2.31,1.07c-4.82,3.93-5.88,3.68-7.47-1.22Zm486.22,130a10.63,10.63,0,0,0,1.17-2.1c.48-1.68.79-3.4,1.17-5.11-1.66,1-3.35,2-5,3.07-.37.25-.52.83-.76,1.27-2,3.71-7.31,5-12,2.77s-1.81-5.13-.83-7.9c.08-.22-.24-.57-.69-1.51l-5.76,4.5c1.1.88,2.47,1.42,2.61,2.18.89,4.85,4.78,5.29,8.34,5.45a74,74,0,0,0,15.33-.58,44.86,44.86,0,0,0,13.89-4.53c3-1.63,5-5.16,7.4-7.84l-1-1.16c-2.22,1.29-5.37,2-6.51,4A15.77,15.77,0,0,1,552.4,272.81Zm-88.08-3.39c2.33,1.38,4.66,3.88,7,3.9,5,.05,9.94-1.18,14.89-2,.23,0,.34-.85.68-1.76-4.3.62-8.66,1.39-8.83-4.86,0-.49-1.65-1.37-2.46-1.3a48,48,0,0,0-9.45,1.41c-3,.89-5.77,2.55-8.89,4-.41-2.52-.63-3.93-1-6.16l-6.82,2.5.3,1,5-.92C455.63,273.86,461.05,267.45,464.32,269.42ZM236.41,223.27c.53-6.26-.41-8.22-4.13-7.07-5.56,1.72-10.85,4.3-16.25,6.52l.28,1,33.38,2-5.84-2.16,4.52-4.92-.54-1.29Zm174.34,62.17,1.78,1.23c1.1-1.49,2.28-2.92,3.28-4.47,2.5-3.86,4.42-7.83,10.6-6.69,4.9.91,11.07-5,11.15-9.94a4.67,4.67,0,0,0-2.83-3.43c-3.32-.84-14,6.08-15.47,9.27a69.84,69.84,0,0,1-4.17,7.26C413.7,281,412.2,283.18,410.75,285.44ZM127.29,272.68c1.25-5.28,2.51-7.51-1.3-8.18,0,2,.88,5.14-.19,6.1-1.93,1.73-5,2.59-7.66,3-3.31.56-3.38-2-3.48-4.53-.13-3.37-2.25-3.54-5.54-2.13.31,2.16-.17,5.36,1.16,6.56,2.49,2.26,6.15,4.82,9.1,4.58,4.07-.33,7.93-3.15,12.61-5.24Zm151.8-65.61-1.73-.95-6.26,10.56c-3.58-.59-6.22-1.83-8.25-1.18-3.82,1.23-5.48,4.46-4.14,8.8L253,225.65c5.24,1.11,9.84-.19,14.21-2.93,1.19-.75,2.9-.69,5.09-1.16Zm86.11-58.21c2.82,6.25,6.6,7.34,9.53,3.68-1.78-.29-5.38-.11-5.71-1.06-.95-2.77-.59-6-.78-9.63a27.16,27.16,0,0,1-2.28,2.26c-2.81,2.24-5.69,4.42-8.54,6.62-.8-2.08-1.6-4.17-2.41-6.24-.05-.13-.24-.21-.36-.32-6.56,1.41-11.92,5.21-12,8.76l10-7.1C355,153.55,356.49,153.85,365.2,148.86ZM440,40.91c2-.26,3.94.07,4.92-.75,3.28-2.73,5.44-1.47,8.09,1s5.74,2.33,9-.33c-8.46-.31-8.46-.31-9.89-7.31C444.41,31.41,441.64,32.84,440,40.91ZM336.91,143.8c-2.71,2.32-4.34,3.84-6.09,5.2-5.26,4.07-9.28,3-10.65-3.11-.71-3.15-2.63-3.71-4.57-2.13-3.06,2.49-5.56,5.67-8.29,8.55l2.52,2.32L317,144c3.8,10.51,4.91,11,13.94,7.58.61-.23,1.23-.81,1.79-.74C338.1,151.49,336.33,147.8,336.91,143.8Zm86.84,20.56c11.37-9.25,15.43-23.27,23.64-34.67l-1.34-.85Q434.91,146.6,423.75,164.36Zm260-24.76c3.87,2.32,2.5,4.26.15,6.08-1.15.89-2.75,1.28-3.73,2.29a5.44,5.44,0,0,0-1.64,3.64c.05.71,2.18,2,3,1.76,2.45-.74,6.66-2,6.7-3.22.14-3.61-1.36-7.29-2.33-10.91C685.87,139.18,684.49,139.47,683.74,139.6ZM306,93.78h17.91l.17-1.72-11.24-1.35a16.74,16.74,0,0,0,.88-3.1,24.37,24.37,0,0,0-.19-3.51c-1.33.39-3.05.41-3.89,1.28s-.89,2.7-1.45,4C307.55,90.94,306.71,92.39,306,93.78Zm193.25-21.5-2.09-.81q-6.51,16.89-13,33.78l1.59.62ZM386.47,138.65l-1.33-.9-7,12.68c5.26-3.82,13.71-1.33,16.43-8.85-3.08,1.73-5.95,5.12-9.76.9ZM196.77,33.88l-1.28.38a86,86,0,0,0,2.83,8.24c2.17,4.73,4.13,4.93,6.84.68,3.59-5.67,6.92-11.5,10.48-17.46-7.69,3.88-8.2,13.38-14.78,19.51ZM21.5,28.43l-1.56-1Q12.5,41.11,5.05,54.83l1.76,1Zm48.35,36.7-.56,1.46c1.85.5,3.72,1.51,5.56,1.44,10.33-.37,21-10.59,22.47-21.79a127.73,127.73,0,0,0-6.83,11.2C86,65.64,77.8,68.7,69.85,65.13Zm96.42,78.73c7.45,3.69,14.59,2.84,17-1.4L170.39,144c3.19-6.26,6.3-7.12,9.74-3.75-.19-1-.4-2.47-1.09-2.76C172.41,134.66,170.78,142.37,166.27,143.86ZM309.72,37c4.17-5.53,8.16-10.82,12.46-16.5C316.8,21.32,309.08,32,309.72,37ZM209.33,214.29,198.5,224.51h15l-.1-1.11-7-.64C207.45,219.79,208.24,217.49,209.33,214.29Zm418.11-73.67-11.82,3.29c-1.08,1.53-3.2,4.57-5.33,7.61l.74.57ZM194.64,30.53c-6,2.58-11.31,11.19-9.79,16.92C188.26,41.56,191.34,36.25,194.64,30.53Zm352.58,56.1c.62,2.16.8,3,1.08,3.69s.6,1.25,1.21,2.5c.42-6.69-.31-7.21-5.66-5.42-1,.33-2.28-.38-3.54-.64L536,94.82l.82.54ZM92.63,267.78c2.41,5.78-3,8.09-2.8,13.18,4.24-7.56,7.46-15,16.91-14.63Zm94.18-5.48-9.63,1c-1,3-2,6.11-3,9.13ZM313.4,210.63c1.43,5.49-4.18,7.61-4.73,12.14l11.57-14.58-.46-.89Zm13.25,52.78c-6.85-.51-14.06,3.95-13.49,8.4ZM698.74,138c0,.74.11,1.48.16,2.22l21.39-1.4-.07-.82Zm-199,128c2.88,6.32,3.39,6.59,7.23,5l-4.55-2.35a33.62,33.62,0,0,1,2.76-4.87,41.78,41.78,0,0,1,4.32-4.19l-1-1.14ZM406.59,147l-14,3.29h10c.06,1.34.12,2.61.18,3.89l.9.18Zm-206-5.39c-3.52-1.71-12.69.76-15.6,4.82Zm49.13,120.65-1.27.38c2,3.71,1.18,4.85-4.52,5.77v-3.33l-.78-.1-1.68,5.32c4.94,2.78,6.68-1.51,9-3.71C251,266,250,263.75,249.67,262.26Zm-89.92,12,13-11.11C165.53,264.25,162.63,269.35,159.75,274.29ZM311.22,41.74c3.45,1.46,12.39-1.65,15.11-5.68Zm-117.78,183c.15-2.4.34-5.41.54-8.56l-6.81,8.24ZM597,260.87c-3.74,1.79-3.74,1.79,1.52,11.87C598,268.21,597.48,264.51,597,260.87Zm-548.9-244-.43-1.49-16,4.88.3,1ZM585,150.24l-2-.18c3.92,7.19-4.62,3.94-5.31,9.11A81.86,81.86,0,0,0,586,154C586.38,153.72,585.35,151.56,585,150.24Z"/><path d="M0,139l17.17-1.36L15,143.36c4.87,2.84,8.88-.43,13.22-1.25a96.83,96.83,0,0,1,15.69-1.39c1.16,0,2.36,1.91,3.91,3.26l5.88-1.4.09.43-12.33,6.12c1.34-2.63,2.15-4.21,3.29-6.47-6.63-1.08-11.3,2.56-16.78,4.94l.41-2.93L1.53,146l2.21-6H0Z"/><path d="M0,208c1.26,2.5,2.51,5,4.24,8.46C6.72,217,9,215,10.29,212c1.19-2.77,1.9-5.77,2.81-8.66l1.41.31c-.94,5.75-1.42,11.63-2.95,17.23-1.62,5.91-4.23,11.55-6.41,17.31L4,237.7,9.17,221H0Z"/><path d="M0,125l17.42-1.67.13,1L0,127Z"/><path d="M33.25,92.69l-1.1,4.08c8,3.48,9.62-4.38,13.4-8.16l1.15.9-3.6,9.23c8.63,1.22,12.49-4.79,18.09-9l-2.6,8.46c9.57,1,12.08-11.7,21.6-10.71.06,1,.17,2.13.19,3.23.06,3.82,1.34,6.68,5.79,6.22,3.79-.38,7.42-1.24,6.83-6.5a4.24,4.24,0,0,1,.85-3.25,30.26,30.26,0,0,1,5.05-2.93c0,1.61.06,3.22,0,4.82,0,.78-.2,1.54-.38,2.83,9.14-1.64,12.35-10.18,19.51-14-1.1,1.71-1.81,4-3.35,5-5.23,3.48-8.55,9.82-15.8,10.38-2,.16-4,1.37-5.8,2.52-8.16,5.38-13,3.45-14.43-6.24C74.06,90,73,94.21,70.88,97c-3,3.87-12.55,4.5-15.33,1.45-4.44.72-8.61,2.36-12.3,1.62-2.17-.44-4.14-1.54-6.66-1.09-4.49.79-9,1.33-13.58,1.72-1.53.14-3.13-.52-4.69-.81.63-1.37,1.23-2.75,1.89-4.11,2.09-4.32,4.21-8.63,6.29-13a15.49,15.49,0,0,1,3.42-5.3l-2.7,7.08L34.85,86c-.58,2.3-1.17,4.59-1.76,6.89V86l-2-.79-7.31,8.51,1.42,2Z"/><path d="M435.08,219.71c-3.87,1.61-7.35,3.23-11,4.41-.68.22-1.93-1.3-2.91-2,2.29-2.82,4.54-5.68,7-8.4.22-.25,1.48.41,2.26.64l-6.8,6.33.83,1.39,12.16-4.88c4,9.16,7.63,8.52,17.17-2.94,2.65,3.86,5.52,3.5,8.39.26a.94.94,0,0,1,.41-.28c2.71-.83,5.6-2.54,8.06-2.06,1.2.23,1.6,4.57,2.63,7.89a8.62,8.62,0,0,0,8.65-2.32,14.43,14.43,0,0,1,9.71-3.38c1.71.07,3.24,4.13,4.42,7,2.75,1.3,6.38,3.58,7.57-1.51,1.47.56,3,1.76,4,1.42,3.12-1,7.18-.27,8.38-5.33.81-3.42,3.54-6.42,5.57-9.51.31-.48,1.43-.44,2.25-.65.38,7.53-7.27,17-15.86,17.69s-17.52-.65-26.29-.86a66,66,0,0,0-13.2.65c-4.06.73-7.69,2.53-9.66-3.27-.3-.88-4.26-.65-6.52-.65-.51,0-1,1.25-1.53,1.88C445.58,227,440.34,226.6,435.08,219.71Zm29.12-4.53-.06,2.63,5.33.85.48-4.94Zm30.26,2.15-1.73-2.11q-2.33,1.31-4.66,2.6c1,1.25,2,2.49,3.05,3.74Z"/><path d="M87.8,219.15l6.82-2.42L93.19,221c8.76,2.25,15.65-1.58,22.65-6.79l.67,3.65c2.65-1.07,5.27-2.7,8-3.08,2.24-.3,4.68.9,7,1.47,1.8.44,3.57.93,5.77,1.5,3.21,6,6.93,6.6,14,1.77-.44,3.07-2.66,4.85-6.61,5.28-5.2.56-7.25-.62-9.3-5.68-1.14.67-2.23,1.29-3.3,2s-1.82,1.21-3.39,2.27c.15-1.53.18-2.27.3-3,.58-3.47-.77-5-4.13-3.57-4.23,1.77-8.33,3.87-12.76,6-.26-.91-.54-1.89-.94-3.31-9.17,6.42-19.49,3-29.22,3.87-2.46.24-5.83-2.37-7.73-4.57-2.55-3-4.23-3.14-6.74-.34a13.21,13.21,0,0,1-5.82,3.84l6-19.89c1.21.66,1.21.66.59,8.6,3.4,3.08,6.31,5.4,8.86,8.08,3.32,3.5,8.28,3.66,10.78.05Z"/><path d="M458.06,100.17c-2.8.75-6.55,3-8.16,1.89-2.49-1.64-3.52-5.51-5.57-9.15l-11.5,5.22,2.9-8.88c-7.23.14-11,5.62-16.92,7.71l4-5.52c-3.65-1.29-6.08-1-8.15,2.32-1.09,1.76-3.63,4.25-4.89,3.93-2.06-.53-3.71-3-5.35-4.8a19.75,19.75,0,0,1-2.09-3.73l-10.55,6.22c-.55-3.53-1-6.37-1.55-9.94l3.85,6.29c2.87-1.42,6.3-3.14,9.74-4.82,4-1.94,7.87-3.34,10.77,1.68.24.4.71,1,1.05,1,4.44-.14,8.87-.36,13.31-.59.3,0,.58-.31.88-.45,6-2.76,7.41-1.86,7.41,5.18,2.37-1,4.56-2,6.82-2.88,2.42-.9,3.72-.17,4,2.62.73,8.28.8,8.27,8.39,4.89.24-.11.61.08.92.13Z"/><path d="M286.94,89.59C278,95.75,278,95.75,273.47,91.3a15.66,15.66,0,0,1-15,5.43c-4.9-.76-5.79-1.37-4.75-6.16.24-1.09.47-2.18.94-4.38-3.82,1.47-6.86,2.53-9.82,3.79-7.29,3.11-8.07,2.88-12-4.76l-7.5,12.29-1.54-.91c2.13-3.79,4-7.79,6.49-11.29,1.82-2.52,4.49-2.68,5.35,1,1,4.4,3.4,4.09,6.67,2.77,4.77-1.92,9.63-3.62,15.64-5.86-1.34,4.63-2.22,7.66-3.15,10.83,4.63,1.67,8,2,9.4-3.3a6.49,6.49,0,0,1,2.5-3.61c2.17-1.35,4.65-2.73,7.08-2.88.81,0,1.91,3.57,2.77,5.56a17.38,17.38,0,0,1,.53,3.2c7.73-2.68,11.22-9.83,17.17-14.5-.8,7.62-.8,7.62,4.51,7.29l-3.12,3.38c-4.38-2.72-4.4-2.68-5.39,2.82-.12.67-1.39,1.13-2.56,2-.31-1.16-.53-1.84-.65-2.53A17.24,17.24,0,0,1,286.94,89.59ZM264.61,92,266.38,94,273.82,87l-1.7-1.86Z"/><path d="M273.41,42c-3.58,2.56-6.17,1.43-7.71-4.54A36,36,0,0,1,261.12,40a60.45,60.45,0,0,1-6,1.63c-.36-1.76-.71-3.52-1.15-5.67-6.32-1.46-9.76,3.22-14.26,7.21l1.07-4.91c-5.09,1.36-10.57,5.67-14.3-1.83-2.76,2.18-5.34,4.44-8.15,6.35-1,.7-2.67.57-4,.82-.26-1.53-1-3.18-.69-4.58,1.51-6.52,7.94-9.8,12.92-6.77a4.64,4.64,0,0,1,1.8,2c2.07,4.9,3.83,5.77,8.49,3.77a61.92,61.92,0,0,1,29.31-5c1.26.09,2.61-.92,4.65-1.71-1,2.89-2.58,5.23-2.28,7.31C268.68,40,271.64,40.91,273.41,42ZM223,32.63c-5.44.8-8.25,4.25-7.63,9.39C220.68,40.7,223,37.91,223,32.63Z"/><path d="M479.05,150.9l-9.33-1.06-.38-1.78c5.64,1.07,10.49.4,12.7-6,.48.47.95.94,1.42,1.42-.69,2.12-1.38,4.24-2.46,7.58,4.89-2.77,9-5.1,13.16-7.45,1.29-.73,2.48-1.79,3.86-2.16a23.94,23.94,0,0,1,5-.28c-.28,2-.2,4.1-1,5.84-.52,1.14-2.21,1.89-3.52,2.53-4.49,2.22-9,4.32-14,6.65l2.37-5.27-.8-1c-3.17,3-6.38,5.93-9.48,9-2.35,2.33-4.34,5.09-7,7.06-1.18.89-3.45.32-5.23.42.47-1.81.38-4.2,1.53-5.29,2.37-2.24,5.47-3.7,8.14-5.65A66.75,66.75,0,0,0,479.05,150.9Zm13.73-2.1,1.12,1.27c2.33-1.47,4.77-2.79,6.93-4.47.61-.48.4-2,.57-3-1,.08-2.4-.24-3,.3C496.37,144.66,494.63,146.79,492.78,148.8Z"/><path d="M670.45,144.15l8.89-1c-.4.76-.53,1.43-.82,1.51-5.59,1.45-11.5,1.56-16.61,5.16-1,.7-4.54-2.24-7.89-4-3.13,1.23-6.84,5.67-12.64,4.34-.17-1.95-.32-3.58-.55-6.09l-13.1,8.63c-1.42-5.18,6.91-7.81,1.65-12.52,5-1.13,5-1.13,2.76,7.16l11.07-7v8.37c1.65-.35,3.18-.32,4.3-1,4.59-2.71,9-5.64,13.58-8.45a15.34,15.34,0,0,1,3.12-1.54C669.33,136.07,670.93,137.48,670.45,144.15Zm-10-2.45.85,2.33a51.11,51.11,0,0,0,6.31-1.13c.52-.15.81-1.6.89-2.48,0-.3-1-1.08-1.43-1C664.85,140.09,662.67,140.93,660.47,141.7Z"/><path d="M380.86,222.45l8.06-2.74-.05-1.91c-2-.17-4.21-.89-6.05-.38-4.78,1.35-9.37,3.39-14.12,4.86-4.23,1.31-8.77,3.24-11.9-2.44-1.52.44-3.06.92-4.63,1.34-2.9.78-4.89.25-6.42-2.87-2.68-5.45-4.14-5.66-9.09-2.1-2.39,1.71-4.55,3.74-7.51,5.15,3-5.8,6.05-11.59,9.51-18.23l-7.68,2.1-.28-.81,9.22-3.66.91,1.17-5.84,12c6.46-3.09,9.89-1.67,12.19,3.73,1.28,3,5.6,2.54,9-.56,1.15-1.06,2.12-2.29,4.07-4.43-.14,2.39-.23,3.43-.25,4.47s0,2.29,0,4.81c4.11-1,7.82-1.94,11.49-2.95,4.46-1.23,8.84-2.85,13.36-3.77,2.73-.55,6.18-.47,6.16,3.69,0,3.75-3.11,4.32-6.06,4.49C383.91,223.44,382.88,222.94,380.86,222.45Z"/><path d="M390,39.37c12.63,3.15,18.66-5.79,25.7-12.6l1.4,1.11L412,37.26c-3,.74-5.17.72-6.65,1.74-7.34,5-14.77,2.93-21.83,0-2.51-1-4-4.55-6.86-8.08l-9.78,7.84-.71-.29c1.41-2.79,2.83-5.57,4.56-9-7.51.27-11,5.7-16.56,10.3,2.24-8.57,8.85-9.58,14.11-12,1.1-.5,3.23,1.27,5.78,2.38,3-1.47,6-1.13,7.44,4.07.46,1.71,2.7,2.95,4.9,5.19.85-2.68,1-4.44,1.89-5.58s2.63-1.76,4-2.6a30.2,30.2,0,0,1-.38,4.48C391.66,36.82,390.89,37.75,390,39.37Z"/><path d="M571.9,143.76c-10.88-5.47-17.71,2.72-25.35,7.17l-1-1.58,8.07-5.74L552.35,142c-5.78-.69-10.41,2.25-15,5.37-2.18,1.48-4.31,3.45-6.75,4.06-3.26.81-7,2.24-8.77-3.27-1.4-4.42-7.74-5.5-11.43-2.65-1.74,1.35-3.45,2.74-5.18,4.11l-.93-1.11c2.58-2.37,4.85-6,7.84-6.74,2.76-.69,6.29,1.69,9.65,2.77,5.54-6,5.54-6,10.23-4.71-2.36,2.37-4.39,4.24-6.19,6.31a12.25,12.25,0,0,0-1.48,3.16c1.16.36,2.6,1.36,3.43,1,3.89-1.75,7.58-3.93,11.4-5.86,2.79-1.41,5.61-3.62,8.52-3.78a162.9,162.9,0,0,1,20.35.62C569.38,141.35,570.62,142.89,571.9,143.76Z"/><path d="M176.25,89.2l-2.62-3.89c-4.59,2.37-5.11,4.11-2.82,9.31l-1.26.33c-.47-1.81-1.56-3.73-1.28-5.42.76-4.58,4.32-6.73,8.55-6.67,2.42,0,4.83,1.8,7.25,2.8l-.48,1.16,10-1.56-2.62,9.31-.73-.11c.18-1.63.35-3.26.53-4.89-9.9-.49-18.36,6.15-18.34,14.34,0,5.75,2.24,7.29,6.9,4.12,3.72-2.53,6.79-6,9.66-8.6-.88,4.7-6.21,10.18-11.5,11.16-4.34.8-7.69-2.68-6.56-7.88C171.84,98.39,174.14,94.36,176.25,89.2Z"/><path d="M225.83,258.27l3.73,10.49c-6.51-7.46-7.82,1.06-11.62,3.64-.17-1.62-.28-2.62-.35-3.29l-9.77-1.21c-3.19,3.13-7.37,7.38-13.67,3.44,1.54-5.75,4.28-10,10.88-9.21,2,.24,4.74,1.11,5.5,2.56,2.56,4.88,5,2.29,7.46.37C220.88,262.79,223.56,260.26,225.83,258.27Z"/><path d="M598,92.13c-4.62-.57-8.53-2.08-11.77-1.18s-5.58,4.23-8.75,6.85c.1-1.63.18-2.9.27-4.35-7.55,4.22-13.1,4.21-14.06-2.07-4.14,1.78-8.4,3.64-12.71,5.35-.24.09-1-1-1.91-2,7.38,1.35,10.78-4.35,15.65-7,2.51,8.2,4.83,8.36,12.82,3.67,3.78-2.22,8.6-4.35,13.85-1.81,1.65.8,4.5-.67,6.73-1.34,2.45-.73,4.82-2.42,7.22-2.4s4.49,1.72,6.73,2.68c-1.73,2.84-3,6.15-5.32,8.4s-5,.82-6.78-1.63C599.12,94.06,598.42,92.76,598,92.13ZM610.7,88c-4.09.76-8.28-2.8-10,2.56-.43,1.31,1.06,4.63,2,4.79C607.23,96.08,608.84,92.62,610.7,88Z"/><path d="M390.79,268.29c-2,2.23-2,2.23-11.72-1.5-.3.14-.81.23-.85.43-1.61,7.46-7.74,5.13-12.34,5.38-2.78.14-5.62-1.36-8.48-1.71-1.49-.18-3.08.55-4.63.84-3.53.66-7,1.64-10.59,1.79-1.86.07-5.45-1.51-5.4-2,.25-2.48.87-5.71,2.6-7s5.06-.86,7.68-1.18c-.67,2.09-1.3,4.2-2.05,6.27-.19.53-.74.94-1.48,1.82,8,1.46,12.78-2.44,16.29-8.89l1.22,1.06-1.82,5.3c4.92,3.27,10.63,2.87,14.68-1.83,3.11-3.62,5.69-3.53,9.41-1.22C385.52,267.15,388.35,267.51,390.79,268.29ZM338.25,272l8.19-6.46C340.74,264,338.9,265.55,338.25,272Z"/><path d="M66.18,142.83l4.58-2c1.59,4.9,2.65,5.15,7.47,1.22-.84-.39-1.57-.75-2.31-1.07s-1.33-.53-2-.8l.82-1.4,6.79,4.63,7.06-2.69v5.56l13.65-5.82-.83,3.65c7.88,2.53,12.58-3.5,18.18-6.83,2.57,5,1.13,8.1-4.85,8.58l5.84-2.74-1.9-2.25c-1.11.63-2.29,1.17-3.33,1.89-4.84,3.35-9.7,5.78-15.72,2.55-1.11-.6-3.08.6-4.64.57-2.94-.06-5.86-.46-8.79-.65-1.56-.1-3.29-.49-4.67,0C76,147.17,70.52,149.72,66.18,142.83Z"/><path d="M552.4,272.81a15.77,15.77,0,0,0,17.39-7.51c1.14-1.94,4.29-2.69,6.51-4l1,1.16c-2.43,2.68-4.4,6.21-7.4,7.84A44.86,44.86,0,0,1,556,274.85a74,74,0,0,1-15.33.58c-3.56-.16-7.45-.6-8.34-5.45-.14-.76-1.51-1.3-2.61-2.18l5.76-4.5c.45.94.77,1.29.69,1.51-1,2.77-3.78,5.75.83,7.9s10,.94,12-2.77c.24-.44.39-1,.76-1.27,1.62-1.08,3.31-2.05,5-3.07-.38,1.71-.69,3.43-1.17,5.11A10.63,10.63,0,0,1,552.4,272.81Z"/><path d="M75.91,38.09c1.19-3.77,3.32-4.09,6.38-1.91a10.8,10.8,0,0,0,3.07,1.16l1,6.79,8.45-5.75c3.68,3.08,6.11-.25,8.26-4.36l1.27,1-4.78,9.2c-2.59-3.93-4.88-4.33-7.22-1.13-3.07,4.18-6.1,2.93-9.25.45C75.56,48,69.91,48.1,64.93,44l-.11.1,6.81,1.09,4.43-7.25c-.45,2-.91,4-1.43,6.19,6.52-1,7.87-3.08,5.23-7.7Z"/><path d="M464.32,269.42c-3.27-2-8.69,4.44-9.59-4.18l-5,.92-.3-1,6.82-2.5c.36,2.23.58,3.64,1,6.16,3.12-1.44,5.89-3.1,8.89-4a48,48,0,0,1,9.45-1.41c.81-.07,2.44.81,2.46,1.3.17,6.25,4.53,5.48,8.83,4.86-.34.91-.45,1.72-.68,1.76-5,.78-9.93,2-14.89,2C469,273.3,466.65,270.8,464.32,269.42Zm3.79-3.53c.05.84.11,1.68.16,2.52l8.81,1.42c.27-.53.53-1.06.79-1.59-1.08-1.18-2.05-3.21-3.27-3.38C472.52,264.59,470.28,265.48,468.11,265.89Z"/><path d="M236.41,223.27l11.42-5.92.54,1.29-4.52,4.92,5.84,2.16-33.38-2-.28-1c5.4-2.22,10.69-4.8,16.25-6.52C236,215.05,236.94,217,236.41,223.27Zm-2.08-3.2-.78-2.34-9.34,3.35.63,1.92Z"/><path d="M63,44c-4,7.13-11.09,5.08-17.26,5.62a56.43,56.43,0,0,1-7.91.1c-2-.11-5.16-.07-5.59-1-.87-2-.26-4.71-.26-6.64,2.46,1.95,4.4,3.79,6.67,5,.39.2,3.26-2.39,3.15-3.5-.25-2.28-1.74-4.42-2.63-6.44,3.54-.45,5,2.67,3.58,10.47,4.49.67,8.64,1.6,10.52-4.59.54-1.77,3.69-3.88,5.54-3.78,1.52.07,2.89,3.17,4.33,4.94Zm-4-4.42L52,46.24C58.91,45.67,59.64,45,58.92,39.54Z"/><path d="M410.75,285.44c1.45-2.26,2.95-4.48,4.34-6.77a69.84,69.84,0,0,0,4.17-7.26c1.47-3.19,12.15-10.11,15.47-9.27a4.67,4.67,0,0,1,2.83,3.43c-.08,4.93-6.25,10.85-11.15,9.94-6.18-1.14-8.1,2.83-10.6,6.69-1,1.55-2.18,3-3.28,4.47ZM422.31,273c5.62,2.14,13.38-1.91,13.95-7,.09-.79-2-2.72-2.6-2.54C428.51,264.83,425,268.24,422.31,273Z"/><path d="M127.29,272.68l4.7.21c-4.68,2.09-8.54,4.91-12.61,5.24-2.95.24-6.61-2.32-9.1-4.58-1.33-1.2-.85-4.4-1.16-6.56,3.29-1.41,5.41-1.24,5.54,2.13.1,2.56.17,5.09,3.48,4.53,2.7-.46,5.73-1.32,7.66-3,1.07-1,.19-4.09.19-6.1C129.8,265.17,128.54,267.4,127.29,272.68Z"/><path d="M279.09,207.07l-6.82,14.49c-2.19.47-3.9.41-5.09,1.16-4.37,2.74-9,4-14.21,2.93l5.74-1.35c-1.34-4.34.32-7.57,4.14-8.8,2-.65,4.67.59,8.25,1.18l6.26-10.56Zm-19.6,12.68.66,2c1.86-.38,4-.34,5.46-1.31.85-.57.59-2.78.83-4.25l-1.36-.56Z"/><path d="M507,85.52l5.27-2c.52,2.25,1,4.51,1.67,7.21,5.11-.15,9.9-1.71,12.76-8.08,1.52,4,.16,6.07-2.45,7.19s-5.45,1.54-8.06,2.57-5,2.59-7.57,3.61c-1.44.56-3.32,1-4.62.51-.88-.34-1.85-2.73-1.46-3.64,1.11-2.61,2.9-4.93,4.42-7.37.5,1.66,1,3.32,1.49,5,.82-.35,2.21-.54,2.36-1.07a22.21,22.21,0,0,0,.38-4.57Z"/><path d="M365.2,148.86c-8.71,5-10.22,4.69-12.57-3l-10,7.1c.08-3.55,5.44-7.35,12-8.76.12.11.31.19.36.32.81,2.07,1.61,4.16,2.41,6.24,2.85-2.2,5.73-4.38,8.54-6.62a27.16,27.16,0,0,0,2.28-2.26c.19,3.63-.17,6.86.78,9.63.33,1,3.93.77,5.71,1.06C371.8,156.2,368,155.11,365.2,148.86Z"/><path d="M440,40.91c1.61-8.07,4.38-9.5,12.15-7.37,1.43,7,1.43,7,9.89,7.31-3.29,2.66-6.39,2.83-9,.33s-4.81-3.75-8.09-1C444,41,442,40.65,440,40.91Z"/><path d="M336.91,143.8c-.58,4,1.19,7.69-4.14,7-.56-.07-1.18.51-1.79.74C322,155,320.84,154.5,317,144l-7.21,10.64-2.52-2.32c2.73-2.88,5.23-6.06,8.29-8.55,1.94-1.58,3.86-1,4.57,2.13,1.37,6.09,5.39,7.18,10.65,3.11C332.57,147.64,334.2,146.12,336.91,143.8Z"/><path d="M423.75,164.36q11.16-17.76,22.3-35.52l1.34.85C439.18,141.09,435.12,155.11,423.75,164.36Z"/><path d="M683.74,139.6c.75-.13,2.13-.42,2.15-.36,1,3.62,2.47,7.3,2.33,10.91,0,1.2-4.25,2.48-6.7,3.22-.82.24-2.95-1.05-3-1.76a5.44,5.44,0,0,1,1.64-3.64c1-1,2.58-1.4,3.73-2.29C686.24,143.86,687.61,141.92,683.74,139.6Z"/><path d="M339.47,84.79c1.94-1.92,4.27-3.25,6-.27s.15,5.76-2.76,6.87c-2,.77-4.57.53-6.81.2-4.59-.67-9.14-1.7-13.7-2.58-.06-.55-.11-1.1-.17-1.64,1.4-.09,3.71-.73,4.05-.17,2,3.25,4.16,1.75,6.41.73l7.13-3.23-5.72,4.42c2.65.54,4.05,1.29,5.07.94a31.26,31.26,0,0,0,5.33-3Z"/><path d="M306,93.78c.7-1.39,1.54-2.84,2.19-4.37.56-1.33.54-3.1,1.45-4s2.56-.89,3.89-1.28a24.37,24.37,0,0,1,.19,3.51,16.74,16.74,0,0,1-.88,3.1l11.24,1.35-.17,1.72Z"/><path d="M499.26,72.28l-13.53,33.59-1.59-.62q6.53-16.89,13-33.78Z"/><path d="M386.47,138.65l-1.65,3.83c3.81,4.22,6.68.83,9.76-.9-2.72,7.52-11.17,5-16.43,8.85l7-12.68Z"/><path d="M266.8,149.92a75.47,75.47,0,0,1-8.2,5.58c-.55.3-3.45-1.83-3.39-2.73.36-6.28.17-12.91,7-18.26-2.25,6.92-4.15,12.76-6.06,18.61l1.45.92,9.25-4Z"/><path d="M196.77,33.88l4.09,11.35c6.58-6.13,7.09-15.63,14.78-19.51-3.56,6-6.89,11.79-10.48,17.46-2.71,4.25-4.67,4-6.84-.68a86,86,0,0,1-2.83-8.24Z"/><path d="M21.5,28.43,6.81,55.83l-1.76-1q7.45-13.71,14.89-27.44Z"/><path d="M145.79,40.63l-6.31,6.47-1.17-1,1.11-3.38c-2.92,1.51-5.46,3.48-8.3,4.12-3.68.83-5.47-1.31-4.77-5.3.68,5,3.61,4.72,6.79,2.9s6.38-4.17,9.73-6.4l3,2.72Z"/><path d="M69.85,65.13c8,3.57,16.12.51,20.64-7.69a127.73,127.73,0,0,1,6.83-11.2C95.85,57.44,85.18,67.66,74.85,68c-1.84.07-3.71-.94-5.56-1.44Z"/><path d="M166.27,143.86c4.51-1.49,6.14-9.2,12.77-6.38.69.29.9,1.74,1.09,2.76-3.44-3.37-6.55-2.51-9.74,3.75l12.85-1.53C180.86,146.7,173.72,147.55,166.27,143.86Z"/><path d="M266.9,150l9.69-10.57c2.08,7.67.46,15-2.63,16.18.7-3.29,1.44-6.74,2.33-10.88l-9.49,5.16Z"/><path d="M309.72,37c-.64-5,7.08-15.71,12.46-16.5C317.88,26.21,313.89,31.5,309.72,37Z"/><path d="M209.33,214.29c-1.09,3.2-1.88,5.5-2.9,8.47l7,.64.1,1.11h-15Z"/><path d="M627.44,140.62,611,152.09l-.74-.57c2.13-3,4.25-6.08,5.33-7.61Z"/><path d="M194.64,30.53c-3.3,5.72-6.38,11-9.79,16.92C183.33,41.72,188.65,33.11,194.64,30.53Z"/><path d="M547.22,86.63,536.8,95.36l-.82-.54,4.33-8.06c1.26.26,2.57,1,3.54.64,5.35-1.79,6.08-1.27,5.66,5.42-.61-1.25-1-1.85-1.21-2.5S547.84,88.79,547.22,86.63Z"/><path d="M92.63,267.78l14.11-1.45C97.29,266,94.07,273.4,89.83,281,89.63,275.87,95,273.56,92.63,267.78Z"/><path d="M452.54,149.54c1.27,2.94,2.24,3.5,5.29,1.63,3.92-2.41,7.49-5.39,12-8.68-.25,1.67,0,3.37-.64,3.78A107,107,0,0,1,457,153.48c-1.31.64-3.38-.29-5.1-.5.23-1.12.47-2.25.71-3.37Z"/><path d="M186.81,262.3l-12.67,10.16c1-3,2.05-6.15,3-9.13Z"/><path d="M145.87,40.76c1.18,0,2.71-.38,3.42.21s.16,2.25.6,3.27c.66,1.53,1.43,3.73,2.65,4.12s3-1.15,4.36-2c.72-.47,1.13-1.41,2-2.6-.1,4.23-2.2,7.43-4.86,6.84-2.06-.45-3.89-2.73-5.41-4.55-1.27-1.52-1.94-3.55-2.88-5.36Z"/><path d="M313.4,210.63l6.38-3.33.46.89-11.57,14.58C309.22,218.24,314.83,216.12,313.4,210.63Z"/><path d="M326.65,263.41l-13.49,8.4C312.59,267.36,319.8,262.9,326.65,263.41Z"/><path d="M698.74,138h21.48l.07.82-21.39,1.4C698.85,139.44,698.79,138.7,698.74,138Z"/><path d="M114.13,90.09c2.16-3.21,3-1.48,3.59,1,1.61,7.08,1.59,7.09,8.2,4.48-1.58,3.11-3.92,4.51-7.15,3.17-1.36-.56-1.89-3.14-2.77-4.82-.68-1.31-1.33-2.63-2-4Z"/><path d="M499.77,266l8.73-7.58,1,1.14a41.78,41.78,0,0,0-4.32,4.19,33.62,33.62,0,0,0-2.76,4.87L507,271C503.16,272.6,502.65,272.33,499.77,266Z"/><path d="M406.59,147l-2.9,7.36-.9-.18c-.06-1.28-.12-2.55-.18-3.89h-10Z"/><path d="M200.54,141.61l-15.6,4.82C187.85,142.37,197,139.9,200.54,141.61Z"/><path d="M249.67,262.26c.3,1.49,1.35,3.78.77,4.33-2.34,2.2-4.08,6.49-9,3.71L243.1,265l.78.1v3.33c5.7-.92,6.53-2.06,4.52-5.77Z"/><path d="M159.75,274.29c2.88-4.94,5.78-10,13-11.11Z"/><path d="M63.11,44.1c.37-2.51.32-5.2,1.3-7.43.5-1.14,2.87-1.46,4.39-2.15l.82,1.22-4.8,8.35.11-.1-2,0Z"/><path d="M311.22,41.74l15.11-5.68C323.61,40.09,314.67,43.2,311.22,41.74Z"/><path class="cls-1" d="M507,85.52l4.19-.65a22.21,22.21,0,0,1-.38,4.57c-.15.53-1.54.72-2.36,1.07-.5-1.66-1-3.32-1.49-5Z"/><path d="M87.91,219.06c-.23-2-1.36-4.71-.48-5.84,1.36-1.75,4.11-2.42,6.47-3.65l-6.1,9.58Z"/><path d="M114,90l-6.58,8.12L106.27,97c1.21-3.66,2.68-7.09,7.86-6.92Z"/><path d="M193.44,224.71l-6.27-.32,6.81-8.24C193.78,219.3,193.59,222.31,193.44,224.71Z"/><path d="M452.64,149.61c-.82-4,1.49-8.55,5.15-9.23,1.34-.25,2.92.86,4.13,2-6.57-1.81-7.07,4-9.4,7.16Z"/><path d="M597,260.87c.46,3.64.94,7.34,1.52,11.87C593.28,262.66,593.28,262.66,597,260.87Z"/><path d="M48.12,16.84,32,21.26l-.3-1,16-4.88Z"/><path d="M585,150.24c.36,1.32,1.39,3.48,1,3.8a81.86,81.86,0,0,1-8.32,5.13c.69-5.17,9.23-1.92,5.31-9.11Z"/><path class="cls-1" d="M33.25,92.69l-8,3.06-1.42-2,7.31-8.51,2,.79v6.86Z"/><path class="cls-1" d="M464.2,215.18l5.75-1.46-.48,4.94-5.33-.85Z"/><path class="cls-1" d="M494.46,217.33l-3.34,4.23c-1-1.25-2-2.49-3.05-3.74q2.34-1.29,4.66-2.6Z"/><path class="cls-1" d="M264.61,92l7.51-6.86,1.7,1.86L266.38,94Z"/><path class="cls-1" d="M223,32.63c-.07,5.28-2.34,8.07-7.63,9.39C214.77,36.88,217.58,33.43,223,32.63Z"/><path class="cls-1" d="M492.78,148.8c1.85-2,3.59-4.14,5.61-6,.61-.54,2-.22,3-.3-.17,1,0,2.57-.57,3-2.16,1.68-4.6,3-6.93,4.47Z"/><path class="cls-1" d="M660.47,141.7c2.2-.77,4.38-1.61,6.62-2.25.38-.11,1.46.67,1.43,1-.08.88-.37,2.33-.89,2.48a51.11,51.11,0,0,1-6.31,1.13Z"/><path class="cls-1" d="M610.7,88c-1.86,4.65-3.47,8.11-8,7.35-1-.16-2.46-3.48-2-4.79C602.42,85.17,606.61,88.73,610.7,88Z"/><path class="cls-1" d="M338.25,272c.65-6.46,2.49-8,8.19-6.46Z"/><path class="cls-1" d="M75.91,38.09l4-1.67c2.64,4.62,1.29,6.72-5.23,7.7.52-2.23,1-4.21,1.43-6.19Z"/><path class="cls-1" d="M468.11,265.89c2.17-.41,4.41-1.3,6.49-1,1.22.17,2.19,2.2,3.27,3.38-.26.53-.52,1.06-.79,1.59l-8.81-1.42C468.22,267.57,468.16,266.73,468.11,265.89Z"/><path class="cls-1" d="M234.33,220.07,224.84,223l-.63-1.92,9.34-3.35Z"/><path class="cls-1" d="M58.92,39.54c.72,5.5,0,6.13-6.91,6.7Z"/><path class="cls-1" d="M422.31,273c2.65-4.71,6.2-8.12,11.35-9.54.63-.18,2.69,1.75,2.6,2.54C435.69,271,427.93,275.09,422.31,273Z"/><path class="cls-1" d="M259.49,219.75l5.59-4.15,1.36.56c-.24,1.47,0,3.68-.83,4.25-1.46,1-3.6.93-5.46,1.31Z"/><path class="cls-1" d="M339.47,84.79l4.83,2.27a31.26,31.26,0,0,1-5.33,3c-1,.35-2.42-.4-5.07-.94l5.72-4.42Z"/></g></g></svg>