<svg xmlns="http://www.w3.org/2000/svg" xmlns:xlink="http://www.w3.org/1999/xlink" viewBox="99 99 97.93939394 74.45454545">
  <defs>
    <path id="ab" fill="#fff" fill-opacity="0" stroke="#000" stroke-width="2" d="M100 100h93.94v70.45H100V100z"/>
    <path id="bb" d="M146.63 107.05v56.36"/>
    <path id="cb" d="M154.02 131.19h4.33l28.54.04"/>
    <path id="db" d="M174.56 107.63h11.75v11.74h-11.75v-11.74z"/>
    <path id="eb" d="M154.02 154.79h4.36l28.75.05"/>
    <path id="fb" d="M154.02 143.05h4.33l28.54.04"/>
    <path id="gb" d="M137.03 141.58c1.79 0 2.68 1.54 2.68 3.53.01 2.61-1.39 5.17-4.19 7.68l-2.38 1.91-.11-.09-2-1.82c-2.86-2.44-4.29-5-4.29-7.68 0-1.99.84-3.53 2.63-3.53 1.19 0 2.48 1.11 3.86 3.33 1.34-2.22 2.61-3.33 3.8-3.33z"/>
    <path id="ib" d="M106.87 144.93l.93-.92.64-.73c.21-.2.43-.36.66-.48.22-.12.45-.2.69-.24.23-.06.48-.09.76-.1.28 0 .58.02.91.07.22.06.41.11.58.17.16.06.3.13.41.19l1.21.63 1.03.59c.13.06.28.12.47.17.18.05.4.1.65.13.19.03.4.03.64.02.24-.01.5-.04.79-.09.2-.03.42-.09.64-.17.21-.08.44-.17.68-.29.17-.1.34-.22.51-.37.16-.15.33-.32.5-.51l.67-.77"/>
    <path id="jb" d="M107.05 121.49l.88-.86.61-.68c.2-.19.41-.35.63-.46.21-.12.44-.19.66-.23.22-.05.46-.08.72-.09.27 0 .56.02.87.06.21.05.39.11.55.16.16.06.29.11.39.18l1.16.58.97.54c.12.07.27.12.45.17.17.04.38.08.62.12.18.02.38.02.61.01.23-.01.48-.04.75-.08.2-.04.4-.09.61-.17.21-.07.42-.16.65-.28.16-.09.32-.2.48-.34.16-.14.32-.3.48-.48l.65-.72"/>
    <path id="kb" d="M139.92 131.08c-.16-.1-.33-.2-.51-.29-.18-.1-.37-.18-.56-.26-.24-.09-.5-.17-.78-.23-.28-.07-.58-.11-.9-.13-.32-.01-.61.02-.86.08-.26.07-.49.16-.69.28-.13.07-.27.15-.43.24-.16.09-.3.2-.44.33-.21.14-.39.29-.54.45-.16.16-.35.32-.58.49-.21.15-.47.28-.79.38-.32.1-.69.17-1.12.22-.26.01-.55-.01-.85-.08-.3-.06-.62-.16-.96-.31-.23-.12-.44-.28-.64-.48-.2-.19-.38-.41-.55-.64-.17-.19-.35-.34-.52-.44-.17-.1-.37-.19-.59-.28l-.99-.34-.66-.2c-.16-.05-.35-.09-.58-.11-.22-.03-.49-.05-.78-.05-.35.01-.66.04-.93.09-.26.04-.5.09-.71.15-.36.1-.66.19-.89.27-.24.08-.41.14-.53.19l-1.19.59-1.06.62-.75.5c-.24.14-.48.24-.72.3-.24.07-.48.1-.71.09-.23.01-.48-.01-.74-.05-.27-.04-.56-.11-.86-.21-.2-.08-.38-.16-.52-.23-.15-.08-.27-.16-.36-.23l-1.04-.73-.88-.66c-.1-.07-.24-.15-.41-.22-.17-.08-.37-.15-.6-.22-.18-.05-.38-.09-.61-.12-.23-.03-.49-.05-.78-.06-.2 0-.41.01-.63.04-.23.03-.47.08-.71.14-.19.05-.37.12-.56.22-.19.09-.38.21-.57.35l-.79.53"/>
  </defs>
  <use fill="#fff" xlink:href="#a"/>
  <use fill-opacity="0" stroke="#000" stroke-width="2" xlink:href="#ab"/>
  <use fill-opacity="0" stroke="#000" stroke-width="2" xlink:href="#bb"/>
  <use fill-opacity="0" stroke="#000" stroke-width="2" xlink:href="#cb"/>
  <use fill="#fff" xlink:href="#d"/>
  <use fill-opacity="0" stroke="#000" stroke-width="2" xlink:href="#db"/>
  <use fill-opacity="0" stroke="#000" stroke-width="2" xlink:href="#eb"/>
  <use fill-opacity="0" stroke="#000" stroke-width="2" xlink:href="#fb"/>
  <use fill="#fff" xlink:href="#g"/>
  <use fill-opacity="0" stroke="#000" stroke-width="2" xlink:href="#gb"/>
  <use fill-opacity="0" stroke="#000" stroke-width="5" xlink:href="#hb"/>
  <g>
    <use fill-opacity="0" stroke="#000" stroke-width="2" xlink:href="#ib"/>
  </g>
  <g>
    <use fill-opacity="0" stroke="#000" stroke-width="2" xlink:href="#jb"/>
  </g>
  <g>
    <use fill-opacity="0" stroke="#000" stroke-width="2" xlink:href="#kb"/>
  </g>
</svg>
