<svg xmlns="http://www.w3.org/2000/svg" viewBox="40 225 100 55">
  <path d="M63.767803 245.14099c.339381.19095.647443.4536 1.018145.57286 3.33094 1.07162 7.751958.31753 10.821363-1.11894.94225-.44097 1.742662-1.1368 2.613994-1.7052.678709-.7559 1.477565-1.41916 2.036124-2.26771.525037-.79763.957012-1.68277 1.176084-2.61222.526378-2.23325.115856-3.65689-1.79333-5.13008-2.31041-1.78277-4.217104-1.42443-6.963029-1.57121-1.686473.36721-3.427939.53833-5.059418 1.10163-6.83328 2.35933-12.992581 8.84371-16.733184 14.81444-1.114464 1.7789-1.98729 3.69821-2.980933 5.54732-1.921185 4.95542-3.761044 10.09706-2.099731 15.44738.78231 2.51944 2.335123 4.70469 4.928055 5.62626 1.309108.46527 2.76442.28096 4.14663.42143 1.828929-.50462 3.721346-.81902 5.486788-1.5139 2.796704-1.10077 7.131484-3.99481 9.55593-5.63874 3.825507-2.59399 7.488552-5.41291 11.15976-8.21711 2.18504-1.74825 5.450122-4.3718 7.554366-6.22012-.12152-.0455-.666629.804-.744499.71185-.586593-.69415 1.087603.008.969587-1.89069-.0117-.18826-4.033405.99422-4.186393 1.10453-.681984.49172-.668642.79817-1.330362 1.39723-1.968355 2.22917-3.587539 4.12698-4.512607 7.00082-.13738.42678-.202716.87349-.304075 1.31023.02569.41207.120615.53261.210705.93553.770862 1.03608 2.093778 2.35899 5.628231.98334.448152-.17442 1.239102-.68064 1.623579-.9695 2.15338-2.33829 1.719669-4.10001 2.735579-7.06721.387311-1.2446.779008-2.49403 1.030256-3.77493.20706-1.3525-.492151-1.12168-2.618232-.48323-.18442.0554-.02254.38445-.03383.57667-.0042 2.03571.165548 4.06571.459695 6.07856.334288 1.42446.515261 2.92419 1.092129 4.27964.276823.55123.69102.92495 1.264166 1.13466.361082.0254-.138022-.0734-.04534-.009.08433.0586.618981.26693.80647.32446 1.033331.31706 1.129941.26329 2.188274.26329.79375 0 1.486401-.19545 2.185242-.48059 1.151192-.4697 2.142895-1.88011 2.766349-2.81098 1.523989-2.27546 2.482619-4.83839 3.493739-7.36323 1.4027-3.77482 2.50863-7.65463 3.31729-11.59838.28744-1.44051.26699-2.91174.26753-4.37303-.0203-.49644.0238-.99756-.0249-1.49276-.88367.0855-1.80741-.0202-2.65103.25645-.21175.0694-.0914.43628-.13069.65563-.0747.41685-.14054.83525-.21151 1.25276-.38126 2.24289-.73059 4.48238-1.03835 6.73685-.32913 2.88132-.62601 5.77105-.51996 8.67584.0483 1.32273.20972 3.40556.6592 4.69495.24761.71029.67347 1.34526 1.0102 2.01789 1.18625 1.64806 2.65586 3.04668 4.6052 3.74745.64857.23316 1.32713.46298 2.01631.45774 2.92936-.0222 3.23883-.47907 5.60674-1.66905 3.14945-2.23289 6.21619-5.01808 7.48084-8.78898.16728-.49876.23731-1.02502.35597-1.53752.0978-1.39966-.0519-2.73835-1.55793-3.34536-.40648-.16383-.87891-.20161-1.30935-.11922-2.02146.38689-1.97628.61218-3.21094 1.78597-.28098.41066-.64815.77409-.84291 1.23197-.72784 1.71112-.58517 4.12987.0978 5.83009.70892 1.76472 1.38953 2.28367 2.62382 3.65697.57863.43977 1.1192.93473 1.73589 1.31931 2.6338 1.64249 5.70174 1.89217 8.63565.89529.70171-.23843 1.30474-.70331 1.9571-1.05497 2.62675-1.99036 4.60851-4.6347 5.61855-7.79316.23835-.74532.46222-1.50946.51594-2.29011.0571-.82967-.12476-1.65858-.18714-2.48787-.6808-1.97333-.81633-2.97913-2.24914-4.60417-2.06168-2.33831-5.15625-3.78861-8.11538-4.57004-1.21317-.32036-2.46564-.46712-3.69847-.70067-9.09299-.84804-18.23143-.026-27.305424.68639-2.181196.0938-3.483736.68896-4.806653.68896l-2.485697 2.29851c2.254543-.059 4.468733-.63547 6.721353-.76354 8.912541-.92094 17.909291-1.72378 26.861051-.86721 1.1495.20469 2.31468.33533 3.4485.61408 2.56665.63102 5.3995 1.78251 7.26049 3.74662 1.2234 1.29117 1.36204 2.13262 1.9588 3.72788.0637.6388.23242 1.27575.19124 1.9164-.0431.67139-.23357 1.32956-.441 1.96956-.88731 2.73767-2.62926 5.02543-4.97861 6.66368-.54037.25602-1.07493.52466-1.62111.76806-.24563.10946-.48759.24587-.75289.28987-2.34881.38956-4.4516-.41173-6.2734-1.86901-.9344-.95527-1.67475-1.53013-2.21754-2.78657-.47426-1.09778-.73645-3.07891-.21058-4.2237.14845-.32316.27306-.5235.4856-.80864.079-.10551.25998-.35388.35985-.45812 0 0 .21505-.26583.27394-.33949.10174-.12725.25374-.25399.46223-.26571.10717-.006.16714-.003.35158.0834.23292.10894.21994.84572.2203.85408-.0843.40075-.12588.81293-.25296 1.20224-1.09132 3.34326-3.90155 5.78403-6.72646 7.67214-.66288.29297-1.32232.59387-1.98864.87892-.29636.12677-.57725.33604-.89894.35635-2.25513.1424-4.12694-1.37297-5.47639-2.98422-.2893-.51049-.66057-.98257-.8679-1.53148-.4374-1.158-.61398-3.11381-.66831-4.29566-.12945-2.8166.16222-5.62215.52532-8.41085.33458-2.22573.70569-4.43003 1.17035-6.63241.0824-.39055.16514-.78113.25763-1.16942.0528-.22159.3935-.58566.1781-.65977-.80718-.27772-1.70396-.10556-2.55595-.15835-.003-.0363-.004-.0727-.008-.10886-.009-.0857.0116.1719.0161.25792.0176.33827.0289.67684.0367 1.01548.021 1.33311.0145 2.67216-.20912 3.99089-.663 3.84206-1.6904 7.61633-3.075264 11.26264-1.091869 2.66142-2.322427 6.14569-4.50968 8.13868-.26372.2403-.555629.44606-.831341.67249-.0394.0324-.0311-.0294-.0049.0143-.24855.0201-.496739.0754-.745646.0604-.817396-.0495-.93106-.0757-1.655788-.27789.05222.025.298437-.007.000008-.00001-.202684-.26673-.492216-.78003-.58227-1.09001-.252857-.87036-.472868-1.75059-.636376-2.64246-.280246-1.8796-.439629-3.78137-.346596-5.68314.04886-1.04047-1.080599-1.16769-2.561127-.4666-.03389.0161-.01587.43106-.01233.11183 1.492858-.81292.369871 1.38529.0252 2.53376-.440439 1.28799-.291129 2.71536-.88634 3.79056l-1.614743 2.91691c-.201723.22224-.573526.50117-.825062.77706-.07832.0859-.105984.11235-.139185.13235-.05364.0324.170497-.11566-.08223.0435-.03522.0222-.413759.20354-.587062.25375-.433201.12552-.882592.15629-.985014.17453-.60708.10813-.821027-.32289-.821027-.32289s-.264583-.26459-.143621-.80725c.521901-2.34139 2.55786-4.81732 4.44237-6.71078.274656-.2176.706081-.48224.991011-.68619.172284-.12332.356153-.23102.54497-.32713.06253-.0318.294798.11935.250674.0647 1.322921-.00001-2.046493-1.92333-2.645833-1.32292-2.645834 1.32292-3.293279 3.08318-5.379087 4.831-3.561646 2.84118-7.125658 5.6813-10.915253 8.21906-3.242019 2.17107-5.719353 3.72113-9.285198 5.25941-1.10059.4748-2.269188.77312-3.403782 1.15967-1.124082.005-2.278251.27329-3.372244.0148-2.256047-.53284-3.584268-2.19258-4.324454-4.29575-1.720871-4.88972.059-9.86238 1.825102-14.41587.968269-1.78281 1.81561-3.63683 2.90481-5.34844 3.028153-4.75856 7.028375-9.04282 11.925419-11.91557 1.325361-.77749 2.755654-1.37284 4.194622-1.91177.992939-.37189 2.050478-.54078 3.075715-.81117 2.58395-.0163 3.49088-.37198 5.755674.78563.547489.27984 1.157497.61995 1.421866 1.17507.563946 1.1842-.275593 3.11428-.874805 4.00721-.476425.70996-1.16013 1.25626-1.740192 1.88439-.986398.60701-2.786279 1.85695-4.048863 2.20118-2.121736.57848-4.432749.51109-6.564344.0499l-2.093949 1.57505z"/>
</svg>
