<svg xmlns="http://www.w3.org/2000/svg" viewBox="0 0 606 110.73"><defs><style>.cls-1{fill:#fff;}</style></defs><g id="Layer_2" data-name="Layer 2"><g id="Layer_1-2" data-name="Layer 1"><path class="cls-1" d="M0,110.73V0H606V110.73ZM159.75,38.14a48.1,48.1,0,0,0-2.15-5.73A2.85,2.85,0,0,0,153.47,31c-.95.6-1.43,2.22-1.69,3.48s.18,2.51.11,3.76c-.61,10.29-1.27,20.57-1.91,30.86a35.33,35.33,0,0,0-.2,4.59A5.83,5.83,0,0,0,161,75.63a34.14,34.14,0,0,0,1.42-4.94c2-7.7,3.89-15.41,5.91-23.1a30.18,30.18,0,0,1,1.74-4.07,5.07,5.07,0,0,1,1.1,2.71c.7,6.84,1.32,13.68,2.07,20.51a24.11,24.11,0,0,0,1.25,5.79,5.6,5.6,0,0,0,5.29,3.65,5.8,5.8,0,0,0,5.76-3.35,21.92,21.92,0,0,0,1.4-4.09c2.39-8.5,5.62-16.61,11-23.73.71-.94,1.6-1.75,2.82-3.06.34,2.38.69,4,.8,5.73.39,6.14.57,12.29,1.08,18.41a106.86,106.86,0,0,0,1.79,12.59,4.69,4.69,0,0,0,4.94,3.88c2.63,0,4.15-1.58,4.9-4a9.35,9.35,0,0,0,.58-2.91c-.11-8.93.11-17.89-.63-26.77a39.78,39.78,0,0,0-3.93-13.68c-3-6.24-9.71-7.42-14.73-2.63-3.75,3.58-6.63,8.07-9.85,12.19-.69.89-1.2,1.92-2.16,3.48-.42-1.87-.58-3.09-1-4.25-1.07-3.25-1.83-6.69-3.44-9.66-3.12-5.76-9.31-6.69-14.2-2.3A60.38,60.38,0,0,0,159.75,38.14ZM60.65,81.29l-.69.16c0,.63,0,1.26,0,1.89-.42,6.38-2.28,7.4-7.73,4.2C46.6,84.23,42.61,79.29,39.16,74,38,72.17,37.71,69.82,37,67.74c-.18-.57-.38-1.12-.56-1.68a6.19,6.19,0,0,0-1.85.71c-3.6,3-4.12,7.08-3.2,11.14,2.49,11,9,19.13,19.43,23.51,9.11,3.81,17.4-.41,20.44-9.8a28.52,28.52,0,0,0,.31-16.86c-2.43-8.51-5.45-16.84-8-25.33a51.67,51.67,0,0,1-2.22-11.65c-.28-5.2,2.79-7,7.62-4.87,1.67.74,3.18.84,4.49-.51a3.7,3.7,0,0,0,.45-5,10.86,10.86,0,0,0-3.52-3.26c-7.92-4.39-17.4-.53-19.62,8.32a25.92,25.92,0,0,0-.34,11.22c1.47,6.95,3.92,13.7,5.82,20.57C57.87,69.92,59.21,75.62,60.65,81.29Zm497.52-3.23a24.53,24.53,0,0,0,20-12.7,20.29,20.29,0,0,0,2.12-8.78c.09-1.59-1.25-3.46-2.39-4.84-.92-1.12-2.14-1.29-2.41.95a7.41,7.41,0,0,1-1.73,4.07,43.42,43.42,0,0,1-7.15,6.2c-6.07,4-12.46,3.46-18.12-1.15-3-2.43-4.59-5.7-5.91-9.24-.95-2.55-.44-4,2-5.44,5-3.09,9.75-6.69,12.86-11.87,3.77-6.29.51-13-6.82-13.76-6.36-.69-11.25,2.2-15,7.1s-5.42,10.78-5.71,16.94a3.31,3.31,0,0,1-2.07,3.33c-2.14,1-2.22,2.43-.13,3.08,2.41.73,2.77,2.36,3.25,4.34A27.64,27.64,0,0,0,558.17,78.06ZM347.9,52l1,.64c.32,1.11.7,2.2.94,3.32.93,4.33,1.66,8.71,2.79,13a20.09,20.09,0,0,0,2.91,6.32c1.68,2.37,4.5,2,5.53-.72a14.74,14.74,0,0,0,1.14-6c-.33-5.41-.94-10.8-1.71-16.16a20.76,20.76,0,0,0-2-6.15c-2.93-5.95-9-7.7-14.29-3.66-3.62,2.78-6.54,6.46-9.75,9.77a26.45,26.45,0,0,0-1.76,2.17l-.8-.22c0-2.23.14-4.47,0-6.68-.64-9.1-1.3-18.19-2.15-27.27a7.75,7.75,0,0,0-2-4.31,3.93,3.93,0,0,0-3.56-.79c-.81.36-1.31,2.09-1.4,3.25-.15,2,.29,4,.19,5.93-.7,13.72-1.5,27.44-2.19,41.17a26.37,26.37,0,0,0,.4,6.46,5.88,5.88,0,0,0,4.93,4.84,6,6,0,0,0,6.19-2.55c.82-1.07,1.38-2.33,2.13-3.46,2.81-4.31,5.57-8.67,8.52-12.89C344.38,55.84,346.22,54,347.9,52ZM449.53,27.64c-3.36-1.71-5-1.4-5.72.89-.69,2.13-1.43,4.26-2.24,6.35-2.87,7.49-5.05,15.09-4,23.23C438.91,69,447.76,75,458.24,72.2,468,69.61,475,60.48,475.73,49.44c.63-10-5.46-20-14.49-23.66C457.08,24.13,453.08,24.18,449.53,27.64ZM504,44.71l-.69.06c-.34-.87-.67-1.75-1-2.62-1.74-4.17-3.31-8.42-5.31-12.45a11.68,11.68,0,0,0-4-4.18,3.71,3.71,0,0,0-3.42.39c-.63.49-.7,2.12-.52,3.15.34,1.85,1.16,3.6,1.58,5.44,1.66,7.23,3.1,14.5,4.9,21.68a27.46,27.46,0,0,0,3.32,8c3.21,5.06,9.65,5.21,13.27.42a19.47,19.47,0,0,0,2.93-5.76c4-12.65,6-25.7,7.16-38.86.46-5.24-1.76-8.48-5.4-9.06s-6.93,1.89-8.22,7c-1,3.94-1.56,8-2.23,12C505.44,34.82,504.71,39.77,504,44.71ZM82.44,62.33a53.17,53.17,0,0,0,1.61,7.86c2.84,8.34,10.8,11.93,19,8.71,7.29-2.85,11.66-8.41,13.81-15.74,3.35-11.44-4-25.21-14.79-28.06-4.89-1.29-9-.48-12.32,3.79C84.75,45.42,82.76,52.84,82.44,62.33ZM235.76,48.55l.45,0c0-2.17.08-4.34,0-6.5a16.2,16.2,0,0,0-.62-4c-.54-1.8-1.88-3.26-3.78-2.74-1.32.35-2.42,1.74-3.43,2.84a6,6,0,0,0-.86,2.26c-3.15,10-4.56,20.17-.83,30.32,4.14,11.23,15,14.3,24.61,7.17a24.51,24.51,0,0,0,3.45-3.06c7.6-8.32,10.43-18.24,9.49-29.28a10.57,10.57,0,0,0-2-5.21,5,5,0,0,0-3.87-1.74c-1,.11-2.36,1.61-2.75,2.77-1,2.89-1.39,6-2.25,8.92-1.79,6-4,11.86-9,16.11-3.12,2.67-4.69,2.24-6.25-1.56A14.28,14.28,0,0,1,237,61.2C236.54,57,236.18,52.77,235.76,48.55Zm84.31.52-.95-.47c-.64.77-1.27,1.55-1.93,2.3-4,4.65-7.73,9.58-12.13,13.83a33,33,0,0,1-9.62,5.89c-3.41,1.5-6.25-.43-6.49-4.15a22.49,22.49,0,0,1,.8-7.2c1.89-7,6.23-12.31,11.64-17a4.58,4.58,0,0,0,1.42-3.87c-.36-1.11-2.1-2.21-3.4-2.45a8.38,8.38,0,0,0-4.44.84C284.33,41.31,275.44,55.43,275.52,67c.08,11.81,11.78,20.5,23.54,13.18,9.55-5.93,15.65-14.33,19.18-24.78C318.94,53.33,319.47,51.19,320.07,49.07Zm102.42-2h0c0-3.7.08-7.4,0-11.11s-.25-7.4-.6-11.09a17.82,17.82,0,0,0-1.29-5.76,5,5,0,0,0-8.83-.55A10,10,0,0,0,410.28,22c-3.07,15-4.3,30-2.53,45.23.34,3,1.73,5.86,3.07,8.57a5.29,5.29,0,0,0,5.51,2.79,5.5,5.5,0,0,0,4.94-4.07,24,24,0,0,0,1.17-6.36C422.58,61.13,422.49,54.09,422.49,47Z"/><path d="M159.75,38.14A60.38,60.38,0,0,1,165,32.08c4.89-4.39,11.08-3.46,14.2,2.3,1.61,3,2.37,6.41,3.44,9.66.38,1.16.54,2.38,1,4.25,1-1.56,1.47-2.59,2.16-3.48,3.22-4.12,6.1-8.61,9.85-12.19,5-4.79,11.7-3.61,14.73,2.63a39.78,39.78,0,0,1,3.93,13.68c.74,8.88.52,17.84.63,26.77a9.35,9.35,0,0,1-.58,2.91c-.75,2.37-2.27,3.93-4.9,4a4.69,4.69,0,0,1-4.94-3.88,106.86,106.86,0,0,1-1.79-12.59c-.51-6.12-.69-12.27-1.08-18.41-.11-1.68-.46-3.35-.8-5.73-1.22,1.31-2.11,2.12-2.82,3.06-5.39,7.12-8.62,15.23-11,23.73a21.92,21.92,0,0,1-1.4,4.09,5.8,5.8,0,0,1-5.76,3.35,5.6,5.6,0,0,1-5.29-3.65,24.11,24.11,0,0,1-1.25-5.79c-.75-6.83-1.37-13.67-2.07-20.51a5.07,5.07,0,0,0-1.1-2.71,30.18,30.18,0,0,0-1.74,4.07c-2,7.69-3.94,15.4-5.91,23.1A34.14,34.14,0,0,1,161,75.63a5.83,5.83,0,0,1-11.22-1.94,35.33,35.33,0,0,1,.2-4.59c.64-10.29,1.3-20.57,1.91-30.86.07-1.25-.36-2.57-.11-3.76s.74-2.88,1.69-3.48a2.85,2.85,0,0,1,4.13,1.41A48.1,48.1,0,0,1,159.75,38.14Z"/><path d="M60.65,81.29c-1.44-5.67-2.78-11.37-4.33-17C54.42,57.41,52,50.66,50.5,43.71a25.92,25.92,0,0,1,.34-11.22c2.22-8.85,11.7-12.71,19.62-8.32A10.86,10.86,0,0,1,74,27.43a3.7,3.7,0,0,1-.45,5c-1.31,1.35-2.82,1.25-4.49.51-4.83-2.11-7.9-.33-7.62,4.87a51.67,51.67,0,0,0,2.22,11.65c2.5,8.49,5.52,16.82,8,25.33a28.52,28.52,0,0,1-.31,16.86c-3,9.39-11.33,13.61-20.44,9.8C40.37,97,33.9,88.91,31.41,77.91c-.92-4.06-.4-8.18,3.2-11.14a6.19,6.19,0,0,1,1.85-.71c.18.56.38,1.11.56,1.68.69,2.08,1,4.43,2.14,6.22,3.45,5.33,7.44,10.27,13.07,13.58,5.45,3.2,7.31,2.18,7.73-4.2,0-.63,0-1.26,0-1.89Z"/><path d="M558.17,78.06a27.64,27.64,0,0,1-27.29-21.77c-.48-2-.84-3.61-3.25-4.34-2.09-.65-2-2.06.13-3.08a3.31,3.31,0,0,0,2.07-3.33c.29-6.16,1.89-12,5.71-16.94s8.65-7.79,15-7.1c7.33.79,10.59,7.47,6.82,13.76-3.11,5.18-7.82,8.78-12.86,11.87-2.4,1.48-2.91,2.89-2,5.44,1.32,3.54,2.92,6.81,5.91,9.24,5.66,4.61,12,5.15,18.12,1.15a43.42,43.42,0,0,0,7.15-6.2,7.41,7.41,0,0,0,1.73-4.07c.27-2.24,1.49-2.07,2.41-.95,1.14,1.38,2.48,3.25,2.39,4.84a20.29,20.29,0,0,1-2.12,8.78A24.53,24.53,0,0,1,558.17,78.06ZM541.92,40.18c3.67-2.83,7-5.64,9.14-9.87C546.2,29.47,542.43,33.68,541.92,40.18Z"/><path d="M347.9,52c-1.68,2-3.52,3.84-5,6-2.95,4.22-5.71,8.58-8.52,12.89-.75,1.13-1.31,2.39-2.13,3.46a6,6,0,0,1-6.19,2.55A5.88,5.88,0,0,1,321.13,72a26.37,26.37,0,0,1-.4-6.46c.69-13.73,1.49-27.45,2.19-41.17.1-2-.34-4-.19-5.93.09-1.16.59-2.89,1.4-3.25a3.93,3.93,0,0,1,3.56.79,7.75,7.75,0,0,1,2,4.31c.85,9.08,1.51,18.17,2.15,27.27.16,2.21,0,4.45,0,6.68l.8.22a26.45,26.45,0,0,1,1.76-2.17c3.21-3.31,6.13-7,9.75-9.77,5.26-4,11.36-2.29,14.29,3.66a20.76,20.76,0,0,1,2,6.15c.77,5.36,1.38,10.75,1.71,16.16a14.74,14.74,0,0,1-1.14,6c-1,2.69-3.85,3.09-5.53.72a20.09,20.09,0,0,1-2.91-6.32c-1.13-4.27-1.86-8.65-2.79-13-.24-1.12-.62-2.21-.94-3.32Z"/><path d="M449.53,27.64c3.55-3.46,7.55-3.51,11.71-1.86,9,3.61,15.12,13.62,14.49,23.66-.69,11-7.7,20.17-17.49,22.76C447.76,75,438.91,69,437.55,58.11c-1-8.14,1.15-15.74,4-23.23.81-2.09,1.55-4.22,2.24-6.35C444.55,26.24,446.17,25.93,449.53,27.64Zm1,19.07h-.29c.15,2.79.12,5.61.51,8.37.8,5.6,4.14,7,8.81,3.65a11.23,11.23,0,0,0,2.82-2.89,16.39,16.39,0,0,0,2.24-14,16.26,16.26,0,0,0-9.79-10.94c-1.36-.55-3.42-1.25-3.59,1.47C450.92,37.14,450.74,41.93,450.51,46.71Z"/><path d="M504,44.71c.76-4.94,1.49-9.89,2.3-14.83.67-4,1.24-8,2.23-12,1.29-5.12,4.44-7.61,8.22-7s5.86,3.82,5.4,9.06C520.94,33.1,519,46.15,514.94,58.8A19.47,19.47,0,0,1,512,64.56c-3.62,4.79-10.06,4.64-13.27-.42a27.46,27.46,0,0,1-3.32-8c-1.8-7.18-3.24-14.45-4.9-21.68-.42-1.84-1.24-3.59-1.58-5.44-.18-1-.11-2.66.52-3.15a3.71,3.71,0,0,1,3.42-.39,11.68,11.68,0,0,1,4,4.18c2,4,3.57,8.28,5.31,12.45.37.87.7,1.75,1,2.62Z"/><path d="M82.44,62.33c.32-9.49,2.31-16.91,7.35-23.44,3.3-4.27,7.43-5.08,12.32-3.79C113,38,120.25,51.72,116.9,63.16c-2.15,7.33-6.52,12.89-13.81,15.74-8.24,3.22-16.2-.37-19-8.71A53.17,53.17,0,0,1,82.44,62.33ZM98.68,42.89c-3.06,4.37-4.63,13.35-3.21,19.54.34,1.48,1.22,3.76,2.17,3.94,1.35.25,3.34-.79,4.43-1.89a14,14,0,0,0,3.2-5.23C107.19,53.61,104.08,46.2,98.68,42.89Z"/><path d="M235.76,48.55c.42,4.22.78,8.44,1.28,12.65a14.28,14.28,0,0,0,1.08,3.63c1.56,3.8,3.13,4.23,6.25,1.56,5-4.25,7.21-10.09,9-16.11.86-2.94,1.27-6,2.25-8.92.39-1.16,1.72-2.66,2.75-2.77a5,5,0,0,1,3.87,1.74,10.57,10.57,0,0,1,2,5.21c.94,11-1.89,21-9.49,29.28a24.51,24.51,0,0,1-3.45,3.06c-9.64,7.13-20.47,4.06-24.61-7.17-3.73-10.15-2.32-20.29.83-30.32a6,6,0,0,1,.86-2.26c1-1.1,2.11-2.49,3.43-2.84,1.9-.52,3.24.94,3.78,2.74a16.2,16.2,0,0,1,.62,4c.1,2.16,0,4.33,0,6.5Z"/><path d="M320.07,49.07c-.6,2.12-1.13,4.26-1.83,6.34-3.53,10.45-9.63,18.85-19.18,24.78C287.3,87.51,275.6,78.82,275.52,67c-.08-11.58,8.81-25.7,19.45-30.19a8.38,8.38,0,0,1,4.44-.84c1.3.24,3,1.34,3.4,2.45a4.58,4.58,0,0,1-1.42,3.87c-5.41,4.66-9.75,10-11.64,17a22.49,22.49,0,0,0-.8,7.2c.24,3.72,3.08,5.65,6.49,4.15a33,33,0,0,0,9.62-5.89c4.4-4.25,8.13-9.18,12.13-13.83.66-.75,1.29-1.53,1.93-2.3Z"/><path d="M422.49,47c0,7.05.09,14.09-.05,21.13a24,24,0,0,1-1.17,6.36,5.5,5.5,0,0,1-4.94,4.07,5.29,5.29,0,0,1-5.51-2.79c-1.34-2.71-2.73-5.62-3.07-8.57C406,52.05,407.21,37,410.28,22a10,10,0,0,1,1.44-3.48,5,5,0,0,1,8.83.55,17.82,17.82,0,0,1,1.29,5.76c.35,3.69.51,7.39.6,11.09s0,7.41,0,11.11Z"/><path class="cls-1" d="M541.92,40.18c.51-6.5,4.28-10.71,9.14-9.87C548.94,34.54,545.59,37.35,541.92,40.18Z"/><path class="cls-1" d="M450.51,46.71c.23-4.78.41-9.57.71-14.35.17-2.72,2.23-2,3.59-1.47a16.26,16.26,0,0,1,9.79,10.94,16.39,16.39,0,0,1-2.24,14,11.23,11.23,0,0,1-2.82,2.89c-4.67,3.31-8,1.95-8.81-3.65-.39-2.76-.36-5.58-.51-8.37Z"/><path class="cls-1" d="M98.68,42.89c5.4,3.31,8.51,10.72,6.59,16.36a14,14,0,0,1-3.2,5.23c-1.09,1.1-3.08,2.14-4.43,1.89-1-.18-1.83-2.46-2.17-3.94C94.05,56.24,95.62,47.26,98.68,42.89Z"/></g></g></svg>