<svg xmlns="http://www.w3.org/2000/svg" viewBox="0 0 344.18 147.82"><defs><style>.cls-1{fill:#fff;}</style></defs><g id="Layer_2" data-name="Layer 2"><g id="Layer_1-2" data-name="Layer 1"><path class="cls-1" d="M344.18,147.82H0V0H344.18Zm-80.3-68.16c-2.1,1.23-3.83,2.35-5.65,3.31-4.72,2.51-9.4,5.11-14.25,7.33-1.95.9-4.29.91-6.46,1.33,0-2.37-.61-5,.27-7,2.53-5.77,5.66-11.29,8.61-16.88,1-1.84,2.28-3.5,3.18-5.37s1.1-4-.86-5.4-3.74-.71-5.16.77c-4.19,4.37-8.27,8.85-12.37,13.3-.52.55-.94,1.19-1.71,2.19-.45-5.76-.64-11-1.33-16.16a44.32,44.32,0,0,0-2.56-9.63,4.52,4.52,0,0,0-5.13-2.78c-2.35.37-3.56,2-3.94,4.28a18.59,18.59,0,0,0-.38,3c-.19,14.22-.59,28.45-.38,42.67.07,5.08,1.48,10.17,2.6,15.18a4.73,4.73,0,0,0,5,3.78c2.73-.1,4.26-1.87,4.83-4.4.54-2.37.89-4.77,1.39-7.57,4.9,3,9.52,1.68,14.06-.6A46.44,46.44,0,0,0,260,87.57c.46-.61,1-1.18,1.72-2.08.4,10,5.5,16.14,14.33,19.09s16.48-3.91,15-13c-.75-4.68-3.39-8.34-6.48-11.72-2.32-2.55-4.87-4.88-7.14-7.47-3.28-3.75-3-5.53,1.57-7.6,2.36-1.08,5.1-1.32,7.48-2.36,1.32-.59,3-2,3.16-3.14.15-1.35-1-3.06-2.06-4.25a5.87,5.87,0,0,0-3.2-1.31c-5.12-1-9.73.52-13.92,3.33-7,4.71-8.23,12.19-2.91,18.74,2.22,2.72,5.07,4.91,7.51,7.47A41.12,41.12,0,0,1,280.75,90c.82,1.38,1.09,4.12.25,5.15s-3.52,1.1-5.11.63C268.6,93.7,264.56,88.19,263.88,79.66ZM92.32,91.89l-.65,0V89c-.06-9.88,0-19.75-.21-29.62a24.2,24.2,0,0,0-1.13-6.64,4.66,4.66,0,0,0-8.74.18,15.64,15.64,0,0,0-.94,4.5c-.39,16.48-.76,33-1,49.43a20.17,20.17,0,0,0,1.43,6.85,5.44,5.44,0,0,0,5.26,3.67,5.61,5.61,0,0,0,5.25-3.27c.6-1.11,1-2.31,1.56-3.47,4.38-9.53,8.72-19.08,13.17-28.59a53.28,53.28,0,0,1,3.15-5.2l.78.22c0,1.51-.07,3,0,4.52.39,6.51.69,13,1.34,19.5a15.43,15.43,0,0,0,2.26,6.29,4.14,4.14,0,0,0,3.6,1.49c1-.27,2.1-2,2.17-3.19.44-8.14.83-16.29.81-24.43A60.33,60.33,0,0,0,119,69.13a6.79,6.79,0,0,0-5.55-5.7c-3.16-.56-5.57.88-7.25,3.31a110.57,110.57,0,0,0-6.42,10.38C97.12,82,94.78,87,92.32,91.89ZM56.83,61.15c-.17,1.55-.32,3.07-.51,4.58-1.63,13.41-3.21,26.82-2.45,40.37a32.52,32.52,0,0,0,1.35,7.17,3.24,3.24,0,0,0,2.24,1.82c.53.08,1.57-1.11,1.83-1.9a27.82,27.82,0,0,0,1.14-5.57q2.49-24.48,4.84-49a4.91,4.91,0,0,1,2.34-3.92q11.17-8,22.11-16.28a24.37,24.37,0,0,0,4.63-4.93,4.94,4.94,0,0,0-5.82-7.6A51.35,51.35,0,0,0,81,29.58,344.19,344.19,0,0,1,38.54,52.33a48.49,48.49,0,0,0-8.72,5.48,5,5,0,0,0-2,6c.86,2.47,3,3.41,5.38,3.41a23.72,23.72,0,0,0,6.46-.77C45.3,64.87,50.87,63,56.83,61.15Zm94.58,45a17,17,0,0,0,1.08,4c.6,1.09,1.67,2.62,2.59,2.66,1.13,0,2.57-1,3.42-2a8.42,8.42,0,0,0,1.58-3.7c2.06-10.13,3.8-20.29,3-30.71a6.34,6.34,0,0,1,.77-3.23,3.39,3.39,0,0,0-.65-4.41,18.34,18.34,0,0,1-3-3.94c-4.07-8.06-12-10.2-19.24-4.74a37.76,37.76,0,0,0-7,7.5c-.8,1.06-.49,3-.68,4.47,1.51.06,3.15.54,4.48.09,2.56-.86,4.91-2.31,7.41-3.38,1.37-.59,2.77-.82,3.74.92s-.21,2.4-1.3,3.26a40.81,40.81,0,0,0-13.4,18.76c-1.32,3.73-1.92,7.54-.8,11.46,1.84,6.44,7.81,9,13.67,5.8C148.52,108.13,149.82,107.17,151.41,106.14Zm33.34-30.35c-.46-4.61-.77-8.85-1.37-13.05-.31-2.13-1.35-4.17-4-4-2.5.21-2.74,2.34-2.83,4.28Q175.72,81.52,175,100a16.27,16.27,0,0,0,.43,4.57c.51,2,2.09,3.56,4.12,3.24,1.56-.24,3.06-1.54,4.34-2.64.56-.49.55-1.67.76-2.55a88.46,88.46,0,0,1,9.74-24.94c.91-1.57,2.09-3,3.14-4.48l.83.27c.66,5.45,1.22,10.92,2,16.36.71,4.91,1.51,9.82,2.58,14.67.46,2.08,1.53,4.43,4.3,4.08s2.8-2.83,3-4.85a103.75,103.75,0,0,0-1-29.49,28.78,28.78,0,0,0-2.45-7.71c-2.91-5.87-8.87-6.89-13.75-2.48a25.81,25.81,0,0,0-3.88,4.52C187.63,70.76,186.35,73.14,184.75,75.79Zm117,22.4.9-.46a11.13,11.13,0,0,0,.23-1.26c.88-10.46,1.67-20.92,2.64-31.37.91-9.82,2.09-19.62,2.95-29.45a26,26,0,0,0-.63-7.5,4.5,4.5,0,0,0-4.33-3.54,4.61,4.61,0,0,0-4.8,2.9,26.89,26.89,0,0,0-1.91,5.63c-3.19,15.66-3.33,31.48-1.69,47.29.44,4.34,2,8.6,3.39,12.78C299.08,95,300.61,96.54,301.72,98.19Zm7,20.75c-3.11,0-5,1.88-5,4.81a6.38,6.38,0,0,0,6.25,6.18,5.2,5.2,0,0,0,5-5.3A6,6,0,0,0,308.74,118.94Z"/><path d="M263.88,79.66c.68,8.53,4.72,14,12,16.16,1.59.47,4.3.35,5.11-.63s.57-3.77-.25-5.15A41.12,41.12,0,0,0,275,83.23c-2.44-2.56-5.29-4.75-7.51-7.47-5.32-6.55-4.1-14,2.91-18.74,4.19-2.81,8.8-4.32,13.92-3.33a5.87,5.87,0,0,1,3.2,1.31c1,1.19,2.21,2.9,2.06,4.25-.13,1.18-1.84,2.55-3.16,3.14-2.38,1-5.12,1.28-7.48,2.36-4.53,2.07-4.85,3.85-1.57,7.6,2.27,2.59,4.82,4.92,7.14,7.47,3.09,3.38,5.73,7,6.48,11.72,1.48,9.13-6.23,16-15,13s-13.93-9.07-14.33-19.09c-.75.9-1.26,1.47-1.72,2.08a46.44,46.44,0,0,1-16.26,13.35c-4.54,2.28-9.16,3.55-14.06.6-.5,2.8-.85,5.2-1.39,7.57-.57,2.53-2.1,4.3-4.83,4.4a4.73,4.73,0,0,1-5-3.78c-1.12-5-2.53-10.1-2.6-15.18-.21-14.22.19-28.45.38-42.67a18.59,18.59,0,0,1,.38-3c.38-2.27,1.59-3.91,3.94-4.28a4.52,4.52,0,0,1,5.13,2.78A44.32,44.32,0,0,1,228.15,57c.69,5.17.88,10.4,1.33,16.16.77-1,1.19-1.64,1.71-2.19,4.1-4.45,8.18-8.93,12.37-13.3,1.42-1.48,3.31-2.12,5.16-.77s1.79,3.5.86,5.4-2.21,3.53-3.18,5.37c-3,5.59-6.08,11.11-8.61,16.88-.88,2-.22,4.68-.27,7,2.17-.42,4.51-.43,6.46-1.33,4.85-2.22,9.53-4.82,14.25-7.33C260.05,82,261.78,80.89,263.88,79.66Z"/><path d="M92.32,91.89C94.78,87,97.12,82,99.74,77.12a110.57,110.57,0,0,1,6.42-10.38c1.68-2.43,4.09-3.87,7.25-3.31a6.79,6.79,0,0,1,5.55,5.7,60.33,60.33,0,0,1,1.52,12.08c0,8.14-.37,16.29-.81,24.43-.07,1.16-1.2,2.92-2.17,3.19a4.14,4.14,0,0,1-3.6-1.49,15.43,15.43,0,0,1-2.26-6.29c-.65-6.48-1-13-1.34-19.5-.09-1.5,0-3,0-4.52l-.78-.22a53.28,53.28,0,0,0-3.15,5.2c-4.45,9.51-8.79,19.06-13.17,28.59-.53,1.16-1,2.36-1.56,3.47a5.61,5.61,0,0,1-5.25,3.27,5.44,5.44,0,0,1-5.26-3.67,20.17,20.17,0,0,1-1.43-6.85c.21-16.48.58-32.95,1-49.43a15.64,15.64,0,0,1,.94-4.5,4.66,4.66,0,0,1,8.74-.18,24.2,24.2,0,0,1,1.13,6.64c.16,9.87.15,19.74.21,29.62v2.87Z"/><path d="M56.83,61.15c-6,1.87-11.53,3.72-17.18,5.32a23.72,23.72,0,0,1-6.46.77c-2.38,0-4.52-.94-5.38-3.41a5,5,0,0,1,2-6,48.49,48.49,0,0,1,8.72-5.48A344.19,344.19,0,0,0,81,29.58a51.35,51.35,0,0,1,7.58-3.65,4.94,4.94,0,0,1,5.82,7.6,24.37,24.37,0,0,1-4.63,4.93Q78.79,46.77,67.61,54.74a4.91,4.91,0,0,0-2.34,3.92q-2.32,24.48-4.84,49a27.82,27.82,0,0,1-1.14,5.57c-.26.79-1.3,2-1.83,1.9a3.24,3.24,0,0,1-2.24-1.82,32.52,32.52,0,0,1-1.35-7.17c-.76-13.55.82-27,2.45-40.37C56.51,64.22,56.66,62.7,56.83,61.15Z"/><path d="M151.41,106.14c-1.59,1-2.89,2-4.31,2.77-5.86,3.2-11.83.64-13.67-5.8-1.12-3.92-.52-7.73.8-11.46a40.81,40.81,0,0,1,13.4-18.76c1.09-.86,2.28-1.52,1.3-3.26s-2.37-1.51-3.74-.92c-2.5,1.07-4.85,2.52-7.41,3.38-1.33.45-3,0-4.48-.09.19-1.52-.12-3.41.68-4.47a37.76,37.76,0,0,1,7-7.5c7.2-5.46,15.17-3.32,19.24,4.74a18.34,18.34,0,0,0,3,3.94,3.39,3.39,0,0,1,.65,4.41,6.34,6.34,0,0,0-.77,3.23c.79,10.42-1,20.58-3,30.71a8.42,8.42,0,0,1-1.58,3.7c-.85,1-2.29,2.07-3.42,2-.92,0-2-1.57-2.59-2.66A17,17,0,0,1,151.41,106.14Zm-6.61-7.85.93.4c5.74-2.58,7.1-6,4.29-12.78Z"/><path d="M184.75,75.79c1.6-2.65,2.88-5,4.41-7.24A25.81,25.81,0,0,1,193,64c4.88-4.41,10.84-3.39,13.75,2.48a28.78,28.78,0,0,1,2.45,7.71,103.75,103.75,0,0,1,1,29.49c-.22,2-.36,4.52-3,4.85s-3.84-2-4.3-4.08c-1.07-4.85-1.87-9.76-2.58-14.67-.79-5.44-1.35-10.91-2-16.36l-.83-.27c-1.05,1.49-2.23,2.91-3.14,4.48a88.46,88.46,0,0,0-9.74,24.94c-.21.88-.2,2.06-.76,2.55-1.28,1.1-2.78,2.4-4.34,2.64-2,.32-3.61-1.2-4.12-3.24A16.27,16.27,0,0,1,175,100q.7-18.45,1.55-36.91c.09-1.94.33-4.07,2.83-4.28,2.66-.22,3.7,1.82,4,4C184,66.94,184.29,71.18,184.75,75.79Z"/><path d="M301.72,98.19c-1.11-1.65-2.64-3.16-3.25-5-1.4-4.18-3-8.44-3.39-12.78-1.64-15.81-1.5-31.63,1.69-47.29a26.89,26.89,0,0,1,1.91-5.63,4.61,4.61,0,0,1,4.8-2.9,4.5,4.5,0,0,1,4.33,3.54,26,26,0,0,1,.63,7.5c-.86,9.83-2,19.63-2.95,29.45-1,10.45-1.76,20.91-2.64,31.37a11.13,11.13,0,0,1-.23,1.26Z"/><path d="M308.74,118.94a6,6,0,0,1,6.32,5.69,5.2,5.2,0,0,1-5,5.3,6.38,6.38,0,0,1-6.25-6.18C303.73,120.82,305.63,119,308.74,118.94Z"/><path class="cls-1" d="M144.8,98.29,150,85.91c2.81,6.74,1.45,10.2-4.29,12.78Z"/></g></g></svg>