<svg xmlns="http://www.w3.org/2000/svg" xmlns:xlink="http://www.w3.org/1999/xlink" viewBox="46.87399875 173.72185418 98.45933458 56.16574338">
  <defs>
    <path id="b" d="M72.6 214.92c.03.09.08.24.16.44l.13.4.27.6.15.29c.08.13.13.22.17.26.06.07.13.18.22.32l.21.3.3.39c.13.14.23.26.31.35.07.08.19.22.34.4l.36.35.44.42c.16.14.28.25.36.32.1.08.26.18.49.29l.61.29.26.09.32.11c.1.02.17.05.23.07.15.05.5.09 1.04.11l.67.03c.2.03.5.05.9.05h1.51l37.37-.14 6.01-39.03c.02-.11.02-.22 0-.33-.01-.1-.03-.2-.04-.3l-.09-.3c-.09-.25-.15-.4-.17-.44-.07-.16-.14-.32-.23-.49l-.33-.56-.26-.4c-.21-.32-.38-.55-.5-.69-.04-.04-.17-.2-.39-.47l-.4-.39-.6-.52c-.13-.09-.36-.27-.7-.52-.11-.09-.27-.2-.47-.35l-.64-.4-.3-.17c-.17-.07-.31-.12-.4-.17-.14-.06-.41-.15-.8-.25-.2-.04-.35-.08-.45-.1-.1-.02-.25-.04-.46-.06H84.46c-.3.02-.58.09-.83.2-.25.1-.5.23-.73.38-.35.18-.66.37-.92.57-.27.21-.55.43-.84.65-.21.17-.46.37-.75.6-.1.08-.25.23-.45.43l-.41.43-.36.4c-.17.19-.28.33-.36.42-.22.28-.43.56-.63.85l-.35.54c-.14.23-.24.41-.3.52-.18.33-.28.63-.3.92l-4.72 32.25c-.03.43 0 .78.09 1.04z"/>
    <path id="c" d="M119.4 220.56l14.47.24c.32-.02.61-.05.87-.08s.49-.07.68-.12l.65-.18c.25-.09.42-.16.53-.2.3-.11.54-.22.74-.33.31-.16.57-.29.78-.41.2-.11.37-.22.5-.32.17-.11.33-.24.48-.37.15-.12.28-.25.39-.38.19-.23.33-.46.41-.67.08-.21.15-.47.22-.78l2.21-13.44-6.17-8.32h-12.83l-3.93 25.36z"/>
    <path id="d" d="M133.28 222.19c-1.21 3.39-4.4 5.33-7.13 4.33-2.73-1-3.97-4.57-2.76-7.96 1.21-3.4 4.4-5.34 7.14-4.34 2.73 1.01 3.96 4.58 2.75 7.97z"/>
    <path id="e" d="M90.42 222.29c-1.21 3.39-4.41 5.34-7.14 4.33-2.73-1-3.96-4.57-2.75-7.96 1.2-3.39 4.4-5.33 7.13-4.33 2.73 1 3.97 4.57 2.76 7.96z"/>
    <path id="f" d="M125.45 206.72h11.82l.4-2.56-3.4-4.65h-7.56l-1.26 7.21z"/>
    <path id="g" d="M72.5 184.96H59.14"/>
    <path id="h" d="M93.43 192.64H80.06"/>
    <path id="i" d="M69.98 192.64H47.87"/>
    <path id="j" d="M67.46 200.66H54.09"/>
    <path id="k" d="M101.2 200.83H79.1"/>
    <path id="l" d="M103.72 184.96h-22.1"/>
  </defs>
  <use fill-opacity="0" stroke="#000" stroke-width="2" xlink:href="#a"/>
  <use fill-opacity="0" xlink:href="#b"/>
  <use fill-opacity="0" stroke="#000" stroke-width="2" xlink:href="#b"/>
  <use fill-opacity="0" xlink:href="#c"/>
  <use fill-opacity="0" stroke="#000" stroke-width="2" xlink:href="#c"/>
  <use fill="#f4f0ec" xlink:href="#d"/>
  <use fill-opacity="0" stroke="#000" stroke-width="2" xlink:href="#d"/>
  <use fill="#f4f0ec" xlink:href="#e"/>
  <use fill-opacity="0" stroke="#000" stroke-width="2" xlink:href="#e"/>
  <use fill-opacity="0" xlink:href="#f"/>
  <use fill-opacity="0" stroke="#000" stroke-width="2" xlink:href="#f"/>
  <use fill-opacity="0" stroke="#000" stroke-width="2" xlink:href="#g"/>
  <g>
    <use fill-opacity="0" stroke="#000" stroke-width="2" xlink:href="#h"/>
  </g>
  <g>
    <use fill-opacity="0" stroke="#000" stroke-width="2" xlink:href="#i"/>
  </g>
  <g>
    <use fill-opacity="0" stroke="#000" stroke-width="2" xlink:href="#j"/>
  </g>
  <g>
    <use fill-opacity="0" stroke="#000" stroke-width="2" xlink:href="#k"/>
  </g>
  <g>
    <use fill-opacity="0" stroke="#000" stroke-width="2" xlink:href="#l"/>
  </g>
</svg>
