<?xml version="1.0" encoding="UTF-8" standalone="no"?>
<!DOCTYPE svg PUBLIC "-//W3C//DTD SVG 1.1//EN" "http://www.w3.org/Graphics/SVG/1.1/DTD/svg11.dtd">
<svg version="1.1" xmlns="http://www.w3.org/2000/svg" xmlns:xlink="http://www.w3.org/1999/xlink" preserveAspectRatio="xMidYMid meet" viewBox="0 0 640 640" width="640" height="640"><defs><path d="M468.84 143.96L468.94 143.97L469.04 143.98L469.13 143.99L469.23 144L469.32 144.01L469.41 144.02L469.5 144.03L469.59 144.04L469.68 144.05L469.76 144.06L469.85 144.07L469.93 144.08L470.01 144.09L470.09 144.1L470.17 144.11L470.25 144.12L470.33 144.13L470.4 144.14L470.47 144.15L470.55 144.16L470.62 144.17L470.69 144.18L470.76 144.19L470.82 144.2L470.89 144.21L470.95 144.22L471.02 144.23L471.08 144.24L471.14 144.25L471.2 144.26L471.26 144.27L471.31 144.28L471.37 144.29L471.42 144.3L471.48 144.31L471.53 144.32L471.58 144.33L471.63 144.34L471.68 144.35L471.73 144.36L471.78 144.37L471.83 144.38L471.89 144.39L471.94 144.4L472 144.41L472.06 144.43L472.12 144.44L472.18 144.46L472.24 144.47L472.3 144.48L472.36 144.5L472.43 144.51L472.5 144.53L472.7 144.58L472.77 144.59L472.85 144.61L472.92 144.63L473 144.65L473.07 144.66L473.15 144.68L473.23 144.7L473.31 144.72L473.39 144.74L473.47 144.75L473.55 144.77L473.64 144.79L473.72 144.81L473.81 144.83L473.9 144.85L473.99 144.87L474.08 144.89L474.17 144.91L474.27 144.93L474.36 144.95L474.46 144.97L474.55 144.99L474.74 145.03L474.93 145.08L475.11 145.13L475.29 145.18L475.47 145.23L475.64 145.27L475.81 145.32L475.98 145.37L476.14 145.41L476.31 145.46L476.47 145.5L476.62 145.55L476.77 145.59L476.93 145.64L477.07 145.68L477.22 145.73L477.36 145.77L477.5 145.81L477.63 145.85L477.76 145.9L477.89 145.94L478.02 145.98L478.14 146.02L478.26 146.06L478.38 146.1L478.49 146.13L478.6 146.17L478.71 146.21L478.81 146.25L478.91 146.28L479.01 146.32L479.11 146.35L479.2 146.39L479.29 146.42L479.37 146.46L479.45 146.49L479.53 146.52L479.61 146.55L479.68 146.58L479.75 146.61L479.8 146.63L479.84 146.66L479.89 146.68L479.94 146.71L479.99 146.73L480.04 146.76L480.09 146.78L480.14 146.81L480.2 146.83L480.25 146.86L480.31 146.88L480.36 146.91L480.42 146.93L480.48 146.96L480.54 146.98L480.6 147.01L480.66 147.03L480.73 147.06L480.79 147.09L480.86 147.11L480.92 147.14L480.99 147.17L481.06 147.2L481.13 147.22L481.2 147.25L481.27 147.28L481.34 147.31L481.41 147.34L481.49 147.37L481.56 147.4L481.64 147.43L481.71 147.46L481.79 147.49L481.87 147.52L481.95 147.55L482.03 147.58L482.11 147.62L482.19 147.65L482.27 147.68L482.35 147.72L484.3 148.82L488.46 151.42L488.56 151.49L488.66 151.56L488.75 151.64L488.85 151.71L488.94 151.77L489.03 151.84L489.12 151.91L489.21 151.98L489.3 152.04L489.39 152.11L489.48 152.17L489.56 152.23L489.65 152.29L489.73 152.35L489.81 152.41L489.97 152.53L490.05 152.59L490.13 152.65L490.21 152.7L490.29 152.76L490.36 152.81L490.44 152.87L490.51 152.92L490.58 152.98L490.65 153.03L490.72 153.08L490.79 153.13L490.86 153.18L490.92 153.23L490.99 153.28L491.05 153.33L491.11 153.38L491.17 153.42L491.23 153.47L491.29 153.52L491.35 153.56L491.41 153.61L491.46 153.65L491.52 153.7L491.68 153.82L491.84 153.94L492 154.05L492.16 154.17L492.31 154.28L492.46 154.4L492.61 154.51L492.76 154.61L492.9 154.72L493.04 154.83L493.18 154.93L493.32 155.03L493.45 155.13L493.58 155.23L493.71 155.32L493.83 155.42L493.95 155.51L494.07 155.6L494.3 155.78L494.42 155.86L494.53 155.94L494.63 156.02L494.74 156.1L494.84 156.18L494.94 156.25L495.04 156.32L495.13 156.39L495.22 156.46L495.31 156.53L495.4 156.59L495.48 156.66L495.56 156.72L495.64 156.77L495.72 156.83L495.8 156.88L495.87 156.93L495.94 156.98L496 157.03L496.07 157.08L499.97 160.46L502.57 162.99L502.67 163.12L502.88 163.37L502.98 163.5L503.08 163.62L503.17 163.73L503.27 163.85L503.36 163.96L503.44 164.07L503.53 164.17L503.62 164.28L503.7 164.38L503.78 164.47L503.85 164.57L503.93 164.66L504 164.75L504.07 164.84L504.14 164.92L504.21 165L504.27 165.08L504.34 165.15L504.4 165.23L504.45 165.3L504.51 165.36L504.56 165.43L504.62 165.49L504.66 165.55L504.71 165.6L504.76 165.66L504.8 165.71L504.84 165.75L504.88 165.8L504.91 165.84L504.95 165.88L504.98 165.91L505.01 165.94L505.03 165.97L505.06 166L505.08 166.02L505.1 166.05L505.16 166.12L505.22 166.19L505.28 166.26L505.35 166.34L505.41 166.41L505.48 166.49L505.54 166.58L505.61 166.66L505.68 166.75L505.75 166.84L505.82 166.93L505.89 167.02L505.96 167.12L506.04 167.22L506.11 167.32L506.19 167.42L506.27 167.52L506.35 167.63L506.43 167.74L506.51 167.85L506.59 167.96L506.67 168.08L506.76 168.2L506.84 168.32L506.93 168.44L507.02 168.56L507.11 168.69L507.2 168.82L507.29 168.95L507.38 169.08L507.47 169.22L507.57 169.35L507.66 169.49L507.76 169.63L507.85 169.78L507.95 169.92L508.05 170.07L508.15 170.22L508.25 170.38L508.35 170.53L510.04 173.13L512.19 176.77L512.23 176.85L512.28 176.94L512.32 177.02L512.36 177.1L512.4 177.18L512.44 177.26L512.48 177.35L512.52 177.43L512.57 177.51L512.6 177.59L512.64 177.67L512.68 177.75L512.72 177.83L512.76 177.91L512.8 177.99L512.84 178.07L512.87 178.15L512.91 178.23L512.95 178.31L512.98 178.39L513.02 178.47L513.06 178.55L513.09 178.63L513.13 178.7L513.16 178.78L513.2 178.86L513.24 178.94L513.27 179.02L513.31 179.1L513.34 179.18L513.37 179.25L513.41 179.33L513.44 179.41L513.48 179.49L513.51 179.57L513.55 179.64L513.58 179.72L513.62 179.8L513.65 179.88L513.68 179.96L513.69 179.98L513.7 180L513.72 180.03L513.73 180.06L513.74 180.09L513.76 180.12L513.78 180.16L513.79 180.2L513.81 180.24L513.83 180.28L513.85 180.33L513.87 180.38L513.89 180.43L513.91 180.49L513.94 180.55L513.96 180.61L513.99 180.67L514.01 180.74L514.04 180.8L514.07 180.87L514.09 180.95L514.12 181.02L514.15 181.1L514.18 181.18L514.22 181.27L514.25 181.35L514.28 181.44L514.32 181.53L514.35 181.62L514.39 181.72L514.42 181.82L514.46 181.92L514.5 182.02L514.54 182.13L514.58 182.24L514.62 182.35L514.66 182.46L514.7 182.58L514.75 182.7L514.79 182.82L515.37 184.77L515.38 184.82L515.38 184.86L515.39 184.91L515.39 184.96L515.4 185.01L515.41 185.06L515.41 185.11L515.42 185.16L515.43 185.21L515.43 185.25L515.44 185.3L515.45 185.35L515.45 185.4L515.46 185.45L515.47 185.5L515.47 185.55L515.48 185.6L515.49 185.64L515.5 185.69L515.51 185.79L515.52 185.84L515.53 185.89L515.53 185.94L515.54 185.99L515.55 186.03L515.55 186.08L515.56 186.13L515.57 186.18L515.57 186.23L515.58 186.28L515.59 186.33L515.59 186.38L515.6 186.42L515.61 186.47L515.61 186.52L515.62 186.57L515.62 186.62L515.63 186.67L515.63 186.72L515.64 186.77L515.65 186.82L515.66 186.88L515.67 186.93L515.68 186.98L515.68 187.04L515.69 187.09L515.7 187.15L515.7 187.2L515.71 187.25L515.71 187.31L515.72 187.36L515.72 187.41L515.72 187.47L515.72 187.52L515.73 187.57L515.73 187.63L515.73 187.68L515.73 187.74L515.73 187.79L515.73 187.84L515.73 187.9L515.73 187.95L515.73 188L515.72 188.06L515.72 188.11L515.72 188.16L515.72 188.22L515.71 188.27L515.71 188.33L515.7 188.38L515.7 188.43L515.69 188.49L515.68 188.54L515.68 188.59L515.67 188.65L515.66 188.7L515.65 188.75L515.64 188.81L515.63 188.86L476.57 442.56L290.54 443.26L290.54 443.22L290.75 441.58L290.91 439.94L291.02 438.31L291.07 436.69L291.06 435.08L291 433.49L290.89 431.92L290.73 430.36L290.51 428.82L290.25 427.3L289.93 425.8L289.57 424.33L289.15 422.88L288.69 421.46L288.18 420.07L287.62 418.71L287.01 417.38L286.36 416.09L285.66 414.83L284.92 413.61L284.13 412.43L283.3 411.29L282.43 410.2L281.51 409.14L280.55 408.14L279.55 407.18L278.51 406.27L277.43 405.41L276.3 404.6L275.14 403.85L273.94 403.15L272.7 402.51L271.43 401.93L270.11 401.42L268.78 400.96L267.43 400.58L266.08 400.27L264.72 400.03L263.35 399.86L261.98 399.75L260.6 399.71L259.23 399.73L257.86 399.82L256.48 399.97L255.12 400.19L253.75 400.46L252.4 400.8L251.05 401.2L249.71 401.65L248.38 402.17L247.07 402.74L245.77 403.37L244.48 404.05L243.21 404.79L241.96 405.58L240.73 406.42L239.53 407.32L238.34 408.26L237.18 409.26L236.05 410.3L234.94 411.4L233.87 412.54L232.82 413.72L231.81 414.95L230.83 416.23L229.88 417.55L228.97 418.91L228.1 420.31L227.27 421.76L226.48 423.24L225.74 424.77L225.03 426.33L224.38 427.93L223.77 429.56L223.21 431.22L222.71 432.87L222.26 434.53L221.88 436.19L221.55 437.84L221.28 439.5L221.06 441.14L220.9 442.78L220.86 443.41L220.73 443.4L220.58 443.39L220.43 443.38L220.28 443.37L220.14 443.36L220 443.36L219.86 443.35L219.73 443.34L219.6 443.33L219.47 443.31L219.34 443.3L219.21 443.29L219.09 443.28L218.97 443.27L218.85 443.26L218.73 443.24L218.62 443.23L218.51 443.22L218.4 443.2L218.3 443.19L218.19 443.18L218.09 443.16L217.99 443.15L213.64 442.95L213.38 442.94L213.12 442.93L212.87 442.92L212.62 442.91L212.38 442.9L212.14 442.88L211.91 442.87L211.68 442.86L211.46 442.85L211.24 442.83L211.02 442.82L210.81 442.8L210.61 442.79L210.41 442.77L210.21 442.75L210.02 442.74L209.84 442.72L209.65 442.7L209.48 442.69L209.31 442.67L209.14 442.65L208.98 442.63L208.82 442.61L208.67 442.59L208.52 442.57L208.38 442.55L208.24 442.53L208.1 442.51L207.97 442.49L207.85 442.47L207.73 442.45L207.62 442.42L207.51 442.4L207.4 442.38L207.3 442.36L207.21 442.33L207.12 442.31L207.03 442.29L206.95 442.26L206.88 442.24L206.85 442.23L206.82 442.22L206.79 442.21L206.76 442.2L206.73 442.19L206.7 442.17L206.67 442.16L206.63 442.15L206.54 442.12L206.5 442.11L206.47 442.09L206.44 442.08L206.4 442.07L206.37 442.06L206.33 442.05L206.3 442.03L206.26 442.02L206.23 442.01L206.19 442L206.15 441.99L206.11 441.97L206.08 441.96L206.04 441.95L206 441.94L205.96 441.92L205.92 441.91L205.88 441.9L205.83 441.89L205.79 441.88L205.75 441.87L205.71 441.86L205.66 441.84L205.62 441.83L205.57 441.82L205.52 441.81L205.48 441.8L205.43 441.79L205.38 441.78L203.3 441.07L201.61 440.48L197.65 438.6L197.54 438.54L197.43 438.49L197.32 438.44L197.21 438.38L197.11 438.33L197 438.28L196.9 438.23L196.8 438.18L196.71 438.12L196.61 438.07L196.51 438.02L196.42 437.97L196.33 437.92L196.24 437.87L196.15 437.82L196.07 437.77L195.98 437.73L195.9 437.68L195.82 437.63L195.74 437.58L195.66 437.53L195.58 437.49L195.51 437.44L195.43 437.39L195.36 437.35L195.29 437.3L195.22 437.26L195.15 437.21L195.09 437.17L195.02 437.13L194.96 437.08L194.9 437.04L194.84 437L194.78 436.95L194.72 436.91L194.67 436.87L194.61 436.83L194.56 436.79L194.51 436.75L194.46 436.71L194.42 436.68L194.38 436.64L194.34 436.61L194.3 436.57L194.25 436.53L194.21 436.49L194.16 436.45L194.12 436.41L194.07 436.37L194.02 436.32L193.97 436.28L193.92 436.23L193.87 436.19L193.82 436.14L193.77 436.09L193.66 436L193.54 435.89L193.49 435.84L193.43 435.79L193.37 435.74L193.31 435.68L193.24 435.63L193.18 435.57L193.12 435.51L193.05 435.46L192.99 435.4L192.92 435.34L192.85 435.28L192.78 435.22L192.71 435.15L192.64 435.09L192.57 435.03L192.5 434.96L192.43 434.9L192.35 434.83L192.28 434.77L192.2 434.7L192.12 434.63L189.26 431.9L186.92 429.63L186.85 429.54L186.78 429.45L186.71 429.37L186.63 429.28L186.56 429.2L186.5 429.12L186.43 429.04L186.36 428.96L186.29 428.88L186.23 428.8L186.16 428.72L186.1 428.65L186.04 428.57L185.97 428.5L185.91 428.43L185.85 428.36L185.79 428.29L185.74 428.22L185.68 428.15L185.62 428.08L185.57 428.02L185.51 427.95L185.46 427.89L185.4 427.83L185.35 427.77L185.3 427.71L185.25 427.65L185.2 427.6L185.16 427.54L185.11 427.49L185.07 427.44L185.02 427.38L184.98 427.33L184.94 427.29L184.9 427.24L184.86 427.19L184.82 427.15L184.78 427.11L184.75 427.07L184.71 427.03L184.67 426.98L184.63 426.94L184.59 426.89L184.55 426.85L184.51 426.8L184.47 426.75L184.43 426.7L184.38 426.65L184.34 426.6L184.3 426.55L184.25 426.5L184.21 426.45L184.11 426.34L184.07 426.29L184.02 426.24L183.97 426.18L183.92 426.12L183.88 426.07L183.83 426.01L183.78 425.95L183.72 425.9L183.67 425.84L183.62 425.78L183.57 425.72L183.51 425.66L183.46 425.6L183.41 425.53L183.35 425.47L183.29 425.41L183.24 425.35L183.18 425.28L183.12 425.22L183.06 425.15L183 425.09L182.94 425.02L182.88 424.95L182.82 424.89L182.76 424.82L182.7 424.75L180.75 422.22L179.38 420.27L179.34 420.2L179.25 420.07L179.21 420L179.17 419.93L179.13 419.87L179.09 419.81L179.05 419.74L179.01 419.68L178.97 419.62L178.93 419.56L178.89 419.5L178.85 419.44L178.81 419.39L178.77 419.33L178.74 419.27L178.7 419.22L178.66 419.16L178.63 419.11L178.59 419.06L178.56 419L178.52 418.95L178.49 418.9L178.45 418.85L178.42 418.8L178.39 418.76L178.35 418.71L178.32 418.66L178.29 418.62L178.26 418.58L178.22 418.53L178.19 418.49L178.16 418.45L178.13 418.41L178.1 418.37L178.07 418.33L178.04 418.29L178.01 418.26L177.98 418.22L177.95 418.19L177.93 418.17L177.91 418.15L177.89 418.12L177.87 418.1L177.85 418.07L177.83 418.05L177.81 418.02L177.79 417.99L177.76 417.96L177.74 417.93L177.72 417.9L177.7 417.87L177.67 417.83L177.65 417.8L177.62 417.76L177.6 417.72L177.57 417.68L177.55 417.64L177.52 417.6L177.5 417.56L177.47 417.52L177.44 417.47L177.41 417.43L177.38 417.38L177.36 417.33L177.33 417.29L177.3 417.24L177.26 417.19L177.23 417.13L177.2 417.08L177.1 416.92L177.07 416.86L177.03 416.8L177 416.74L176.96 416.68L176.92 416.62L176.88 416.56L176.85 416.5L175.87 414.61L174.12 410.71L173.27 408.11L173.23 408.01L173.19 407.92L173.16 407.82L173.12 407.73L173.08 407.64L173.05 407.55L173.02 407.46L172.98 407.37L172.95 407.28L172.92 407.2L172.88 407.11L172.85 407.03L172.82 406.95L172.79 406.87L172.76 406.79L172.74 406.71L172.71 406.63L172.68 406.56L172.65 406.49L172.63 406.41L172.6 406.34L172.58 406.27L172.55 406.2L172.53 406.14L172.51 406.07L172.49 406.01L172.46 405.94L172.44 405.88L172.42 405.82L172.4 405.76L172.38 405.7L172.36 405.65L172.35 405.59L172.33 405.54L172.31 405.49L172.29 405.44L172.28 405.39L172.26 405.34L172.25 405.3L172.23 405.25L172.19 405.12L172.15 404.99L172.11 404.86L172.07 404.73L172.03 404.59L171.99 404.45L171.96 404.31L171.93 404.17L171.9 404.02L171.87 403.87L171.84 403.73L171.81 403.57L171.78 403.42L171.76 403.26L171.74 403.11L171.72 402.95L171.7 402.78L171.68 402.62L171.66 402.45L171.65 402.29L171.63 402.12L171.62 401.94L171.61 401.77L171.6 401.59L171.59 401.41L171.58 401.23L171.58 401.05L171.58 400.86L171.57 400.68L171.57 400.49L171.57 400.3L171.58 400.11L171.58 399.91L171.58 399.71L171.59 399.51L171.6 399.31L171.61 399.11L171.62 398.91L171.63 398.7L171.65 398.49L202.33 188.86L202.34 188.72L202.35 188.58L202.36 188.44L202.38 188.29L202.4 188.15L202.42 188.01L202.44 187.87L202.47 187.72L202.49 187.58L202.52 187.43L202.55 187.29L202.58 187.14L202.62 187L202.65 186.85L202.69 186.71L202.73 186.56L202.77 186.41L202.82 186.27L202.86 186.12L202.91 185.97L202.96 185.82L203.01 185.67L203.07 185.52L203.12 185.37L203.18 185.22L203.24 185.07L203.3 184.92L203.36 184.76L203.43 184.61L203.5 184.46L203.57 184.3L203.64 184.15L203.71 183.99L203.79 183.83L203.86 183.68L203.94 183.52L204.02 183.36L204.1 183.2L204.19 183.04L204.28 182.88L204.31 182.83L204.34 182.77L204.37 182.71L204.4 182.65L204.44 182.59L204.47 182.53L204.51 182.46L204.54 182.4L204.58 182.33L204.62 182.26L204.66 182.19L204.7 182.12L204.74 182.04L204.78 181.97L204.83 181.89L204.87 181.81L204.91 181.73L204.96 181.65L205.01 181.57L205.06 181.48L205.11 181.4L205.16 181.31L205.21 181.22L205.26 181.13L205.31 181.04L205.37 180.95L205.42 180.85L205.48 180.76L205.53 180.66L205.59 180.56L205.65 180.46L205.71 180.36L205.77 180.26L205.83 180.15L205.9 180.05L205.96 179.94L206.03 179.83L206.09 179.72L206.16 179.61L206.23 179.5L208.5 175.99L208.6 175.85L208.7 175.71L208.8 175.57L208.89 175.43L208.99 175.29L209.09 175.15L209.19 175.01L209.29 174.87L209.39 174.73L209.49 174.59L209.59 174.45L209.69 174.31L209.79 174.17L209.89 174.03L209.99 173.89L210.09 173.76L210.19 173.62L210.3 173.48L210.4 173.34L210.5 173.2L210.6 173.07L210.71 172.93L210.81 172.79L210.91 172.65L211.02 172.52L211.12 172.38L211.22 172.24L211.33 172.11L211.43 171.97L211.54 171.83L211.64 171.7L211.75 171.56L211.85 171.42L211.96 171.29L212.06 171.15L212.17 171.01L212.28 170.88L212.38 170.74L212.49 170.6L212.6 170.47L212.64 170.42L212.68 170.38L212.72 170.33L212.76 170.28L212.8 170.23L212.84 170.18L212.89 170.13L212.93 170.08L212.98 170.02L213.03 169.97L213.07 169.91L213.12 169.85L213.17 169.79L213.22 169.73L213.27 169.67L213.38 169.54L213.44 169.48L213.49 169.41L213.55 169.34L213.61 169.28L213.66 169.21L213.72 169.13L213.79 169.06L213.85 168.99L213.91 168.91L213.98 168.84L214.04 168.76L214.11 168.68L214.18 168.6L214.25 168.52L214.32 168.44L214.39 168.35L214.47 168.27L214.54 168.18L214.62 168.1L214.69 168.01L214.77 167.92L214.85 167.83L214.94 167.74L217.28 165.14L219.94 162.34L220.04 162.24L220.13 162.15L220.23 162.05L220.32 161.96L220.41 161.87L220.51 161.78L220.59 161.69L220.68 161.6L220.77 161.51L220.86 161.43L220.94 161.34L221.02 161.26L221.11 161.18L221.19 161.1L221.27 161.02L221.35 160.95L221.42 160.87L221.5 160.8L221.57 160.72L221.65 160.65L221.72 160.58L221.79 160.51L221.86 160.45L221.93 160.38L222 160.32L222.07 160.25L222.13 160.19L222.19 160.13L222.26 160.08L222.32 160.02L222.38 159.96L222.44 159.91L222.5 159.86L222.55 159.81L222.61 159.76L222.66 159.72L222.72 159.67L222.77 159.63L222.82 159.59L222.87 159.55L223.01 159.43L223.15 159.32L223.29 159.21L223.42 159.1L223.56 158.99L223.7 158.89L223.83 158.78L223.97 158.67L224.1 158.57L224.23 158.46L224.36 158.36L224.49 158.25L224.62 158.15L224.75 158.05L224.88 157.95L225 157.85L225.13 157.75L225.25 157.65L225.38 157.55L225.5 157.45L225.62 157.35L225.74 157.26L225.86 157.16L225.98 157.07L226.1 156.97L226.21 156.88L226.33 156.78L226.44 156.69L226.56 156.6L226.67 156.51L226.78 156.42L226.89 156.33L227 156.24L227.11 156.16L227.22 156.07L227.32 155.98L227.43 155.9L227.54 155.81L227.64 155.73L227.74 155.65L227.88 155.54L228.02 155.43L228.17 155.32L228.31 155.22L228.45 155.11L228.59 155L228.73 154.9L228.87 154.79L229 154.68L229.14 154.57L229.28 154.47L229.42 154.36L229.56 154.25L229.7 154.15L229.84 154.04L229.97 153.93L230.11 153.83L230.25 153.72L230.38 153.61L230.52 153.51L230.66 153.4L230.79 153.3L230.93 153.19L231.06 153.09L231.2 152.98L231.34 152.87L231.47 152.77L231.61 152.66L231.74 152.56L231.87 152.46L232.27 152.14L232.41 152.04L232.54 151.94L232.67 151.83L232.81 151.73L232.94 151.63L233.07 151.52L233.2 151.42L233.33 151.32L233.46 151.23L233.59 151.13L233.72 151.03L233.85 150.94L233.98 150.84L234.12 150.74L234.25 150.65L234.39 150.55L234.53 150.46L234.67 150.36L234.81 150.27L234.95 150.17L235.09 150.08L235.24 149.99L235.38 149.89L235.53 149.8L235.68 149.7L235.82 149.61L235.97 149.52L236.12 149.43L236.27 149.33L236.43 149.24L236.58 149.15L236.74 149.06L236.89 148.97L237.05 148.88L237.21 148.79L237.37 148.7L237.53 148.61L237.69 148.52L237.85 148.43L238.01 148.34L238.18 148.25L238.34 148.16L238.51 148.07L238.67 147.98L238.84 147.89L239.01 147.8L239.18 147.72L239.29 147.64L239.41 147.57L239.52 147.5L239.63 147.43L239.75 147.36L239.86 147.29L239.98 147.22L240.09 147.15L240.21 147.08L240.33 147.01L240.44 146.94L240.56 146.87L240.68 146.81L240.79 146.74L240.91 146.68L241.03 146.61L241.15 146.55L241.27 146.48L241.39 146.42L241.51 146.36L241.63 146.3L241.75 146.24L241.87 146.17L241.99 146.11L242.11 146.06L242.23 146L242.35 145.94L242.47 145.88L242.59 145.82L242.71 145.77L242.83 145.71L242.95 145.66L243.08 145.6L243.2 145.55L243.32 145.5L243.44 145.45L243.56 145.39L243.68 145.34L243.81 145.29L243.93 145.25L244.05 145.19L244.17 145.14L244.3 145.09L244.42 145.04L244.55 144.99L244.67 144.94L244.8 144.89L244.93 144.85L245.05 144.8L245.18 144.76L245.31 144.72L245.44 144.67L245.57 144.63L245.7 144.59L245.83 144.55L245.97 144.52L246.1 144.48L246.23 144.44L246.37 144.41L246.5 144.38L246.64 144.34L246.77 144.31L246.91 144.28L247.05 144.25L247.19 144.23L247.33 144.2L247.46 144.17L247.6 144.15L247.74 144.12L247.89 144.1L248.03 144.08L248.17 144.06L248.31 144.04L248.45 144.03L248.6 144.01L248.74 143.99L248.89 143.98L249.03 143.97L249.18 143.96L249.32 143.95L468.64 143.95L468.74 143.96L468.84 143.96Z" id="c1ooAIWUGP"></path><path d="M592.59 351.95L595.19 335.31L573.09 305.08L523.95 305.08L515.76 351.95L592.59 351.95Z" id="a4noNiaafi"></path><path d="M171.57 210.51L84.73 210.51" id="d2uJbn9tkH"></path><path d="M611.11 418.51L611.08 418.66L611.04 418.81L611.01 418.96L610.98 419.11L610.94 419.25L610.91 419.4L610.87 419.54L610.84 419.68L610.8 419.82L610.77 419.96L610.74 420.1L610.7 420.24L610.67 420.37L610.63 420.51L610.6 420.64L610.56 420.77L610.53 420.9L610.49 421.03L610.46 421.16L610.42 421.29L610.39 421.42L610.35 421.54L610.32 421.67L610.28 421.79L610.24 421.91L610.21 422.03L610.17 422.15L610.13 422.27L610.1 422.38L610.06 422.5L610.02 422.61L609.99 422.72L609.95 422.84L609.91 422.95L609.87 423.05L609.84 423.16L609.8 423.27L609.76 423.37L609.72 423.48L609.68 423.58L609.64 423.68L609.6 423.79L609.56 423.89L609.51 423.99L609.47 424.1L609.42 424.2L609.37 424.31L609.32 424.42L609.27 424.52L609.22 424.63L609.17 424.73L609.11 424.84L609.05 424.95L609 425.06L608.94 425.17L608.88 425.27L608.81 425.38L608.75 425.49L608.68 425.6L608.62 425.71L608.55 425.82L608.48 425.93L608.41 426.04L608.34 426.15L608.27 426.26L608.19 426.37L608.12 426.48L608.04 426.59L607.96 426.71L607.88 426.82L607.8 426.93L607.72 427.04L607.64 427.15L607.55 427.26L607.47 427.38L607.38 427.49L607.29 427.6L607.2 427.71L607.11 427.82L607.02 427.94L606.96 428L606.91 428.06L606.85 428.13L606.8 428.19L606.74 428.25L606.69 428.32L606.63 428.38L606.57 428.44L606.52 428.51L606.46 428.57L606.4 428.63L606.34 428.7L606.28 428.76L606.22 428.82L606.16 428.88L606.1 428.95L606.04 429.01L605.97 429.07L605.91 429.13L605.85 429.2L605.78 429.26L605.72 429.32L605.66 429.38L605.59 429.44L605.52 429.51L605.46 429.57L605.39 429.63L605.32 429.69L605.26 429.75L605.19 429.81L605.12 429.87L605.05 429.93L604.98 429.99L604.91 430.05L604.84 430.11L604.77 430.17L604.7 430.23L604.63 430.29L604.56 430.35L604.48 430.41L604.41 430.47L604.34 430.53L604.26 430.6L604.19 430.66L604.11 430.72L604.04 430.79L603.96 430.85L603.89 430.91L603.81 430.98L603.74 431.04L603.66 431.1L603.59 431.16L603.51 431.23L603.43 431.29L603.36 431.35L603.28 431.41L603.2 431.47L603.13 431.54L603.05 431.6L602.97 431.66L602.89 431.72L602.81 431.78L602.74 431.84L602.66 431.9L602.58 431.96L602.5 432.02L602.42 432.08L602.34 432.14L602.26 432.2L602.18 432.25L602.1 432.31L602.02 432.37L601.94 432.43L601.86 432.48L601.77 432.54L601.69 432.59L601.61 432.65L601.53 432.7L601.45 432.76L601.36 432.81L601.3 432.86L601.23 432.91L601.17 432.96L601.1 433.01L601.03 433.06L600.96 433.11L600.9 433.16L600.82 433.21L600.75 433.26L600.68 433.31L600.61 433.36L600.53 433.41L600.46 433.46L600.38 433.52L600.31 433.57L600.23 433.62L600.15 433.67L600.07 433.72L599.99 433.78L599.91 433.83L599.83 433.88L599.74 433.93L599.66 433.99L599.57 434.04L599.49 434.09L599.4 434.14L599.32 434.2L599.23 434.25L599.14 434.3L599.05 434.36L598.96 434.41L598.87 434.46L598.78 434.52L598.68 434.57L598.59 434.62L598.5 434.68L598.4 434.73L598.31 434.78L598.21 434.84L598.11 434.89L598.01 434.95L597.91 435.01L597.8 435.07L597.69 435.13L597.59 435.19L597.48 435.25L597.37 435.31L597.25 435.37L597.14 435.43L597.03 435.49L596.91 435.55L596.8 435.61L596.68 435.68L596.56 435.74L596.44 435.8L596.32 435.87L596.2 435.93L596.07 436L595.95 436.06L595.82 436.13L595.69 436.19L595.57 436.26L595.44 436.33L595.3 436.39L595.17 436.46L595.04 436.53L594.9 436.6L594.77 436.67L594.63 436.74L594.49 436.81L594.21 436.96L594.07 437.03L593.93 437.1L593.78 437.18L593.64 437.25L593.49 437.33L593.34 437.4L593.19 437.48L593.04 437.56L592.94 437.61L592.85 437.66L592.75 437.72L592.64 437.77L592.54 437.83L592.44 437.88L592.34 437.93L592.23 437.99L592.12 438.04L592.02 438.09L591.91 438.15L591.8 438.2L591.69 438.25L591.58 438.31L591.46 438.36L591.35 438.41L591.23 438.47L591.12 438.52L591 438.58L590.88 438.63L590.76 438.68L590.64 438.74L590.52 438.79L590.39 438.84L590.27 438.9L590.14 438.95L590.01 439L589.89 439.06L589.76 439.11L589.62 439.17L589.49 439.22L589.36 439.27L589.22 439.33L589.08 439.38L588.95 439.43L588.81 439.49L588.66 439.54L588.52 439.59L588.38 439.65L588.23 439.7L588.18 439.72L588.12 439.74L588.06 439.76L588.01 439.79L587.95 439.81L587.88 439.83L587.82 439.86L587.76 439.88L587.69 439.91L587.62 439.93L587.55 439.96L587.48 439.99L587.41 440.02L587.33 440.04L587.1 440.13L587.02 440.17L586.94 440.2L586.85 440.23L586.76 440.26L586.68 440.3L586.59 440.33L586.5 440.37L586.4 440.4L586.31 440.44L586.21 440.48L586.11 440.51L586.01 440.55L585.91 440.59L585.81 440.63L585.7 440.67L585.59 440.71L585.48 440.75L585.37 440.79L585.26 440.83L585.14 440.87L585.03 440.92L584.91 440.96L584.79 441L580.56 442.17L580.47 442.2L580.37 442.22L580.28 442.24L580.18 442.27L580.09 442.29L579.99 442.31L579.89 442.34L579.79 442.36L579.69 442.38L579.59 442.4L579.49 442.43L579.38 442.45L579.28 442.47L579.17 442.49L579.07 442.51L578.96 442.53L578.85 442.55L578.74 442.57L578.63 442.59L578.52 442.61L578.41 442.63L578.3 442.65L578.19 442.67L578.07 442.69L577.96 442.71L577.84 442.72L577.73 442.74L577.61 442.76L577.49 442.78L577.37 442.79L577.25 442.81L577.13 442.83L577.01 442.84L576.89 442.86L576.77 442.88L576.64 442.89L576.52 442.91L576.39 442.92L576.27 442.94L576.14 442.95L576.01 442.97L575.89 442.98L575.76 443L575.63 443.01L575.5 443.03L575.37 443.04L575.24 443.05L575.1 443.07L574.97 443.08L574.84 443.1L574.7 443.11L574.57 443.13L574.43 443.14L574.3 443.15L574.16 443.17L574.02 443.18L573.88 443.2L573.74 443.21L573.6 443.22L573.46 443.24L573.32 443.25L573.18 443.26L573.03 443.28L572.89 443.29L572.74 443.3L572.6 443.31L572.45 443.33L572.31 443.34L572.16 443.35L572.01 443.36L571.86 443.38L571.71 443.39L571.56 443.4L571.41 443.41L571.26 443.42L571.1 443.43L570.95 443.44L570.8 443.45L570.64 443.46L570.49 443.47L562.13 443.33L562.14 443.25L562.36 441.6L562.52 439.96L562.62 438.33L562.67 436.71L562.67 435.11L562.61 433.51L562.5 431.94L562.34 430.38L562.13 428.84L561.87 427.32L561.55 425.82L561.19 424.35L560.78 422.9L560.32 421.48L559.81 420.08L559.25 418.72L558.65 417.39L558 416.1L557.3 414.84L556.56 413.62L555.78 412.44L554.95 411.3L554.08 410.2L553.16 409.14L552.2 408.13L551.2 407.17L550.16 406.25L549.08 405.39L547.96 404.58L546.8 403.83L545.6 403.13L544.36 402.48L543.09 401.9L541.78 401.37L540.44 400.92L539.08 400.54L537.73 400.23L536.36 399.99L534.99 399.81L533.62 399.71L532.24 399.67L530.87 399.69L529.49 399.78L528.12 399.93L526.75 400.15L525.38 400.42L524.03 400.76L522.68 401.16L521.34 401.62L520.01 402.13L518.7 402.7L517.39 403.33L516.11 404.02L514.84 404.75L513.59 405.55L512.36 406.39L511.15 407.29L509.97 408.24L508.81 409.23L507.68 410.28L506.57 411.37L505.49 412.52L504.45 413.71L503.43 414.94L502.45 416.22L501.5 417.54L500.59 418.91L499.72 420.31L498.89 421.76L498.1 423.25L497.35 424.78L496.64 426.34L495.98 427.95L495.37 429.59L494.81 431.24L494.3 432.9L493.86 434.56L493.48 436.21L493.15 437.87L492.88 439.52L492.67 441.17L492.57 442.18L476.43 441.91L501.98 277.07L585.37 277.07L625.48 331.15L611.11 418.51Z" id="b8qwWQCKS"></path><path d="M307.62 260.43L220.71 260.43" id="bNatYYZDs"></path><path d="M155.19 260.43L11.47 260.43" id="e8ho1Y3K"></path><path d="M138.81 312.56L51.91 312.56" id="gNcVbs573"></path><path d="M358.13 313.66L214.47 313.66" id="bg73TV4tU"></path><path d="M374.51 210.51L230.85 210.51" id="a1aAZxKd1w"></path><path d="M241.62 481.3C223.87 474.8 215.87 451.6 223.74 429.56C231.54 407.53 252.34 394.92 270.09 401.42C287.83 407.92 295.89 431.12 288.03 453.16C280.16 475.19 259.36 487.87 241.62 481.3Z" id="czmtShzm4"></path><path d="M513.31 481.37C495.56 474.87 487.5 451.66 495.37 429.63C503.23 407.53 523.97 394.92 541.78 401.42C559.52 407.98 567.52 431.19 559.65 453.22C551.79 475.26 531.05 487.87 513.31 481.37Z" id="a4igqb9TDF"></path></defs><g><g><g><g><use xlink:href="#c1ooAIWUGP" opacity="1" fill="#000000" fill-opacity="0"></use><g><use xlink:href="#c1ooAIWUGP" opacity="1" fill-opacity="0" stroke="#000000" stroke-width="10" stroke-opacity="1"></use></g></g><g><use xlink:href="#a4noNiaafi" opacity="1" fill="#000000" fill-opacity="0.01"></use><g><use xlink:href="#a4noNiaafi" opacity="1" fill-opacity="0" stroke="#000000" stroke-width="10" stroke-opacity="1"></use></g></g><g><use xlink:href="#d2uJbn9tkH" opacity="1" fill="#000000" fill-opacity="1"></use><g><use xlink:href="#d2uJbn9tkH" opacity="1" fill-opacity="0" stroke="#000000" stroke-width="10" stroke-opacity="1"></use></g></g><g><use xlink:href="#b8qwWQCKS" opacity="1" fill="#000000" fill-opacity="0"></use><g><use xlink:href="#b8qwWQCKS" opacity="1" fill-opacity="0" stroke="#000000" stroke-width="10" stroke-opacity="1"></use></g></g><g><use xlink:href="#bNatYYZDs" opacity="1" fill="#000000" fill-opacity="1"></use><g><use xlink:href="#bNatYYZDs" opacity="1" fill-opacity="0" stroke="#000000" stroke-width="10" stroke-opacity="1"></use></g></g><g><use xlink:href="#e8ho1Y3K" opacity="1" fill="#000000" fill-opacity="1"></use><g><use xlink:href="#e8ho1Y3K" opacity="1" fill-opacity="0" stroke="#000000" stroke-width="10" stroke-opacity="1"></use></g></g><g><use xlink:href="#gNcVbs573" opacity="1" fill="#000000" fill-opacity="1"></use><g><use xlink:href="#gNcVbs573" opacity="1" fill-opacity="0" stroke="#000000" stroke-width="10" stroke-opacity="1"></use></g></g><g><use xlink:href="#bg73TV4tU" opacity="1" fill="#000000" fill-opacity="1"></use><g><use xlink:href="#bg73TV4tU" opacity="1" fill-opacity="0" stroke="#000000" stroke-width="10" stroke-opacity="1"></use></g></g><g><use xlink:href="#a1aAZxKd1w" opacity="1" fill="#000000" fill-opacity="1"></use><g><use xlink:href="#a1aAZxKd1w" opacity="1" fill-opacity="0" stroke="#000000" stroke-width="10" stroke-opacity="1"></use></g></g><g><use xlink:href="#czmtShzm4" opacity="1" fill="#ffffff" fill-opacity="0"></use><g><use xlink:href="#czmtShzm4" opacity="1" fill-opacity="0" stroke="#000000" stroke-width="10" stroke-opacity="1"></use></g></g><g><use xlink:href="#a4igqb9TDF" opacity="1" fill="#ffffff" fill-opacity="0"></use><g><use xlink:href="#a4igqb9TDF" opacity="1" fill-opacity="0" stroke="#000000" stroke-width="10" stroke-opacity="1"></use></g></g></g></g></g></svg>
