<svg xmlns="http://www.w3.org/2000/svg" viewBox="0 0 670.91 120"><defs><style>.cls-1{fill:#fff;}</style></defs><g id="Layer_2" data-name="Layer 2"><g id="Layer_1-2" data-name="Layer 1"><path class="cls-1" d="M0,120V0H670.91V120ZM33.57,46.31l-.45,0c-.1-1.07-.14-2.14-.3-3.2-.7-4.47-1.2-9-2.25-13.39-.74-3.12-3.2-4.51-5.61-4s-3.62,2.61-3.47,5.75c.15,2.9.49,5.8.59,8.7.28,8.63.3,17.26.8,25.87a35.64,35.64,0,0,0,2.27,9.71c.81,2.27,3,3.39,5.5,3.3a5.64,5.64,0,0,0,5.13-3.5,41,41,0,0,0,1.89-5.67c1.83-6.55,3.53-13.14,5.47-19.66.62-2.1,1.85-4,3.08-6.64,1,1.83,1.69,3,2.2,4.17,1.56,3.77,3,7.6,4.59,11.36a29.35,29.35,0,0,0,3.1,6c2.91,3.9,8.17,3.23,10.1-1.24a35.65,35.65,0,0,0,1.44-5.51Q70.47,47,73.29,35.69c.44-1.76,1.06-3.49,1.36-5.27.4-2.29,0-4.47-2.4-5.54s-4.45,0-5.67,1.93a53.33,53.33,0,0,0-4.37,8.71c-1.23,3.15-2,6.5-3.09,10.28a38.91,38.91,0,0,0-2-4.06c-1.55-2.44-3-5.06-4.93-7.11a7.62,7.62,0,0,0-10.85-.53A25.58,25.58,0,0,0,36.6,40,53.51,53.51,0,0,0,33.57,46.31Zm202.31-14.6a6.65,6.65,0,0,0-1.08-2.45c-1-1-2.47-2.34-3.6-2.22s-2.13,1.8-2.91,3a5.56,5.56,0,0,0-.48,2.65c-.43,9.8-.93,19.6-1.15,29.41A26.75,26.75,0,0,0,227.75,71c2,6,5.15,9.17,11.6,8.17a51.26,51.26,0,0,0,12.5-3.59c12.12-5.27,17.9-15,18-28,.14-13.66-8.94-21.28-22.39-18.93C243.59,29.29,239.82,30.64,235.88,31.71ZM398.89,67c5.5-.68,10.86-1,16.08-2.09a33.25,33.25,0,0,0,9.48-3.81c1.07-.61,1.83-2.95,1.62-4.34-.31-2-2.42-2.22-4.21-2-2,.29-3.92.76-5.86,1.22-5.79,1.38-11.57,2.79-17.48,4.23-.33-3.1-.52-6-1-8.85-.28-1.74.34-2.38,1.92-2.88,4.06-1.31,8.12-2.66,12-4.31a23.45,23.45,0,0,0,5.68-3.66,3.91,3.91,0,0,0,1.2-4.91,4.1,4.1,0,0,0-4.49-2.36,16.34,16.34,0,0,0-2.4.44c-6.65,1.49-13.28,3-19.93,4.46-5.89,1.27-8.57,4.51-8.24,10.61.47,8.61,1,17.23,1.81,25.82a39.8,39.8,0,0,0,2.43,9.72c1.24,3.41,3.78,4.06,7,2.36a6,6,0,0,1,2.27-.56c7.14-.57,14.33-.76,21.4-1.77,3.77-.54,7.41-2.27,11-3.83a3.45,3.45,0,0,0,1.85-4.6c-.81-2.11-2.57-2.09-4.33-1.71-5.14,1.12-10.26,2.32-15.39,3.48l-13.67,3C398.09,75.81,398.49,71.4,398.89,67ZM498,45.8c-2-4.09-3.74-7.85-5.6-11.56-.81-1.61-1.53-3.43-2.8-4.6a4.87,4.87,0,0,0-4.07-1.1c-1.08.39-2.05,2.17-2.29,3.48a10.69,10.69,0,0,0,.67,4.51c1.5,5.22,2.69,10.58,4.83,15.53,1.08,2.51,3.71,4.59,6.09,6.21,1.46,1,3.77.73,5.8,1-.45,2.12-1,4.23-1.34,6.37-1.33,7.89-2.62,15.8-1.36,23.83.6,3.86,2.73,6,5.57,6s4.55-1.81,5-5.79c.89-8.48,1.52-17,2.11-25.51.25-3.48-.17-6.89-3.12-9.81a17.3,17.3,0,0,0,2.28-1.86c5.6-6.67,11.25-13.31,16.68-20.12a18.14,18.14,0,0,0,3.28-6.5c.37-1.37-.15-3.72-1.15-4.5a5.17,5.17,0,0,0-4.68-.07,29.7,29.7,0,0,0-5.76,4.91C512.37,32,506.68,37.7,500.94,43.39,500.19,44.14,499.3,44.75,498,45.8ZM94.29,74.31c-2.44-4.85-.91-8.52,3.93-10.12,2.93-1,5.87-1.93,8.72-3.09a63.66,63.66,0,0,0,7.59-3.63c1.65-.93,2.51-2.82,1.46-4.43-.66-1-2.45-1.37-3.81-1.75a5.27,5.27,0,0,0-2.4.34c-4.44,1.16-8.88,2.34-13.53,3.58.45-4,1-8,1.26-11.94a3.52,3.52,0,0,1,2.64-3.55c4.43-1.64,8.82-3.37,13.22-5.06,2-.76,3.26-2.12,3.12-4.3a4,4,0,0,0-3.62-3.85,15.59,15.59,0,0,0-5.93-.07c-5.85,1.58-11.65,3.41-17.39,5.37-2.72.93-4.07,3.25-4.36,6.1-.63,6.42-1.22,12.84-1.85,19.25a70.68,70.68,0,0,0,1.21,20.31c.69,3.57,1.16,4.63,4.6,4.34,9-.76,17.83-2.37,26.12-6.11a14.38,14.38,0,0,0,4.4-3.1,3.46,3.46,0,0,0,.46-3.17A3.76,3.76,0,0,0,117.25,68,15.19,15.19,0,0,0,113,69C106.76,70.73,100.5,72.53,94.29,74.31Zm240-9.66c3.67,2.69,6.87,5.22,10.25,7.48,6.1,4.08,12.42,7.65,20.24,6,1,1.94,2.15,3.62,4.61,3.15s3-2.4,3.45-4.41a8.11,8.11,0,0,0,.28-1.61c.45-11.34,1-22.68,1.26-34a44.81,44.81,0,0,0-.83-8.94,9.92,9.92,0,0,0-2.07-4.89,4.69,4.69,0,0,0-4.06-1c-.8.24-1.34,2.2-1.5,3.45-.26,2,0,4-.12,6q-.85,18-1.77,35.93a4.25,4.25,0,0,1-.36,1.08c-4.41-.06-7.94-2-11.09-4.71-3.33-2.82-6.43-5.89-9.67-8.81-3-2.72-6.22-5-10.71-4.82.27-3.18.62-6.14.73-9.11.07-2-.71-3.68-3-3.9s-3.42,1.39-3.71,3.27c-1.36,8.87-2.68,17.77-3.78,26.68-.57,4.56.56,6.61,3.15,7.15,2.77.58,4.53-1,5.94-5.4C332.48,70.51,333.33,67.76,334.32,64.65Zm-194.72.79c0-1.53,0-2.59,0-3.63.4-7.35.85-14.7,1.21-22.05a25.06,25.06,0,0,0-.27-5.68,4.25,4.25,0,0,0-4-3.85c-2.35-.14-3.71,1.32-4.32,3.43C129,45.16,126.81,56.87,127,68.84c.13,9.12,7,13.67,15.58,10.33,4.7-1.85,9.08-4.53,13.54-7a9.41,9.41,0,0,0,2.73-2.61c3-3.91,1.1-8.69-3.76-9A23.65,23.65,0,0,0,146.91,62,60.65,60.65,0,0,0,139.6,65.44Zm397.68-16c-.84.76-1.55,1.32-2.16,2-5.11,5.61-8.13,12-7.23,19.79.86,7.35,7,12.06,14.29,10.74,9.21-1.68,15.54-7.26,19-15.8,4.37-10.72-2.4-21.24-14-22a14.54,14.54,0,0,0-11.8,4.5ZM276.33,61.82c.07,11.35,8.11,17.73,17.39,14.41C302.8,73,308.46,66.4,310.29,56.9c1.35-7-2.37-13.22-8.82-16.54-5.06-2.6-14.62-.69-18.06,3.66A32.21,32.21,0,0,0,276.33,61.82Zm-103.1-.55c0-1.77,0-2.84,0-3.92.19-6,.57-12,.5-18a15.29,15.29,0,0,0-1.76-7c-.59-1.08-2.93-1.85-4.33-1.66a4.59,4.59,0,0,0-2.93,3,118.91,118.91,0,0,0-1.66,12.08c-.65,6.22-1.67,12.46-1.6,18.69.08,7,5.84,11.27,12.54,9.51,8.52-2.24,15.11-7.77,21-14.07.94-1,1.18-3.83.43-4.88a5.94,5.94,0,0,0-4.85-1.86c-2.43.34-4.79,1.59-7.06,2.68C180.23,57.5,177.08,59.26,173.23,61.27ZM598.32,39.94c3.36,1,4.61,2.49,5.48,6.48,2,8.95-3.59,18.18-12.81,21.29-5,1.68-8.16-.34-8.29-5.56-.09-3.25.43-6.51.64-9.77a44.83,44.83,0,0,0,.24-6.23c-.21-2.77-2.23-4.6-4.36-4.16a2.35,2.35,0,0,0-1.46,1.44c-.43,1.86-.46,3.81-.9,5.66-1.15,4.83-3.16,9.58-3.49,14.45-.67,10.15,8,17,17.81,14.33a28.28,28.28,0,0,0,19.69-17.34,19.38,19.38,0,0,0-.51-16.63A16,16,0,0,0,604.7,38,4.19,4.19,0,0,0,598.32,39.94Zm26.29-1.61.53,0c0,5-.4,10,.12,15,.48,4.55,1.9,9,3,13.48.48,2,1.68,1.89,2.57.38a20.09,20.09,0,0,0,2.39-5.44c3.28-14.33,4-28.93,4.37-43.56a9.82,9.82,0,0,0-.69-3.45A5,5,0,0,0,632,11.12a4.79,4.79,0,0,0-4.75,3.45,18.91,18.91,0,0,0-1.05,4.49C625.57,25.48,625.11,31.91,624.61,38.33ZM461.16,74.92c0-3.17-1.23-5.18-3.44-5.85-2.57-.77-4.47.32-5.79,2.42a23.47,23.47,0,0,0-2.31,4.62c-1.88,5.4-3.72,10.82-5.39,16.29-1.09,3.6-.45,6.41,1.26,7.24,1.89.91,4.53-.37,6.4-3.91,3-5.77,5.73-11.73,8.48-17.66A14,14,0,0,0,461.16,74.92ZM635.7,93.7c-2.4.27-5.12-.23-4.53,2.47a15,15,0,0,0,3.82,6.88c2,2,5.39,1.21,6.9-1A4.87,4.87,0,0,0,640,95,20.25,20.25,0,0,0,635.7,93.7Z"/><path d="M33.57,46.31a53.51,53.51,0,0,1,3-6.34,25.58,25.58,0,0,1,4.76-5.87,7.62,7.62,0,0,1,10.85.53c2,2,3.38,4.67,4.93,7.11a38.91,38.91,0,0,1,2,4.06C60.23,42,61,38.67,62.21,35.52a53.33,53.33,0,0,1,4.37-8.71c1.22-1.95,3.3-3,5.67-1.93s2.8,3.25,2.4,5.54c-.3,1.78-.92,3.51-1.36,5.27Q70.46,47,67.65,58.38a35.65,35.65,0,0,1-1.44,5.51C64.28,68.36,59,69,56.11,65.13a29.35,29.35,0,0,1-3.1-6c-1.6-3.76-3-7.59-4.59-11.36-.51-1.22-1.22-2.34-2.2-4.17-1.23,2.61-2.46,4.54-3.08,6.64-1.94,6.52-3.64,13.11-5.47,19.66a41,41,0,0,1-1.89,5.67A5.64,5.64,0,0,1,30.65,79c-2.49.09-4.69-1-5.5-3.3A35.64,35.64,0,0,1,22.88,66c-.5-8.61-.52-17.24-.8-25.87-.1-2.9-.44-5.8-.59-8.7-.15-3.14,1.16-5.24,3.47-5.75s4.87.86,5.61,4c1.05,4.39,1.55,8.92,2.25,13.39.16,1.06.2,2.13.3,3.2Z"/><path d="M235.88,31.71c3.94-1.07,7.71-2.42,11.61-3.1,13.45-2.35,22.53,5.27,22.39,18.93-.13,13-5.91,22.73-18,28a51.26,51.26,0,0,1-12.5,3.59c-6.45,1-9.62-2.18-11.6-8.17a26.75,26.75,0,0,1-1.09-8.88c.22-9.81.72-19.61,1.15-29.41a5.56,5.56,0,0,1,.48-2.65c.78-1.18,1.83-2.88,2.91-3s2.57,1.23,3.6,2.22A6.65,6.65,0,0,1,235.88,31.71Zm.35,39.13c6.93-1.43,15.14-7,18.68-12.63a22,22,0,0,0,3.47-12.42c-.1-5.13-2.3-7.44-7.32-6.7-4.06.6-8,2.26-12,3.36-1.81.5-2.28,1.51-2.24,3.37.13,6.27.07,12.54,0,18.8C236.8,66.68,236.45,68.73,236.23,70.84Z"/><path d="M398.89,67c-.4,4.45-.8,8.86-1.25,13.75l13.67-3c5.13-1.16,10.25-2.36,15.39-3.48,1.76-.38,3.52-.4,4.33,1.71a3.45,3.45,0,0,1-1.85,4.6c-3.55,1.56-7.19,3.29-11,3.83-7.07,1-14.26,1.2-21.4,1.77a6,6,0,0,0-2.27.56c-3.2,1.7-5.74,1-7-2.36a39.8,39.8,0,0,1-2.43-9.72c-.83-8.59-1.34-17.21-1.81-25.82-.33-6.1,2.35-9.34,8.24-10.61,6.65-1.44,13.28-3,19.93-4.46a16.34,16.34,0,0,1,2.4-.44,4.1,4.1,0,0,1,4.49,2.36,3.91,3.91,0,0,1-1.2,4.91,23.45,23.45,0,0,1-5.68,3.66c-3.92,1.65-8,3-12,4.31-1.58.5-2.2,1.14-1.92,2.88.45,2.86.64,5.75,1,8.85,5.91-1.44,11.69-2.85,17.48-4.23,1.94-.46,3.89-.93,5.86-1.22,1.79-.26,3.9,0,4.21,2,.21,1.39-.55,3.73-1.62,4.34A33.25,33.25,0,0,1,415,64.86C409.75,65.92,404.39,66.27,398.89,67Z"/><path d="M498,45.8c1.28-1,2.17-1.66,2.92-2.41,5.74-5.69,11.43-11.44,17.19-17.11a29.7,29.7,0,0,1,5.76-4.91,5.17,5.17,0,0,1,4.68.07c1,.78,1.52,3.13,1.15,4.5a18.14,18.14,0,0,1-3.28,6.5c-5.43,6.81-11.08,13.45-16.68,20.12a17.3,17.3,0,0,1-2.28,1.86c2.95,2.92,3.37,6.33,3.12,9.81-.59,8.51-1.22,17-2.11,25.51-.42,4-2.28,5.76-5,5.79s-5-2.15-5.57-6c-1.26-8,0-15.94,1.36-23.83.36-2.14.89-4.25,1.34-6.37-2-.32-4.34-.06-5.8-1-2.38-1.62-5-3.7-6.09-6.21-2.14-5-3.33-10.31-4.83-15.53a10.69,10.69,0,0,1-.67-4.51c.24-1.31,1.21-3.09,2.29-3.48a4.87,4.87,0,0,1,4.07,1.1c1.27,1.17,2,3,2.8,4.6C494.28,38,496,41.71,498,45.8Z"/><path d="M94.29,74.31C100.5,72.53,106.76,70.73,113,69a15.19,15.19,0,0,1,4.22-.94,3.76,3.76,0,0,1,2.88,1.41,3.46,3.46,0,0,1-.46,3.17,14.38,14.38,0,0,1-4.4,3.1c-8.29,3.74-17.12,5.35-26.12,6.11-3.44.29-3.91-.77-4.6-4.34a70.68,70.68,0,0,1-1.21-20.31c.63-6.41,1.22-12.83,1.85-19.25.29-2.85,1.64-5.17,4.36-6.1,5.74-2,11.54-3.79,17.39-5.37a15.59,15.59,0,0,1,5.93.07,4,4,0,0,1,3.62,3.85c.14,2.18-1.15,3.54-3.12,4.3-4.4,1.69-8.79,3.42-13.22,5.06a3.52,3.52,0,0,0-2.64,3.55c-.23,4-.81,7.91-1.26,11.94,4.65-1.24,9.09-2.42,13.53-3.58a5.27,5.27,0,0,1,2.4-.34c1.36.38,3.15.75,3.81,1.75,1.05,1.61.19,3.5-1.46,4.43a63.66,63.66,0,0,1-7.59,3.63c-2.85,1.16-5.79,2.13-8.72,3.09C93.38,65.79,91.85,69.46,94.29,74.31Z"/><path d="M334.32,64.65c-1,3.11-1.84,5.86-2.72,8.59-1.41,4.38-3.17,6-5.94,5.4-2.59-.54-3.72-2.59-3.15-7.15,1.1-8.91,2.42-17.81,3.78-26.68.29-1.88,1.46-3.48,3.71-3.27s3,1.93,3,3.9c-.11,3-.46,5.93-.73,9.11,4.49-.19,7.71,2.1,10.71,4.82,3.24,2.92,6.34,6,9.67,8.81,3.15,2.66,6.68,4.65,11.09,4.71a4.25,4.25,0,0,0,.36-1.08q.92-18,1.77-35.93c.09-2-.14-4,.12-6,.16-1.25.7-3.21,1.5-3.45a4.69,4.69,0,0,1,4.06,1,9.92,9.92,0,0,1,2.07,4.89,44.81,44.81,0,0,1,.83,8.94c-.3,11.34-.81,22.68-1.26,34a8.11,8.11,0,0,1-.28,1.61c-.46,2-1.09,3.95-3.45,4.41s-3.61-1.21-4.61-3.15c-7.82,1.65-14.14-1.92-20.24-6C341.19,69.87,338,67.34,334.32,64.65Z"/><path d="M139.6,65.44a60.65,60.65,0,0,1,7.31-3.4,23.65,23.65,0,0,1,8.16-1.45c4.86.31,6.72,5.09,3.76,9a9.41,9.41,0,0,1-2.73,2.61c-4.46,2.44-8.84,5.12-13.54,7C134,82.51,127.11,78,127,68.84c-.17-12,2-23.68,5.24-35.18.61-2.11,2-3.57,4.32-3.43a4.25,4.25,0,0,1,4,3.85,25.06,25.06,0,0,1,.27,5.68c-.36,7.35-.81,14.7-1.21,22.05C139.55,62.85,139.6,63.91,139.6,65.44Z"/><path d="M537.28,49.48l-1.86-.76a14.54,14.54,0,0,1,11.8-4.5c11.59.73,18.36,11.25,14,22-3.49,8.54-9.82,14.12-19,15.8-7.27,1.32-13.43-3.39-14.29-10.74-.9-7.75,2.12-14.18,7.23-19.79C535.73,50.8,536.44,50.24,537.28,49.48ZM549,50.66c-1.32,1.4-2.61,2.68-3.78,4.05-3.33,3.89-5.68,8.25-5.92,13.47-.13,2.93,1.08,3.83,3.9,3a16.11,16.11,0,0,0,9.58-8C555.72,57.79,554.56,53.91,549,50.66Z"/><path d="M276.33,61.82A32.21,32.21,0,0,1,283.41,44c3.44-4.35,13-6.26,18.06-3.66,6.45,3.32,10.17,9.57,8.82,16.54-1.83,9.5-7.49,16.09-16.57,19.33C284.44,79.55,276.4,73.17,276.33,61.82Zm16.61-18.45c-1.39,3-3.06,5.78-3.95,8.78a40.58,40.58,0,0,0-1.83,10.62c-.05,3.81,2,4.76,5.42,3.18a16.51,16.51,0,0,0,8.49-8.79C303.92,50.52,300.44,44.48,292.94,43.37Z"/><path d="M173.23,61.27c3.85-2,7-3.77,10.26-5.32,2.27-1.09,4.63-2.34,7.06-2.68a5.94,5.94,0,0,1,4.85,1.86c.75,1,.51,3.88-.43,4.88-5.86,6.3-12.45,11.83-21,14.07-6.7,1.76-12.46-2.5-12.54-9.51-.07-6.23.95-12.47,1.6-18.69a118.91,118.91,0,0,1,1.66-12.08,4.59,4.59,0,0,1,2.93-3c1.4-.19,3.74.58,4.33,1.66a15.29,15.29,0,0,1,1.76,7c.07,6-.31,12-.5,18C173.21,58.43,173.23,59.5,173.23,61.27Z"/><path d="M598.32,39.94A4.19,4.19,0,0,1,604.7,38a16,16,0,0,1,5.66,5.88,19.38,19.38,0,0,1,.51,16.63,28.28,28.28,0,0,1-19.69,17.34c-9.82,2.64-18.48-4.18-17.81-14.33.33-4.87,2.34-9.62,3.49-14.45.44-1.85.47-3.8.9-5.66A2.35,2.35,0,0,1,579.22,42c2.13-.44,4.15,1.39,4.36,4.16a44.83,44.83,0,0,1-.24,6.23c-.21,3.26-.73,6.52-.64,9.77.13,5.22,3.33,7.24,8.29,5.56,9.22-3.11,14.78-12.34,12.81-21.29C602.93,42.43,601.68,41,598.32,39.94Z"/><path d="M624.61,38.33c.5-6.42,1-12.85,1.54-19.27a18.91,18.91,0,0,1,1.05-4.49A4.79,4.79,0,0,1,632,11.12a5,5,0,0,1,4.94,3.62,9.82,9.82,0,0,1,.69,3.45c-.36,14.63-1.09,29.23-4.37,43.56a20.09,20.09,0,0,1-2.39,5.44c-.89,1.51-2.09,1.58-2.57-.38-1.09-4.47-2.51-8.93-3-13.48-.52-4.94-.12-10-.12-15Z"/><path d="M461.16,74.92a14,14,0,0,1-.79,3.15C457.62,84,454.93,90,451.89,95.73c-1.87,3.54-4.51,4.82-6.4,3.91-1.71-.83-2.35-3.64-1.26-7.24,1.67-5.47,3.51-10.89,5.39-16.29a23.47,23.47,0,0,1,2.31-4.62c1.32-2.1,3.22-3.19,5.79-2.42C459.93,69.74,461.21,71.75,461.16,74.92Z"/><path d="M635.7,93.7A20.25,20.25,0,0,1,640,95a4.87,4.87,0,0,1,1.91,7c-1.51,2.26-4.88,3.1-6.9,1a15,15,0,0,1-3.82-6.88C630.58,93.47,633.3,94,635.7,93.7Z"/><path class="cls-1" d="M236.23,70.84c.22-2.11.57-4.16.6-6.22.09-6.26.15-12.53,0-18.8,0-1.86.43-2.87,2.24-3.37,4-1.1,7.91-2.76,12-3.36,5-.74,7.22,1.57,7.32,6.7a22,22,0,0,1-3.47,12.42C251.37,63.83,243.16,69.41,236.23,70.84Z"/><path class="cls-1" d="M549,50.66c5.54,3.25,6.7,7.13,3.78,12.47a16.11,16.11,0,0,1-9.58,8c-2.82.87-4,0-3.9-3,.24-5.22,2.59-9.58,5.92-13.47C546.41,53.34,547.7,52.06,549,50.66Z"/><path class="cls-1" d="M292.94,43.37c7.5,1.11,11,7.15,8.13,13.79A16.51,16.51,0,0,1,292.58,66c-3.46,1.58-5.47.63-5.42-3.18A40.58,40.58,0,0,1,289,52.15C289.88,49.15,291.55,46.38,292.94,43.37Z"/></g></g></svg>